<svg width="118" height="118" viewBox="0 0 118 118" fill="none" xmlns="http://www.w3.org/2000/svg">
<path d="M78.2169 15.4486H72.7394L78.4357 21.6301V24.5728H66.7034V21.1271H72.3989L66.7034 14.9457V12H78.2169V15.4486ZM64.3771 15.4486H58.8996L64.5959 21.6301V24.5728H52.8628V21.1271H58.5591L52.8628 14.9457V12H64.3771V15.4486ZM50.673 15.5896H44.7624V20.9832H50.673V24.5728H40.5608V12H50.673V15.5896Z" fill="#131313"/>
<path d="M32.5064 97.6774L26.5 30.3121H92.4959L86.4844 97.6663L59.4575 105.16L32.5064 97.6774Z" fill="#1572B6"/>
<path d="M59.499 99.4325L81.3369 93.3779L86.4747 35.8207H59.499V99.4325Z" fill="#33A9DC"/>
<path d="M59.4983 60.2268H70.431L71.1869 51.7665H59.4983V43.5043H80.2161L80.018 45.7208L77.9877 68.4882H59.4983V60.2268Z" fill="white"/>
<path d="M59.548 81.6842L59.5116 81.6946L50.3103 79.2095L49.7213 72.6201H41.4287L42.5867 85.5928L59.5101 90.2906L59.5487 90.2795L59.548 81.6842Z" fill="#EBEBEB"/>
<path d="M69.7292 68.1389L68.7337 79.2036L59.519 81.6908V90.2868L76.4566 85.5927L76.5812 84.1966L78.0189 68.1389H69.7292Z" fill="white"/>
<path d="M59.5271 43.5043V51.7658H39.5704L39.4042 49.9091L39.0281 45.7208L38.8301 43.5043H59.5271ZM59.4982 60.2275V68.4897H50.4133L50.2479 66.633L49.8711 62.444L49.673 60.2275H59.4982Z" fill="#EBEBEB"/>
</svg>
