<svg width="118" height="118" viewBox="0 0 118 118" fill="none" xmlns="http://www.w3.org/2000/svg">
<path d="M66.3554 37.854H74.7825V46.4686H79.0435C81.0111 46.4686 83.0351 46.1181 84.8985 45.4867C85.8142 45.1762 86.8419 44.7441 87.7451 44.2007C86.5555 42.6476 85.9482 40.6864 85.7693 38.7533C85.5266 36.124 86.0569 32.7017 87.8365 30.6438L88.7223 29.6192L89.7779 30.4677C92.4356 32.603 94.6707 35.5865 95.0647 38.9878C98.2648 38.0465 102.022 38.2691 104.843 39.8971L106 40.5648L105.391 41.7536C103.005 46.4096 98.0181 47.8518 93.1422 47.5966C85.8461 65.7689 69.9617 74.3722 50.7018 74.3722C40.7516 74.3722 31.6224 70.6526 26.4239 61.8245C26.1191 61.2761 25.8581 60.7027 25.5813 60.1394C23.824 56.2535 23.2404 51.9964 23.6363 47.7429L23.7551 46.4688H30.9612V37.8542H39.3883V29.4271H56.2425V21H66.3552L66.3554 37.854Z" fill="#394D54"/>
<mask id="mask0_17_516" style="mask-type:luminance" maskUnits="userSpaceOnUse" x="24" y="21" width="81" height="52">
<path d="M40.0092 21.7369V38.6899H31.9013V47.1664H25.113C25.0842 47.4117 25.0609 47.6576 25.0372 47.9035C24.6129 52.5217 25.4192 56.7808 27.2715 60.4224L27.8934 61.5396C28.2661 62.2091 28.701 62.8379 29.1603 63.4514C29.619 64.0641 29.7815 64.4032 30.0701 64.8104C34.9675 70.3149 42.2682 72.9644 50.697 72.9644C69.3631 72.9644 85.2048 64.695 92.2157 46.1184C97.1898 46.6288 101.961 45.3533 104.136 41.1085C100.672 39.1096 96.22 39.7503 93.6553 41.0394L100.45 21.7369L73.9152 38.6899H65.4387V21.7369H40.0092Z" fill="white"/>
</mask>
<g mask="url(#mask0_17_516)">
<path d="M57.6472 22.4041H64.9508V29.7079H57.6472V22.4041Z" fill="#20C2EF"/>
<path d="M58.5442 29.0992V23.0125ZM59.6394 29.0992V23.0125ZM60.7457 29.0992V23.0125ZM61.8526 29.0992V23.0125ZM62.9594 29.0992V23.0125ZM64.0544 29.0992V23.0125Z" fill="black"/>
<path d="M58.5442 29.0992V23.0125M59.6394 29.0992V23.0125M60.7457 29.0992V23.0125M61.8526 29.0992V23.0125M62.9594 29.0992V23.0125M64.0544 29.0992V23.0125" stroke="#394D54" stroke-width="0.574927"/>
<path d="M66.0745 29.7076H73.3781V22.4042H66.0745V29.7076Z" fill="#00ACD3"/>
<path d="M66.9714 23.0127V29.0995ZM68.0667 23.0127V29.0995ZM69.173 23.0127V29.0995ZM70.2799 23.0127V29.0995ZM71.3866 23.0127V29.0995ZM72.4817 23.0127V29.0995Z" fill="black"/>
<path d="M66.9714 23.0127V29.0995M68.0667 23.0127V29.0995M69.173 23.0127V29.0995M70.2799 23.0127V29.0995M71.3866 23.0127V29.0995M72.4817 23.0127V29.0995" stroke="#394D54" stroke-width="0.574927"/>
<path d="M23.939 30.8318H31.2426V38.1353H23.939V30.8318Z" fill="#00ACD3"/>
<path d="M23.939 39.2583H31.2426V46.5621H23.939V39.2583Z" fill="#20C2EF"/>
<path d="M24.8359 37.5263V31.4396ZM25.9312 37.5263V31.4396ZM27.0375 37.5263V31.4396ZM28.1444 37.5263V31.4396ZM29.2511 37.5263V31.4396ZM30.3462 37.5263V31.4396Z" fill="black"/>
<path d="M24.8359 37.5263V31.4396M25.9312 37.5263V31.4396M27.0375 37.5263V31.4396M28.1444 37.5263V31.4396M29.2511 37.5263V31.4396M30.3462 37.5263V31.4396" stroke="#394D54" stroke-width="0.574927"/>
<path d="M24.8359 45.9535V39.8667ZM25.9312 45.9535V39.8667ZM27.0375 45.9535V39.8667ZM28.1444 45.9535V39.8667ZM29.2511 45.9535V39.8667ZM30.3462 45.9535V39.8667Z" fill="black"/>
<path d="M24.8359 45.9535V39.8667M25.9312 45.9535V39.8667M27.0375 45.9535V39.8667M28.1444 45.9535V39.8667M29.2511 45.9535V39.8667M30.3462 45.9535V39.8667" stroke="#394D54" stroke-width="0.574927"/>
<path d="M32.366 46.5618H39.6696V39.2584H32.366V46.5618Z" fill="#00ACD3"/>
<path d="M32.366 38.135H39.6696V30.8312H32.366V38.135Z" fill="#20C2EF"/>
<path d="M33.2629 39.867V45.9537ZM34.3582 39.867V45.9537ZM35.4645 39.867V45.9537ZM36.5714 39.867V45.9537ZM37.6781 39.867V45.9537ZM38.7732 39.867V45.9537Z" fill="black"/>
<path d="M33.2629 39.867V45.9537M34.3582 39.867V45.9537M35.4645 39.867V45.9537M36.5714 39.867V45.9537M37.6781 39.867V45.9537M38.7732 39.867V45.9537" stroke="#394D54" stroke-width="0.574927"/>
<path d="M33.2629 31.4398V37.5266ZM34.3582 31.4398V37.5266ZM35.4645 31.4398V37.5266ZM36.5714 31.4398V37.5266ZM37.6781 31.4398V37.5266ZM38.7732 31.4398V37.5266Z" fill="black"/>
<path d="M33.2629 31.4398V37.5266M34.3582 31.4398V37.5266M35.4645 31.4398V37.5266M36.5714 31.4398V37.5266M37.6781 31.4398V37.5266M38.7732 31.4398V37.5266" stroke="#394D54" stroke-width="0.574927"/>
<path d="M40.793 30.8318H48.0966V38.1353H40.793V30.8318Z" fill="#00ACD3"/>
<path d="M40.793 39.2583H48.0966V46.5621H40.793V39.2583Z" fill="#20C2EF"/>
<path d="M41.6899 37.5263V31.4396ZM42.7852 37.5263V31.4396ZM43.8915 37.5263V31.4396ZM44.9984 37.5263V31.4396ZM46.1051 37.5263V31.4396ZM47.2002 37.5263V31.4396Z" fill="black"/>
<path d="M41.6899 37.5263V31.4396M42.7852 37.5263V31.4396M43.8915 37.5263V31.4396M44.9984 37.5263V31.4396M46.1051 37.5263V31.4396M47.2002 37.5263V31.4396" stroke="#394D54" stroke-width="0.574927"/>
<path d="M41.6899 45.9535V39.8667ZM42.7852 45.9535V39.8667ZM43.8915 45.9535V39.8667ZM44.9984 45.9535V39.8667ZM46.1051 45.9535V39.8667ZM47.2002 45.9535V39.8667Z" fill="black"/>
<path d="M41.6899 45.9535V39.8667M42.7852 45.9535V39.8667M43.8915 45.9535V39.8667M44.9984 45.9535V39.8667M46.1051 45.9535V39.8667M47.2002 45.9535V39.8667" stroke="#394D54" stroke-width="0.574927"/>
<path d="M49.2202 46.5618H56.5238V39.2584H49.2202V46.5618Z" fill="#00ACD3"/>
<path d="M49.2202 38.135H56.5238V30.8312H49.2202V38.135Z" fill="#20C2EF"/>
<path d="M50.1172 39.867V45.9537ZM51.2124 39.867V45.9537ZM52.3187 39.867V45.9537ZM53.4256 39.867V45.9537ZM54.5324 39.867V45.9537ZM55.6274 39.867V45.9537Z" fill="black"/>
<path d="M50.1172 39.867V45.9537M51.2124 39.867V45.9537M52.3187 39.867V45.9537M53.4256 39.867V45.9537M54.5324 39.867V45.9537M55.6274 39.867V45.9537" stroke="#394D54" stroke-width="0.574927"/>
<path d="M50.1172 31.4398V37.5266ZM51.2124 31.4398V37.5266ZM52.3187 31.4398V37.5266ZM53.4256 31.4398V37.5266ZM54.5324 31.4398V37.5266ZM55.6274 31.4398V37.5266Z" fill="black"/>
<path d="M50.1172 31.4398V37.5266M51.2124 31.4398V37.5266M52.3187 31.4398V37.5266M53.4256 31.4398V37.5266M54.5324 31.4398V37.5266M55.6274 31.4398V37.5266" stroke="#394D54" stroke-width="0.574927"/>
<path d="M57.6472 30.8318H64.9508V38.1353H57.6472V30.8318Z" fill="#00ACD3"/>
<path d="M57.6472 39.2583H64.9508V46.5621H57.6472V39.2583Z" fill="#20C2EF"/>
<path d="M58.5442 37.5263V31.4396ZM59.6394 37.5263V31.4396ZM60.7457 37.5263V31.4396ZM61.8526 37.5263V31.4396ZM62.9594 37.5263V31.4396ZM64.0544 37.5263V31.4396Z" fill="black"/>
<path d="M58.5442 37.5263V31.4396M59.6394 37.5263V31.4396M60.7457 37.5263V31.4396M61.8526 37.5263V31.4396M62.9594 37.5263V31.4396M64.0544 37.5263V31.4396" stroke="#394D54" stroke-width="0.574927"/>
<path d="M58.5442 45.9535V39.8667ZM59.6394 45.9535V39.8667ZM60.7457 45.9535V39.8667ZM61.8526 45.9535V39.8667ZM62.9594 45.9535V39.8667ZM64.0544 45.9535V39.8667Z" fill="black"/>
<path d="M58.5442 45.9535V39.8667M59.6394 45.9535V39.8667M60.7457 45.9535V39.8667M61.8526 45.9535V39.8667M62.9594 45.9535V39.8667M64.0544 45.9535V39.8667" stroke="#394D54" stroke-width="0.574927"/>
<path d="M66.0745 46.5618H73.3781V39.2584H66.0745V46.5618Z" fill="#00ACD3"/>
<path d="M66.0745 38.135H73.3781V30.8312H66.0745V38.135Z" fill="#20C2EF"/>
<path d="M66.9714 39.867V45.9537ZM68.0667 39.867V45.9537ZM69.173 39.867V45.9537ZM70.2799 39.867V45.9537ZM71.3866 39.867V45.9537ZM72.4817 39.867V45.9537Z" fill="black"/>
<path d="M66.9714 39.867V45.9537M68.0667 39.867V45.9537M69.173 39.867V45.9537M70.2799 39.867V45.9537M71.3866 39.867V45.9537M72.4817 39.867V45.9537" stroke="#394D54" stroke-width="0.574927"/>
<path d="M66.9714 31.4398V37.5266ZM68.0667 31.4398V37.5266ZM69.173 31.4398V37.5266ZM70.2799 31.4398V37.5266ZM71.3866 31.4398V37.5266ZM72.4817 31.4398V37.5266Z" fill="black"/>
<path d="M66.9714 31.4398V37.5266M68.0667 31.4398V37.5266M69.173 31.4398V37.5266M70.2799 31.4398V37.5266M71.3866 31.4398V37.5266M72.4817 31.4398V37.5266" stroke="#394D54" stroke-width="0.574927"/>
</g>
<mask id="mask1_17_516" style="mask-type:luminance" maskUnits="userSpaceOnUse" x="24" y="21" width="81" height="52">
<path d="M40.0092 21.7369V38.6899H31.9013V47.1664H25.113C25.0842 47.4117 25.0609 47.6576 25.0372 47.9035C24.6129 52.5217 25.4192 56.7808 27.2715 60.4224L27.8934 61.5396C28.2661 62.2091 28.701 62.8379 29.1603 63.4514C29.619 64.0641 29.7815 64.4032 30.0701 64.8104C34.9675 70.3149 42.2682 72.9644 50.697 72.9644C69.3631 72.9644 85.2048 64.695 92.2157 46.1184C97.1898 46.6288 101.961 45.3533 104.136 41.1085C100.672 39.1096 96.22 39.7503 93.6553 41.0394L100.45 21.7369L73.9152 38.6899H65.4387V21.7369H40.0092Z" fill="white"/>
</mask>
<g mask="url(#mask1_17_516)">
<path d="M93.6583 41.0411C94.2234 36.6498 90.937 33.2005 88.8989 31.5628C86.5503 34.2781 86.1853 41.3946 89.87 44.3908C87.8137 46.2174 83.4805 47.873 79.0438 47.873H24.5306C24.0992 52.5045 24.5306 74.8072 24.5306 74.8072H104.504L104.141 41.1135C100.677 39.1146 96.223 39.752 93.6583 41.0411Z" fill="#17B5EB"/>
</g>
<mask id="mask2_17_516" style="mask-type:luminance" maskUnits="userSpaceOnUse" x="24" y="21" width="81" height="52">
<path d="M40.0092 21.7369V38.6899H31.9013V47.1664H25.113C25.0842 47.4117 25.0609 47.6576 25.0372 47.9035C24.6129 52.5217 25.4192 56.7808 27.2715 60.4224L27.8934 61.5396C28.2661 62.2091 28.701 62.8379 29.1603 63.4514C29.619 64.0641 29.7815 64.4032 30.0701 64.8104C34.9675 70.3149 42.2682 72.9644 50.697 72.9644C69.3631 72.9644 85.2048 64.695 92.2157 46.1184C97.1898 46.6288 101.961 45.3533 104.136 41.1085C100.672 39.1096 96.22 39.7503 93.6553 41.0394L100.45 21.7369L73.9152 38.6899H65.4387V21.7369H40.0092Z" fill="white"/>
</mask>
<g mask="url(#mask2_17_516)">
<path d="M24.5305 53.8002V74.8071H104.504V53.8002" fill="black" fill-opacity="0.17"/>
</g>
<mask id="mask3_17_516" style="mask-type:luminance" maskUnits="userSpaceOnUse" x="24" y="21" width="81" height="52">
<path d="M40.0092 21.7369V38.6899H31.9013V47.1664H25.113C25.0842 47.4117 25.0609 47.6576 25.0372 47.9035C24.6129 52.5217 25.4192 56.7808 27.2715 60.4224L27.8934 61.5396C28.2661 62.2091 28.701 62.8379 29.1603 63.4514C29.619 64.0641 29.7815 64.4032 30.0701 64.8104C34.9675 70.3149 42.2682 72.9644 50.697 72.9644C69.3631 72.9644 85.2048 64.695 92.2157 46.1184C97.1898 46.6288 101.961 45.3533 104.136 41.1085C100.672 39.1096 96.22 39.7503 93.6553 41.0394L100.45 21.7369L73.9152 38.6899H65.4387V21.7369H40.0092Z" fill="white"/>
</mask>
<g mask="url(#mask3_17_516)">
<path d="M52.9958 72.9239C48.0059 70.556 45.2668 67.3371 43.7429 63.823L28.5845 64.488L36.3239 74.8072L52.9958 72.9239Z" fill="#D4EDF1"/>
</g>
<mask id="mask4_17_516" style="mask-type:luminance" maskUnits="userSpaceOnUse" x="24" y="21" width="81" height="52">
<path d="M40.0092 21.7369V38.6899H31.9013V47.1664H25.113C25.0842 47.4117 25.0609 47.6576 25.0372 47.9035C24.6129 52.5217 25.4192 56.7808 27.2715 60.4224L27.8934 61.5396C28.2661 62.2091 28.701 62.8379 29.1603 63.4514C29.619 64.0641 29.7815 64.4032 30.0701 64.8104C34.9675 70.3149 42.2682 72.9644 50.697 72.9644C69.3631 72.9644 85.2048 64.695 92.2157 46.1184C97.1898 46.6288 101.961 45.3533 104.136 41.1085C100.672 39.1096 96.22 39.7503 93.6553 41.0394L100.45 21.7369L73.9152 38.6899H65.4387V21.7369H40.0092Z" fill="white"/>
</mask>
<g mask="url(#mask4_17_516)">
<path d="M94.0009 40.8781V40.8897C86.3126 50.7995 75.2851 59.4564 63.4464 64.0042C52.8858 68.061 43.6783 68.0804 37.3259 64.8219C36.6418 64.4356 35.9712 64.0069 35.2989 63.6011C30.6417 60.3461 28.0185 54.9619 28.239 47.8689H24.5305V74.8071H104.504V39.427H95.2908L94.0009 40.8781Z" fill="black" fill-opacity="0.085"/>
</g>
<path d="M28.8147 64.1308C34.0352 64.4166 39.6065 64.4678 44.4663 62.9446" stroke="#394D54" stroke-width="1.25305" stroke-linecap="round"/>
<path d="M49.6542 60.4188C49.6542 61.5315 48.7522 62.4335 47.6396 62.4335C46.5267 62.4335 45.6245 61.5315 45.6245 60.4188C45.6245 59.3062 46.5267 58.4038 47.6396 58.4038C48.7522 58.4038 49.6542 59.3062 49.6542 60.4188Z" fill="#D4EDF1"/>
<path d="M48.162 59.0732C47.9861 59.1748 47.8671 59.3653 47.8671 59.5832C47.8671 59.9085 48.1308 60.1718 48.4561 60.1718C48.6789 60.1718 48.8725 60.048 48.9726 59.8652C49.0433 60.0356 49.0826 60.2227 49.0826 60.4189C49.0826 61.2157 48.4365 61.8617 47.6395 61.8617C46.8427 61.8617 46.1963 61.2157 46.1963 60.4189C46.1963 59.6217 46.8427 58.9755 47.6395 58.9755C47.8239 58.9755 47.9997 59.0102 48.162 59.0732Z" fill="#394D54"/>
<path d="M12 54.2285H105.731C103.69 53.7108 99.2733 53.0115 100.002 50.3368C96.2908 54.631 87.3412 53.3494 85.0826 51.2319C82.5674 54.8799 67.9253 53.4933 66.904 50.6514C63.7509 54.3519 53.9803 54.3519 50.8269 50.6514C49.8053 53.4933 35.1634 54.8799 32.648 51.2319C30.3894 53.3494 21.4406 54.631 17.7293 50.3368C18.4576 53.0115 14.0413 53.7108 12 54.2285Z" fill="#394D54"/>
<path d="M40.5669 81.2667V93H38.6693V91.9089C38.3425 92.3095 37.9367 92.6099 37.4517 92.8102C36.9773 93.0105 36.4502 93.1107 35.8704 93.1107C35.0587 93.1107 34.326 92.9315 33.6724 92.573C33.0293 92.2146 32.5233 91.7086 32.1544 91.055C31.7854 90.3908 31.6009 89.6318 31.6009 88.7779C31.6009 87.924 31.7854 87.1702 32.1544 86.5166C32.5233 85.863 33.0293 85.357 33.6724 84.9986C34.326 84.6402 35.0587 84.4609 35.8704 84.4609C36.4292 84.4609 36.9404 84.5558 37.4043 84.7456C37.8681 84.9353 38.2635 85.22 38.5903 85.5995V81.2667H40.5669ZM36.1076 91.4187C36.582 91.4187 37.009 91.3133 37.3885 91.1024C37.768 90.881 38.0684 90.5701 38.2898 90.1695C38.5112 89.7689 38.6219 89.305 38.6219 88.7779C38.6219 88.2508 38.5112 87.787 38.2898 87.3864C38.0684 86.9858 37.768 86.68 37.3885 86.4692C37.009 86.2478 36.582 86.1371 36.1076 86.1371C35.6332 86.1371 35.2063 86.2478 34.8268 86.4692C34.4473 86.68 34.1468 86.9858 33.9254 87.3864C33.704 87.787 33.5933 88.2508 33.5933 88.7779C33.5933 89.305 33.704 89.7689 33.9254 90.1695C34.1468 90.5701 34.4473 90.881 34.8268 91.1024C35.2063 91.3133 35.6332 91.4187 36.1076 91.4187ZM46.9479 93.1107C46.094 93.1107 45.3244 92.9262 44.6391 92.5572C43.9539 92.1883 43.4163 91.677 43.0262 91.0234C42.6467 90.3592 42.4569 89.6107 42.4569 88.7779C42.4569 87.9451 42.6467 87.2019 43.0262 86.5483C43.4163 85.8947 43.9539 85.3834 44.6391 85.0144C45.3244 84.6454 46.094 84.4609 46.9479 84.4609C47.8123 84.4609 48.5871 84.6454 49.2724 85.0144C49.9576 85.3834 50.49 85.8947 50.8695 86.5483C51.2596 87.2019 51.4546 87.9451 51.4546 88.7779C51.4546 89.6107 51.2596 90.3592 50.8695 91.0234C50.49 91.677 49.9576 92.1883 49.2724 92.5572C48.5871 92.9262 47.8123 93.1107 46.9479 93.1107ZM46.9479 91.4187C47.6753 91.4187 48.2762 91.1762 48.7505 90.6913C49.2249 90.2064 49.4621 89.5686 49.4621 88.7779C49.4621 87.9873 49.2249 87.3495 48.7505 86.8645C48.2762 86.3796 47.6753 86.1371 46.9479 86.1371C46.2205 86.1371 45.6196 86.3796 45.1452 86.8645C44.6813 87.3495 44.4494 87.9873 44.4494 88.7779C44.4494 89.5686 44.6813 90.2064 45.1452 90.6913C45.6196 91.1762 46.2205 91.4187 46.9479 91.4187ZM57.2189 93.1107C56.344 93.1107 55.5586 92.9262 54.8628 92.5572C54.167 92.1883 53.6241 91.677 53.234 91.0234C52.844 90.3592 52.649 89.6107 52.649 88.7779C52.649 87.9451 52.844 87.2019 53.234 86.5483C53.6241 85.8947 54.1618 85.3834 54.847 85.0144C55.5428 84.6454 56.3334 84.4609 57.2189 84.4609C58.0518 84.4609 58.7792 84.6296 59.4012 84.967C60.0337 85.3043 60.5081 85.7892 60.8243 86.4218L59.3063 87.3073C59.0638 86.9172 58.7581 86.6273 58.3891 86.4376C58.0307 86.2373 57.6354 86.1371 57.2031 86.1371C56.4652 86.1371 55.8537 86.3796 55.3688 86.8645C54.8839 87.3389 54.6414 87.9767 54.6414 88.7779C54.6414 89.5791 54.8786 90.2222 55.353 90.7071C55.8379 91.1815 56.4546 91.4187 57.2031 91.4187C57.6354 91.4187 58.0307 91.3238 58.3891 91.1341C58.7581 90.9338 59.0638 90.6386 59.3063 90.2485L60.8243 91.1341C60.4975 91.7666 60.0179 92.2568 59.3853 92.6047C58.7634 92.942 58.0412 93.1107 57.2189 93.1107ZM65.903 89.3788L64.4324 90.7704V93H62.4558V81.2667H64.4324V88.351L68.528 84.5558H70.9L67.3737 88.0979L71.2321 93H68.8285L65.903 89.3788ZM80.0918 88.8253C80.0918 88.9624 80.0813 89.1574 80.0602 89.4104H73.4345C73.5505 90.0324 73.8509 90.5279 74.3359 90.8969C74.8313 91.2553 75.4428 91.4345 76.1702 91.4345C77.0979 91.4345 77.8622 91.1288 78.4631 90.5173L79.5225 91.735C79.143 92.1883 78.6634 92.5309 78.0836 92.7628C77.5037 92.9947 76.8501 93.1107 76.1227 93.1107C75.195 93.1107 74.378 92.9262 73.6717 92.5572C72.9654 92.1883 72.4172 91.677 72.0272 91.0234C71.6476 90.3592 71.4579 89.6107 71.4579 88.7779C71.4579 87.9556 71.6424 87.2177 72.0113 86.5641C72.3909 85.8999 72.9127 85.3834 73.5768 85.0144C74.241 84.6454 74.9895 84.4609 75.8223 84.4609C76.6446 84.4609 77.3772 84.6454 78.0203 85.0144C78.6739 85.3728 79.1799 85.8841 79.5384 86.5483C79.9073 87.2019 80.0918 87.9609 80.0918 88.8253ZM75.8223 86.0422C75.1898 86.0422 74.6521 86.232 74.2094 86.6115C73.7771 86.9805 73.5136 87.476 73.4187 88.0979H78.2101C78.1257 87.4865 77.8674 86.991 77.4352 86.6115C77.003 86.232 76.4654 86.0422 75.8223 86.0422ZM83.8723 85.7892C84.4415 84.9037 85.443 84.4609 86.8767 84.4609V86.3427C86.7081 86.3111 86.5552 86.2953 86.4182 86.2953C85.6486 86.2953 85.0477 86.5219 84.6155 86.9752C84.1832 87.418 83.9671 88.061 83.9671 88.9044V93H81.9905V84.5558H83.8723V85.7892Z" fill="#119BCA"/>
</svg>
