<svg width="119" height="118" viewBox="0 0 119 118" fill="none" xmlns="http://www.w3.org/2000/svg">
<path d="M51.9766 55.2405C52.2324 55.0749 52.4848 54.9027 52.7407 54.7371C52.4848 54.9027 52.2324 55.0716 51.9766 55.2405Z" fill="black"/>
<path d="M57.7315 51.5737C57.9498 51.4346 58.1102 51.2292 58.042 50.9377C58.1102 51.2259 57.9498 51.4313 57.7315 51.5737C57.5951 51.6599 57.4484 51.7294 57.3119 51.8155C55.7871 52.7894 54.2622 53.7632 52.7407 54.7371C54.2622 53.7632 55.7871 52.7861 57.3153 51.8155C57.4518 51.7294 57.5985 51.6565 57.7315 51.5737Z" fill="black"/>
<path d="M44.9799 47.6054C45.6486 47.3106 46.2728 46.9429 46.8766 46.5421C46.8289 46.6548 46.7982 46.7806 46.7299 46.88C46.6276 47.0257 46.5321 47.1682 46.4366 47.3172C46.5321 47.1715 46.6276 47.0224 46.7299 46.88C46.7982 46.7806 46.8289 46.6548 46.8766 46.5421C47.2314 46.1513 47.5862 45.7604 47.9376 45.3629C48.2275 45.0317 48.5277 44.7137 48.8382 44.4089C46.2217 45.8763 43.6052 47.3404 40.9921 48.8078C41.0535 48.7979 41.1149 48.7846 41.1763 48.7747C42.4896 48.5329 43.7655 48.1387 44.9799 47.6054Z" fill="black"/>
<path d="M54.4463 47.1384C54.9512 47.1847 55.3025 47.6783 55.3094 48.1155C55.3059 47.6783 54.9478 47.1847 54.4463 47.1384Z" fill="black"/>
<path d="M37.7819 53.2299C37.7819 53.2526 37.7786 53.2752 37.7786 53.3011C37.7819 53.2784 37.7819 53.2558 37.7819 53.2299Z" fill="black"/>
<path d="M54.2792 47.1384C53.73 47.0821 53.2593 47.473 53.1876 48.1255C53.1842 48.1586 53.1842 48.1885 53.1842 48.2216C53.1842 48.1918 53.1842 48.1586 53.1876 48.1255C53.2627 47.473 53.73 47.0854 54.2792 47.1384Z" fill="black"/>
<path d="M58.8743 85.1318C60.5561 84.6846 62.2617 84.3202 64.0015 84.0353L65.4889 83.2039C65.8334 82.664 66.1302 82.0512 66.2189 81.4384C66.2598 81.1569 66.3383 80.9813 66.4475 80.8885L60.8665 84.0155L58.8743 85.1318Z" fill="black"/>
<path d="M96.1875 54.2899L96.8629 54.2799L97.9375 56.0223L96.9619 57.7249C98.5925 56.8106 100.223 55.8964 101.854 54.9822V51.1133C100.806 51.6996 99.7592 52.2859 98.7119 52.8755C97.8727 53.3458 97.0301 53.8162 96.1875 54.2899Z" fill="black"/>
<path d="M69.1425 92.8662C68.832 93.2207 68.5216 93.5685 68.2043 93.9163C69.3335 93.2836 70.4592 92.6509 71.585 92.0183C71.4997 92.0017 71.4178 91.9884 71.3325 91.9752C70.4422 91.8593 69.7702 92.1507 69.1425 92.8662Z" fill="black"/>
<path d="M40.7464 46.2407L40.7327 46.2142L38.0105 47.7379C38.0105 47.7479 38.0105 47.7578 38.007 47.7678C38.0002 47.8671 37.9968 47.9599 37.99 48.0592C39.0612 47.4597 40.1323 46.8602 41.2035 46.2573L40.7464 46.2407Z" fill="black"/>
<path d="M86.9872 57.0425C86.6904 57.3538 86.397 57.6685 86.1002 57.9832C89.109 56.2972 92.1212 54.6078 95.1301 52.9218C97.3713 51.6664 99.6126 50.4077 101.854 49.1523V48.205L88.0345 55.9527C87.6831 56.3137 87.3351 56.6781 86.9872 57.0425Z" fill="black"/>
<path d="M93.1447 42.5408C93.2641 42.7064 93.3937 42.8687 93.4995 43.0442C93.8235 43.5577 94.1408 44.0744 94.4581 44.5911C94.6184 44.8528 94.6184 44.8594 94.3352 45.0184C93.8406 45.2934 93.3391 45.565 92.8445 45.8366C92.575 45.9857 92.3021 46.1314 92.036 46.2871C91.8859 46.3732 91.746 46.4097 91.5755 46.3401C91.3947 46.2672 91.207 46.2175 91.0194 46.1546C90.7977 46.0784 90.5759 46.0387 90.3542 46.1513C90.2007 46.2308 90.037 46.2208 89.8766 46.1877C89.4673 46.1082 89.1057 46.1811 88.7986 46.4759C88.7475 46.5256 88.6554 46.5488 88.5803 46.5488C88.3961 46.5521 88.2562 46.6117 88.2051 46.7906C88.1471 46.986 88.0208 47.0721 87.8128 47.0788C87.7309 47.0854 87.6524 47.1152 87.591 47.1715C87.3727 47.3603 87.1612 47.5591 86.9531 47.7578C86.7825 47.9234 86.7075 48.1222 86.7279 48.3607C86.745 48.5462 86.7586 48.7283 86.6836 48.9205C86.5608 49.2285 86.3663 49.4273 86.0627 49.5929C84.5993 50.3912 83.1494 51.2259 81.6962 52.0407C80.9184 52.478 80.1406 52.9053 79.3629 53.3392C79.339 53.4518 79.3833 53.5313 79.4925 53.5744C80.741 52.8854 81.9862 52.1931 83.2381 51.5008C84.2888 50.9212 85.3429 50.3481 86.3834 49.7552C86.7382 49.5531 87.0657 49.6426 87.4068 49.7452C87.4511 49.7618 87.4955 49.7883 87.5296 49.8214C87.8503 50.103 88.2153 50.0699 88.5905 49.9639C88.7475 49.9208 88.9044 49.8811 89.0579 49.8281C89.1466 49.7982 89.2558 49.7585 89.3069 49.6889C89.4536 49.467 89.6446 49.4206 89.8971 49.4703C90.0131 49.4935 90.1325 49.4339 90.187 49.3312C90.2621 49.1921 90.3781 49.1424 90.5214 49.0861C90.8147 48.9701 91.0569 48.778 91.1627 48.4733C91.2377 48.2547 91.3333 48.0692 91.5379 47.94C91.6812 47.8472 91.7358 47.6949 91.7665 47.5359C91.804 47.3338 91.8484 47.1318 91.8859 46.9297C91.92 46.7475 92.0087 46.6183 92.1827 46.5223C92.9639 46.095 93.7417 45.6577 94.5195 45.2238C94.5638 45.2006 94.6082 45.1642 94.6491 45.1642C94.7071 45.1675 94.7685 45.1841 94.8197 45.2139C94.8572 45.2371 94.8777 45.2901 94.9015 45.3298C95.1472 45.7505 95.3928 46.1712 95.6384 46.5918C95.9693 46.4063 96.3002 46.2208 96.6277 46.0387C98.3709 45.0615 100.111 44.0877 101.854 43.1105V37.4131C98.7495 39.1555 95.6452 40.8945 92.5375 42.6335C92.7387 42.5938 92.9434 42.5706 93.1447 42.5408ZM95.5019 42.5673H96.2115L96.5663 43.1635L96.2115 43.763H95.5019L95.1471 43.1635L95.5019 42.5673Z" fill="black"/>
<path d="M93.7689 56.0687L94.1271 55.4459C85.3906 60.345 76.6576 65.2407 67.9211 70.1365L64.52 72.0444C64.1584 72.3889 63.8002 72.7301 63.4386 73.0746L93.7689 56.0687Z" fill="black"/>
<path d="M94.3762 57.0856L94.8026 57.8011L93.537 58.5099L93.9532 59.2088L93.7758 59.5069C94.7958 58.9339 95.8158 58.3642 96.8358 57.7911L94.8333 57.8242L94.3762 57.0856Z" fill="black"/>
<path d="M41.6777 59.5367C41.7187 59.4539 41.7596 59.3711 41.7971 59.285C41.6504 59.3678 41.5037 59.4506 41.3571 59.5334C41.4662 59.5798 41.5686 59.5963 41.6777 59.5367C41.6982 59.6792 41.7937 59.7553 41.9199 59.8116C42.3839 60.027 42.8444 60.2356 43.3049 60.4543C43.3049 60.4543 43.3049 60.4543 43.3083 60.4543C42.8478 60.2389 42.3839 60.0236 41.9233 59.8116C41.7937 59.752 41.6982 59.6758 41.6777 59.5367Z" fill="black"/>
<path d="M68.0576 73.8762L68.1395 73.8795C68.8422 73.4853 69.5415 73.0944 70.2409 72.7003C77.5889 68.5829 84.9335 64.4623 92.2816 60.345H91.9268L91.5106 59.6461L55.5243 79.8186C54.5726 80.4679 53.5833 81.0707 52.6144 81.6901C52.2597 81.9187 51.8878 82.1141 51.5262 82.3328C50.1105 83.184 48.6266 83.9194 47.0983 84.5587C47.0574 84.5753 47.013 84.5951 46.9721 84.6117L34.2921 91.7234L35.3019 92.2899C46.2045 86.1752 57.1072 80.0671 68.0133 73.9524L68.0576 73.8762Z" fill="black"/>
<path d="M33.0572 89.9944C32.7161 90.1467 32.375 90.3024 32.0406 90.4647L32.2249 90.5707L33.9339 89.6101C33.644 89.736 33.3506 89.8652 33.0572 89.9944Z" fill="black"/>
<path d="M80.0826 55.3168C79.9632 54.8298 79.8131 54.3528 79.6016 53.8957C79.5538 53.7964 79.5334 53.6871 79.4993 53.5811C79.53 53.6871 79.5538 53.7964 79.6016 53.8957C79.8131 54.3528 79.9632 54.8265 80.0826 55.3168Z" fill="black"/>
<path d="M42.9568 29.3276L46.914 27.1348C47.2176 26.9691 47.5178 26.9426 47.8214 27.0619C48.125 27.1811 48.3195 27.4594 48.4047 27.8933L48.8858 30.3047C48.9949 30.8513 48.954 31.2984 48.7664 31.6463C48.6231 31.9146 48.3502 32.1564 47.9579 32.375L45.1742 33.9219L45.4437 35.2833L56.1349 29.2911L55.8756 27.9927L53.0715 29.5462C52.6485 29.7814 52.3346 29.8542 52.1163 29.7747C51.9014 29.6919 51.7445 29.3971 51.6455 28.8903L50.8609 24.9519L52.0276 24.3026C52.0447 24.3954 52.3005 25.6773 52.7917 28.1417L55.5925 26.5882L54.8283 22.7491L55.995 22.0999L57.2981 28.6353L73.2325 19.705L59.9999 12.2852L18.1461 35.7503V50.5833L44.277 35.9358L42.9568 29.3276ZM60.9312 19.3638C61.361 19.1253 61.6749 19.0425 61.8796 19.1154C62.1252 19.1982 62.2957 19.493 62.4015 19.9998L62.4834 20.4205L61.2758 21.0896L61.2075 20.7451L58.4443 22.2754C58.9185 24.6604 59.1744 25.9456 59.2119 26.1311L58.0179 26.7936L56.9706 21.5368L60.9312 19.3638ZM49.3088 21.507C50.571 27.8304 51.1748 30.8678 51.1236 30.6194L49.9433 31.2753L48.1284 22.1628L49.3088 21.507ZM38.2935 37.3403C37.9729 37.2111 37.7716 36.9362 37.6863 36.5155L37.2019 34.0742C37.0927 33.5244 37.1234 33.0872 37.2974 32.7592C37.4339 32.4909 37.6931 32.2458 38.0786 32.0338L40.9066 30.4637L40.1322 26.5783L41.2989 25.929L43.1206 35.058L39.1771 37.2442C38.8735 37.4132 38.5801 37.4463 38.2935 37.3403Z" fill="black"/>
<path d="M71.9739 64.9558C72.0046 64.9624 72.0387 64.9724 72.0694 64.9856C72.0387 64.9691 72.008 64.9624 71.9739 64.9558Z" fill="black"/>
<path d="M77.6776 62.3192C77.6026 62.2331 77.5275 62.1536 77.4559 62.0674L78.0733 61.5375C78.0768 61.5341 78.0802 61.5308 78.0836 61.5275L78.0768 61.5308C78.0733 61.5342 78.0733 61.5341 78.0699 61.5375L77.4525 62.0674C77.3399 62.1271 77.2239 62.1801 77.1148 62.2496C76.5928 62.5742 76.0402 62.8227 75.4602 62.9982L74.3925 63.5978C74.3993 63.6342 74.4061 63.6707 74.413 63.7038C74.4539 63.9257 74.3891 64.1145 74.1708 64.2205C73.8126 64.3994 73.451 64.5749 73.0894 64.7472C72.871 64.8499 72.6459 64.9327 72.4276 65.042C72.3662 65.0718 72.3286 65.1546 72.2775 65.2142C72.3832 65.3269 72.4651 65.4527 72.5333 65.5852C74.3413 64.5716 76.1459 63.558 77.9505 62.5477C77.8721 62.5113 77.7868 62.4384 77.6776 62.3192Z" fill="black"/>
<path d="M41.1865 31.8649L38.4097 33.4051L38.8941 35.8464L41.6709 34.3061L41.1865 31.8649Z" fill="black"/>
<path d="M66.7511 76.6586L66.5192 76.2313L67.4573 74.7937L39.5013 90.4647C38.2596 91.1603 37.0144 91.8592 35.7727 92.5548L36.629 93.0351L66.5226 76.2777L66.7511 76.6586Z" fill="black"/>
<path d="M28.8544 49.0828L39.1431 43.3159L39.4194 43.7796L39.1362 43.2596L40.9886 40.4175L44.4511 40.5566L46.0579 43.5345L46.0544 43.5378C49.476 41.6199 52.8976 39.702 56.3158 37.7841C64.5098 33.1898 72.7039 28.5955 80.8979 24.0045L74.1708 20.2317C68.5898 23.3586 63.0122 26.4888 57.4313 29.6157C57.4313 29.8145 57.404 29.9934 57.3494 30.1524C57.2334 30.53 56.9435 30.8446 56.4863 31.0997L54.0438 32.4545L53.9005 31.5999C51.1408 33.1468 48.3844 34.6937 45.6246 36.2406L45.7815 37.0355L44.6149 37.6848L44.4579 36.8964C37.5909 40.7454 30.717 44.5978 23.8466 48.4501C21.9465 49.5167 20.0429 50.58 18.1428 51.6466V53.4817C19.2993 52.7662 20.5069 52.1269 21.7554 51.5505C24.0444 50.4872 26.4085 49.6591 28.8544 49.0828Z" fill="black"/>
<path d="M77.7765 54.9424C77.5752 54.5085 77.2989 54.111 76.9612 53.7665C76.4836 53.2763 75.9241 52.9152 75.2794 52.6568C75.1498 52.6072 75.0201 52.5608 74.8871 52.5244C74.8871 52.5244 74.8871 52.5244 74.8837 52.5244C75.0167 52.5608 75.1463 52.6039 75.2794 52.6568C75.9241 52.9119 76.4836 53.273 76.9612 53.7665C77.3023 54.1143 77.5752 54.5118 77.7765 54.9424C77.9641 55.3465 78.1347 55.7573 78.1483 56.2144C78.1517 56.2707 78.1586 56.327 78.1688 56.3866C78.1586 56.3303 78.1517 56.2707 78.1483 56.2144C78.1347 55.7573 77.9675 55.3432 77.7765 54.9424Z" fill="black"/>
<path d="M31.9963 62.2165L32.856 60.7689H34.5787L35.2473 61.8952C37.6728 60.5338 40.0982 59.1757 42.5237 57.8176C43.0286 56.6947 43.4209 55.5353 43.7245 54.3429C43.7416 54.27 43.7347 54.1872 43.7381 54.1077C43.7723 54.0381 43.8234 53.9752 43.8405 53.9023C44.0042 53.2465 44.1577 52.584 44.3317 51.9314C44.5671 51.047 44.8912 50.1825 45.3005 49.361C45.379 49.202 45.4575 49.0463 45.5427 48.8873C45.4609 49.0463 45.3824 49.202 45.3005 49.361C44.8912 50.1858 44.5637 51.047 44.3317 51.9314C44.1577 52.5873 44.0076 53.2465 43.8405 53.9023C43.8234 53.9752 43.7723 54.0414 43.7381 54.1077C43.1548 53.9752 42.5715 53.8361 41.9847 53.7168C40.5963 53.4353 39.1942 53.3127 37.7785 53.3061C37.741 53.4585 37.7035 53.6108 37.6557 53.7963C37.4749 53.8228 37.3009 53.8626 37.127 53.8758C36.9325 53.8924 36.7381 53.9089 36.547 53.9255C34.4184 55.118 32.2897 56.3104 30.161 57.5062C26.1561 59.7487 22.1512 61.9978 18.1462 64.2403V71.4846C22.9869 68.7717 27.8276 66.0589 32.6649 63.346L31.9963 62.2165Z" fill="black"/>
<path d="M19.231 78.0266C19.1287 77.8113 19.0639 77.5828 19.0332 77.3443C18.9718 76.9004 19.1321 76.536 19.5415 76.2942C19.9474 76.059 20.35 75.8139 20.7559 75.5787C21.1346 75.3601 21.5064 75.1349 21.8782 74.903C21.8612 74.7838 21.851 74.6678 21.8407 74.5486C21.8032 74.1047 21.8441 73.6708 21.9704 73.2899C22.772 73.111 23.5259 72.9752 24.2594 72.7698C24.7574 72.6307 25.2418 72.4684 25.7228 72.2928C27.043 71.3521 28.3359 70.3783 29.5776 69.3415C30.0586 68.9374 30.5533 68.5432 31.0309 68.1391C32.4875 66.9135 34.0124 65.7707 35.5987 64.7074C36.3935 64.1741 37.1645 63.6176 38.0037 63.1572C38.1333 63.0843 38.2663 63.0148 38.396 62.9419C39.2522 61.9548 40.0539 60.9246 40.7941 59.8547C40.801 59.8448 40.8044 59.8382 40.8112 59.8315C38.8326 60.9412 36.8506 62.0509 34.8721 63.1605L34.5753 63.6607H33.9817C28.7009 66.6187 23.4236 69.58 18.1428 72.538V79.4874C18.6272 79.2125 19.1185 78.9408 19.6029 78.6692C19.463 78.4672 19.3402 78.2485 19.231 78.0266Z" fill="black"/>
<path d="M68.8627 55.9064C68.8457 55.9693 68.832 56.0289 68.8184 56.0919C68.8286 56.0322 68.8457 55.9693 68.8627 55.9064Z" fill="black"/>
<path d="M60.1502 66.4895C60.4947 66.2974 60.8393 66.1052 61.1804 65.9098C61.6102 65.403 62.0401 64.8995 62.4733 64.396C62.7564 64.0714 63.0737 63.7733 63.3978 63.4818C63.6946 63.2135 64.0528 63.0711 64.4723 63.1108C64.5508 63.1174 64.6293 63.0876 64.7111 63.0711L64.7077 63.0678C64.9329 62.7398 65.1785 62.4251 65.3729 62.0807C65.6629 61.5772 66.0689 61.2261 66.6078 60.9909C66.966 60.8385 67.2969 60.6364 67.6415 60.4576C67.7848 60.5868 67.9485 60.6961 68.0645 60.8451C68.2862 61.1366 68.5353 61.3983 68.8082 61.6302C68.5387 61.395 68.2862 61.1366 68.0645 60.8451C67.9519 60.6961 67.7848 60.5868 67.6415 60.4576C67.6074 60.1926 67.4675 59.9806 67.2662 59.805C67.1946 59.5798 67.14 59.3479 67.0513 59.1293C66.8194 58.5496 66.6522 57.96 66.6658 57.334C66.6693 57.2644 66.6693 57.1982 66.6693 57.1286C66.6693 57.1286 66.6693 57.1286 66.6658 57.1286C66.6658 57.1982 66.6658 57.2644 66.6624 57.334C66.6488 57.9633 66.8159 58.5529 67.0479 59.1293C67.1366 59.3479 67.1912 59.5798 67.2628 59.805C66.7307 60.1131 66.1951 60.4178 65.6663 60.7259C65.5401 60.7988 65.3968 60.8385 65.2501 60.8451C64.6156 60.8816 63.9811 60.9312 63.3466 60.9776C63.118 61.5573 62.6234 61.8157 62.0503 61.9548C61.5932 62.0674 61.1224 62.1469 60.6585 62.2231C59.7101 62.3788 58.7583 62.5278 57.8066 62.6703C57.3392 62.7398 56.8719 62.8094 56.4045 62.8789C53.9449 64.2569 51.4854 65.6382 49.0258 67.0161C48.381 67.3772 47.7363 67.7383 47.0915 68.0993L47.7875 69.3646L46.8084 70.8884L44.9595 70.8254L44.3181 69.6528C38.686 72.8095 33.0539 75.9663 27.4217 79.123C26.7736 79.6828 26.105 80.2194 25.3852 80.703C25.1839 80.8355 24.9758 80.9614 24.7643 81.084C24.505 81.2363 24.2219 81.2926 23.9217 81.286C23.8159 81.2827 23.7102 81.2761 23.6044 81.2628C22.274 82.0081 20.9436 82.7534 19.6166 83.4987L24.6995 86.3474C27.988 84.5057 31.2766 82.6607 34.5651 80.819C43.1003 76.0458 51.6286 71.2693 60.1502 66.4895ZM43.7416 71.6701H44.6934L45.1675 72.4684L44.6934 73.2667H43.7416L43.2674 72.4684L43.7416 71.6701Z" fill="black"/>
<path d="M93.2777 60.345H93.2334C89.3479 62.5212 85.4692 64.7008 81.5836 66.8738L69.0231 73.9159L70.9198 73.9921L71.4724 75.0157C73.9081 73.6509 76.3438 72.2829 78.7795 70.9182C81.6143 69.3283 84.4526 67.7383 87.2908 66.1483L86.7587 65.254L87.342 64.2735H88.5121L89.0443 65.1679C93.3118 62.7763 97.5829 60.3814 101.85 57.9899V55.5155C98.9986 57.1154 96.1467 58.712 93.2948 60.3119L93.2777 60.345Z" fill="black"/>
<path d="M29.4071 55.3002C25.6546 57.4036 21.8987 59.5069 18.1462 61.6103V63.1738C23.4645 60.1926 28.776 57.2148 34.0943 54.2336C32.508 54.4953 30.9456 54.8497 29.4071 55.3002Z" fill="black"/>
<path d="M60.9688 38.9435C61.1326 38.9269 61.2929 38.9104 61.4532 38.8971C68.1156 35.1607 74.778 31.4276 81.4403 27.6912C82.4467 27.1248 83.453 26.5617 84.4594 25.9986L83.0641 25.2169C74.4982 30.0199 65.9323 34.8195 57.3665 39.6225C58.5502 39.3012 59.751 39.0727 60.9688 38.9435Z" fill="black"/>
<path d="M78.8852 86.778C78.4144 87.192 77.8822 87.4868 77.2955 87.669L73.7272 89.6697C73.7238 90.0705 73.6863 90.4713 73.6317 90.8721C74.5801 90.3388 75.5284 89.8088 76.4734 89.2789C84.9301 84.5355 93.3902 79.7954 101.85 75.0521V73.9026C96.2933 77.0163 90.7362 80.1333 85.1791 83.2503L78.8852 86.778Z" fill="black"/>
<path d="M63.4796 38.8243C64.8237 38.8474 66.1541 39.0098 67.4743 39.3509C67.7711 39.4271 68.0644 39.5265 68.3612 39.6192C68.4192 39.6358 68.4772 39.6689 68.5898 39.7186C68.4943 39.7981 68.4363 39.861 68.3612 39.9041C67.3651 40.4771 66.3656 41.0403 65.3695 41.6166C65.1887 41.7226 65.0249 41.7756 64.8203 41.6729C64.6429 41.5835 64.4825 41.6497 64.312 41.7392C64.1414 41.8286 63.9606 41.8982 63.7764 41.9512C63.4455 42.0505 63.3875 42.1035 63.367 42.448C63.3602 42.5408 63.367 42.6335 63.367 42.7528C62.8519 43.0476 62.3504 43.3358 61.8422 43.6206C61.6545 43.7266 61.4498 43.6637 61.269 43.6173C60.9381 43.5312 60.6277 43.4981 60.3309 43.6968C60.3036 43.7134 60.2729 43.7233 60.2354 43.7233C59.7715 43.7167 59.386 43.8889 59.0346 44.1804C58.9186 44.2732 58.7378 44.2997 58.5809 44.3295C58.3524 44.3725 58.1443 44.4421 57.9498 44.568C57.6257 44.7833 57.2948 44.9853 56.9673 45.1907C56.5614 45.4391 56.3806 45.8929 56.5307 46.3368C56.6023 46.5455 56.7013 46.7475 56.7865 46.9496C56.5102 47.1053 56.1964 47.2113 55.9917 47.4829C55.9917 47.4829 55.9917 47.4829 55.9917 47.4862C56.1964 47.2179 56.5102 47.1086 56.7865 46.9562C56.8616 47.0158 56.9366 47.0755 57.0049 47.1384C57.3733 47.5028 57.8372 47.569 58.2909 47.3305C58.6184 47.1583 58.9596 47.0026 59.2836 46.8171C59.461 46.7144 59.6453 46.5919 59.7749 46.4395C59.9557 46.2209 60.1638 46.0685 60.4367 45.9724C60.6857 45.8863 60.8836 45.724 61.0337 45.5021C61.1224 45.3696 61.2315 45.2536 61.3612 45.1576C61.559 45.0185 61.6852 44.8495 61.7296 44.6177C61.7842 44.3096 61.9752 44.1241 62.2515 43.9751C62.7223 43.7233 63.1794 43.4418 63.6195 43.19C63.6775 43.1933 63.715 43.1867 63.7423 43.1999C64.2199 43.4219 64.213 43.4186 64.5712 43.0708C64.6736 42.9714 64.793 42.8853 64.9192 42.819C65.1068 42.7263 65.2399 42.6037 65.2637 42.395C65.2808 42.2559 65.3627 42.1731 65.4821 42.1002C66.5771 41.4709 67.6721 40.8415 68.7638 40.2088C68.774 40.2022 68.7945 40.2122 68.8388 40.2122C68.8763 40.3778 68.8184 40.5401 68.7808 40.7057C68.5557 41.7226 68.2384 42.6998 67.8393 43.6339C69.8554 42.5043 71.8749 41.3715 73.891 40.242C79.8813 36.8832 85.8717 33.5244 91.8654 30.1656L85.4145 26.5352C81.8736 28.5194 78.3292 30.5068 74.7848 32.4942C71.0153 34.6009 67.2457 36.7143 63.4796 38.8243Z" fill="black"/>
<path d="M79.5231 38.6156L80.393 40.2022L79.4105 41.7259L77.5616 41.663L76.6917 40.0764L77.0533 39.5166C73.7443 41.3715 70.4353 43.2265 67.1229 45.0814C66.5259 46.1646 65.8061 47.1848 64.9669 48.1487C61.9001 51.6665 58.0214 53.8991 53.4024 54.9391C52.9317 55.0451 52.4541 55.1379 51.9799 55.2373L51.8776 55.2836C51.8127 55.3267 51.7479 55.3764 51.6729 55.4095C49.858 56.2674 48.3877 57.4599 47.2211 58.9405C48.7698 58.4271 50.3288 57.9402 51.9151 57.5261C53.3478 57.1518 54.7874 56.7908 56.2066 56.3701C57.8474 55.8865 59.4542 55.3002 60.9142 54.4025C61.4771 54.0547 62.0434 53.7069 62.5994 53.3459C62.8587 53.1803 63.0634 52.9749 63.2032 52.6834C63.4113 52.2462 63.8957 52.1302 64.3187 52.4118C64.6292 52.6138 64.8952 52.859 65.0931 53.1604L70.5444 50.1063C70.5683 50.0335 70.6161 49.9705 70.6843 49.9142C70.7593 49.8513 70.8344 49.795 70.9197 49.742C71.4962 49.3544 72.0727 48.9669 72.6492 48.5793C73.485 48.0228 74.3174 47.4697 75.1532 46.9165C75.1804 46.8999 75.2043 46.8801 75.235 46.8635C75.5557 46.6482 75.8661 46.4064 76.2039 46.2209C76.5313 46.042 76.9236 46.042 77.2852 45.9592C77.6469 45.8797 78.0119 45.8002 78.3735 45.7174L99.0019 34.1538L92.8103 30.6824C88.1094 33.3191 83.4086 35.9524 78.7078 38.5891L79.5231 38.6156Z" fill="black"/>
<path d="M47.6816 30.9772L47.2006 28.5657L44.4102 30.1126L44.8946 32.5241L47.6816 30.9772Z" fill="black"/>
<path d="M70.7219 78.815L70.1795 78.7918L66.5737 80.8124C66.7238 80.766 66.9183 80.8157 67.1434 80.925C67.5733 81.127 68.0099 81.3291 68.4363 81.5477L95.7851 66.2146L96.6004 64.8002L98.3538 64.7704L101.85 62.8094V61.0306L71.0528 78.2982L70.7219 78.815Z" fill="black"/>
<path d="M65.1 63.4189C65.0829 63.4089 65.0659 63.3957 65.0488 63.3824C65.0659 63.3957 65.0864 63.4089 65.1 63.4189C65.1887 63.4686 65.2706 63.5183 65.3593 63.5646C65.274 63.5216 65.1853 63.4719 65.1 63.4189Z" fill="black"/>
<path d="M59.212 105.695L60.0001 106.139L101.376 82.9456L101.854 82.6773V81.7928C92.2407 87.1821 82.6241 92.5714 73.0109 97.9607C68.4124 100.538 63.8139 103.118 59.212 105.695Z" fill="black"/>
<path d="M98.6198 64.7736L99.6569 66.4332L98.6778 68.1258L96.6617 68.1589L96.2182 67.4501L96.631 68.1357L84.05 75.115C88.4677 73.5317 92.8717 71.9152 97.2826 70.3153C97.3917 70.2756 97.5111 70.1961 97.6135 70.2093C97.8011 70.2391 97.9819 70.3219 98.1627 70.3849C98.0706 70.5074 98.0058 70.6797 97.8795 70.7492C92.2201 73.9192 86.5573 77.0859 80.8911 80.2459C80.6693 80.3718 80.5022 80.5871 80.3077 80.7593C80.567 80.6898 80.8569 80.6699 81.0787 80.544C86.704 77.4105 92.3259 74.2703 97.941 71.1268C98.1013 71.0374 98.3299 71.0573 98.5243 71.0275C98.4424 71.2461 98.4322 71.5376 98.2753 71.6668C97.0062 72.7168 95.7099 73.737 94.4205 74.7639C90.7874 77.6589 87.1884 80.597 83.5041 83.4291C82.549 84.1645 81.3345 84.5819 80.2361 85.1483C80.2258 85.0158 80.1713 84.8734 80.2054 84.7541C80.8979 82.2565 79.5436 79.802 77.0908 78.9673C79.547 79.802 80.8979 82.2565 80.2054 84.7541C80.1747 84.8734 80.2224 85.0158 80.2361 85.1483C80.1337 85.2543 80.0041 85.3404 79.9325 85.463C79.6289 85.9896 79.2741 86.4236 78.8818 86.7747L85.1791 83.2436C90.7362 80.1267 96.2933 77.013 101.85 73.896V62.8094L98.3537 64.7703L98.6198 64.7736Z" fill="#464646"/>
<path d="M65.7788 89.938C65.9289 89.683 66.3963 89.5538 66.7408 89.4743C67.1638 89.3749 67.4197 89.2358 67.6755 88.8317C68.0542 88.2388 68.675 87.7949 69.1765 87.2749C69.2788 87.1689 69.313 86.9966 69.3744 86.8542C69.2277 86.8442 69.0776 86.8111 68.9377 86.8343C68.0917 86.9801 67.2457 87.1357 66.4031 87.3047C66.2734 87.3312 66.1199 87.4239 66.0483 87.5332C65.5468 88.2487 64.885 88.3978 63.9913 88.3812C62.422 88.3547 60.9074 88.4872 59.4371 88.7654L45.2323 96.6457C44.9901 96.914 44.7547 97.1922 44.5295 97.4771L51.5535 101.416C57.5984 99.554 62.3504 95.748 65.7788 89.938Z" fill="#464646"/>
<path d="M72.7005 79.8153C73.1405 79.4377 73.6488 79.1462 74.2492 78.9574L95.9044 66.9466L95.6247 66.4995L95.7884 66.2179L68.4397 81.5477C68.6376 81.6471 68.8286 81.7498 69.023 81.8558L72.7005 79.8153Z" fill="#464646"/>
<path d="M74.9519 87.8612C73.6829 88.2918 73.7272 88.2918 73.7272 89.6167C73.7272 89.6333 73.7272 89.6532 73.7272 89.6731L77.2955 87.6724C76.5928 87.8877 75.8082 87.944 74.9519 87.8612Z" fill="#464646"/>
<path d="M71.561 85.0224C71.9875 86.0857 72.7414 86.8575 73.7306 87.3775C72.7414 86.8641 71.9875 86.089 71.561 85.0224Z" fill="#464646"/>
<path d="M79.3048 83.3728C79.3082 82.8031 79.1649 82.2665 78.9091 81.7994C79.1649 82.2665 79.3082 82.7998 79.3048 83.3728Z" fill="#464646"/>
<path d="M64.3222 83.9857C64.7248 83.9227 65.2024 83.6345 65.4173 83.3099C65.4412 83.2735 65.4651 83.2371 65.4889 83.2006L64.0016 84.032C64.1073 84.0188 64.2165 84.0022 64.3222 83.9857Z" fill="#464646"/>
<path d="M73.7847 87.4071C73.778 87.4039 73.768 87.4006 73.7614 87.3974C73.7713 87.4006 73.778 87.4039 73.7847 87.4071Z" fill="#464646"/>
<path d="M75.8355 80.0207C75.566 80.0207 75.2999 80.0505 75.0475 80.1068L75.0441 80.1101C75.2999 80.0505 75.5626 80.0207 75.8355 80.0207Z" fill="#464646"/>
<path d="M73.6352 90.8722C73.584 91.2763 73.5124 91.6804 73.4442 92.0845C73.4271 92.1971 73.0758 92.3462 72.9018 92.323C72.4583 92.2601 72.0251 92.111 71.5884 92.0216C70.4592 92.6542 69.3335 93.2869 68.2078 93.9196C64.6224 97.8547 60.6175 101.27 56.0122 103.903L59.2155 105.699C63.814 103.121 68.4159 100.541 73.0143 97.964C82.6275 92.5747 92.2441 87.1854 101.857 81.7962V75.0587C93.4005 79.8021 84.9404 84.5421 76.4803 89.2855C75.5319 89.8089 74.5802 90.3389 73.6352 90.8722Z" fill="#464646"/>
<path d="M95.6417 46.5918C95.7645 46.8071 95.8908 47.0191 96.017 47.2344C96.1603 47.4829 96.1603 47.4895 95.9761 47.6816C94.9868 48.7151 93.9975 49.7486 93.0048 50.782C92.1144 51.7095 91.224 52.6403 90.3371 53.5678C89.573 54.3627 88.8054 55.1577 88.0413 55.9527L101.861 48.205V43.1072C100.117 44.0843 98.3776 45.0582 96.6344 46.0353C96.3001 46.2242 95.9692 46.4097 95.6417 46.5918Z" fill="#464646"/>
<path d="M79.5676 59.5666C79.9633 58.7352 80.2566 57.864 80.2089 56.9233C80.1952 56.6384 80.2055 56.3535 80.2055 56.072C80.2055 55.9594 80.2089 55.8501 80.1884 55.7441C80.2123 55.8501 80.2055 55.966 80.2055 56.072C80.2089 56.3569 80.1952 56.6417 80.2089 56.9233C80.2532 57.864 79.9599 58.7385 79.5676 59.5666C79.2128 60.3086 78.725 60.981 78.0836 61.5308L78.0904 61.5275C78.7284 60.9777 79.2162 60.3086 79.5676 59.5666Z" fill="#464646"/>
<path d="M26.405 86.5097C26.5824 85.9035 26.9167 85.4265 27.524 85.145C28.1585 84.8502 28.793 84.5686 29.4582 84.3401C31.2321 83.7372 33.0401 83.2635 34.8379 82.7435C37.4339 81.9916 40.0231 81.2264 42.5509 80.2757C44.1065 79.6961 45.6314 79.0468 47.1051 78.2982C47.8863 77.9007 48.63 77.4403 49.3736 76.9832C51.0827 75.9299 52.7338 74.7937 54.2621 73.4952C54.8761 72.9752 55.4833 72.4419 56.0633 71.8821C56.5579 71.4018 57.0287 70.8917 57.4756 70.365C58.3591 69.3249 59.2119 68.2649 60.0852 67.2182C60.4537 66.781 60.8187 66.3404 61.1871 65.9032C60.8426 66.0953 60.498 66.2874 60.1569 66.4829C51.6319 71.2627 43.107 76.0425 34.5786 80.8223C31.2901 82.664 28.0015 84.509 24.713 86.3507L26.2618 87.2186C26.272 87.1192 26.2891 87.0198 26.3061 86.9171C26.33 86.7846 26.3641 86.6455 26.405 86.5097Z" fill="#464646"/>
<path d="M71.6293 64.9824C71.2745 65.0784 70.9266 65.0586 70.5684 64.9923C70.2511 64.936 69.927 64.9062 69.6064 64.8598C68.4636 64.6776 67.3617 64.3596 66.2769 63.982C65.9596 63.8694 65.6526 63.7336 65.3558 63.5713C65.6526 63.7303 65.9596 63.8727 66.2769 63.982C67.3617 64.363 68.4636 64.6776 69.6064 64.8598C69.9236 64.9095 70.2477 64.9393 70.5684 64.9923C70.9266 65.0586 71.2779 65.0784 71.6293 64.9824C71.7521 64.9493 71.8715 64.9327 71.9738 64.9559C71.8681 64.9327 71.7521 64.9493 71.6293 64.9824Z" fill="#464646"/>
<path d="M75.4636 62.9982C75.0918 63.1109 74.7097 63.1903 74.3174 63.2467C74.3174 63.2467 74.3174 63.2467 74.314 63.2467C74.3378 63.3659 74.3685 63.4818 74.3958 63.5978L75.4636 62.9982Z" fill="#464646"/>
<path d="M71.3189 62.9949C70.9163 62.8624 70.5308 62.6935 70.1522 62.5046C69.6609 62.2628 69.2107 61.978 68.8115 61.6335C69.2141 61.978 69.6609 62.2628 70.1522 62.5046C70.5342 62.6901 70.9197 62.8624 71.3189 62.9949Z" fill="#464646"/>
<path d="M78.2303 56.7742C78.2337 57.0955 78.2064 57.4102 78.1484 57.7149C78.2064 57.4068 78.2337 57.0955 78.2303 56.7742C78.2303 56.6417 78.1962 56.5125 78.1723 56.3833C78.1962 56.5158 78.2303 56.645 78.2303 56.7742Z" fill="#464646"/>
<path d="M69.0298 55.3764C69.2754 54.7139 69.6234 54.1044 70.1658 53.6307C70.9299 52.9682 71.7964 52.4846 72.8471 52.3786C73.103 52.3521 73.3588 52.2693 73.6181 52.3024C74.0445 52.3554 74.4675 52.4118 74.8837 52.531C74.8837 52.531 74.8837 52.531 74.8871 52.531C74.4709 52.4151 74.0479 52.3588 73.6215 52.3024C73.3588 52.2693 73.1064 52.3521 72.8505 52.3786C71.7998 52.4846 70.9334 52.9649 70.1692 53.6307C69.6234 54.1011 69.2754 54.7106 69.0298 55.3764C68.965 55.5486 68.907 55.7275 68.8593 55.9097C68.907 55.7308 68.9684 55.5519 69.0298 55.3764Z" fill="#464646"/>
<path d="M66.676 56.3403C66.6863 55.7672 66.8125 55.2107 67.0308 54.6807C67.2048 54.2568 67.4368 53.856 67.6551 53.4485C67.7677 53.2398 67.9109 53.0477 68.044 52.849C68.1634 52.7231 68.2862 52.5939 68.4056 52.4681C68.9548 51.8818 69.5859 51.3981 70.3193 51.0437C70.4592 50.9742 70.5854 50.8748 70.7185 50.7887C70.8754 50.7522 71.0357 50.7324 71.1858 50.6794C71.7078 50.5005 72.2468 50.3614 72.7892 50.3183C73.0655 50.2984 73.3384 50.2852 73.6147 50.2885C73.3384 50.2852 73.0621 50.2984 72.7892 50.3183C72.2468 50.3614 71.7078 50.4972 71.1858 50.6794C71.0357 50.729 70.8754 50.7522 70.7151 50.7887C70.6639 50.6562 70.5991 50.527 70.5581 50.3912C70.524 50.2918 70.524 50.1991 70.5547 50.1096L65.1034 53.167C65.1853 53.2928 65.2535 53.4253 65.3115 53.5711C65.3115 53.5711 65.3115 53.5711 65.3115 53.5744C65.4548 53.5943 65.5537 53.5115 65.6594 53.4353C66.004 53.2001 66.3451 52.9583 66.6965 52.7297C66.8568 52.6237 67.0308 52.5376 67.2048 52.4515C67.3822 52.3587 67.5562 52.3952 67.7028 52.5177C67.8256 52.6204 67.9348 52.7397 68.0474 52.849C67.9178 53.0477 67.7745 53.2398 67.6585 53.4485C67.4368 53.8526 67.2048 54.2534 67.0342 54.6807C66.8125 55.2074 66.6863 55.7639 66.676 56.3403C66.6692 56.6053 66.676 56.8703 66.6726 57.1352C66.6726 57.1352 66.6726 57.1352 66.676 57.1352C66.676 56.8703 66.6726 56.6053 66.676 56.3403Z" fill="#464646"/>
<path d="M78.3804 45.7207C81.2152 45.0979 84.05 44.4785 86.8849 43.8624C88.7611 43.4517 90.6407 43.0442 92.5204 42.6368C92.5272 42.6335 92.5306 42.6335 92.5375 42.6335C95.6418 40.8912 98.7461 39.1522 101.854 37.4131V35.7503L101.356 35.4721L99.0088 34.157L78.3804 45.7207Z" fill="#464646"/>
<path d="M22.6015 81.0011C21.445 80.5043 20.4591 79.7888 19.7018 78.7984C19.6711 78.7553 19.637 78.7123 19.6063 78.6659C19.1219 78.9408 18.6307 79.2124 18.1462 79.4841V82.6706L19.6268 83.502C20.9572 82.7567 22.2876 82.0114 23.6146 81.2661C23.2667 81.2297 22.9255 81.1403 22.6015 81.0011Z" fill="#464646"/>
<path d="M47.3064 65.0121C45.8736 65.5587 44.4716 66.1748 43.107 66.8638C42.8341 67.2083 42.551 67.5494 42.261 67.884C38.9076 71.7363 34.9198 74.8069 30.2019 76.96C29.9733 77.066 29.7448 77.1654 29.5128 77.2614C29.025 77.7086 28.5337 78.1525 28.0391 78.5963C27.8378 78.7752 27.6366 78.9541 27.4319 79.1296C33.064 75.9729 38.6961 72.8162 44.3283 69.6595L44.0997 69.2454L45.0788 67.7217L46.9277 67.7846L47.1017 68.1026C47.7464 67.7416 48.3912 67.3805 49.0359 67.0195C51.4955 65.6415 53.9551 64.2602 56.4147 62.8823C55.6403 62.9982 54.8625 63.1108 54.0847 63.2102C51.7445 63.5083 49.4999 64.1741 47.3064 65.0121Z" fill="#464646"/>
<path d="M67.7814 78.5665L51.615 87.6293C53.9756 86.6289 56.3943 85.7942 58.8743 85.135L60.87 84.0187L66.4509 80.8918C66.4885 80.8587 66.5328 80.8355 66.5771 80.819L70.1829 78.7984L67.8564 78.7056L67.7814 78.5665Z" fill="#464646"/>
<path d="M42.3703 92.8099L39.2966 94.5323L40.1426 95.006C40.8181 94.1945 41.5652 93.469 42.3703 92.8099Z" fill="#464646"/>
<path d="M89.1022 65.2539L88.5188 66.2344H87.3487L87.2976 66.1483C84.4627 67.7382 81.6245 69.3282 78.7863 70.9182C76.3506 72.2829 73.9149 73.6509 71.4792 75.0156L72.2604 76.4598L71.0596 78.3015L101.857 61.0372V57.9865C97.5896 60.3781 93.3186 62.7729 89.051 65.1645L89.1022 65.2539Z" fill="#464646"/>
<path d="M26.2618 56.3667C23.8875 57.281 21.6292 58.4105 19.5585 59.8746C19.0707 60.2191 18.5965 60.5834 18.1428 60.9677V61.6169C21.8953 59.5135 25.6512 57.4068 29.4037 55.3035C28.3496 55.6115 27.3023 55.9659 26.2618 56.3667Z" fill="#464646"/>
<path d="M46.0612 43.5378L44.2123 46.3765L41.2103 46.2573C40.1391 46.8568 39.068 47.4564 37.9968 48.0592C37.9866 48.3574 37.9866 48.6555 37.9797 48.9536C38.9929 49.0828 39.9958 48.9834 40.992 48.8078C43.6085 47.3404 46.225 45.8764 48.838 44.409C50.1514 43.1105 51.6456 42.0273 53.3342 41.1794C54.6271 40.5301 55.9814 40.0068 57.3732 39.6225C65.9391 34.8195 74.505 30.0199 83.0709 25.2169L80.9081 24.0045C72.714 28.5988 64.52 33.1931 56.3259 37.7841C52.9044 39.7053 49.4794 41.6232 46.0612 43.5378Z" fill="#464646"/>
<path d="M86.1036 57.9799C85.5953 58.5199 85.0904 59.0631 84.5787 59.603C84.49 59.6925 84.3809 59.7653 84.2649 59.8183C83.3336 60.2423 82.3955 60.6497 81.4642 61.077C80.7853 61.3851 80.1133 61.713 79.4344 62.0244C79.0796 62.1867 78.7249 62.3457 78.3633 62.4914C78.1859 62.5643 78.0733 62.5842 77.9641 62.5444C76.1561 63.558 74.3515 64.5716 72.5469 65.5819C72.6902 65.8602 72.7687 66.1649 72.8301 66.4663C72.946 67.0195 72.5435 67.4336 71.9602 67.3806C71.718 67.3574 71.5099 67.4004 71.2984 67.4932C70.1897 67.9635 69.1083 68.4836 68.1088 69.1461C66.9625 69.9079 65.8743 70.7426 64.885 71.6933C64.7622 71.8092 64.6428 71.9252 64.52 72.0444L67.9211 70.1365C76.6576 65.2374 85.3906 60.3417 94.1271 55.4459L94.7752 54.3131L96.1909 54.2899C97.0335 53.8195 97.8761 53.3459 98.7188 52.8755C99.766 52.2892 100.813 51.7029 101.861 51.1133V49.149C99.6193 50.4045 97.3781 51.6632 95.1368 52.9186C92.1212 54.6046 89.109 56.2939 86.1036 57.9799Z" fill="#464646"/>
<path d="M37.8195 52.1467C37.8059 52.5078 37.7922 52.8688 37.782 53.2299C37.7956 52.8721 37.8093 52.5078 37.8195 52.1467Z" fill="#464646"/>
<path d="M36.5504 53.9222C35.7249 54.0017 34.9062 54.1044 34.0943 54.2369C28.776 57.2181 23.4645 60.1993 18.1462 63.1771V64.2404C22.1512 61.9979 26.1561 59.7488 30.161 57.5063C32.2897 56.3105 34.4218 55.118 36.5504 53.9222Z" fill="#464646"/>
<path d="M46.4399 47.3173C46.1158 47.8241 45.8225 48.3474 45.5461 48.8807C45.8191 48.3474 46.109 47.8207 46.4399 47.3173Z" fill="#464646"/>
<path d="M61.4567 38.8971C62.1321 38.8408 62.8076 38.8143 63.4796 38.8243C67.2457 36.7109 71.0153 34.5976 74.7814 32.4876C78.3224 30.5035 81.8667 28.516 85.4111 26.5286L84.4628 25.9953C83.4564 26.5617 82.4501 27.1248 81.4437 27.6879C74.7814 31.4277 68.119 35.1641 61.4567 38.8971Z" fill="#464646"/>
<path d="M32.856 63.664L32.6649 63.3427C27.8242 66.0556 22.9835 68.7718 18.1462 71.4813V72.5446C23.427 69.5866 28.7044 66.6253 33.9851 63.6673L32.856 63.664Z" fill="#464646"/>
<path d="M41.3502 59.5301C41.3536 59.5301 41.3536 59.5335 41.357 59.5335C41.5037 59.4506 41.6504 59.3678 41.7971 59.285C41.8312 59.2121 41.8687 59.1393 41.9063 59.0697C42.128 58.659 42.3361 58.2383 42.5237 57.8176C40.0983 59.179 37.6728 60.5371 35.2473 61.8952L35.4384 62.2165L34.8755 63.1639C36.8541 62.0542 38.8361 60.9445 40.8146 59.8349C40.8522 59.7786 40.8965 59.7189 40.9306 59.6626C41.033 59.507 41.1728 59.454 41.3502 59.5301Z" fill="#464646"/>
<path d="M67.8427 43.6206C67.6278 44.1208 67.3924 44.6077 67.1263 45.0847C70.4353 43.2298 73.7444 41.3748 77.0568 39.5199L77.6776 38.5526L78.7147 38.5891C83.4155 35.9524 88.1163 33.319 92.8172 30.6823L91.8688 30.149C85.8785 33.5078 79.8882 36.8666 73.8945 40.2254C71.8783 41.3582 69.8622 42.4911 67.8427 43.6206Z" fill="#464646"/>
<path d="M44.4682 36.8898L44.2771 35.9358L18.1462 50.5833V51.6432C20.0464 50.5766 21.9499 49.5134 23.85 48.4468C30.7205 44.5944 37.5943 40.7421 44.4682 36.8898Z" fill="#464646"/>
<path d="M57.3733 29.0228C57.4176 29.2381 57.4381 29.4402 57.4381 29.6191C63.019 26.4921 68.5966 23.3619 74.1775 20.235L73.2292 19.705L57.2948 28.6353L57.3733 29.0228Z" fill="#464646"/>
<path d="M56.2066 29.6655L56.1316 29.2878L45.4404 35.28L45.6315 36.234C48.3912 34.6871 51.1476 33.1402 53.9074 31.5933L53.805 30.9937L56.2066 29.6655Z" fill="#464646"/>
<path d="M67.4606 74.7937L68.0098 73.9523C57.1072 80.067 46.2045 86.1751 35.2985 92.2898L35.7761 92.5581C37.0178 91.8625 38.2629 91.1636 39.5046 90.468L67.4606 74.7937Z" fill="#464646"/>
<path d="M70.2409 72.7002C69.5382 73.0944 68.8389 73.4853 68.1395 73.8795L69.0299 73.9159L81.5905 66.877C85.476 64.7008 89.3547 62.5212 93.2402 60.3483H92.2884C84.937 64.4656 77.589 68.5829 70.2409 72.7002Z" fill="#464646"/>
<path d="M96.9211 57.7944L96.8324 57.7977C95.8124 58.3708 94.7924 58.9405 93.7724 59.5136L93.2982 60.3118C96.1501 58.7119 99.002 57.1154 101.854 55.5155V54.9822C100.223 55.8964 98.5926 56.8106 96.962 57.7249L96.9211 57.7944Z" fill="#464646"/>
<path d="M44.6251 85.5988C43.5778 85.9963 42.5203 86.3772 41.4525 86.7217C38.8906 87.5465 36.3969 88.5435 33.9374 89.6134L32.2283 90.574L34.2921 91.73L46.9721 84.6183C46.1875 84.9462 45.4199 85.294 44.6251 85.5988Z" fill="black"/>
<path opacity="0.7" d="M44.6251 85.5988C43.5778 85.9963 42.5203 86.3772 41.4525 86.7217C38.8906 87.5465 36.3969 88.5435 33.9374 89.6134L32.2283 90.574L34.2921 91.73L46.9721 84.6183C46.1875 84.9462 45.4199 85.294 44.6251 85.5988Z" fill="#00A1AD"/>
<path d="M91.9268 58.0793H93.2742L93.5301 58.5132L94.7957 57.8044L94.3693 57.0889L93.7518 56.0885L93.7621 56.072L63.4352 73.0746C62.6199 73.8464 61.8012 74.6115 60.9756 75.3667C59.3723 76.8308 57.7314 78.2684 55.9473 79.5271C55.8074 79.6265 55.6642 79.7259 55.5243 79.8219L91.514 59.6494L91.2581 59.2154L91.9268 58.0793Z" fill="black"/>
<path opacity="0.7" d="M91.9268 58.0793H93.2742L93.5301 58.5132L94.7957 57.8044L94.3693 57.0889L93.7518 56.0885L93.7621 56.072L63.4352 73.0746C62.6199 73.8464 61.8012 74.6115 60.9756 75.3667C59.3723 76.8308 57.7314 78.2684 55.9473 79.5271C55.8074 79.6265 55.6642 79.7259 55.5243 79.8219L91.514 59.6494L91.2581 59.2154L91.9268 58.0793Z" fill="#00A1AD"/>
<path d="M93.7587 56.0885L94.3761 57.0855L94.8332 57.8275L96.8323 57.7944H96.921L96.9619 57.7215L97.9376 56.0189L96.863 54.2766L96.1875 54.2899L94.7718 54.3097L94.1237 55.4459L93.7689 56.0686L93.7587 56.0885Z" fill="#3D3DC4"/>
<path d="M33.9374 89.6101C36.4003 88.5402 38.8906 87.5432 41.4525 86.7184C42.5203 86.3739 43.5778 85.9963 44.6251 85.5955C45.4199 85.2941 46.1875 84.9429 46.9721 84.615C47.013 84.5985 47.0574 84.5786 47.0983 84.562C48.63 83.9194 50.1105 83.1874 51.5262 82.3361C51.8878 82.1175 52.2597 81.9187 52.6145 81.6935C53.5867 81.0707 54.5726 80.4679 55.5243 79.822C55.6676 79.7226 55.8075 79.6298 55.9473 79.5272C57.7349 78.2684 59.3689 76.8309 60.9757 75.3668C61.8046 74.6082 62.6233 73.8431 63.4352 73.0746C63.7968 72.7334 64.155 72.3889 64.5166 72.0444C64.6395 71.9285 64.7589 71.8126 64.8817 71.6933C65.8744 70.7426 66.9592 69.9079 68.1054 69.1461C69.1049 68.4836 70.1897 67.9635 71.295 67.4932C71.5065 67.4004 71.7146 67.3607 71.9568 67.3806C72.5401 67.4335 72.9427 67.0195 72.8267 66.4663C72.7619 66.1649 72.6868 65.8568 72.5435 65.5819C72.4753 65.4494 72.3934 65.3269 72.2877 65.2109C72.2297 65.095 72.1546 65.0254 72.0694 64.9824C72.0387 64.9691 72.008 64.9592 71.9738 64.9526C71.8681 64.9327 71.7521 64.9459 71.6293 64.9791C71.2745 65.0751 70.9266 65.0552 70.5684 64.989C70.2511 64.9327 69.927 64.9062 69.6064 64.8565C68.4636 64.6743 67.3617 64.3563 66.2769 63.9787C65.9596 63.8661 65.6492 63.727 65.3558 63.568C65.2671 63.5216 65.1853 63.4719 65.1 63.4222C65.0829 63.4123 65.0625 63.399 65.0454 63.3858C64.9226 63.2963 64.8237 63.1771 64.7111 63.0711C64.6292 63.0844 64.5508 63.1175 64.4723 63.1109C64.0527 63.0744 63.6979 63.2169 63.3977 63.4818C63.0771 63.7733 62.7564 64.0681 62.4732 64.3961C62.0366 64.8962 61.6068 65.403 61.1803 65.9098C60.8119 66.3471 60.4435 66.7843 60.0785 67.2249C59.2052 68.2716 58.3523 69.3316 57.4688 70.3717C57.0253 70.8983 56.5546 71.4084 56.0565 71.8887C55.48 72.4485 54.8728 72.9785 54.2553 73.5019C52.727 74.8004 51.0794 75.9365 49.3669 76.9899C48.6232 77.447 47.8761 77.9107 47.0983 78.3049C45.6212 79.0535 44.0963 79.6994 42.5442 80.2824C40.0164 81.2297 37.4237 81.9982 34.8311 82.7501C33.0333 83.2702 31.2185 83.7439 29.4514 84.3467C28.7862 84.5753 28.1551 84.8601 27.5172 85.1516C26.91 85.4332 26.5757 85.9102 26.3983 86.5163C26.3608 86.6522 26.3232 86.7913 26.2994 86.9337C26.2823 87.0331 26.2652 87.1325 26.255 87.2351L32.0406 90.4714C32.3784 90.3091 32.7161 90.1534 33.0572 90.001C33.3506 89.8652 33.644 89.736 33.9374 89.6101Z" fill="#023DFF"/>
<path d="M63.3636 59.4208C63.408 58.924 63.5444 58.4337 63.6502 57.9435C63.8344 57.0955 64.1312 56.2774 64.4655 55.4758C64.6702 54.9822 64.8987 54.4887 65.2808 54.0879C65.4446 53.9156 65.4173 53.75 65.3081 53.5744H65.3115C65.3115 53.5744 65.3115 53.5744 65.3115 53.5711C65.2569 53.4254 65.1853 53.2896 65.1034 53.167C64.9056 52.8656 64.6395 52.6238 64.329 52.4184C63.9026 52.1368 63.4216 52.2528 63.2135 52.69C63.0737 52.9815 62.8656 53.1836 62.6097 53.3525C62.0537 53.7102 61.4874 54.0614 60.9245 54.4092C59.4645 55.3068 57.8577 55.8964 56.2169 56.3767C54.7943 56.7941 53.3582 57.1585 51.9254 57.5328C50.3425 57.9468 48.7835 58.4337 47.2314 58.9472C46.6958 59.6295 46.2216 60.3715 45.8089 61.1698C45.7509 61.2824 45.6895 61.395 45.6315 61.5043C45.4814 61.4513 45.3244 61.4083 45.1812 61.342C44.6524 61.0936 44.1305 60.8352 43.6017 60.5835C43.5062 60.5404 43.4107 60.4907 43.3117 60.4477C43.3117 60.4477 43.3118 60.4477 43.3083 60.4477C43.4039 60.4907 43.4994 60.5404 43.5983 60.5835C44.1271 60.8319 44.649 61.0903 45.1778 61.342C45.321 61.4083 45.478 61.4513 45.6281 61.5043C45.7782 61.5971 45.9214 61.6998 46.0784 61.7793C46.3956 61.9383 46.7197 62.0873 47.0165 62.2264C47.112 62.72 47.1973 64.31 47.1495 64.6942C46.8425 64.8466 46.5286 64.7869 46.2182 64.6776C46.0408 64.6147 45.9248 64.4789 45.8634 64.3066C45.8123 64.1576 45.7679 64.0052 45.7236 63.8528C45.6826 63.717 45.6588 63.5713 45.4814 63.4752C45.4166 63.5117 45.3244 63.5415 45.2664 63.6044C45.1846 63.7005 45.1232 63.8164 45.0618 63.9257C44.4989 64.9625 43.8405 65.933 43.1139 66.8539C44.4784 66.1649 45.8805 65.5488 47.3133 65.0023C49.5068 64.1642 51.748 63.5017 54.095 63.2003C54.8728 63.1009 55.6506 62.9883 56.425 62.8724C56.8923 62.8028 57.3597 62.7332 57.827 62.6637C58.7788 62.5213 59.7306 62.3722 60.6789 62.2165C61.1428 62.1403 61.6136 62.0608 62.0707 61.9482C62.6438 61.8091 63.1385 61.5507 63.367 60.971C63.3568 60.4609 63.3159 59.9376 63.3636 59.4208Z" fill="#023DFF"/>
<path d="M37.8672 63.5481C38.048 63.3493 38.2254 63.1506 38.3993 62.9485C38.2697 63.0214 38.1367 63.091 38.007 63.1639C37.1678 63.6243 36.3969 64.1841 35.602 64.7141C34.0158 65.774 32.4875 66.9201 31.0342 68.1457C30.5532 68.5498 30.062 68.944 29.581 69.3481C28.3393 70.3849 27.0464 71.3621 25.7262 72.2995C27.0566 71.7993 28.3222 71.1534 29.5435 70.4247C32.6785 68.5531 35.4281 66.2245 37.8672 63.5481Z" fill="#023DFF"/>
<path d="M29.5163 77.2647C28.1279 77.8477 26.6951 78.3015 25.2044 78.5864C24.8189 78.6593 24.4266 78.6924 24.0445 78.7653C23.8159 78.8083 23.6727 78.7288 23.5294 78.5798C23.0245 78.0465 22.6663 77.4271 22.3866 76.7646C22.1341 76.1717 21.9636 75.5456 21.8783 74.9063C21.5099 75.1382 21.1346 75.3634 20.756 75.582C20.3466 75.8172 19.9475 76.059 19.5415 76.2975C19.1288 76.5393 18.9718 76.9004 19.0332 77.3476C19.0639 77.5827 19.1322 77.8113 19.2311 78.0299C19.3403 78.2552 19.4665 78.4671 19.6098 78.6725C19.6405 78.7156 19.6712 78.762 19.7053 78.805C20.4626 79.7954 21.4485 80.5109 22.6049 81.0078C22.929 81.1469 23.2701 81.2363 23.6181 81.2761C23.7238 81.286 23.8296 81.2959 23.9353 81.2993C24.2389 81.3059 24.5187 81.2496 24.7779 81.0972C24.986 80.9746 25.1975 80.8488 25.3988 80.7163C26.1152 80.2393 26.7872 79.6994 27.4354 79.1363C27.6401 78.9607 27.8447 78.7785 28.0426 78.603C28.5372 78.1525 29.0285 77.7086 29.5163 77.2647Z" fill="#023DFF"/>
<path d="M76.2107 46.2176C75.873 46.4031 75.5626 46.6416 75.2419 46.8602C75.2146 46.8767 75.1907 46.8966 75.16 46.9132C74.3243 47.4663 73.4885 48.0228 72.6561 48.576C72.0796 48.9636 71.4997 49.3511 70.9266 49.7387C70.8447 49.7917 70.7696 49.8513 70.6912 49.9109C70.6264 49.9672 70.5752 50.0335 70.5513 50.103C70.5206 50.1891 70.5206 50.2819 70.5547 50.3846C70.5991 50.5204 70.6605 50.6496 70.7116 50.7821C70.8686 50.7456 71.0289 50.7258 71.1824 50.6728C71.7043 50.4939 72.2433 50.3548 72.7857 50.3117C73.0621 50.2918 73.335 50.2786 73.6113 50.2819C73.9661 50.2852 74.3208 50.315 74.679 50.3813C75.6479 50.5634 76.5519 50.9013 77.3638 51.4412C78.0597 51.905 78.6703 52.4846 79.1649 53.1504C79.2161 53.2233 79.3014 53.2763 79.3662 53.3359C80.144 52.9053 80.9218 52.4714 81.6996 52.0375C83.1528 51.2193 84.6026 50.3879 86.0661 49.5896C86.3697 49.424 86.5676 49.2252 86.687 48.9172C86.762 48.7251 86.745 48.5462 86.7313 48.3574C86.7108 48.1189 86.7825 47.9201 86.9565 47.7545C87.1645 47.5558 87.3726 47.357 87.5944 47.1682C87.6558 47.1152 87.7342 47.0821 87.8161 47.0755C88.0242 47.0689 88.1504 46.9827 88.2084 46.7873C88.2596 46.6084 88.3995 46.5488 88.5837 46.5455C88.6587 46.5455 88.7508 46.5223 88.802 46.4726C89.1056 46.1778 89.4706 46.1049 89.88 46.1844C90.0437 46.2142 90.2041 46.2242 90.3576 46.148C90.5793 46.0354 90.801 46.0751 91.0228 46.1513C91.207 46.2142 91.398 46.2639 91.5788 46.3368C91.7494 46.4064 91.8893 46.3699 92.0394 46.2838C92.3054 46.1281 92.5749 45.9824 92.8478 45.8333C93.3425 45.5584 93.844 45.2901 94.3386 45.0152C94.6218 44.8562 94.6218 44.8495 94.4614 44.5879C94.1442 44.0711 93.8269 43.5511 93.5028 43.041C93.3937 42.8687 93.2674 42.7064 93.148 42.5375C92.9468 42.5673 92.7421 42.5872 92.5442 42.6302C92.5374 42.6335 92.534 42.6335 92.5272 42.6335C90.6509 43.041 88.7679 43.4484 86.8916 43.8591C84.0568 44.4719 81.2186 45.0913 78.3872 45.7174C78.0256 45.7969 77.6605 45.8764 77.2989 45.9592C76.9305 46.0387 76.5382 46.0387 76.2107 46.2176Z" fill="#02FFD8"/>
<path d="M80.0827 55.3134C80.1168 55.4525 80.1475 55.595 80.1782 55.7374C80.2021 55.8434 80.1952 55.956 80.1952 56.0653C80.1986 56.3502 80.185 56.6351 80.1986 56.9166C80.2464 57.8573 79.9564 58.7285 79.5573 59.5599C79.2059 60.3019 78.7181 60.971 78.0802 61.5176C78.0768 61.5209 78.0734 61.5242 78.07 61.5275L77.4525 62.0575C77.5276 62.1436 77.6026 62.2264 77.6743 62.3092C77.7834 62.4285 77.8653 62.5013 77.9574 62.5345C78.0666 62.5709 78.1825 62.551 78.3565 62.4815C78.7181 62.3357 79.0729 62.1767 79.4277 62.0144C80.1065 61.6997 80.7786 61.3751 81.4574 61.0671C82.3887 60.6431 83.3268 60.2323 84.2581 59.8084C84.3741 59.7587 84.4833 59.6858 84.572 59.593C85.0837 59.0531 85.5886 58.5099 86.0969 57.97C86.3902 57.6553 86.687 57.3406 86.9838 57.0292C87.3318 56.6649 87.6797 56.3005 88.0277 55.9395C88.7918 55.1445 89.5594 54.3495 90.3235 53.5545C91.2139 52.627 92.1042 51.6963 92.9912 50.7688C93.9805 49.7353 94.9732 48.7018 95.9625 47.6684C96.1467 47.4763 96.1501 47.4696 96.0034 47.2212C95.8806 47.0059 95.7544 46.7939 95.6282 46.5786C95.3825 46.1579 95.1369 45.7372 94.8913 45.3166C94.8674 45.2735 94.847 45.2238 94.8094 45.2006C94.7583 45.1708 94.7003 45.1509 94.6389 45.1509C94.5945 45.1509 94.5502 45.1874 94.5092 45.2106C93.7315 45.6445 92.9537 46.0817 92.1725 46.509C91.9985 46.6051 91.9098 46.7343 91.8757 46.9165C91.8382 47.1185 91.7938 47.3206 91.7563 47.5226C91.7256 47.6816 91.671 47.8373 91.5277 47.9267C91.323 48.0559 91.2241 48.2414 91.1525 48.46C91.0501 48.7648 90.8079 48.9602 90.5111 49.0728C90.3679 49.1291 90.2485 49.1788 90.1768 49.318C90.1257 49.424 90.0063 49.4803 89.8869 49.4571C89.6378 49.4074 89.4434 49.4571 89.2967 49.6757C89.2524 49.7453 89.1398 49.7817 89.0477 49.8148C88.8942 49.8678 88.7372 49.9076 88.5803 49.9506C88.2051 50.0566 87.8435 50.0897 87.5194 49.8082C87.4853 49.7751 87.4409 49.7486 87.3966 49.732C87.0555 49.6326 86.728 49.5399 86.3732 49.7419C85.3327 50.3349 84.2752 50.9079 83.2279 51.4876C81.9794 52.1766 80.7342 52.8689 79.4823 53.5611C79.513 53.6671 79.5368 53.7765 79.5846 53.8758C79.8132 54.3528 79.9667 54.8265 80.0827 55.3134Z" fill="#02FFD8"/>
<path d="M79.165 53.157C78.6703 52.4912 78.0597 51.9116 77.3638 51.4478C76.5519 50.9046 75.6479 50.57 74.6791 50.3878C74.3243 50.3216 73.9695 50.2918 73.6113 50.2885C73.335 50.2852 73.0621 50.2984 72.7858 50.3183C72.2434 50.3613 71.7044 50.4972 71.1824 50.6793C71.0323 50.729 70.872 50.7522 70.7151 50.7886C70.582 50.8748 70.4592 50.9741 70.316 51.0437C69.5859 51.4014 68.9548 51.8817 68.4022 52.468C68.2828 52.5939 68.16 52.7231 68.0406 52.849C67.911 53.0477 67.7677 53.2398 67.6517 53.4485C67.43 53.8526 67.198 54.2567 67.0274 54.6807C66.8091 55.2107 66.6829 55.7672 66.6726 56.3402C66.6692 56.6052 66.6726 56.8702 66.6726 57.1319C66.6726 57.2015 66.6726 57.2677 66.6692 57.3373C66.6556 57.9666 66.8227 58.5562 67.0547 59.1326C67.1434 59.3512 67.198 59.5831 67.2696 59.8083C67.4675 59.9839 67.6074 60.1926 67.6449 60.4609C67.7882 60.5901 67.9519 60.6994 68.0679 60.8484C68.2896 61.1399 68.5387 61.4016 68.8116 61.6335C69.2141 61.978 69.661 62.2628 70.1522 62.5046C70.5343 62.6901 70.9164 62.8624 71.3189 62.9949C71.5611 63.0744 71.8033 63.1406 72.0558 63.187C72.0865 63.1936 72.1137 63.2102 72.1479 63.2168C72.4856 63.2566 72.8199 63.3096 73.1576 63.3261C73.4476 63.3427 73.741 63.3626 74.0241 63.2632C74.1128 63.2334 74.2151 63.2532 74.3141 63.2466C74.3141 63.2466 74.3141 63.2466 74.3175 63.2466C74.7132 63.1936 75.0918 63.1108 75.4637 62.9982C76.0436 62.8226 76.5928 62.5742 77.1182 62.2496C77.2273 62.1833 77.3433 62.127 77.4559 62.0674L78.0734 61.5374C78.0768 61.5341 78.0768 61.5341 78.0802 61.5308C78.7215 60.9809 79.2093 60.3118 79.5641 59.5665C79.9598 58.7351 80.2532 57.864 80.2055 56.9232C80.1918 56.6384 80.202 56.3535 80.202 56.0719C80.1986 55.9593 80.2055 55.8467 80.185 55.744C80.1543 55.6016 80.1236 55.4591 80.0895 55.32C79.9701 54.8331 79.82 54.3561 79.6051 53.899C79.5607 53.7996 79.5368 53.6903 79.5027 53.5843C79.3936 53.5413 79.3458 53.4651 79.3731 53.3491C79.3014 53.2829 79.2196 53.2299 79.165 53.157ZM78.2303 56.7742C78.2337 57.0955 78.2064 57.4102 78.1484 57.7149C78.0256 58.384 77.7527 59.0134 77.3126 59.5732C76.5826 60.5139 75.6172 61.1366 74.3993 61.342C74.1128 61.3884 73.8228 61.4248 73.5363 61.4645C72.3935 61.4513 71.3803 61.0969 70.5036 60.4145C69.8759 59.9243 69.3983 59.3115 69.0947 58.5629C68.8968 58.0693 68.7911 57.5625 68.7467 57.0458C68.7195 56.7245 68.7502 56.4065 68.815 56.0918C68.8286 56.0289 68.8423 55.9693 68.8593 55.9063C68.9071 55.7274 68.9651 55.5486 69.0299 55.373C69.2755 54.7105 69.6235 54.1011 70.1659 53.6274C70.93 52.9649 71.7965 52.4813 72.8472 52.3753C73.103 52.3488 73.3589 52.266 73.6181 52.2991C74.0446 52.3521 74.471 52.4084 74.8838 52.5277C75.0134 52.5641 75.1464 52.6072 75.2761 52.6602C75.9208 52.9185 76.4803 53.2796 76.9579 53.7698C77.2956 54.1143 77.5685 54.5118 77.7732 54.9457C77.9608 55.3465 78.1314 55.7606 78.145 56.2144C78.1484 56.2707 78.1552 56.3303 78.1655 56.3866C78.1962 56.5158 78.2303 56.645 78.2303 56.7742Z" fill="#01C7FF"/>
<path d="M66.676 56.3403C66.6862 55.7672 66.8124 55.2107 67.0307 54.6807C67.2047 54.2567 67.4367 53.8559 67.655 53.4485C67.7676 53.2398 67.9109 53.0477 68.0439 52.849C67.9279 52.7364 67.8188 52.6204 67.6994 52.5177C67.5527 52.3919 67.3821 52.3587 67.2013 52.4515C67.0307 52.5376 66.8568 52.6237 66.693 52.7297C66.3451 52.9583 66.0005 53.2001 65.656 53.4353C65.5502 53.5081 65.4513 53.591 65.308 53.5744H65.3046C65.4138 53.7533 65.4411 53.9189 65.2773 54.0878C64.8952 54.4886 64.6701 54.9822 64.462 55.4757C64.1277 56.2773 63.8309 57.0955 63.6467 57.9435C63.5375 58.437 63.4045 58.9239 63.3601 59.4208C63.3124 59.9375 63.3533 60.4609 63.3567 60.9809C63.9912 60.9379 64.6258 60.8882 65.2603 60.8484C65.4069 60.8418 65.5502 60.7988 65.6764 60.7292C66.2086 60.4211 66.7408 60.1164 67.273 59.8083C67.2013 59.5831 67.1467 59.3512 67.058 59.1326C66.8261 58.5529 66.6589 57.9633 66.6726 57.3373C66.676 57.2677 66.676 57.2015 66.676 57.1319C66.676 56.8702 66.6691 56.6052 66.676 56.3403Z" fill="#0287FF"/>
<path d="M72.4343 65.0419C72.6493 64.9359 72.8778 64.8498 73.0961 64.7471C73.4577 64.5749 73.8194 64.4026 74.1775 64.2205C74.3925 64.1112 74.4607 63.9257 74.4197 63.7037C74.4129 63.6673 74.4061 63.6309 74.3993 63.5977C74.3754 63.4785 74.3481 63.3626 74.3174 63.2466C74.2219 63.2499 74.1161 63.2334 74.0274 63.2632C73.7443 63.3626 73.4509 63.3427 73.161 63.3261C72.8232 63.3095 72.4855 63.2566 72.1512 63.2168C72.1205 63.2135 72.0932 63.1936 72.0591 63.187C71.8067 63.1406 71.561 63.0744 71.3222 62.9949C70.9197 62.8624 70.5342 62.6934 70.1522 62.5046C69.6609 62.2628 69.2106 61.978 68.8115 61.6335C68.542 61.3983 68.2896 61.1399 68.0678 60.8484C67.9518 60.6994 67.7881 60.5901 67.6448 60.4609C67.3003 60.6397 66.9694 60.8418 66.6112 60.9942C66.0688 61.2294 65.6628 61.5772 65.3763 62.084C65.1818 62.4251 64.9362 62.7431 64.7111 63.0711L64.7145 63.0744C64.827 63.1804 64.9294 63.2996 65.0488 63.389C65.0658 63.399 65.0829 63.4122 65.1 63.4255C65.1852 63.4752 65.2705 63.5249 65.3592 63.5745C65.656 63.7335 65.963 63.8727 66.2803 63.9853C67.3651 64.3662 68.4669 64.6809 69.6097 64.8631C69.927 64.9128 70.2511 64.9393 70.5718 64.9956C70.9265 65.0585 71.2779 65.0817 71.6327 64.9856C71.7555 64.9525 71.8749 64.9393 71.9772 64.9591C72.0079 64.9658 72.042 64.9757 72.0727 64.9889C72.1614 65.0287 72.2331 65.1016 72.2911 65.2175C72.3354 65.1546 72.3729 65.0718 72.4343 65.0419Z" fill="#0187FF"/>
<path d="M78.1723 56.3867C78.1621 56.3303 78.1553 56.274 78.1518 56.2144C78.1348 55.7573 77.9676 55.3466 77.78 54.9458C77.5787 54.5118 77.3024 54.1143 76.9647 53.7699C76.4871 53.2796 75.9276 52.9186 75.2829 52.6602C75.1533 52.6105 75.0202 52.5641 74.8872 52.5277C74.471 52.4118 74.048 52.3555 73.6216 52.2991C73.3589 52.266 73.1065 52.3488 72.8506 52.3753C71.7999 52.4813 70.9334 52.9616 70.1693 53.6274C69.6269 54.0978 69.2789 54.7106 69.0333 55.3731C68.9685 55.5486 68.9105 55.7275 68.8628 55.9064C68.8457 55.9693 68.8321 56.0289 68.8184 56.0919C68.7536 56.4032 68.7195 56.7212 68.7502 57.0458C68.7945 57.5593 68.9003 58.0661 69.0981 58.5629C69.4017 59.3082 69.8793 59.9243 70.507 60.4145C71.3837 61.1002 72.3969 61.4513 73.5397 61.4646C73.8297 61.4248 74.1162 61.3884 74.4028 61.342C75.624 61.14 76.586 60.5106 77.3161 59.5732C77.7527 59.0134 78.0256 58.384 78.1518 57.7149C78.2098 57.4102 78.2337 57.0955 78.2337 56.7742C78.2303 56.645 78.1962 56.5158 78.1723 56.3867Z" fill="#0086FF"/>
<path d="M39.4228 43.783L39.1465 43.3192L28.8579 49.0861C29.5948 48.9139 30.3418 48.7615 31.0958 48.6323C32.5456 48.3839 34.0022 48.2381 35.4759 48.2746C35.6226 48.2779 35.7727 48.2845 35.916 48.2646C36.0183 48.2514 36.1138 48.1951 36.2639 48.1388C36.1752 47.9996 36.1207 47.8903 36.0422 47.8009C35.9365 47.6817 35.8205 47.5657 35.6977 47.463C35.3565 47.1682 35.4998 46.5058 35.8546 46.2374C35.974 46.148 36.0968 46.1613 36.2162 46.2408C36.4857 46.4163 36.7586 46.5919 37.0315 46.7674C37.2635 46.9165 37.4886 47.0755 37.724 47.2146C37.9355 47.3405 38.0208 47.5028 38.0105 47.738L40.7328 46.2143L39.4228 43.783Z" fill="#6D00A0"/>
<path d="M40.7464 46.2407L41.2103 46.2573L44.2089 46.3765L46.0613 43.5378L44.4545 40.5566L40.992 40.4208L39.1396 43.2596L39.4228 43.7829L40.7327 46.2142L40.7464 46.2407Z" fill="#9E009E"/>
<path d="M46.8629 89.9149C48.4185 89.0768 50.0048 88.315 51.6149 87.6293L67.7813 78.5666L66.7511 76.6619L66.5225 76.281L36.6289 93.0385L39.2966 94.5357L42.3702 92.8132C43.7416 91.6936 45.2767 90.7662 46.8629 89.9149Z" fill="#009E40"/>
<path d="M68.0576 73.8762L68.0098 73.9557L67.4606 74.7937L66.5225 76.2313L66.751 76.6586L67.7812 78.5665L67.8563 78.7023L70.1828 78.7951L70.7218 78.815L71.0561 78.3015L72.2603 76.4632L71.4757 75.0156L70.9231 73.9921L69.0264 73.9159L68.136 73.8828L68.0576 73.8762Z" fill="#568700"/>
<path d="M74.2493 78.9574C74.4505 78.8944 74.662 78.8414 74.8838 78.8017C75.3716 78.7156 75.8731 78.6924 76.3711 78.6427C77.6879 77.702 79.0559 76.8871 80.6217 76.3373C81.7645 75.9331 82.9073 75.529 84.0501 75.1183L96.6345 68.139L96.2217 67.4534L95.9079 66.9499L74.2493 78.9574Z" fill="#FFC200"/>
<path d="M72.7005 79.8153L69.0197 81.8558C69.2687 81.9949 69.5109 82.1406 69.7463 82.2963C70.217 82.611 70.4695 82.6176 70.7901 82.1936C70.9061 82.0379 71.0801 81.9253 71.2268 81.7895C71.2268 81.7895 71.2268 81.7895 71.2268 81.7862C71.6157 81.0144 72.0899 80.3387 72.7005 79.8153Z" fill="#FFC200"/>
<path d="M73.2804 81.0873C73.7477 80.6103 74.3618 80.2625 75.0441 80.1101L75.0475 80.1068C74.3618 80.2625 73.7512 80.6103 73.2804 81.0873Z" fill="#FFC200"/>
<path d="M76.3711 78.6394C76.4666 78.709 76.5553 78.815 76.6611 78.8415C76.8112 78.8779 76.9544 78.921 77.0977 78.9706C76.9544 78.921 76.8112 78.8779 76.6645 78.8415C76.5519 78.815 76.4666 78.709 76.3711 78.6394Z" fill="#FFC200"/>
<path d="M49.6261 92.9126C47.9921 93.9924 46.5116 95.2213 45.2391 96.6424L59.444 88.7621C55.9337 89.4246 52.6827 90.892 49.6261 92.9126Z" fill="#FFC200"/>
<path d="M95.9045 66.9433L96.2183 67.4468L96.6618 68.159L98.6779 68.1258L99.657 66.4332L98.6199 64.7737L98.3572 64.777L96.6038 64.8035L95.7885 66.2179L95.6248 66.4961L95.9045 66.9433Z" fill="#F97F12"/>
<path d="M68.2043 93.9162C68.5216 93.5684 68.832 93.2206 69.1424 92.8662C69.7667 92.1507 70.4387 91.8592 71.3325 91.9784C71.4178 91.9884 71.5031 92.0049 71.585 92.0215C72.025 92.1076 72.4548 92.2567 72.8983 92.3229C73.0723 92.3461 73.4237 92.1971 73.4407 92.0844C73.5055 91.6836 73.5772 91.2795 73.6318 90.8721C73.6829 90.4713 73.7205 90.0705 73.7273 89.6697C73.7273 89.6531 73.7273 89.6333 73.7273 89.6134C73.7273 88.2884 73.6795 88.2884 74.952 87.8578C74.9076 87.8446 74.8599 87.8313 74.8155 87.8181C74.4505 87.7054 74.1059 87.5696 73.7853 87.4073C73.7785 87.404 73.7682 87.4007 73.7614 87.3974C73.7512 87.3941 73.7409 87.3874 73.7307 87.3808C72.7414 86.8608 71.9875 86.0923 71.5611 85.0257C71.5236 84.9263 71.486 84.827 71.4519 84.7243C71.2029 83.9657 71.2848 83.1078 71.2234 82.2963C71.2131 82.1306 71.2268 81.9617 71.2302 81.7961C71.0835 81.9286 70.9095 82.0445 70.7935 82.2002C70.4729 82.6242 70.2238 82.6176 69.7497 82.3029C69.5143 82.1472 69.2721 82.0015 69.023 81.8623C68.832 81.7563 68.6376 81.6537 68.4397 81.5543C68.0133 81.339 67.5766 81.1369 67.1468 80.9316C66.9182 80.8256 66.7306 80.7726 66.5771 80.8189C66.5328 80.8322 66.4884 80.8554 66.4509 80.8918C66.3417 80.9846 66.2667 81.1601 66.2223 81.4417C66.1302 82.0545 65.8334 82.6673 65.4923 83.2072C65.4684 83.2436 65.4479 83.2801 65.4207 83.3165C65.2057 83.6411 64.7247 83.926 64.3256 83.9922C64.2165 84.0088 64.1107 84.0254 64.0049 84.0419C62.2686 84.3268 60.5561 84.6911 58.8777 85.1383C56.3942 85.8008 53.9756 86.6355 51.6184 87.6326C50.0082 88.3182 48.4219 89.0801 46.8664 89.9181C45.2801 90.7694 43.7484 91.6969 42.377 92.8165C41.5685 93.4723 40.8214 94.1978 40.1494 95.0126L44.5398 97.4737C44.7684 97.1889 45.0038 96.9139 45.2426 96.6423C46.5184 95.2213 47.9955 93.9924 49.6295 92.9125C52.6861 90.892 55.9337 89.4246 59.444 88.7621C60.9143 88.4872 62.4289 88.3514 63.9981 88.3779C64.8919 88.3944 65.5503 88.2454 66.0552 87.5299C66.1302 87.4239 66.2803 87.3311 66.4099 87.3013C67.2526 87.1324 68.0986 86.9767 68.9446 86.831C69.0844 86.8078 69.2345 86.8409 69.3812 86.8508C69.3164 86.9933 69.2857 87.1655 69.1834 87.2715C68.6819 87.7916 68.0576 88.2387 67.6824 88.8283C67.4265 89.2325 67.1673 89.3716 66.7477 89.4709C66.4031 89.5538 65.9358 89.6829 65.7857 89.9347C62.3573 95.7447 57.6053 99.5473 51.5672 101.406L56.0156 103.9C60.6141 101.27 64.619 97.848 68.2043 93.9162Z" fill="#FF9806"/>
<path d="M76.3711 78.6394C76.4666 78.709 76.5553 78.815 76.6645 78.8415C76.8146 78.8779 76.9578 78.9209 77.0977 78.9706C79.5539 79.8054 80.9048 82.2599 80.2123 84.7574C80.1782 84.8767 80.2293 85.0191 80.243 85.1516C81.338 84.5885 82.5524 84.1678 83.511 83.4324C87.1953 80.6003 90.7977 77.6655 94.4273 74.7672C95.7168 73.7403 97.0097 72.7201 98.2822 71.6701C98.4391 71.5409 98.4527 71.2461 98.5312 71.0308C98.3333 71.0606 98.1082 71.0407 97.9478 71.1302C92.3294 74.2736 86.7075 77.4138 81.0856 80.5473C80.8604 80.6732 80.5705 80.6931 80.3146 80.7627C80.5056 80.5904 80.6762 80.3718 80.8979 80.2492C86.5642 77.0859 92.227 73.9192 97.8864 70.7525C98.0093 70.683 98.0775 70.5107 98.1696 70.3882C97.9854 70.3252 97.808 70.2424 97.6204 70.2126C97.518 70.1961 97.3986 70.2756 97.2895 70.3186C92.8786 71.9185 88.4745 73.535 84.0569 75.1183C82.914 75.529 81.7747 75.9332 80.6284 76.3373C79.0558 76.8838 77.6879 77.702 76.3711 78.6394Z" fill="#FF6D1A"/>
<path d="M76.3711 78.6394C75.8764 78.6891 75.375 78.7123 74.8837 78.7984C74.662 78.8382 74.4505 78.8911 74.2492 78.9541C73.6522 79.1429 73.1405 79.4377 72.7005 79.812C72.0898 80.332 71.6156 81.0111 71.2302 81.7862C71.2302 81.7862 71.2302 81.7862 71.2302 81.7895C71.2268 81.9551 71.2131 82.1241 71.2233 82.2897C71.2847 83.1012 71.2063 83.9624 71.4519 84.7177C71.486 84.8204 71.5235 84.9197 71.5611 85.0191C71.9909 86.0857 72.7448 86.8542 73.7307 87.3742C73.7409 87.3809 73.7512 87.3842 73.7614 87.3908C73.7682 87.3941 73.7784 87.3974 73.7853 87.4007C74.1059 87.563 74.4471 87.7022 74.8155 87.8115C74.8598 87.8247 74.9076 87.838 74.9519 87.8512C75.8082 87.9373 76.5928 87.8777 77.2955 87.6591C77.8823 87.4769 78.4145 87.1821 78.8852 86.7681C79.2809 86.4169 79.6323 85.983 79.9359 85.4563C80.0076 85.3338 80.1372 85.2444 80.2395 85.1417C80.2293 85.0092 80.1747 84.8667 80.2088 84.7475C80.9013 82.2499 79.547 79.7954 77.0943 78.9607C76.951 78.911 76.8077 78.868 76.6576 78.8315C76.5519 78.815 76.4666 78.709 76.3711 78.6394ZM75.8355 80.0207C77.183 80.0207 78.3326 80.7362 78.9091 81.7961C79.165 82.2632 79.3048 82.7965 79.3048 83.3695C79.3048 83.3795 79.3048 83.3861 79.3048 83.3993C79.2946 84.1049 79.0558 84.7607 78.6498 85.2973C78.0085 86.1486 76.9646 86.7051 75.7945 86.7018C73.9047 86.6985 72.332 85.1549 72.3457 83.3099V83.3066C72.3491 82.4553 72.7107 81.6736 73.2872 81.084C73.7546 80.607 74.3686 80.2592 75.0543 80.1035C75.3033 80.0505 75.566 80.0207 75.8355 80.0207Z" fill="#FF995B"/>
<path d="M73.2837 81.0873C72.7072 81.6736 72.3456 82.4586 72.3422 83.3099V83.3132C72.332 85.1582 73.8978 86.7018 75.7911 86.7051C76.9612 86.7084 78.0085 86.1519 78.6464 85.3007C79.0523 84.7607 79.2945 84.1082 79.3014 83.4026C79.3014 83.3927 79.3014 83.3861 79.3014 83.3728C79.3048 82.8031 79.1615 82.2665 78.9056 81.7994C78.3291 80.7362 77.1761 80.024 75.832 80.024C75.5625 80.024 75.2964 80.0538 75.0406 80.1101C74.3617 80.2625 73.7511 80.6103 73.2837 81.0873Z" fill="#FFCD23"/>
<path d="M41.7971 59.285C41.7596 59.3678 41.7153 59.4506 41.6777 59.5368C41.6982 59.6759 41.7937 59.7554 41.9199 59.8117C42.3805 60.027 42.8444 60.239 43.3049 60.4543C43.4005 60.4974 43.496 60.5437 43.5949 60.5901C44.1237 60.8385 44.6456 61.1002 45.1744 61.3486C45.3176 61.4149 45.4746 61.458 45.6247 61.511C45.6827 61.3983 45.7441 61.2857 45.802 61.1764C46.2148 60.3748 46.689 59.6328 47.2246 58.9538C48.3913 57.4731 49.865 56.2807 51.6764 55.4227C51.748 55.3896 51.8128 55.3366 51.8811 55.2969L51.9834 55.2505C51.98 55.2505 51.98 55.2505 51.98 55.2505C52.2358 55.0816 52.4883 54.9126 52.7441 54.747C54.2656 53.7732 55.7905 52.796 57.3153 51.8255C57.4518 51.7393 57.5951 51.6665 57.7315 51.5804C57.9498 51.4412 58.1068 51.2359 58.042 50.9444C58.0249 50.8649 57.9874 50.7787 57.926 50.6827C57.3017 49.6823 56.6979 48.6687 56.0838 47.6618C56.0531 47.6088 56.0258 47.5492 55.9883 47.4829C55.9883 47.4829 55.9883 47.4829 55.9883 47.4796C56.193 47.2113 56.5068 47.102 56.7832 46.9463C56.6979 46.7409 56.599 46.5422 56.5273 46.3335C56.3772 45.8896 56.558 45.4358 56.964 45.1874C57.2949 44.9853 57.6258 44.78 57.9464 44.5647C58.1409 44.4388 58.3524 44.3725 58.5775 44.3262C58.7345 44.2964 58.9153 44.2699 59.0312 44.1771C59.3826 43.8889 59.7681 43.7134 60.232 43.72C60.2627 43.72 60.2969 43.7101 60.3276 43.6935C60.6243 43.4981 60.9348 43.5312 61.2657 43.614C61.4465 43.6604 61.6512 43.7266 61.8388 43.6173C62.3437 43.3325 62.8485 43.0443 63.3636 42.7495C63.3636 42.6335 63.3568 42.5375 63.3636 42.4447C63.3875 42.1002 63.4455 42.0472 63.773 41.9479C63.9572 41.8982 64.138 41.8253 64.3086 41.7359C64.4758 41.6431 64.6361 41.5802 64.8169 41.6696C65.0182 41.7723 65.1853 41.7193 65.3661 41.6133C66.3622 41.0403 67.3617 40.4738 68.3579 39.9008C68.4329 39.8577 68.4875 39.7948 68.5864 39.7153C68.4738 39.6656 68.4193 39.6358 68.3579 39.6159C68.0611 39.5232 67.7677 39.4238 67.4709 39.3476C66.1507 39.0098 64.8169 38.8441 63.4762 38.821C62.8042 38.811 62.1287 38.8342 61.4533 38.8938C61.2896 38.9071 61.1292 38.9236 60.9689 38.9402C59.7476 39.0661 58.5468 39.2979 57.3733 39.6226C55.9781 40.0068 54.6272 40.5302 53.3343 41.1794C51.6457 42.024 50.1549 43.1072 48.8381 44.409C48.5277 44.717 48.2275 45.035 47.9376 45.363C47.5896 45.7604 47.2314 46.148 46.8766 46.5422C46.8289 46.6548 46.7982 46.7807 46.7299 46.88C46.6276 47.0258 46.5321 47.1682 46.4366 47.3173C46.1125 47.8241 45.8191 48.3474 45.5428 48.8807C45.4609 49.0397 45.3825 49.1954 45.3006 49.3544C44.8912 50.1792 44.5637 51.0404 44.3318 51.9248C44.1578 52.5807 44.0077 53.2399 43.8405 53.8957C43.8235 53.9686 43.7723 54.0348 43.7382 54.1011C43.7348 54.1806 43.7416 54.2601 43.7245 54.3363C43.4209 55.5287 43.0252 56.6914 42.5237 57.811C42.3327 58.235 42.128 58.6523 41.9063 59.0631C41.8654 59.136 41.8312 59.2121 41.7971 59.285ZM55.3095 48.1619C55.2856 48.7019 54.8216 49.149 54.2622 49.1424C53.7198 49.1391 53.2013 48.7019 53.1876 48.2216C53.1876 48.1918 53.1876 48.1586 53.191 48.1255C53.2627 47.4697 53.7334 47.0821 54.2827 47.1384C54.3406 47.1318 54.3952 47.1318 54.4498 47.1384C54.9547 47.1848 55.3061 47.6783 55.3129 48.1156C55.3095 48.1321 55.3095 48.1454 55.3095 48.1619Z" fill="#C51D28"/>
<path d="M23.5293 78.5798C23.6726 78.7321 23.8193 78.8116 24.0445 78.7653C24.4265 78.6891 24.8188 78.6593 25.2043 78.5864C26.6951 78.3015 28.1312 77.8477 29.5163 77.2647C29.7482 77.1654 29.9768 77.066 30.2053 76.9633C34.9198 74.8103 38.9077 71.7396 42.2645 67.8873C42.5544 67.5528 42.8376 67.2116 43.1105 66.8671C43.8405 65.9429 44.4989 64.9724 45.0583 63.9389C45.1163 63.8263 45.1812 63.7104 45.263 63.6176C45.3176 63.5547 45.4131 63.5249 45.4779 63.4884C45.6519 63.5878 45.6758 63.7302 45.7201 63.866C45.7645 64.0184 45.8088 64.1708 45.86 64.3198C45.918 64.4921 46.0374 64.6279 46.2148 64.6908C46.5252 64.8001 46.8391 64.8565 47.1461 64.7074C47.1938 64.3232 47.112 62.7299 47.013 62.2397C46.7163 62.1005 46.3956 61.9515 46.0749 61.7925C45.918 61.713 45.7747 61.6103 45.6246 61.5175C45.4745 61.4645 45.3176 61.4215 45.1743 61.3552C44.6456 61.1068 44.1236 60.8484 43.5949 60.5967C43.4994 60.5536 43.4038 60.5039 43.3049 60.4609C42.8444 60.2456 42.3838 60.0303 41.9199 59.8183C41.7971 59.762 41.6982 59.6858 41.6777 59.5434C41.5685 59.603 41.4662 59.5864 41.3604 59.54C41.357 59.54 41.357 59.5367 41.3536 59.5367C41.1796 59.4605 41.0364 59.5135 40.934 59.6692C40.8965 59.7255 40.8556 59.7852 40.818 59.8415C40.8112 59.8514 40.8078 59.858 40.801 59.8647C40.0607 60.9379 39.2591 61.968 38.4028 62.9518C38.2288 63.1506 38.048 63.3526 37.8706 63.5514C35.4349 66.2278 32.6854 68.5564 29.5435 70.4279C28.3223 71.1567 27.0567 71.8026 25.7262 72.3028C25.2487 72.4816 24.7608 72.6439 24.2628 72.7797C23.5293 72.9851 22.7754 73.1209 21.9738 73.2998C21.8441 73.6774 21.8066 74.1113 21.8441 74.5585C21.8544 74.6778 21.868 74.7937 21.8817 74.9129C21.9669 75.5489 22.1375 76.175 22.39 76.7712C22.6663 77.4271 23.0245 78.0465 23.5293 78.5798Z" fill="#CA0274"/>
<path d="M26.2618 56.3668C27.2989 55.9693 28.3496 55.6115 29.4071 55.3035C30.9456 54.853 32.508 54.4953 34.0943 54.2402C34.9062 54.1077 35.7249 54.005 36.5505 53.9255C36.7415 53.909 36.9394 53.8891 37.1304 53.8758C37.3044 53.8626 37.4749 53.8262 37.6591 53.7963C37.7035 53.6109 37.7444 53.4585 37.782 53.3061C37.782 53.2829 37.7854 53.2597 37.7854 53.2332C37.7956 52.8689 37.8092 52.5111 37.8229 52.1501C37.8229 52.1468 37.8229 52.1401 37.8229 52.1368C37.8297 51.9745 37.8331 51.8155 37.8399 51.6499C37.8468 51.4611 37.857 51.2723 37.8638 51.0835C37.9014 50.3746 37.9389 49.6658 37.9764 48.9569C37.9832 48.6588 37.9832 48.3607 37.9935 48.0626C37.9969 47.9632 38.0037 47.8704 38.0105 47.7711C38.0105 47.7611 38.0105 47.7512 38.0139 47.7413C38.0242 47.5061 37.9389 47.3438 37.7274 47.2179C37.492 47.0788 37.2668 46.9198 37.0349 46.7707C36.7654 46.5952 36.4925 46.4196 36.2196 46.2441C36.0968 46.1646 35.9774 46.1513 35.858 46.2407C35.4964 46.509 35.3565 47.1715 35.701 47.4663C35.8238 47.5723 35.9398 47.6849 36.0456 47.8042C36.124 47.8969 36.1786 48.0029 36.2673 48.1421C36.1172 48.1984 36.0183 48.2547 35.9194 48.2679C35.7761 48.2878 35.626 48.2779 35.4793 48.2779C34.0056 48.2414 32.549 48.3905 31.0991 48.6356C30.3452 48.7648 29.5981 48.9172 28.8613 49.0894C26.4154 49.6658 24.0513 50.4906 21.7657 51.5505C20.5171 52.1302 19.3095 52.7695 18.1531 53.4817V60.9677C18.6034 60.5835 19.081 60.2224 19.5688 59.8746C21.6292 58.4072 23.8875 57.2777 26.2618 56.3668Z" fill="#CA0274"/>
<path d="M56.0872 47.6551C56.6979 48.6621 57.3085 49.6757 57.9294 50.676C57.9874 50.7688 58.0249 50.8549 58.0453 50.9377C58.1136 51.2259 57.9532 51.4379 57.7349 51.5737C57.5985 51.6598 57.4518 51.7327 57.3187 51.8188C55.7939 52.7927 54.269 53.7632 52.7441 54.7404C52.4883 54.906 52.2358 55.0749 51.98 55.2438C51.9834 55.2438 51.9834 55.2438 51.9834 55.2438C52.4576 55.1445 52.9317 55.0517 53.4059 54.9457C58.0249 53.9056 61.9036 51.6731 64.9704 48.1553C65.8096 47.1947 66.5294 46.1712 67.1264 45.088C67.389 44.611 67.6278 44.1241 67.8427 43.6239C68.2453 42.6898 68.5591 41.7127 68.7843 40.6957C68.8218 40.5334 68.8798 40.3711 68.8423 40.2022C68.7979 40.1989 68.7774 40.1923 68.7672 40.1989C67.6722 40.8316 66.5805 41.4609 65.4855 42.0903C65.3661 42.1598 65.2808 42.2426 65.2672 42.3851C65.2433 42.5971 65.1102 42.7163 64.9226 42.8091C64.793 42.8753 64.6736 42.9614 64.5747 43.0608C64.2165 43.4086 64.2199 43.4119 63.7457 43.19C63.7184 43.1767 63.6843 43.1834 63.6229 43.18C63.1794 43.4351 62.7257 43.7133 62.2549 43.9651C61.9786 44.1108 61.791 44.2996 61.733 44.6077C61.6921 44.8363 61.5659 45.0085 61.3646 45.1476C61.235 45.2404 61.1224 45.3563 61.0371 45.4921C60.887 45.714 60.6926 45.8764 60.4401 45.9625C60.1706 46.0585 59.9625 46.2109 59.7783 46.4295C59.6487 46.5819 59.4679 46.7045 59.2871 46.8071C58.963 46.9926 58.6253 47.145 58.2944 47.3206C57.8441 47.5624 57.3733 47.4928 57.0083 47.1284C56.9435 47.0622 56.865 47.0059 56.79 46.9463C56.5137 47.1019 56.1998 47.2079 55.9951 47.4762C56.0258 47.5425 56.0531 47.6021 56.0872 47.6551Z" fill="#FF6203"/>
<path d="M46.7334 46.88C46.8016 46.7807 46.8323 46.6548 46.8801 46.5422C46.2762 46.943 45.652 47.314 44.9833 47.6055C43.7689 48.1388 42.4896 48.5329 41.1797 48.7747C41.1183 48.7847 41.0569 48.7979 40.9955 48.8079C39.9994 48.9834 38.9964 49.0828 37.9833 48.9536C37.9457 49.6625 37.9082 50.3713 37.8707 51.0802C37.8605 51.269 37.8536 51.4578 37.8468 51.6466C37.84 51.8089 37.8366 51.9679 37.8298 52.1335C37.8298 52.1368 37.8298 52.1435 37.8298 52.1468C37.8161 52.5078 37.8059 52.8689 37.7922 53.2299C37.7922 53.2531 37.7888 53.2763 37.7888 53.3028C39.2045 53.3061 40.61 53.432 41.995 53.7135C42.5818 53.8328 43.1651 53.9752 43.7484 54.1044C43.7825 54.0348 43.8337 53.9719 43.8508 53.899C44.0145 53.2432 44.168 52.5807 44.342 51.9282C44.5774 51.0437 44.9015 50.1792 45.3108 49.3577C45.3893 49.1987 45.4678 49.043 45.553 48.884C45.8294 48.3507 46.1227 47.8274 46.4468 47.3206C46.5321 47.1682 46.631 47.0258 46.7334 46.88Z" fill="#FF6203"/>
<path d="M54.4464 47.1384C54.3918 47.1351 54.3372 47.1351 54.2792 47.1384C53.73 47.0821 53.2627 47.473 53.1876 48.1255C53.1842 48.1553 53.1842 48.1885 53.1842 48.2216C53.2013 48.7019 53.7198 49.1358 54.2588 49.1424C54.8182 49.1491 55.2822 48.7019 55.3061 48.162C55.3061 48.1454 55.3061 48.1321 55.3061 48.1156C55.3027 47.6783 54.9479 47.1848 54.4464 47.1384Z" fill="#FD5F01"/>
<path d="M44.6899 73.27L45.1674 72.4717L44.6899 71.6701H43.7415L43.2639 72.4717L43.7415 73.27H44.6899Z" fill="black"/>
<path opacity="0.7" d="M44.6899 73.27L45.1674 72.4717L44.6899 71.6701H43.7415L43.2639 72.4717L43.7415 73.27H44.6899Z" fill="#F7931E"/>
<path d="M77.5685 41.663L79.4174 41.7259L80.3999 40.2022L79.53 38.6155L78.7215 38.5891C78.1689 38.8971 77.6128 39.2118 77.0602 39.5198L76.6986 40.0796L77.5685 41.663Z" fill="black"/>
<path opacity="0.8" d="M77.5685 41.663L79.4174 41.7259L80.3999 40.2022L79.53 38.6155L78.7215 38.5891C78.1689 38.8971 77.6128 39.2118 77.0602 39.5198L76.6986 40.0796L77.5685 41.663Z" fill="#869900"/>
<path d="M77.6776 38.5526L77.0568 39.5198C77.6094 39.2118 78.1654 38.8971 78.7181 38.5891L77.6776 38.5526Z" fill="#464646"/>
<path opacity="0.8" d="M77.6776 38.5526L77.0568 39.5198C77.6094 39.2118 78.1654 38.8971 78.7181 38.5891L77.6776 38.5526Z" fill="#869900"/>
<path d="M93.2767 60.3441L93.2967 60.3085C93.2767 60.3182 93.2534 60.3312 93.2334 60.3441H93.2767Z" fill="black"/>
<path opacity="0.8" d="M93.2767 60.3441L93.2967 60.3085C93.2767 60.3182 93.2534 60.3312 93.2334 60.3441H93.2767Z" fill="#B500BF"/>
<path d="M93.537 58.5132L91.514 59.646L91.9302 60.3449H92.285C92.7831 60.0667 93.2811 59.7885 93.7758 59.5069L93.9531 59.2088L93.537 58.5132Z" fill="black"/>
<path opacity="0.8" d="M93.537 58.5132L91.514 59.646L91.9302 60.3449H92.285C92.7831 60.0667 93.2811 59.7885 93.7758 59.5069L93.9531 59.2088L93.537 58.5132Z" fill="#B500BF"/>
<path d="M93.2334 60.345C93.2538 60.335 93.2777 60.3218 93.2982 60.3085L93.7724 59.5103C93.2743 59.7885 92.7763 60.0667 92.2816 60.3483L93.2334 60.345Z" fill="#464646"/>
<path opacity="0.8" d="M93.2334 60.345C93.2538 60.335 93.2777 60.3218 93.2982 60.3085L93.7724 59.5103C93.2743 59.7885 92.7763 60.0667 92.2816 60.3483L93.2334 60.345Z" fill="#B500BF"/>
<path d="M93.2777 58.0793H91.9268L91.2548 59.2121L91.514 59.6461L93.537 58.5132L93.2777 58.0793Z" fill="black"/>
<path opacity="0.7" d="M93.2777 58.0793H91.9268L91.2548 59.2121L91.514 59.6461L93.537 58.5132L93.2777 58.0793Z" fill="#00A1AD"/>
<path opacity="0.8" d="M93.2777 58.0793H91.9268L91.2548 59.2121L91.514 59.6461L93.537 58.5132L93.2777 58.0793Z" fill="#B500BF"/>
<path d="M88.5154 64.2701H87.3453L86.762 65.2506L87.2941 66.145C87.8775 65.817 88.4642 65.4891 89.0441 65.1645L88.5154 64.2701Z" fill="black"/>
<path opacity="0.8" d="M88.5154 64.2701H87.3453L86.762 65.2506L87.2941 66.145C87.8775 65.817 88.4642 65.4891 89.0441 65.1645L88.5154 64.2701Z" fill="#00A1B2"/>
<path d="M88.5155 66.2344L89.0988 65.254L89.0476 65.1678C88.4643 65.4958 87.8775 65.8237 87.2976 66.1483L87.3488 66.2344H88.5155Z" fill="#464646"/>
<path opacity="0.8" d="M88.5155 66.2344L89.0988 65.254L89.0476 65.1678C88.4643 65.4958 87.8775 65.8237 87.2976 66.1483L87.3488 66.2344H88.5155Z" fill="#00A1B2"/>
<path d="M96.2148 43.763L96.5696 43.1635L96.2148 42.5673H95.5019L95.1471 43.1635L95.5019 43.763H96.2148Z" fill="black"/>
<path opacity="0.8" d="M96.2148 43.763L96.5696 43.1635L96.2148 42.5673H95.5019L95.1471 43.1635L95.5019 43.763H96.2148Z" fill="#AF008E"/>
<path d="M34.5787 63.664L34.8755 63.1638C34.5787 63.3294 34.2819 63.4951 33.9851 63.664H34.5787Z" fill="black"/>
<path opacity="0.7" d="M34.5787 63.664L34.8755 63.1638C34.5787 63.3294 34.2819 63.4951 33.9851 63.664H34.5787Z" fill="#FFB600"/>
<path d="M35.2474 61.8952L34.5787 60.769H32.856L31.9963 62.2165L32.665 63.3427C32.989 63.1605 33.3165 62.9784 33.6406 62.7962C34.1762 62.4947 34.7118 62.1933 35.2474 61.8952Z" fill="black"/>
<path opacity="0.7" d="M35.2474 61.8952L34.5787 60.769H32.856L31.9963 62.2165L32.665 63.3427C32.989 63.1605 33.3165 62.9784 33.6406 62.7962C34.1762 62.4947 34.7118 62.1933 35.2474 61.8952Z" fill="#FFB600"/>
<path d="M35.2473 61.8952C34.7117 62.1966 34.1761 62.4947 33.6406 62.7962C33.3165 62.9784 32.989 63.1605 32.6649 63.3427L32.856 63.664H33.9851C34.2819 63.4984 34.5787 63.3328 34.8755 63.1639L35.4383 62.2165L35.2473 61.8952Z" fill="#464646"/>
<path opacity="0.7" d="M35.2473 61.8952C34.7117 62.1966 34.1761 62.4947 33.6406 62.7962C33.3165 62.9784 32.989 63.1605 32.6649 63.3427L32.856 63.664H33.9851C34.2819 63.4984 34.5787 63.3328 34.8755 63.1639L35.4383 62.2165L35.2473 61.8952Z" fill="#FFB600"/>
<path d="M41.299 25.9324L40.1323 26.5816L40.9067 30.4671L38.0787 32.0371C37.6932 32.2525 37.434 32.4909 37.2975 32.7626C37.1235 33.0905 37.0928 33.5277 37.202 34.0776L37.6864 36.5188C37.7683 36.9395 37.973 37.2144 38.2936 37.3436C38.5768 37.4496 38.8702 37.4165 39.1738 37.2476L43.1173 35.0614L41.299 25.9324ZM38.894 35.8464L38.4096 33.4052L41.1865 31.8682L41.6709 34.3095L38.894 35.8464Z" fill="#999999"/>
<path d="M45.1743 33.9219L47.9648 32.375C48.3605 32.1564 48.6266 31.9146 48.7733 31.6463C48.9609 31.2951 49.0018 30.848 48.8927 30.3047L48.4082 27.8933C48.3196 27.4561 48.1251 27.1811 47.8249 27.0619C47.5247 26.9426 47.2211 26.9658 46.9175 27.1348L42.9603 29.3276L44.2771 35.9358L44.4681 36.8898L44.6251 37.6782L45.7917 37.0289L45.6348 36.2339L45.4438 35.28L45.1743 33.9219ZM47.2006 28.5657L47.6816 30.9771L44.8911 32.524L44.4101 30.1126L47.2006 28.5657Z" fill="#999999"/>
<path d="M51.1237 30.6194C51.1749 30.8678 50.5677 27.8303 49.3089 21.507L48.1285 22.1628L49.9434 31.2753L51.1237 30.6194Z" fill="#999999"/>
<path d="M57.2983 28.6353L55.9951 22.0999L54.8285 22.7491L55.5926 26.5882L52.7885 28.1417C52.2973 25.674 52.0414 24.3921 52.0243 24.3027L50.8577 24.9519L51.6423 28.8904C51.7446 29.3972 51.9015 29.692 52.113 29.7748C52.328 29.8576 52.6452 29.7814 53.0682 29.5462L55.8723 27.9927L56.1316 29.2912L56.2067 29.6688L53.8051 31.0004L53.9074 31.5999L54.0507 32.4545L56.4932 31.0997C56.9503 30.8447 57.2403 30.53 57.3563 30.1524C57.4109 29.9967 57.4382 29.8178 57.4382 29.6158C57.4382 29.4369 57.4177 29.2348 57.3733 29.0195L57.2983 28.6353Z" fill="#999999"/>
<path d="M59.212 26.1377C59.1744 25.9522 58.9186 24.667 58.4444 22.2821L61.2076 20.7517L61.2758 21.0962L62.4834 20.4271L62.4016 20.0064C62.2992 19.4996 62.1252 19.2015 61.8796 19.122C61.6784 19.0491 61.3611 19.132 60.9313 19.3704L56.9707 21.5467L58.018 26.8035L59.212 26.1377Z" fill="#999999"/>
<path d="M44.3317 69.6595L44.973 70.8321L46.8219 70.895L47.801 69.3713L47.1051 68.106C46.1806 68.6227 45.2561 69.1394 44.3317 69.6595Z" fill="black"/>
<path opacity="0.8" d="M44.3317 69.6595L44.973 70.8321L46.8219 70.895L47.801 69.3713L47.1051 68.106C46.1806 68.6227 45.2561 69.1394 44.3317 69.6595Z" fill="#ADBA00"/>
<path d="M45.0822 67.7217L44.1031 69.2454L44.3317 69.6594C45.2596 69.1394 46.1841 68.6227 47.1085 68.1026L46.9346 67.7846L45.0822 67.7217Z" fill="#464646"/>
<path opacity="0.8" d="M45.0822 67.7217L44.1031 69.2454L44.3317 69.6594C45.2596 69.1394 46.1841 68.6227 47.1085 68.1026L46.9346 67.7846L45.0822 67.7217Z" fill="#ADBA00"/>
<path d="M60 107.424L59.4269 107.103L17.5731 83.6378L17 83.3198V35.1044L60 11L103 35.1044V83.3165L102.427 83.6378L60.5731 107.103L60 107.424ZM19.2924 82.0346L60 104.857L100.708 82.0346V36.3929L60 13.5704L19.2924 36.3929V82.0346Z" fill="#4D4D4D"/>
</svg>
