<svg width="118" height="118" viewBox="0 0 118 118" fill="none" xmlns="http://www.w3.org/2000/svg">
<rect x="27" y="15" width="65" height="65" rx="13.4873" fill="#2C2E35"/>
<path d="M51.3521 71.6469C55.8224 71.6469 59.4505 68.0188 59.4505 63.5485V55.4501H51.3521C46.8817 55.4501 43.2537 59.0782 43.2537 63.5485C43.2537 68.0188 46.8817 71.6469 51.3521 71.6469Z" fill="#0ACF83"/>
<path d="M43.2537 47.3516C43.2537 42.8813 46.8817 39.2532 51.3521 39.2532H59.4505V55.45H51.3521C46.8817 55.45 43.2537 51.8219 43.2537 47.3516Z" fill="#A259FF"/>
<path d="M43.2537 31.1548C43.2537 26.6845 46.8817 23.0564 51.3521 23.0564H59.4505V39.2532H51.3521C46.8817 39.2532 43.2537 35.6251 43.2537 31.1548Z" fill="#F24E1E"/>
<path d="M59.4504 23.0564H67.5488C72.0192 23.0564 75.6473 26.6845 75.6473 31.1548C75.6473 35.6251 72.0192 39.2532 67.5488 39.2532H59.4504V23.0564Z" fill="#FF7262"/>
<path d="M75.6473 47.3516C75.6473 51.8219 72.0192 55.45 67.5488 55.45C63.0785 55.45 59.4504 51.8219 59.4504 47.3516C59.4504 42.8813 63.0785 39.2532 67.5488 39.2532C72.0192 39.2532 75.6473 42.8813 75.6473 47.3516Z" fill="#1ABCFE"/>
<path d="M46.1304 87.2H40.2784V97H42.2104V93.22H46.0184V91.372H42.2104V89.048H46.1304V87.2ZM48.3502 89.384C48.9662 89.384 49.4702 88.894 49.4702 88.306C49.4702 87.718 48.9662 87.214 48.3502 87.214C47.7482 87.214 47.2442 87.718 47.2442 88.306C47.2442 88.894 47.7482 89.384 48.3502 89.384ZM49.2602 97V90H47.4542V97H49.2602ZM56.2751 90.868C55.7431 90.154 55.0011 89.804 54.0351 89.804C53.0551 89.804 52.2291 90.154 51.5571 90.854C50.8851 91.554 50.5491 92.394 50.5491 93.388C50.5491 94.382 50.8851 95.236 51.5431 95.936C52.2151 96.622 53.0411 96.972 54.0351 96.972C55.0011 96.972 55.7431 96.622 56.2751 95.908V96.664C56.2751 97.77 55.5751 98.386 54.4411 98.386C53.5731 98.386 52.9571 98.064 52.6071 97.406L51.0671 98.288C51.6831 99.408 52.8731 99.996 54.3851 99.996C55.3931 99.996 56.2471 99.716 56.9611 99.142C57.6751 98.568 58.0391 97.742 58.0391 96.664V90H56.2751V90.868ZM56.2751 93.388C56.2751 94.508 55.4491 95.306 54.3151 95.306C53.1811 95.306 52.3551 94.508 52.3551 93.388C52.3551 92.842 52.5371 92.38 52.9011 92.03C53.2791 91.666 53.7411 91.484 54.3151 91.484C54.8891 91.484 55.3511 91.666 55.7151 92.03C56.0931 92.38 56.2751 92.842 56.2751 93.388ZM67.4188 89.804C66.4948 89.804 65.7948 90.14 65.3328 90.812C64.9268 90.14 64.2828 89.804 63.4288 89.804C62.5468 89.804 61.9028 90.112 61.4828 90.742V90H59.6768V97H61.4828V93.066C61.4828 92.044 62.0008 91.484 62.7988 91.484C63.5408 91.484 63.9748 91.974 63.9748 92.814V97H65.7808V93.066C65.7808 92.044 66.2568 91.484 67.0828 91.484C67.8248 91.484 68.2588 91.974 68.2588 92.814V97H70.0648V92.688C70.0648 90.938 69.0288 89.804 67.4188 89.804ZM76.9187 90.826C76.3727 90.14 75.6167 89.804 74.6367 89.804C73.6987 89.804 72.9007 90.168 72.2287 90.882C71.5707 91.596 71.2347 92.464 71.2347 93.5C71.2347 94.536 71.5707 95.418 72.2287 96.132C72.9007 96.846 73.6987 97.196 74.6367 97.196C75.6167 97.196 76.3727 96.86 76.9187 96.174V97H78.7247V90H76.9187V90.826ZM73.5867 94.928C73.2227 94.55 73.0407 94.074 73.0407 93.5C73.0407 92.926 73.2227 92.45 73.5867 92.086C73.9507 91.708 74.4127 91.526 74.9727 91.526C75.5327 91.526 75.9947 91.708 76.3587 92.086C76.7367 92.45 76.9187 92.926 76.9187 93.5C76.9187 94.074 76.7367 94.55 76.3587 94.928C75.9947 95.292 75.5327 95.474 74.9727 95.474C74.4127 95.474 73.9507 95.292 73.5867 94.928Z" fill="black"/>
</svg>
