<svg width="118" height="118" viewBox="0 0 118 118" fill="none" xmlns="http://www.w3.org/2000/svg">
<path d="M14.7059 102.247H12.1699V82.6032H23.6422V85.0264H14.7059V91.4831H22.7888V93.8419H14.722V102.247H14.7059ZM28.0056 85.437C27.6595 85.7832 27.2328 85.9523 26.7417 85.9523C26.2506 85.9523 25.8159 85.7832 25.4777 85.437C25.1315 85.0908 24.9625 84.6642 24.9625 84.1731C24.9625 83.682 25.1315 83.2472 25.4777 82.9091C25.8239 82.5629 26.2506 82.3939 26.7417 82.3939C27.2328 82.3939 27.6675 82.5629 28.0056 82.9091C28.3438 83.2553 28.5209 83.682 28.5209 84.1731C28.5209 84.6642 28.3438 85.0667 28.0056 85.437ZM28.0056 102.247H25.4777V88.8022H28.0056V102.247ZM33.2788 102.247H30.7509V88.8022H33.1742V90.992H33.2788C33.5365 90.2594 34.0517 89.6636 34.8648 89.1887C35.6618 88.7137 36.4347 88.4802 37.1834 88.4802C37.9321 88.4802 38.5601 88.5848 39.0673 88.8022L38.1012 91.1611C37.7792 91.0323 37.3283 90.9678 36.7487 90.9678C35.8229 90.9678 35.0339 91.3301 34.3254 92.0627C33.617 92.7954 33.2708 93.7373 33.2708 94.8966V102.247H33.2788ZM45.1617 102.698C43.1248 102.698 41.4745 102.013 40.2105 100.661C38.9465 99.3084 38.3025 97.5936 38.3025 95.5326C38.3025 93.5843 38.9224 91.8856 40.1461 90.4687C41.3939 89.0518 42.9558 88.3433 44.8879 88.3433C46.8845 88.3433 48.4705 88.9874 49.6701 90.2916C50.8696 91.6039 51.4734 93.3348 51.4734 95.5004L51.4493 95.9754H40.8304C40.8948 97.3279 41.3698 98.3986 42.1829 99.1957C43.0202 99.9927 43.9863 100.379 45.0973 100.379C46.9006 100.379 48.1404 99.6062 48.7845 98.0605L51.0387 99.0024C50.612 100.057 49.8794 100.91 48.873 101.619C47.8667 102.335 46.6188 102.698 45.1617 102.698ZM48.7925 93.9064C48.7281 93.1335 48.382 92.4009 47.7379 91.7166C47.0938 91.0323 46.1278 90.6619 44.8396 90.6619C43.8977 90.6619 43.1007 90.9598 42.4164 91.5395C41.7321 92.1191 41.2571 92.9161 40.9995 93.8983L48.7925 93.9064ZM60.3533 102.698C59.3228 102.698 58.4051 102.48 57.5839 102.03C56.7708 101.603 56.167 101.039 55.7644 100.379H55.6598V102.247H53.2365V82.6032H55.7644V88.8022L55.6598 90.67H55.7644C56.175 90.0018 56.7708 89.4704 57.5839 89.0196C58.397 88.5929 59.3228 88.3514 60.3533 88.3514C62.0923 88.3514 63.5897 89.0357 64.8617 90.4124C66.1257 91.789 66.7456 93.4797 66.7456 95.5165C66.7456 97.5533 66.1257 99.252 64.8617 100.621C63.5897 102.013 62.0923 102.698 60.3533 102.698ZM59.9186 100.387C61.102 100.387 62.1084 99.9363 62.9457 99.0588C63.7829 98.1813 64.2096 96.9978 64.2096 95.5406C64.2096 94.0835 63.7829 92.9 62.9457 92.0225C62.1084 91.145 61.102 90.6941 59.9186 90.6941C58.7351 90.6941 57.7127 91.1208 56.8915 92.0064C56.0784 92.8839 55.6437 94.0674 55.6437 95.5487C55.6437 97.03 56.0543 98.2054 56.8915 99.091C57.7369 99.9524 58.7432 100.387 59.9186 100.387ZM73.0251 102.698C71.5841 102.698 70.4087 102.287 69.4426 101.45C68.4765 100.637 68.0015 99.5418 68.0015 98.1893C68.0015 96.7321 68.557 95.5729 69.6921 94.7356C70.8273 93.8983 72.2201 93.4877 73.8946 93.4877C75.3759 93.4877 76.5996 93.7695 77.5416 94.3008V93.9144C77.5416 92.9242 77.1954 92.1352 76.5352 91.5314C75.8509 90.9276 75.0298 90.6297 74.0476 90.6297C73.315 90.6297 72.6548 90.7988 72.051 91.145C71.4472 91.4911 71.0447 91.9581 70.8273 92.586L68.5087 91.5958C68.8307 90.7827 69.4345 90.0501 70.3523 89.3658C71.2781 88.6815 72.4777 88.3353 73.9751 88.3353C75.6899 88.3353 77.131 88.8264 78.2661 89.8408C79.4013 90.8471 79.9568 92.264 79.9568 94.0915V102.239H77.5335V100.371H77.4289C76.4386 101.925 74.9573 102.698 73.0251 102.698ZM73.4357 100.387C74.4904 100.387 75.4323 100.001 76.2696 99.2279C77.131 98.455 77.5577 97.5372 77.5577 96.4584C76.8492 95.8788 75.7785 95.5809 74.3374 95.5809C73.1137 95.5809 72.1959 95.8385 71.568 96.3779C70.9481 96.9173 70.626 97.5372 70.626 98.2457C70.626 98.9139 70.9078 99.4291 71.4874 99.8156C72.059 100.194 72.7031 100.387 73.4357 100.387ZM86.9931 102.698C85.4876 102.698 84.2478 102.335 83.2817 101.603C82.3262 100.905 81.5846 99.9541 81.1402 98.8575L83.3944 97.9156C84.1029 99.6062 85.3266 100.444 87.0414 100.444C87.8384 100.444 88.4825 100.274 88.9736 99.9283C89.4647 99.5821 89.7223 99.1152 89.7223 98.5516C89.7223 97.6741 89.1024 97.0703 87.8787 96.7724L85.1495 96.1122C84.2881 95.8949 83.4749 95.4682 82.7021 94.8644C81.9292 94.2445 81.5428 93.4233 81.5428 92.3767C81.5428 91.1933 82.0822 90.2352 83.1288 89.4785C84.1834 88.7298 85.4232 88.3594 86.8804 88.3594C88.0638 88.3594 89.1346 88.6412 90.0524 89.1725C90.9943 89.7119 91.6625 90.4848 92.0489 91.4911L89.8591 92.3928C89.368 91.2094 88.3376 90.6136 86.7918 90.6136C86.0431 90.6136 85.4152 90.7666 84.908 91.0886C84.3927 91.4106 84.1351 91.8212 84.1351 92.3526C84.1351 93.1254 84.7389 93.6407 85.9143 93.9225L88.571 94.5424C89.835 94.8402 90.7608 95.3394 91.3807 96.0478C91.9845 96.7563 92.2824 97.5694 92.2824 98.4711C92.2824 99.6707 91.7913 100.677 90.8011 101.498C89.8269 102.311 88.5549 102.698 86.9931 102.698ZM100.188 102.698C98.1514 102.698 96.501 102.013 95.237 100.661C93.973 99.3084 93.329 97.5936 93.329 95.5326C93.329 93.5843 93.9489 91.8856 95.1726 90.4687C96.4204 89.0518 97.9823 88.3433 99.9145 88.3433C101.911 88.3433 103.497 88.9874 104.697 90.2916C105.896 91.6039 106.5 93.3348 106.5 95.5004L106.476 95.9754H95.8569C95.9213 97.3279 96.3963 98.3986 97.2094 99.1957C98.0467 99.9927 99.0128 100.379 100.124 100.379C101.927 100.379 103.167 99.6062 103.811 98.0605L106.065 99.0024C105.638 100.057 104.906 100.91 103.9 101.619C102.885 102.335 101.645 102.698 100.188 102.698ZM103.811 93.9064C103.747 93.1335 103.4 92.4009 102.756 91.7166C102.112 91.0323 101.146 90.6619 99.8581 90.6619C98.9162 90.6619 98.1191 90.9598 97.4348 91.5395C96.7505 92.1191 96.2755 92.9161 96.0179 93.8983L103.811 93.9064ZM37.1271 57.002L43.3181 17.3281C43.5354 15.9756 45.3468 15.6536 45.9828 16.8692L52.6327 29.3237L37.1271 57.002ZM81.1402 66.6386L75.231 30.0965C75.0539 28.9614 73.6289 28.4945 72.8078 29.3156L35.5974 66.6386L56.1992 78.1994C57.4792 78.9079 59.0813 78.9079 60.3614 78.1994L81.1402 66.6386ZM64.4109 34.7659L59.6449 25.6928C59.1135 24.6623 57.6564 24.6623 57.117 25.6928L36.161 63.048L64.4109 34.7659Z" fill="#F58220"/>
</svg>
