<svg width="118" height="118" viewBox="0 0 118 118" fill="none" xmlns="http://www.w3.org/2000/svg">
<g clip-path="url(#clip0_17_370)">
<path d="M20.9928 81.1697V37.0504L59.2008 14.9907L97.4088 37.0504V81.1697L59.2008 103.228L20.9928 81.1697Z" fill="white"/>
<path d="M80.9784 80.164C81.2639 80.39 81.5495 80.616 81.8334 80.842C85.6142 76.0818 89.3232 71.2444 93.1409 66.5245C92.8658 66.302 92.589 66.0795 92.3139 65.857C88.4209 70.5209 84.782 75.4195 80.9784 80.164Z" fill="#101010"/>
<path d="M36.5613 68.5008C36.3125 68.2362 36.2582 67.835 35.9341 67.6248C32.7857 69.5923 29.6373 71.5598 26.4872 73.5273C26.5906 73.8812 26.7745 74.1808 27.0881 74.3875C30.2453 72.4253 33.4024 70.463 36.5595 68.5008H36.5613Z" fill="#101010"/>
<path d="M56.5991 60.2628C58.0795 64.4396 59.5985 68.6024 61.0247 72.7968C61.2069 72.8125 61.2454 72.6303 61.3576 72.5515C61.4417 72.0977 61.6572 71.672 61.6414 71.1989C60.2713 67.2674 58.8662 63.3464 57.5154 59.4078C57.2228 59.5007 56.9144 59.562 56.6867 59.7915C56.6727 59.951 56.706 60.1192 56.5991 60.2628Z" fill="#101010"/>
<path d="M52.0683 57.5419C48.9024 59.5182 45.7365 61.4962 42.5707 63.4725C42.7564 63.7791 42.8878 64.1243 43.1944 64.345C46.3515 62.374 49.5086 60.403 52.6658 58.432C52.4678 58.1341 52.3399 57.789 52.0683 57.5419Z" fill="#101010"/>
<path d="M95.4851 35.4244V82.9479" stroke="#F3F3F4" stroke-width="0.525605" stroke-miterlimit="10"/>
<path d="M68.229 19.0361V99.7147" stroke="#F3F3F4" stroke-width="0.525605" stroke-miterlimit="10"/>
<path d="M40.9746 24.6005V93.9278" stroke="#F3F3F4" stroke-width="0.525605" stroke-miterlimit="10"/>
<path d="M95.485 65.4067C94.1904 65.4067 93.1408 64.3572 93.1408 63.0625C93.1408 61.7679 94.1904 60.7183 95.485 60.7183C96.7797 60.7183 97.8292 61.7679 97.8292 63.0625C97.8292 64.3572 96.7797 65.4067 95.485 65.4067Z" fill="#F8F7CF"/>
<path d="M95.4851 66.5017C94.3036 66.5017 93.3458 65.544 93.3458 64.3625C93.3458 63.1811 94.3036 62.2233 95.4851 62.2233C96.6665 62.2233 97.6243 63.1811 97.6243 64.3625C97.6243 65.544 96.6665 66.5017 95.4851 66.5017Z" fill="#F6F6D2"/>
<path d="M95.485 67.6002C94.4158 67.6002 93.5491 66.7335 93.5491 65.6642C93.5491 64.595 94.4158 63.7283 95.485 63.7283C96.5543 63.7283 97.421 64.595 97.421 65.6642C97.421 66.7335 96.5543 67.6002 95.485 67.6002Z" fill="#F5F4D5"/>
<path d="M95.4851 68.6953C94.5291 68.6953 93.7541 67.9203 93.7541 66.9643C93.7541 66.0083 94.5291 65.2333 95.4851 65.2333C96.4411 65.2333 97.2161 66.0083 97.2161 66.9643C97.2161 67.9203 96.4411 68.6953 95.4851 68.6953Z" fill="#F3F3D8"/>
<path d="M95.4851 69.7938C94.6413 69.7938 93.9573 69.1098 93.9573 68.266C93.9573 67.4223 94.6413 66.7383 95.4851 66.7383C96.3288 66.7383 97.0128 67.4223 97.0128 68.266C97.0128 69.1098 96.3288 69.7938 95.4851 69.7938Z" fill="#F1F2DB"/>
<path d="M95.4851 70.8888C94.7545 70.8888 94.1623 70.2965 94.1623 69.566C94.1623 68.8355 94.7545 68.2432 95.4851 68.2432C96.2156 68.2432 96.8079 68.8355 96.8079 69.566C96.8079 70.2965 96.2156 70.8888 95.4851 70.8888Z" fill="#EFF1DE"/>
<path d="M95.4851 71.9873C94.8668 71.9873 94.3655 71.4861 94.3655 70.8678C94.3655 70.2495 94.8668 69.7482 95.4851 69.7482C96.1034 69.7482 96.6046 70.2495 96.6046 70.8678C96.6046 71.4861 96.1034 71.9873 95.4851 71.9873Z" fill="#EDF0E1"/>
<path d="M95.4851 73.0823C94.98 73.0823 94.5706 72.6729 94.5706 72.1678C94.5706 71.6627 94.98 71.2532 95.4851 71.2532C95.9902 71.2532 96.3997 71.6627 96.3997 72.1678C96.3997 72.6729 95.9902 73.0823 95.4851 73.0823Z" fill="#ECEFE5"/>
<path d="M95.4851 74.1791C95.0933 74.1791 94.7756 73.8614 94.7756 73.4695C94.7756 73.0776 95.0933 72.7599 95.4851 72.7599C95.877 72.7599 96.1947 73.0776 96.1947 73.4695C96.1947 73.8614 95.877 74.1791 95.4851 74.1791Z" fill="#EAEEE8"/>
<path d="M95.4851 75.2758C95.2055 75.2758 94.9788 75.0492 94.9788 74.7695C94.9788 74.4899 95.2055 74.2632 95.4851 74.2632C95.7648 74.2632 95.9915 74.4899 95.9915 74.7695C95.9915 75.0492 95.7648 75.2758 95.4851 75.2758Z" fill="#E8EDEB"/>
<path d="M95.485 76.3726C95.3186 76.3726 95.1837 76.2377 95.1837 76.0712C95.1837 75.9048 95.3186 75.7699 95.485 75.7699C95.6515 75.7699 95.7864 75.9048 95.7864 76.0712C95.7864 76.2377 95.6515 76.3726 95.485 76.3726Z" fill="#E6ECEE"/>
<path d="M95.485 77.4694C95.4308 77.4694 95.3869 77.4254 95.3869 77.3712C95.3869 77.3171 95.4308 77.2731 95.485 77.2731C95.5392 77.2731 95.5831 77.3171 95.5831 77.3712C95.5831 77.4254 95.5392 77.4694 95.485 77.4694Z" fill="#E4EBF1"/>
<path d="M95.3099 67.5757C92.8174 67.5757 90.7967 65.5551 90.7967 63.0625C90.7967 60.5699 92.8174 58.5493 95.3099 58.5493C97.8025 58.5493 99.8231 60.5699 99.8231 63.0625C99.8231 65.5551 97.8025 67.5757 95.3099 67.5757Z" fill="#F8F7CF"/>
<path d="M36.0232 38.5935V43.3422C36.0232 44.2604 35.7971 44.9388 35.3448 45.3773C34.8994 45.8227 34.2245 46.0454 33.32 46.0454C32.8197 46.0454 32.3435 45.97 31.8912 45.8193C31.4458 45.6754 31.0827 45.4733 30.8017 45.2129L31.1717 44.6578C31.4321 44.8908 31.7473 45.0724 32.1174 45.2026C32.4942 45.3328 32.8883 45.3979 33.2994 45.3979C33.9846 45.3979 34.4883 45.2368 34.8103 44.9148C35.1324 44.5996 35.2934 44.1062 35.2934 43.4347V42.746C35.0673 43.0886 34.7692 43.349 34.3992 43.5272C34.036 43.7053 33.6317 43.7944 33.1863 43.7944C32.6793 43.7944 32.2167 43.6848 31.7987 43.4655C31.3876 43.2394 31.0621 42.9276 30.8223 42.5302C30.5893 42.1259 30.4728 41.6702 30.4728 41.1631C30.4728 40.6561 30.5893 40.2038 30.8223 39.8064C31.0621 39.4089 31.3876 39.1006 31.7987 38.8813C32.2099 38.662 32.6724 38.5524 33.1863 38.5524C33.6454 38.5524 34.06 38.6449 34.43 38.8299C34.8001 39.0149 35.0981 39.2822 35.3243 39.6316V38.5935H36.0232ZM33.2583 43.1469C33.6489 43.1469 34.0018 43.0647 34.317 42.9002C34.6322 42.7289 34.8754 42.4925 35.0467 42.191C35.2249 41.8895 35.314 41.5469 35.314 41.1631C35.314 40.7794 35.2249 40.4402 35.0467 40.1456C34.8754 39.8441 34.6322 39.6111 34.317 39.4466C34.0086 39.2753 33.6557 39.1897 33.2583 39.1897C32.8677 39.1897 32.5148 39.2719 32.1996 39.4363C31.8912 39.6008 31.648 39.8338 31.4698 40.1353C31.2985 40.4368 31.2129 40.7794 31.2129 41.1631C31.2129 41.5469 31.2985 41.8895 31.4698 42.191C31.648 42.4925 31.8912 42.7289 32.1996 42.9002C32.5148 43.0647 32.8677 43.1469 33.2583 43.1469ZM43.0696 38.5935V43.3422C43.0696 44.2604 42.8435 44.9388 42.3912 45.3773C41.9458 45.8227 41.2709 46.0454 40.3663 46.0454C39.8661 46.0454 39.3899 45.97 38.9376 45.8193C38.4922 45.6754 38.1291 45.4733 37.8481 45.2129L38.2181 44.6578C38.4785 44.8908 38.7937 45.0724 39.1638 45.2026C39.5406 45.3328 39.9347 45.3979 40.3458 45.3979C41.031 45.3979 41.5347 45.2368 41.8567 44.9148C42.1788 44.5996 42.3398 44.1062 42.3398 43.4347V42.746C42.1137 43.0886 41.8156 43.349 41.4456 43.5272C41.0824 43.7053 40.6781 43.7944 40.2327 43.7944C39.7257 43.7944 39.2631 43.6848 38.8451 43.4655C38.434 43.2394 38.1085 42.9276 37.8687 42.5302C37.6357 42.1259 37.5192 41.6702 37.5192 41.1631C37.5192 40.6561 37.6357 40.2038 37.8687 39.8064C38.1085 39.4089 38.434 39.1006 38.8451 38.8813C39.2563 38.662 39.7188 38.5524 40.2327 38.5524C40.6918 38.5524 41.1064 38.6449 41.4764 38.8299C41.8465 39.0149 42.1445 39.2822 42.3707 39.6316V38.5935H43.0696ZM40.3047 43.1469C40.6953 43.1469 41.0482 43.0647 41.3634 42.9002C41.6786 42.7289 41.9218 42.4925 42.0931 42.191C42.2713 41.8895 42.3604 41.5469 42.3604 41.1631C42.3604 40.7794 42.2713 40.4402 42.0931 40.1456C41.9218 39.8441 41.6786 39.6111 41.3634 39.4466C41.055 39.2753 40.7021 39.1897 40.3047 39.1897C39.9141 39.1897 39.5612 39.2719 39.246 39.4363C38.9376 39.6008 38.6944 39.8338 38.5162 40.1353C38.3449 40.4368 38.2593 40.7794 38.2593 41.1631C38.2593 41.5469 38.3449 41.8895 38.5162 42.191C38.6944 42.4925 38.9376 42.7289 39.246 42.9002C39.5612 43.0647 39.9141 43.1469 40.3047 43.1469ZM47.0016 38.5524C47.7074 38.5524 48.2487 38.7306 48.6256 39.0869C49.0025 39.4363 49.1909 39.9571 49.1909 40.6492V44H48.492V43.1572C48.3275 43.4381 48.0843 43.6574 47.7622 43.815C47.447 43.9726 47.0701 44.0514 46.6316 44.0514C46.0286 44.0514 45.5489 43.9075 45.1926 43.6197C44.8363 43.3319 44.6581 42.9516 44.6581 42.4788C44.6581 42.0197 44.8226 41.6496 45.1515 41.3687C45.4872 41.0878 46.0183 40.9473 46.7446 40.9473H48.4611V40.6184C48.4611 40.1524 48.331 39.7995 48.0706 39.5597C47.8102 39.313 47.4299 39.1897 46.9297 39.1897C46.587 39.1897 46.2581 39.2479 45.9429 39.3644C45.6277 39.474 45.357 39.6282 45.1309 39.8269L44.802 39.2822C45.0761 39.0492 45.405 38.871 45.7887 38.7477C46.1725 38.6175 46.5768 38.5524 47.0016 38.5524ZM46.7446 43.4758C47.1558 43.4758 47.5087 43.3833 47.8033 43.1983C48.098 43.0064 48.3173 42.7323 48.4611 42.376V41.492H46.7652C45.8401 41.492 45.3776 41.8141 45.3776 42.4582C45.3776 42.7734 45.4975 43.0235 45.7373 43.2086C45.9772 43.3867 46.3129 43.4758 46.7446 43.4758ZM53.9277 38.5524C54.6061 38.5524 55.144 38.7511 55.5414 39.1485C55.9457 39.5391 56.1479 40.1113 56.1479 40.8651V44H55.4181V40.937C55.4181 40.3751 55.2776 39.9468 54.9967 39.6522C54.7157 39.3575 54.3149 39.2102 53.7941 39.2102C53.2116 39.2102 52.7491 39.385 52.4065 39.7344C52.0707 40.077 51.9028 40.5533 51.9028 41.1631V44H51.1731V38.5935H51.872V39.5905C52.0707 39.2616 52.3448 39.0081 52.6943 38.8299C53.0506 38.6449 53.4617 38.5524 53.9277 38.5524ZM58.1291 38.5935H58.8589V44H58.1291V38.5935ZM58.4991 37.4115C58.3484 37.4115 58.2216 37.3601 58.1188 37.2573C58.0161 37.1545 57.9647 37.0312 57.9647 36.8873C57.9647 36.7502 58.0161 36.6303 58.1188 36.5275C58.2216 36.4247 58.3484 36.3734 58.4991 36.3734C58.6499 36.3734 58.7767 36.4247 58.8795 36.5275C58.9822 36.6235 59.0336 36.74 59.0336 36.877C59.0336 37.0278 58.9822 37.1545 58.8795 37.2573C58.7767 37.3601 58.6499 37.4115 58.4991 37.4115ZM67.6322 38.5524C68.3105 38.5524 68.8416 38.7477 69.2253 39.1383C69.6159 39.5289 69.8112 40.1044 69.8112 40.8651V44H69.0814V40.937C69.0814 40.3751 68.9444 39.9468 68.6703 39.6522C68.403 39.3575 68.0227 39.2102 67.5294 39.2102C66.9675 39.2102 66.5255 39.385 66.2034 39.7344C65.8814 40.077 65.7204 40.5533 65.7204 41.1631V44H64.9906V40.937C64.9906 40.3751 64.8535 39.9468 64.5794 39.6522C64.3122 39.3575 63.9285 39.2102 63.4283 39.2102C62.8732 39.2102 62.4312 39.385 62.1023 39.7344C61.7803 40.077 61.6192 40.5533 61.6192 41.1631V44H60.8895V38.5935H61.5884V39.5802C61.7803 39.2513 62.0475 38.9978 62.3901 38.8196C62.7327 38.6415 63.1267 38.5524 63.5721 38.5524C64.0244 38.5524 64.415 38.6483 64.7439 38.8402C65.0797 39.0321 65.3298 39.3164 65.4942 39.6933C65.6929 39.337 65.9773 39.0595 66.3473 38.8608C66.7242 38.6552 67.1525 38.5524 67.6322 38.5524ZM73.6815 38.5524C74.3873 38.5524 74.9287 38.7306 75.3055 39.0869C75.6824 39.4363 75.8709 39.9571 75.8709 40.6492V44H75.1719V43.1572C75.0075 43.4381 74.7642 43.6574 74.4421 43.815C74.1269 43.9726 73.7501 44.0514 73.3115 44.0514C72.7085 44.0514 72.2288 43.9075 71.8725 43.6197C71.5162 43.3319 71.338 42.9516 71.338 42.4788C71.338 42.0197 71.5025 41.6496 71.8314 41.3687C72.1672 41.0878 72.6982 40.9473 73.4246 40.9473H75.1411V40.6184C75.1411 40.1524 75.0109 39.7995 74.7505 39.5597C74.4901 39.313 74.1098 39.1897 73.6096 39.1897C73.267 39.1897 72.9381 39.2479 72.6229 39.3644C72.3076 39.474 72.037 39.6282 71.8108 39.8269L71.4819 39.2822C71.756 39.0492 72.0849 38.871 72.4687 38.7477C72.8524 38.6175 73.2567 38.5524 73.6815 38.5524ZM73.4246 43.4758C73.8357 43.4758 74.1886 43.3833 74.4833 43.1983C74.7779 43.0064 74.9972 42.7323 75.1411 42.376V41.492H73.4451C72.5201 41.492 72.0575 41.8141 72.0575 42.4582C72.0575 42.7734 72.1774 43.0235 72.4173 43.2086C72.6571 43.3867 72.9929 43.4758 73.4246 43.4758ZM80.7001 43.6711C80.5631 43.7944 80.3918 43.8904 80.1862 43.9589C79.9875 44.0206 79.7785 44.0514 79.5592 44.0514C79.0522 44.0514 78.6616 43.9143 78.3875 43.6403C78.1134 43.3662 77.9763 42.979 77.9763 42.4788V39.2102H77.0102V38.5935H77.9763V37.4115H78.7061V38.5935H80.3507V39.2102H78.7061V42.4377C78.7061 42.7597 78.7849 43.0064 78.9425 43.1777C79.107 43.3422 79.34 43.4244 79.6415 43.4244C79.7922 43.4244 79.9361 43.4004 80.0732 43.3525C80.2171 43.3045 80.3404 43.236 80.4432 43.1469L80.7001 43.6711ZM86.5455 41.5229H82.0229C82.0641 42.0848 82.2799 42.5405 82.6705 42.8899C83.0611 43.2325 83.5544 43.4038 84.1506 43.4038C84.4864 43.4038 84.7947 43.3456 85.0757 43.2291C85.3566 43.1058 85.5999 42.9276 85.8054 42.6946L86.2166 43.1674C85.9767 43.4552 85.6752 43.6745 85.3121 43.8253C84.9557 43.976 84.5617 44.0514 84.13 44.0514C83.575 44.0514 83.0816 43.9349 82.6499 43.7019C82.2251 43.4621 81.8927 43.1332 81.6529 42.7152C81.4131 42.2972 81.2932 41.8244 81.2932 41.2968C81.2932 40.7691 81.4062 40.2963 81.6324 39.8783C81.8653 39.4603 82.1805 39.1348 82.578 38.9019C82.9823 38.6689 83.4345 38.5524 83.9347 38.5524C84.435 38.5524 84.8838 38.6689 85.2812 38.9019C85.6787 39.1348 85.9904 39.4603 86.2166 39.8783C86.4427 40.2895 86.5558 40.7623 86.5558 41.2968L86.5455 41.5229ZM83.9347 39.1794C83.414 39.1794 82.9754 39.3473 82.6191 39.683C82.2696 40.0119 82.0709 40.4436 82.0229 40.9781H85.8568C85.8089 40.4436 85.6067 40.0119 85.2504 39.683C84.9009 39.3473 84.4624 39.1794 83.9347 39.1794Z" fill="#231F20"/>
<path d="M53.2106 57.542C53.2106 58.0886 53.4332 58.5844 53.7906 58.9436C54.148 59.3027 54.6438 59.5235 55.1922 59.5235C55.7406 59.5235 56.2346 59.301 56.5938 58.9436C56.953 58.5862 57.1737 58.0903 57.1737 57.542C57.1737 56.9936 56.9512 56.4995 56.5938 56.1403C56.2364 55.7812 55.7406 55.5604 55.1922 55.5604C54.6438 55.5604 54.1497 55.7829 53.7906 56.1403C53.4314 56.4978 53.2106 56.9936 53.2106 57.542Z" fill="#C9524D"/>
<path d="M55.1922 56.1929C54.6736 56.1929 54.204 56.4031 53.8641 56.743C53.5242 57.0829 53.314 57.5524 53.314 58.071C53.314 58.5896 53.5242 59.0592 53.8641 59.3991C54.204 59.739 54.6736 59.9492 55.1922 59.9492C55.7107 59.9492 56.1803 59.739 56.5202 59.3991C56.8601 59.0592 57.0703 58.5896 57.0703 58.071C57.0703 57.5524 56.8601 57.0829 56.5202 56.743C56.1803 56.4031 55.7107 56.1929 55.1922 56.1929Z" fill="#C7564F"/>
<path d="M55.1922 56.8236C54.7034 56.8236 54.2601 57.0216 53.9395 57.3422C53.6189 57.6628 53.4209 58.1061 53.4209 58.5949C53.4209 59.0837 53.6189 59.527 53.9395 59.8476C54.2601 60.1682 54.7034 60.3662 55.1922 60.3662C55.681 60.3662 56.1243 60.1682 56.4449 59.8476C56.7655 59.527 56.9635 59.0837 56.9635 58.5949C56.9635 58.1061 56.7655 57.6628 56.4449 57.3422C56.1243 57.0216 55.681 56.8236 55.1922 56.8236Z" fill="#C55952"/>
<path d="M55.1922 57.4561C54.7314 57.4561 54.3144 57.6435 54.0131 57.9449C53.7117 58.2462 53.5243 58.6632 53.5243 59.124C53.5243 59.5848 53.7117 60.0017 54.0131 60.3031C54.3144 60.6044 54.7314 60.7919 55.1922 60.7919C55.653 60.7919 56.0699 60.6044 56.3713 60.3031C56.6726 60.0017 56.8601 59.5848 56.8601 59.124C56.8601 58.6632 56.6726 58.2462 56.3713 57.9449C56.0699 57.6435 55.653 57.4561 55.1922 57.4561Z" fill="#C35D55"/>
<path d="M55.1922 58.0886C54.7595 58.0886 54.3688 58.2638 54.0867 58.5458C53.8046 58.8279 53.6294 59.2204 53.6294 59.6514C53.6294 60.0824 53.8046 60.4748 54.0867 60.7569C54.3688 61.039 54.7612 61.2142 55.1922 61.2142C55.6232 61.2142 56.0157 61.039 56.2977 60.7569C56.5798 60.4748 56.755 60.0824 56.755 59.6514C56.755 59.2204 56.5798 58.8279 56.2977 58.5458C56.0157 58.2638 55.6232 58.0886 55.1922 58.0886Z" fill="#C16058"/>
<path d="M55.1922 58.7193C54.7892 58.7193 54.4248 58.8822 54.1602 59.1468C53.8957 59.4113 53.7328 59.7758 53.7328 60.1787C53.7328 60.5817 53.8957 60.9461 54.1602 61.2107C54.4248 61.4752 54.7892 61.6382 55.1922 61.6382C55.5951 61.6382 55.9596 61.4752 56.2241 61.2107C56.4887 60.9461 56.6516 60.5817 56.6516 60.1787C56.6516 59.7758 56.4887 59.4113 56.2241 59.1468C55.9596 58.8822 55.5951 58.7193 55.1922 58.7193Z" fill="#BF635A"/>
<path d="M55.1922 59.3517C54.8172 59.3517 54.4791 59.5042 54.2338 59.7495C53.9885 59.9947 53.8361 60.3329 53.8361 60.7078C53.8361 61.0827 53.9885 61.4209 54.2338 61.6662C54.4791 61.9114 54.8172 62.0639 55.1922 62.0639C55.5671 62.0639 55.9052 61.9114 56.1505 61.6662C56.3958 61.4209 56.5482 61.0827 56.5482 60.7078C56.5482 60.3329 56.3958 59.9947 56.1505 59.7495C55.9052 59.5042 55.5671 59.3517 55.1922 59.3517Z" fill="#BD665D"/>
<path d="M55.1922 59.9843C54.847 59.9843 54.5334 60.1244 54.3074 60.3504C54.0814 60.5764 53.9412 60.89 53.9412 61.2352C53.9412 61.5803 54.0814 61.894 54.3074 62.12C54.5334 62.346 54.847 62.4861 55.1922 62.4861C55.5373 62.4861 55.8509 62.346 56.0769 62.12C56.303 61.894 56.4431 61.5803 56.4431 61.2352C56.4431 60.89 56.303 60.5764 56.0769 60.3504C55.8509 60.1244 55.5373 59.9843 55.1922 59.9843Z" fill="#BB6960"/>
<path d="M55.1922 60.6167C54.875 60.6167 54.5895 60.7446 54.381 60.9531C54.1725 61.1616 54.0446 61.4472 54.0446 61.7643C54.0446 62.0814 54.1725 62.367 54.381 62.5755C54.5895 62.7839 54.875 62.9118 55.1922 62.9118C55.5093 62.9118 55.7948 62.7839 56.0033 62.5755C56.2118 62.367 56.3397 62.0814 56.3397 61.7643C56.3397 61.4472 56.2118 61.1616 56.0033 60.9531C55.7948 60.7446 55.5093 60.6167 55.1922 60.6167Z" fill="#B96C63"/>
<path d="M55.1922 61.2474C54.9048 61.2474 54.6438 61.3648 54.4546 61.5523C54.2654 61.7398 54.1497 62.0008 54.1497 62.2899C54.1497 62.579 54.2671 62.8383 54.4546 63.0275C54.642 63.2167 54.9031 63.3323 55.1922 63.3323C55.4813 63.3323 55.7406 63.215 55.9298 63.0275C56.119 62.84 56.2346 62.579 56.2346 62.2899C56.2346 62.0008 56.1172 61.7415 55.9298 61.5523C55.7423 61.3631 55.4813 61.2474 55.1922 61.2474Z" fill="#B76E66"/>
<path d="M55.1921 61.8799C54.9328 61.8799 54.6981 61.9851 54.5281 62.155C54.3582 62.325 54.2531 62.5597 54.2531 62.819C54.2531 63.0783 54.3582 63.3131 54.5281 63.483C54.6981 63.653 54.9328 63.7581 55.1921 63.7581C55.4514 63.7581 55.6862 63.653 55.8562 63.483C56.0261 63.3131 56.1312 63.0783 56.1312 62.819C56.1312 62.5597 56.0261 62.325 55.8562 62.155C55.6862 61.9851 55.4514 61.8799 55.1921 61.8799Z" fill="#B57168"/>
<path d="M55.1922 62.5124C54.9626 62.5124 54.7524 62.6052 54.6017 62.7559C54.4511 62.9066 54.3582 63.1151 54.3582 63.3464C54.3582 63.5776 54.4511 63.7861 54.6017 63.9368C54.7524 64.0875 54.9609 64.1803 55.1922 64.1803C55.4234 64.1803 55.6319 64.0875 55.7826 63.9368C55.9333 63.7861 56.0261 63.5776 56.0261 63.3464C56.0261 63.1151 55.9333 62.9066 55.7826 62.7559C55.6319 62.6052 55.4234 62.5124 55.1922 62.5124Z" fill="#B3746B"/>
<path d="M55.1921 63.1449C54.9907 63.1449 54.8084 63.2272 54.6753 63.3586C54.5421 63.49 54.4615 63.674 54.4615 63.8755C54.4615 64.077 54.5439 64.2592 54.6753 64.3923C54.8067 64.5255 54.9907 64.6061 55.1921 64.6061C55.3936 64.6061 55.5758 64.5237 55.709 64.3923C55.8421 64.2609 55.9227 64.077 55.9227 63.8755C55.9227 63.674 55.8404 63.4918 55.709 63.3586C55.5776 63.2255 55.3936 63.1449 55.1921 63.1449Z" fill="#B0766E"/>
<path d="M55.1922 63.7756C55.0188 63.7756 54.8629 63.8457 54.749 63.9596C54.6351 64.0735 54.565 64.2294 54.565 64.4029C54.565 64.5763 54.6351 64.7322 54.749 64.8461C54.8629 64.96 55.0188 65.0301 55.1922 65.0301C55.3657 65.0301 55.5216 64.96 55.6355 64.8461C55.7494 64.7322 55.8195 64.5763 55.8195 64.4029C55.8195 64.2294 55.7494 64.0735 55.6355 63.9596C55.5216 63.8457 55.3657 63.7756 55.1922 63.7756Z" fill="#AE7871"/>
<path d="M55.1922 64.4081C55.0485 64.4081 54.9171 64.4659 54.8243 64.5605C54.7314 64.6551 54.6718 64.7848 54.6718 64.9284C54.6718 65.0721 54.7296 65.2035 54.8243 65.2964C54.9189 65.3892 55.0485 65.4488 55.1922 65.4488C55.3358 65.4488 55.4672 65.391 55.5601 65.2964C55.653 65.2017 55.7125 65.0721 55.7125 64.9284C55.7125 64.7848 55.6547 64.6534 55.5601 64.5605C55.4655 64.4676 55.3358 64.4081 55.1922 64.4081Z" fill="#AC7B74"/>
<path d="M55.1921 65.0405C55.0765 65.0405 54.9731 65.0878 54.8978 65.1632C54.8225 65.2385 54.7752 65.3436 54.7752 65.4575C54.7752 65.5714 54.8225 65.6765 54.8978 65.7518C54.9731 65.8272 55.0783 65.8745 55.1921 65.8745C55.306 65.8745 55.4112 65.8272 55.4865 65.7518C55.5618 65.6765 55.6091 65.5714 55.6091 65.4575C55.6091 65.3436 55.5618 65.2385 55.4865 65.1632C55.4112 65.0878 55.306 65.0405 55.1921 65.0405Z" fill="#A97D77"/>
<path d="M55.1922 65.673C55.1063 65.673 55.0275 65.7081 54.9714 65.7641C54.9153 65.8202 54.8803 65.899 54.8803 65.9849C54.8803 66.0707 54.9153 66.1496 54.9714 66.2056C55.0275 66.2617 55.1063 66.2968 55.1922 66.2968C55.278 66.2968 55.3569 66.2617 55.4129 66.2056C55.469 66.1496 55.504 66.0707 55.504 65.9849C55.504 65.899 55.469 65.8202 55.4129 65.7641C55.3569 65.7081 55.278 65.673 55.1922 65.673Z" fill="#A7807A"/>
<path d="M55.1921 66.3038C55.1343 66.3038 55.0818 66.3265 55.045 66.3651C55.0082 66.4036 54.9837 66.4544 54.9837 66.5123C54.9837 66.5701 55.0064 66.6226 55.045 66.6594C55.0835 66.6962 55.1343 66.7207 55.1921 66.7207C55.25 66.7207 55.3025 66.698 55.3393 66.6594C55.3761 66.6209 55.4006 66.5701 55.4006 66.5123C55.4006 66.4544 55.3779 66.4019 55.3393 66.3651C55.3008 66.3283 55.25 66.3038 55.1921 66.3038Z" fill="#A4827D"/>
<path d="M55.1922 66.9362C55.1641 66.9362 55.1378 66.9485 55.1186 66.966C55.0993 66.9835 55.0888 67.0116 55.0888 67.0396C55.0888 67.0676 55.1011 67.0939 55.1186 67.1132C55.1361 67.1324 55.1641 67.143 55.1922 67.143C55.2202 67.143 55.2465 67.1307 55.2657 67.1132C55.285 67.0957 55.2955 67.0676 55.2955 67.0396C55.2955 67.0116 55.2833 66.9853 55.2657 66.966C55.2482 66.9467 55.2202 66.9362 55.1922 66.9362Z" fill="#A28480"/>
<path d="M55.1921 62.0551C52.6996 62.0551 50.6789 60.0345 50.6789 57.5419C50.6789 55.0494 52.6996 53.0287 55.1921 53.0287C57.6847 53.0287 59.7053 55.0494 59.7053 57.5419C59.7053 60.0345 57.6847 62.0551 55.1921 62.0551Z" fill="#C9524D"/>
<path d="M40.0687 70.3702C37.5761 70.3702 35.5555 68.3496 35.5555 65.857C35.5555 63.3644 37.5761 61.3438 40.0687 61.3438C42.5613 61.3438 44.5819 63.3644 44.5819 65.857C44.5819 68.3496 42.5613 70.3702 40.0687 70.3702Z" fill="#6E372F"/>
<path d="M40.0688 64.7129C39.4641 64.7129 38.9738 64.2227 38.9738 63.6179C38.9738 63.0131 39.4641 62.5229 40.0688 62.5229C40.6736 62.5229 41.1638 63.0131 41.1638 63.6179C41.1638 64.2227 40.6736 64.7129 40.0688 64.7129Z" fill="#6E372F"/>
<path d="M40.0688 64.4747C39.493 64.4747 39.0263 64.008 39.0263 63.4322C39.0263 62.8565 39.493 62.3898 40.0688 62.3898C40.6445 62.3898 41.1112 62.8565 41.1112 63.4322C41.1112 64.008 40.6445 64.4747 40.0688 64.4747Z" fill="#6E372F"/>
<path d="M40.0688 64.2364C39.5221 64.2364 39.0789 63.7932 39.0789 63.2465C39.0789 62.6998 39.5221 62.2566 40.0688 62.2566C40.6155 62.2566 41.0587 62.6998 41.0587 63.2465C41.0587 63.7932 40.6155 64.2364 40.0688 64.2364Z" fill="#6E372F"/>
<path d="M40.0688 63.9981C39.5521 63.9981 39.1332 63.5792 39.1332 63.0625C39.1332 62.5458 39.5521 62.127 40.0688 62.127C40.5855 62.127 41.0044 62.5458 41.0044 63.0625C41.0044 63.5792 40.5855 63.9981 40.0688 63.9981Z" fill="#6E372F"/>
<path d="M40.0688 63.7598C39.5811 63.7598 39.1858 63.3645 39.1858 62.8768C39.1858 62.3891 39.5811 61.9938 40.0688 61.9938C40.5564 61.9938 40.9518 62.3891 40.9518 62.8768C40.9518 63.3645 40.5564 63.7598 40.0688 63.7598Z" fill="#6E372F"/>
<path d="M40.0688 63.5198C39.6111 63.5198 39.2401 63.1488 39.2401 62.6911C39.2401 62.2334 39.6111 61.8624 40.0688 61.8624C40.5264 61.8624 40.8975 62.2334 40.8975 62.6911C40.8975 63.1488 40.5264 63.5198 40.0688 63.5198Z" fill="#6E372F"/>
<path d="M40.0687 63.2833C39.6401 63.2833 39.2926 62.9358 39.2926 62.5072C39.2926 62.0785 39.6401 61.731 40.0687 61.731C40.4974 61.731 40.8448 62.0785 40.8448 62.5072C40.8448 62.9358 40.4974 63.2833 40.0687 63.2833Z" fill="#6E372F"/>
<path d="M40.0688 63.045C39.6692 63.045 39.3452 62.721 39.3452 62.3214C39.3452 61.9218 39.6692 61.5978 40.0688 61.5978C40.4684 61.5978 40.7924 61.9218 40.7924 62.3214C40.7924 62.721 40.4684 63.045 40.0688 63.045Z" fill="#6E372F"/>
<path d="M40.0688 62.8067C39.6991 62.8067 39.3995 62.5071 39.3995 62.1375C39.3995 61.7678 39.6991 61.4682 40.0688 61.4682C40.4384 61.4682 40.738 61.7678 40.738 62.1375C40.738 62.5071 40.4384 62.8067 40.0688 62.8067Z" fill="#6E372F"/>
<path d="M40.0687 62.5684C39.7281 62.5684 39.452 62.2923 39.452 61.9517C39.452 61.6111 39.7281 61.335 40.0687 61.335C40.4093 61.335 40.6854 61.6111 40.6854 61.9517C40.6854 62.2923 40.4093 62.5684 40.0687 62.5684Z" fill="#6E372F"/>
<path d="M40.0687 62.3284C39.7581 62.3284 39.5063 62.0766 39.5063 61.766C39.5063 61.4554 39.7581 61.2036 40.0687 61.2036C40.3793 61.2036 40.6311 61.4554 40.6311 61.766C40.6311 62.0766 40.3793 62.3284 40.0687 62.3284Z" fill="#6E372F"/>
<path d="M40.0688 62.0919C39.7872 62.0919 39.5589 61.8637 39.5589 61.5821C39.5589 61.3005 39.7872 61.0723 40.0688 61.0723C40.3504 61.0723 40.5786 61.3005 40.5786 61.5821C40.5786 61.8637 40.3504 62.0919 40.0688 62.0919Z" fill="#6E372F"/>
<path d="M40.0687 61.8536C39.8162 61.8536 39.6114 61.6489 39.6114 61.3964C39.6114 61.1438 39.8162 60.9391 40.0687 60.9391C40.3213 60.9391 40.526 61.1438 40.526 61.3964C40.526 61.6489 40.3213 61.8536 40.0687 61.8536Z" fill="#6E372F"/>
<path d="M40.0687 61.6136C39.8462 61.6136 39.6658 61.4332 39.6658 61.2106C39.6658 60.9881 39.8462 60.8077 40.0687 60.8077C40.2913 60.8077 40.4717 60.9881 40.4717 61.2106C40.4717 61.4332 40.2913 61.6136 40.0687 61.6136Z" fill="#6E372F"/>
<path d="M40.0688 61.3771C39.8753 61.3771 39.7184 61.2202 39.7184 61.0267C39.7184 60.8332 39.8753 60.6763 40.0688 60.6763C40.2623 60.6763 40.4192 60.8332 40.4192 61.0267C40.4192 61.2202 40.2623 61.3771 40.0688 61.3771Z" fill="#6E372F"/>
<path d="M40.0688 61.137C39.9053 61.137 39.7727 61.0045 39.7727 60.841C39.7727 60.6774 39.9053 60.5449 40.0688 60.5449C40.2323 60.5449 40.3649 60.6774 40.3649 60.841C40.3649 61.0045 40.2323 61.137 40.0688 61.137Z" fill="#6E372F"/>
<path d="M40.0687 60.8988C39.9342 60.8988 39.8252 60.7898 39.8252 60.6553C39.8252 60.5208 39.9342 60.4117 40.0687 60.4117C40.2032 60.4117 40.3123 60.5208 40.3123 60.6553C40.3123 60.7898 40.2032 60.8988 40.0687 60.8988Z" fill="#6E372F"/>
<path d="M40.0687 60.6605C39.9642 60.6605 39.8795 60.5758 39.8795 60.4713C39.8795 60.3668 39.9642 60.2821 40.0687 60.2821C40.1732 60.2821 40.2579 60.3668 40.2579 60.4713C40.2579 60.5758 40.1732 60.6605 40.0687 60.6605Z" fill="#6E372F"/>
<path d="M40.0688 60.4222C39.9933 60.4222 39.9321 60.3611 39.9321 60.2856C39.9321 60.2101 39.9933 60.1489 40.0688 60.1489C40.1443 60.1489 40.2054 60.2101 40.2054 60.2856C40.2054 60.3611 40.1443 60.4222 40.0688 60.4222Z" fill="#6E372F"/>
<path d="M40.1528 60.1016C40.1528 60.0561 40.116 60.0175 40.0687 60.0175C40.0214 60.0175 39.9846 60.0543 39.9846 60.1016C39.9846 60.1472 40.0214 60.1857 40.0687 60.1857C40.116 60.1857 40.1528 60.1489 40.1528 60.1016Z" fill="#6E372F"/>
<path d="M24.5862 77.3117C22.0936 77.3117 20.073 75.291 20.073 72.7985C20.073 70.3059 22.0936 68.2853 24.5862 68.2853C27.0787 68.2853 29.0994 70.3059 29.0994 72.7985C29.0994 75.291 27.0787 77.3117 24.5862 77.3117Z" fill="#1E1D0F"/>
<path d="M22.1264 72.7985C22.1264 74.1563 23.2284 75.2583 24.5862 75.2583C25.944 75.2583 27.046 74.1563 27.046 72.7985C27.046 71.4407 25.944 70.3387 24.5862 70.3387C23.2284 70.3387 22.1264 71.4407 22.1264 72.7985Z" fill="#1E1D0F"/>
<path d="M24.5861 74.0494C23.2954 74.0494 22.249 73.003 22.249 71.7123C22.249 70.4215 23.2954 69.3751 24.5861 69.3751C25.8769 69.3751 26.9233 70.4215 26.9233 71.7123C26.9233 73.003 25.8769 74.0494 24.5861 74.0494Z" fill="#1E1D0F"/>
<path d="M24.5862 72.844C23.3622 72.844 22.3699 71.8518 22.3699 70.6277C22.3699 69.4037 23.3622 68.4114 24.5862 68.4114C25.8102 68.4114 26.8025 69.4037 26.8025 70.6277C26.8025 71.8518 25.8102 72.844 24.5862 72.844Z" fill="#1E1D0F"/>
<path d="M24.5861 71.6351C23.4299 71.6351 22.4925 70.6978 22.4925 69.5415C22.4925 68.3852 23.4299 67.4478 24.5861 67.4478C25.7424 67.4478 26.6798 68.3852 26.6798 69.5415C26.6798 70.6978 25.7424 71.6351 24.5861 71.6351Z" fill="#1E1D0F"/>
<path d="M24.5862 70.428C23.4967 70.428 22.6134 69.5448 22.6134 68.4553C22.6134 67.3657 23.4967 66.4825 24.5862 66.4825C25.6757 66.4825 26.559 67.3657 26.559 68.4553C26.559 69.5448 25.6757 70.428 24.5862 70.428Z" fill="#1E1D0F"/>
<path d="M24.5861 69.2209C23.5644 69.2209 22.736 68.3926 22.736 67.3708C22.736 66.349 23.5644 65.5206 24.5861 65.5206C25.6079 65.5206 26.4363 66.349 26.4363 67.3708C26.4363 68.3926 25.6079 69.2209 24.5861 69.2209Z" fill="#1E1D0F"/>
<path d="M24.5862 68.0137C23.6312 68.0137 22.857 67.2395 22.857 66.2845C22.857 65.3294 23.6312 64.5552 24.5862 64.5552C25.5412 64.5552 26.3154 65.3294 26.3154 66.2845C26.3154 67.2395 25.5412 68.0137 24.5862 68.0137Z" fill="#1E1D0F"/>
<path d="M24.5861 66.8066C23.6988 66.8066 22.9796 66.0873 22.9796 65.2C22.9796 64.3127 23.6988 63.5934 24.5861 63.5934C25.4734 63.5934 26.1927 64.3127 26.1927 65.2C26.1927 66.0873 25.4734 66.8066 24.5861 66.8066Z" fill="#1E1D0F"/>
<path d="M24.5862 65.5995C23.7657 65.5995 23.1005 64.9343 23.1005 64.1138C23.1005 63.2932 23.7657 62.6281 24.5862 62.6281C25.4067 62.6281 26.0719 63.2932 26.0719 64.1138C26.0719 64.9343 25.4067 65.5995 24.5862 65.5995Z" fill="#1E1D0F"/>
<path d="M24.5861 64.3906C23.8333 64.3906 23.2231 63.7803 23.2231 63.0275C23.2231 62.2747 23.8333 61.6644 24.5861 61.6644C25.339 61.6644 25.9492 62.2747 25.9492 63.0275C25.9492 63.7803 25.339 64.3906 24.5861 64.3906Z" fill="#1E1D0F"/>
<path d="M24.5862 63.1852C23.9002 63.1852 23.344 62.629 23.344 61.943C23.344 61.2569 23.9002 60.7008 24.5862 60.7008C25.2722 60.7008 25.8284 61.2569 25.8284 61.943C25.8284 62.629 25.2722 63.1852 24.5862 63.1852Z" fill="#1E1D0F"/>
<path d="M24.5861 61.9763C23.9678 61.9763 23.4666 61.475 23.4666 60.8567C23.4666 60.2384 23.9678 59.7372 24.5861 59.7372C25.2045 59.7372 25.7057 60.2384 25.7057 60.8567C25.7057 61.475 25.2045 61.9763 24.5861 61.9763Z" fill="#1E1D0F"/>
<path d="M24.5862 60.7709C24.0346 60.7709 23.5875 60.3238 23.5875 59.7723C23.5875 59.2207 24.0346 58.7736 24.5862 58.7736C25.1377 58.7736 25.5848 59.2207 25.5848 59.7723C25.5848 60.3238 25.1377 60.7709 24.5862 60.7709Z" fill="#1E1D0F"/>
<path d="M24.5861 59.562C24.1023 59.562 23.7101 59.1698 23.7101 58.686C23.7101 58.2022 24.1023 57.81 24.5861 57.81C25.07 57.81 25.4622 58.2022 25.4622 58.686C25.4622 59.1698 25.07 59.562 24.5861 59.562Z" fill="#1E1D0F"/>
<path d="M24.5862 58.3566C24.1691 58.3566 23.8311 58.0185 23.8311 57.6015C23.8311 57.1845 24.1691 56.8464 24.5862 56.8464C25.0032 56.8464 25.3413 57.1845 25.3413 57.6015C25.3413 58.0185 25.0032 58.3566 24.5862 58.3566Z" fill="#1E1D0F"/>
<path d="M24.5861 57.1477C24.2368 57.1477 23.9537 56.8645 23.9537 56.5152C23.9537 56.1659 24.2368 55.8828 24.5861 55.8828C24.9355 55.8828 25.2186 56.1659 25.2186 56.5152C25.2186 56.8645 24.9355 57.1477 24.5861 57.1477Z" fill="#1E1D0F"/>
<path d="M24.5862 55.9406C24.3036 55.9406 24.0746 55.7116 24.0746 55.429C24.0746 55.1465 24.3036 54.9174 24.5862 54.9174C24.8687 54.9174 25.0978 55.1465 25.0978 55.429C25.0978 55.7116 24.8687 55.9406 24.5862 55.9406Z" fill="#1E1D0F"/>
<path d="M24.5861 54.7335C24.3713 54.7335 24.1972 54.5593 24.1972 54.3445C24.1972 54.1297 24.3713 53.9556 24.5861 53.9556C24.801 53.9556 24.9751 54.1297 24.9751 54.3445C24.9751 54.5593 24.801 54.7335 24.5861 54.7335Z" fill="#1E1D0F"/>
<path d="M24.5862 53.5246C24.4392 53.5246 24.3199 53.4053 24.3199 53.2583C24.3199 53.1112 24.4392 52.9919 24.5862 52.9919C24.7333 52.9919 24.8525 53.1112 24.8525 53.2583C24.8525 53.4053 24.7333 53.5246 24.5862 53.5246Z" fill="#1E1D0F"/>
<path d="M24.5861 52.3192C24.5058 52.3192 24.4407 52.254 24.4407 52.1737C24.4407 52.0934 24.5058 52.0283 24.5861 52.0283C24.6665 52.0283 24.7316 52.0934 24.7316 52.1737C24.7316 52.254 24.6665 52.3192 24.5861 52.3192Z" fill="#1E1D0F"/>
<path d="M40.9745 23.7104H77.8843" stroke="#F3F3F4" stroke-width="0.525605" stroke-miterlimit="10"/>
<path d="M20.0712 51.8636H100" stroke="#F3F3F4" stroke-width="0.525605" stroke-miterlimit="10"/>
<path d="M20.0712 80.0186H99.4236" stroke="#F3F3F4" stroke-width="0.525605" stroke-miterlimit="10"/>
<path d="M66.71 78.652C69.5483 79.9205 72.3795 81.2012 75.2195 82.4644C75.3667 82.1368 75.5139 81.8109 75.6593 81.4833C72.6476 80.1132 69.6359 78.7414 66.6241 77.3713C66.47 77.7147 66.3158 78.0598 66.1634 78.4032C66.2054 78.4067 66.2405 78.4242 66.2667 78.4593C66.4139 78.5241 66.5611 78.5889 66.7082 78.6538L66.71 78.652Z" fill="#101010"/>
<path d="M78.897 84.0097C77.7233 84.0097 76.7718 83.0582 76.7718 81.8845C76.7718 80.7108 77.7233 79.7593 78.897 79.7593C80.0707 79.7593 81.0222 80.7108 81.0222 81.8845C81.0222 83.0582 80.0707 84.0097 78.897 84.0097Z" fill="#EFDD6F"/>
<path d="M78.897 83.0583C77.7833 83.0583 76.8804 82.1554 76.8804 81.0417C76.8804 79.928 77.7833 79.0251 78.897 79.0251C80.0107 79.0251 80.9136 79.928 80.9136 81.0417C80.9136 82.1554 80.0107 83.0583 78.897 83.0583Z" fill="#E6D775"/>
<path d="M78.8969 82.1087C77.8422 82.1087 76.9872 81.2537 76.9872 80.199C76.9872 79.1443 77.8422 78.2893 78.8969 78.2893C79.9516 78.2893 80.8066 79.1443 80.8066 80.199C80.8066 81.2537 79.9516 82.1087 78.8969 82.1087Z" fill="#DED27B"/>
<path d="M78.897 81.1574C77.9013 81.1574 77.0942 80.3502 77.0942 79.3545C77.0942 78.3589 77.9013 77.5517 78.897 77.5517C79.8927 77.5517 80.6998 78.3589 80.6998 79.3545C80.6998 80.3502 79.8927 81.1574 78.897 81.1574Z" fill="#D6CD80"/>
<path d="M78.897 80.206C77.9613 80.206 77.2028 79.4475 77.2028 78.5118C77.2028 77.5761 77.9613 76.8176 78.897 76.8176C79.8327 76.8176 80.5912 77.5761 80.5912 78.5118C80.5912 79.4475 79.8327 80.206 78.897 80.206Z" fill="#CEC885"/>
<path d="M78.897 79.2547C78.0204 79.2547 77.3097 78.544 77.3097 77.6673C77.3097 76.7907 78.0204 76.08 78.897 76.08C79.7737 76.08 80.4844 76.7907 80.4844 77.6673C80.4844 78.544 79.7737 79.2547 78.897 79.2547Z" fill="#C6C389"/>
<path d="M78.897 78.3034C78.0804 78.3034 77.4183 77.6413 77.4183 76.8246C77.4183 76.008 78.0804 75.3459 78.897 75.3459C79.7137 75.3459 80.3757 76.008 80.3757 76.8246C80.3757 77.6413 79.7137 78.3034 78.897 78.3034Z" fill="#BEBE8D"/>
<path d="M78.897 77.352C78.1393 77.352 77.5251 76.7378 77.5251 75.9802C77.5251 75.2225 78.1393 74.6083 78.897 74.6083C79.6546 74.6083 80.2688 75.2225 80.2688 75.9802C80.2688 76.7378 79.6546 77.352 78.897 77.352Z" fill="#B6B991"/>
<path d="M78.897 76.4006C78.1993 76.4006 77.6337 75.8351 77.6337 75.1374C77.6337 74.4398 78.1993 73.8742 78.897 73.8742C79.5946 73.8742 80.1602 74.4398 80.1602 75.1374C80.1602 75.8351 79.5946 76.4006 78.897 76.4006Z" fill="#AEB495"/>
<path d="M78.897 75.4493C78.2584 75.4493 77.7407 74.9316 77.7407 74.293C77.7407 73.6544 78.2584 73.1367 78.897 73.1367C79.5356 73.1367 80.0533 73.6544 80.0533 74.293C80.0533 74.9316 79.5356 75.4493 78.897 75.4493Z" fill="#A6B098"/>
<path d="M78.897 74.4997C78.3174 74.4997 77.8475 74.0298 77.8475 73.4502C77.8475 72.8706 78.3174 72.4008 78.897 72.4008C79.4766 72.4008 79.9464 72.8706 79.9464 73.4502C79.9464 74.0298 79.4766 74.4997 78.897 74.4997Z" fill="#9EAB9B"/>
<path d="M78.8969 73.5466C78.3773 73.5466 77.9561 73.1254 77.9561 72.6058C77.9561 72.0861 78.3773 71.6649 78.8969 71.6649C79.4165 71.6649 79.8378 72.0861 79.8378 72.6058C79.8378 73.1254 79.4165 73.5466 78.8969 73.5466Z" fill="#96A79F"/>
<path d="M78.897 72.597C78.4364 72.597 78.063 72.2236 78.063 71.763C78.063 71.3025 78.4364 70.9291 78.897 70.9291C79.3576 70.9291 79.731 71.3025 79.731 71.763C79.731 72.2236 79.3576 72.597 78.897 72.597Z" fill="#8FA3A2"/>
<path d="M78.897 71.6439C78.4964 71.6439 78.1716 71.3192 78.1716 70.9186C78.1716 70.518 78.4964 70.1932 78.897 70.1932C79.2976 70.1932 79.6223 70.518 79.6223 70.9186C79.6223 71.3192 79.2976 71.6439 78.897 71.6439Z" fill="#879EA5"/>
<path d="M78.897 70.6943C78.5555 70.6943 78.2786 70.4174 78.2786 70.0759C78.2786 69.7343 78.5555 69.4574 78.897 69.4574C79.2386 69.4574 79.5155 69.7343 79.5155 70.0759C79.5155 70.4174 79.2386 70.6943 78.897 70.6943Z" fill="#7F9AA7"/>
<path d="M78.897 69.7412C78.6154 69.7412 78.3872 69.513 78.3872 69.2314C78.3872 68.9498 78.6154 68.7216 78.897 68.7216C79.1786 68.7216 79.4069 68.9498 79.4069 69.2314C79.4069 69.513 79.1786 69.7412 78.897 69.7412Z" fill="#7796AA"/>
<path d="M78.897 68.7916C78.6744 68.7916 78.494 68.6112 78.494 68.3887C78.494 68.1661 78.6744 67.9857 78.897 67.9857C79.1195 67.9857 79.2999 68.1661 79.2999 68.3887C79.2999 68.6112 79.1195 68.7916 78.897 68.7916Z" fill="#6F92AC"/>
<path d="M78.8969 67.8386C78.7344 67.8386 78.6026 67.7068 78.6026 67.5442C78.6026 67.3817 78.7344 67.2499 78.8969 67.2499C79.0595 67.2499 79.1913 67.3817 79.1913 67.5442C79.1913 67.7068 79.0595 67.8386 78.8969 67.8386Z" fill="#668FAF"/>
<path d="M78.897 66.889C78.7935 66.889 78.7095 66.805 78.7095 66.7015C78.7095 66.598 78.7935 66.514 78.897 66.514C79.0005 66.514 79.0845 66.598 79.0845 66.7015C79.0845 66.805 79.0005 66.889 78.897 66.889Z" fill="#5D8BB1"/>
<path d="M78.8969 65.9376C78.8524 65.9376 78.8164 65.9015 78.8164 65.857C78.8164 65.8125 78.8524 65.7764 78.8969 65.7764C78.9415 65.7764 78.9775 65.8125 78.9775 65.857C78.9775 65.9015 78.9415 65.9376 78.8969 65.9376Z" fill="#5487B3"/>
<path d="M78.897 86.3977C76.4044 86.3977 74.3838 84.377 74.3838 81.8845C74.3838 79.3919 76.4044 77.3713 78.897 77.3713C81.3895 77.3713 83.4102 79.3919 83.4102 81.8845C83.4102 84.377 81.3895 86.3977 78.897 86.3977Z" fill="#F2D56D"/>
<path d="M60.8897 75.4038C60.8897 76.1834 61.2069 76.8912 61.7167 77.4028C62.2265 77.9144 62.9343 78.2298 63.7157 78.2298C64.4971 78.2298 65.2032 77.9126 65.7148 77.4028C66.2264 76.8912 66.5417 76.1852 66.5417 75.4038C66.5417 74.6224 66.2246 73.9163 65.7148 73.4047C65.205 72.8931 64.4971 72.5778 63.7157 72.5778C62.9343 72.5778 62.2283 72.8949 61.7167 73.4047C61.2051 73.9145 60.8897 74.6224 60.8897 75.4038Z" fill="#E59656"/>
<path d="M63.7157 77.2398C64.4551 77.2398 65.1244 76.9403 65.6079 76.4549C66.0915 75.9696 66.3928 75.3004 66.3928 74.5628C66.3928 73.8252 66.0932 73.1541 65.6079 72.6706C65.1226 72.187 64.4533 71.8857 63.7157 71.8857C62.9781 71.8857 62.3071 72.1853 61.8236 72.6706C61.3383 73.1559 61.0387 73.8252 61.0387 74.5628C61.0387 75.3004 61.3383 75.9714 61.8236 76.4549C62.3089 76.9403 62.9781 77.2398 63.7157 77.2398Z" fill="#E09559"/>
<path d="M63.7157 76.2482C64.4148 76.2482 65.0455 75.9644 65.5028 75.5071C65.9601 75.0498 66.2439 74.4174 66.2439 73.7201C66.2439 73.0228 65.9601 72.3903 65.5028 71.933C65.0455 71.4757 64.413 71.1919 63.7157 71.1919C63.0184 71.1919 62.386 71.4757 61.9287 71.933C61.4714 72.3903 61.1876 73.0228 61.1876 73.7201C61.1876 74.4174 61.4714 75.0498 61.9287 75.5071C62.386 75.9644 63.0184 76.2482 63.7157 76.2482Z" fill="#DC945C"/>
<path d="M63.7157 75.2584C64.3727 75.2584 64.9684 74.992 65.3977 74.5611C65.8269 74.1301 66.095 73.5361 66.095 72.8791C66.095 72.2221 65.8287 71.6264 65.3977 71.1972C64.9667 70.7679 64.3727 70.4999 63.7157 70.4999C63.0587 70.4999 62.463 70.7662 62.0338 71.1972C61.6046 71.6282 61.3365 72.2221 61.3365 72.8791C61.3365 73.5361 61.6028 74.1318 62.0338 74.5611C62.4648 74.9903 63.0587 75.2584 63.7157 75.2584Z" fill="#D8935F"/>
<path d="M63.7157 74.2667C64.3324 74.2667 64.8896 74.0161 65.2925 73.6132C65.6955 73.2102 65.946 72.6513 65.946 72.0363C65.946 71.4214 65.6955 70.8625 65.2925 70.4595C64.8896 70.0566 64.3307 69.806 63.7157 69.806C63.1008 69.806 62.5419 70.0566 62.1389 70.4595C61.7359 70.8625 61.4854 71.4214 61.4854 72.0363C61.4854 72.6513 61.7359 73.2102 62.1389 73.6132C62.5419 74.0161 63.1008 74.2667 63.7157 74.2667Z" fill="#D49262"/>
<path d="M63.7157 73.2768C64.2904 73.2768 64.8107 73.0438 65.1874 72.6671C65.5641 72.2904 65.7971 71.7701 65.7971 71.1954C65.7971 70.6207 65.5641 70.1004 65.1874 69.7237C64.8107 69.347 64.2904 69.114 63.7157 69.114C63.1411 69.114 62.6207 69.347 62.244 69.7237C61.8673 70.1004 61.6343 70.6207 61.6343 71.1954C61.6343 71.7701 61.8673 72.2904 62.244 72.6671C62.6207 73.0438 63.1411 73.2768 63.7157 73.2768Z" fill="#D09165"/>
<path d="M63.7157 72.2852C64.2501 72.2852 64.7336 72.0679 65.0823 71.7193C65.4309 71.3706 65.6482 70.8853 65.6482 70.3527C65.6482 69.8201 65.4309 69.3348 65.0823 68.9861C64.7336 68.6375 64.2483 68.4202 63.7157 68.4202C63.1831 68.4202 62.6978 68.6375 62.3491 68.9861C62.0005 69.3348 61.7832 69.8201 61.7832 70.3527C61.7832 70.8853 62.0005 71.3706 62.3491 71.7193C62.6978 72.0679 63.1831 72.2852 63.7157 72.2852Z" fill="#CC9067"/>
<path d="M63.7157 71.2953C64.208 71.2953 64.6548 71.0955 64.9772 70.7732C65.2995 70.4508 65.4993 70.004 65.4993 69.5117C65.4993 69.0194 65.2995 68.5726 64.9772 68.2503C64.6548 67.9279 64.208 67.7281 63.7157 67.7281C63.2234 67.7281 62.7766 67.9279 62.4543 68.2503C62.1319 68.5726 61.9322 69.0194 61.9322 69.5117C61.9322 70.004 62.1319 70.4508 62.4543 70.7732C62.7766 71.0955 63.2234 71.2953 63.7157 71.2953Z" fill="#C98F6A"/>
<path d="M63.7158 70.3054C64.1678 70.3054 64.576 70.1214 64.8721 69.8253C65.1682 69.5292 65.3522 69.121 65.3522 68.669C65.3522 68.217 65.1682 67.8087 64.8721 67.5126C64.576 67.2166 64.1678 67.0326 63.7158 67.0326C63.2638 67.0326 62.8555 67.2166 62.5595 67.5126C62.2634 67.8087 62.0794 68.217 62.0794 68.669C62.0794 69.121 62.2634 69.5292 62.5595 69.8253C62.8555 70.1214 63.2638 70.3054 63.7158 70.3054Z" fill="#C58E6C"/>
<path d="M63.7158 69.3137C64.1258 69.3137 64.4989 69.1473 64.767 68.8775C65.0351 68.6077 65.2032 68.2362 65.2032 67.8263C65.2032 67.4163 65.0368 67.0431 64.767 66.7751C64.4972 66.507 64.1258 66.3388 63.7158 66.3388C63.3058 66.3388 62.9326 66.5053 62.6646 66.7751C62.3965 67.0449 62.2283 67.4163 62.2283 67.8263C62.2283 68.2362 62.3948 68.6094 62.6646 68.8775C62.9344 69.1455 63.3058 69.3137 63.7158 69.3137Z" fill="#C18D6F"/>
<path d="M63.7158 68.3238C64.0855 68.3238 64.4201 68.1731 64.6619 67.9314C64.9036 67.6896 65.0543 67.3549 65.0543 66.9853C65.0543 66.6156 64.9036 66.281 64.6619 66.0392C64.4201 65.7974 64.0855 65.6467 63.7158 65.6467C63.3461 65.6467 63.0115 65.7974 62.7697 66.0392C62.5279 66.281 62.3772 66.6156 62.3772 66.9853C62.3772 67.3549 62.5279 67.6896 62.7697 67.9314C63.0115 68.1731 63.3461 68.3238 63.7158 68.3238Z" fill="#BD8D71"/>
<path d="M63.7158 67.3322C64.0452 67.3322 64.3412 67.199 64.5567 66.9835C64.7722 66.768 64.9054 66.4702 64.9054 66.1426C64.9054 65.8149 64.7722 65.5171 64.5567 65.3016C64.3412 65.0861 64.0434 64.9529 63.7158 64.9529C63.3881 64.9529 63.0903 65.0861 62.8748 65.3016C62.6593 65.5171 62.5262 65.8149 62.5262 66.1426C62.5262 66.4702 62.6593 66.768 62.8748 66.9835C63.0903 67.199 63.3881 67.3322 63.7158 67.3322Z" fill="#BA8C73"/>
<path d="M63.7158 66.3423C64.0031 66.3423 64.2642 66.2249 64.4516 66.0375C64.6391 65.85 64.7565 65.589 64.7565 65.3016C64.7565 65.0143 64.6391 64.7532 64.4516 64.5658C64.2642 64.3783 64.0031 64.2609 63.7158 64.2609C63.4284 64.2609 63.1674 64.3783 62.9799 64.5658C62.7925 64.7532 62.6751 65.0143 62.6751 65.3016C62.6751 65.589 62.7925 65.85 62.9799 66.0375C63.1674 66.2249 63.4284 66.3423 63.7158 66.3423Z" fill="#B68B76"/>
<path d="M63.7158 65.3506C63.9628 65.3506 64.1853 65.2508 64.3465 65.0896C64.5077 64.9284 64.6075 64.7041 64.6075 64.4589C64.6075 64.2136 64.5077 63.9893 64.3465 63.8281C64.1853 63.6669 63.961 63.5671 63.7158 63.5671C63.4705 63.5671 63.2462 63.6669 63.085 63.8281C62.9239 63.9893 62.824 64.2136 62.824 64.4589C62.824 64.7041 62.9239 64.9284 63.085 65.0896C63.2462 65.2508 63.4705 65.3506 63.7158 65.3506Z" fill="#B28A78"/>
<path d="M63.7158 64.3608C63.9207 64.3608 64.1065 64.2767 64.2414 64.1435C64.3763 64.0104 64.4586 63.8229 64.4586 63.6179C64.4586 63.4129 64.3745 63.2272 64.2414 63.0923C64.1082 62.9574 63.9207 62.8751 63.7158 62.8751C63.5108 62.8751 63.3251 62.9592 63.1902 63.0923C63.0553 63.2255 62.9729 63.4129 62.9729 63.6179C62.9729 63.8229 63.057 64.0086 63.1902 64.1435C63.3233 64.2784 63.5108 64.3608 63.7158 64.3608Z" fill="#AE897A"/>
<path d="M63.7158 63.3709C63.8804 63.3709 64.0294 63.3043 64.1362 63.1975C64.2431 63.0906 64.3097 62.9417 64.3097 62.777C64.3097 62.6123 64.2431 62.4634 64.1362 62.3565C64.0294 62.2496 63.8804 62.183 63.7158 62.183C63.5511 62.183 63.4021 62.2496 63.2953 62.3565C63.1884 62.4634 63.1218 62.6123 63.1218 62.777C63.1218 62.9417 63.1884 63.0906 63.2953 63.1975C63.4021 63.3043 63.5511 63.3709 63.7158 63.3709Z" fill="#AB897D"/>
<path d="M63.7157 62.3792C63.8384 62.3792 63.9505 62.3284 64.0311 62.2478C64.1117 62.1672 64.1625 62.0551 64.1625 61.9325C64.1625 61.8098 64.1117 61.6977 64.0311 61.6171C63.9505 61.5365 63.8384 61.4857 63.7157 61.4857C63.5931 61.4857 63.4809 61.5365 63.4003 61.6171C63.3198 61.6977 63.2689 61.8098 63.2689 61.9325C63.2689 62.0551 63.3198 62.1672 63.4003 62.2478C63.4809 62.3284 63.5931 62.3792 63.7157 62.3792Z" fill="#A7887F"/>
<path d="M63.7157 61.3894C63.798 61.3894 63.8716 61.3561 63.9259 61.3018C63.9803 61.2475 64.0135 61.1739 64.0135 61.0915C64.0135 61.0092 63.9803 60.9356 63.9259 60.8813C63.8716 60.827 63.798 60.7937 63.7157 60.7937C63.6334 60.7937 63.5598 60.827 63.5055 60.8813C63.4512 60.9356 63.4179 61.0092 63.4179 61.0915C63.4179 61.1739 63.4512 61.2475 63.5055 61.3018C63.5598 61.3561 63.6334 61.3894 63.7157 61.3894Z" fill="#A38781"/>
<path d="M63.7157 60.3977C63.756 60.3977 63.7945 60.3802 63.8208 60.3539C63.8471 60.3276 63.8646 60.2891 63.8646 60.2488C63.8646 60.2085 63.8471 60.1699 63.8208 60.1437C63.7945 60.1174 63.756 60.0999 63.7157 60.0999C63.6754 60.0999 63.6369 60.1174 63.6106 60.1437C63.5843 60.1699 63.5668 60.2085 63.5668 60.2488C63.5668 60.2891 63.5843 60.3276 63.6106 60.3539C63.6369 60.3802 63.6754 60.3977 63.7157 60.3977Z" fill="#9F8683"/>
<path d="M63.7158 79.917C61.2232 79.917 59.2026 77.8963 59.2026 75.4038C59.2026 72.9112 61.2232 70.8906 63.7158 70.8906C66.2084 70.8906 68.229 72.9112 68.229 75.4038C68.229 77.8963 66.2084 79.917 63.7158 79.917Z" fill="#E59656"/>
<path d="M59.2008 12L100 35.5559V82.6641L59.2008 106.22L18.4033 82.6641V35.5559L59.2008 12ZM20.9945 81.1696L59.2008 103.228L97.4088 81.1696V37.0503L59.2008 14.9907L20.9945 37.0503V81.1696Z" fill="#231F20"/>
</g>
<defs>
<clipPath id="clip0_17_370">
<rect width="81.5967" height="94.22" fill="white" transform="matrix(-1 0 0 1 100 12)"/>
</clipPath>
</defs>
</svg>
