<svg width="119" height="118" viewBox="0 0 119 118" fill="none" xmlns="http://www.w3.org/2000/svg">
<path d="M95.9757 38.5291V51.8971H98.648V37.2929L98.0749 36.963C97.5517 37.6861 96.8187 38.2292 95.9757 38.5291Z" fill="#F2F2F2"/>
<path d="M90.1047 34.1275C90.1313 33.5911 90.2546 33.0646 90.4712 32.5748L78.1927 25.4876V34.1475C82.1712 34.1408 86.1396 34.1342 90.1047 34.1275Z" fill="#F2F2F2"/>
<path d="M91.2043 37.2829L84.4004 41.6279C85.3567 43.8736 84.3104 46.4693 82.0646 47.4255C80.8151 47.9587 79.3857 47.8854 78.1962 47.229V51.8938H95.5759V38.649C93.9766 39.0422 92.2906 38.5158 91.201 37.2762V37.2829H91.2043Z" fill="#F2F2F2"/>
<path d="M64.8248 57.7082C62.3824 57.7082 60.4032 55.7323 60.3999 53.2899C60.3999 52.9534 60.4365 52.6202 60.5132 52.2936H60.1866V69.94C66.0543 69.94 71.922 69.9366 77.7897 69.9333V52.2936H69.1298C69.2064 52.6202 69.2431 52.9534 69.2431 53.2899C69.2464 55.7289 67.2672 57.7082 64.8248 57.7082Z" fill="#F2F2F2"/>
<path d="M34.6334 51.8938C33.3639 49.8079 34.0236 47.089 36.1095 45.8195C37.9487 44.6999 40.3278 45.0665 41.7406 46.6892V34.5473C36.5326 34.544 31.3347 34.534 26.1501 34.524L24.2408 35.6269V51.8938H34.6334Z" fill="#F2F2F2"/>
<path d="M77.7962 34.1475V25.2543L60.1932 15.0884V34.1575C66.0609 34.1575 71.9286 34.1541 77.7962 34.1475Z" fill="#F2F2F2"/>
<path d="M41.7406 25.5176L26.8431 34.1242C31.7978 34.1342 36.7625 34.1408 41.7439 34.1475V25.5176H41.7406Z" fill="#F2F2F2"/>
<path d="M59.79 34.1575V15.1017L42.1404 25.2876V34.1441C48.0147 34.1541 53.899 34.1575 59.79 34.1575Z" fill="#F2F2F2"/>
<path d="M64.8247 48.865C66.0942 48.8616 67.3004 49.4081 68.14 50.361L76.3001 45.1598C75.4371 43.2272 76.0669 40.9548 77.7995 39.7419V34.5473C71.9352 34.554 66.0675 34.5573 60.1965 34.5573V45.4063L62.9055 49.3081C63.5019 49.0182 64.1583 48.8683 64.8247 48.865Z" fill="#F2F2F2"/>
<path d="M83.6673 40.4583L90.4646 36.1234C90.2447 35.6169 90.1214 35.0738 90.1014 34.524C86.1397 34.5307 82.1713 34.5373 78.1962 34.5406V39.4854C80.0188 38.4791 82.3012 38.8823 83.6673 40.4583Z" fill="#F2F2F2"/>
<path d="M24.2408 52.2936V56.6819C24.8639 56.9451 25.417 57.3483 25.8602 57.8581L34.3135 52.2936H24.2408Z" fill="#F2F2F2"/>
<path d="M95.9757 69.91H98.648V52.3069H95.9757V69.91Z" fill="#F2F2F2"/>
<path d="M23.841 35.8568L21.3453 37.2929V51.8971H23.841V35.8568Z" fill="#F2F2F2"/>
<path d="M50.7537 39.3787C50.7537 36.9364 52.7329 34.9571 55.1753 34.9571C57.6176 34.9571 59.5968 36.9364 59.5968 39.3787C59.5968 40.5849 59.1037 41.7411 58.2307 42.5741L59.7934 44.8266V34.5573H59.4736C53.6925 34.5573 47.9181 34.554 42.1471 34.5473V47.139L51.1535 41.208C50.8903 40.6316 50.7537 40.0085 50.7537 39.3787Z" fill="#F2F2F2"/>
<path d="M61.7726 50.0945L60.1899 47.8087V51.8871H60.6298C60.8597 51.2074 61.2495 50.5909 61.7726 50.0945Z" fill="#F2F2F2"/>
<path d="M55.1753 43.8003C53.9291 43.8003 52.7429 43.2772 51.9032 42.3542L42.6736 48.4318C42.7768 48.8117 42.8268 49.2015 42.8268 49.5914C42.8268 50.4044 42.6036 51.2007 42.1804 51.8938H59.7834V47.239L57.0945 43.3638C56.4981 43.6504 55.8383 43.8003 55.1753 43.8003Z" fill="#F2F2F2"/>
<path d="M38.4085 54.0096C37.4089 54.0096 36.4393 53.6731 35.6596 53.05L26.5932 59.0209C27.5528 61.27 26.5066 63.869 24.2575 64.8253C24.2541 64.8286 24.2475 64.8286 24.2441 64.832V69.91C30.0652 69.9199 35.8962 69.9266 41.7439 69.9299V52.4935C40.9042 53.4598 39.6847 54.0129 38.4085 54.0096Z" fill="#F2F2F2"/>
<path d="M77.0432 46.3093L68.8765 51.5173C68.9298 51.6405 68.9798 51.7638 69.0197 51.8904H77.7963V46.9757C77.5197 46.7825 77.2665 46.5592 77.0432 46.3093Z" fill="#F2F2F2"/>
<path d="M78.1962 70.3265V87.9495H88.2189L95.5759 83.7012V70.3098C89.7949 70.3231 84.0005 70.3265 78.1962 70.3265Z" fill="#F2F2F2"/>
<path d="M78.1962 93.7372L87.5258 88.3493H78.1962V93.7372Z" fill="#F2F2F2"/>
<path d="M59.79 69.9366V52.2903H42.1404V69.93C48.018 69.9333 53.9024 69.9366 59.79 69.9366Z" fill="#F2F2F2"/>
<path d="M60.1899 88.3493V104.133L77.7963 93.9671V88.3493H60.1899Z" fill="#F2F2F2"/>
<path d="M42.1404 88.3493V93.9338L59.79 104.123V88.3493H42.1404Z" fill="#F2F2F2"/>
<path d="M59.5202 70.3364C53.7259 70.3364 47.9315 70.3331 42.1438 70.3298V87.9494H59.7901V70.3364H59.5202Z" fill="#F2F2F2"/>
<path d="M95.9757 70.3098V83.4746L98.648 81.9318V70.3065L95.9757 70.3098Z" fill="#F2F2F2"/>
<path d="M60.1899 87.9495H77.793V70.3265C71.9286 70.3298 66.0609 70.3331 60.1899 70.3331V87.9495Z" fill="#F2F2F2"/>
<path d="M78.1962 52.2903V69.93C84.0005 69.9266 89.7949 69.92 95.5759 69.91V52.2969L78.1962 52.2903Z" fill="#F2F2F2"/>
<path d="M23.841 64.9786C23.0313 65.2285 22.165 65.2418 21.3453 65.0186V69.9066H23.841V64.9786Z" fill="#F2F2F2"/>
<path d="M21.3486 70.3065V81.9285L23.8443 83.3679V70.3098L21.3486 70.3065Z" fill="#F2F2F2"/>
<path d="M23.841 56.5353V52.2969H21.3453V56.4953C22.165 56.2687 23.0313 56.2854 23.841 56.5353Z" fill="#F2F2F2"/>
<path d="M32.4742 88.3493L41.7406 93.7005V88.3493H32.4742Z" fill="#F2F2F2"/>
<path d="M41.7406 70.3264C35.8962 70.3231 30.0619 70.3165 24.2408 70.3065V83.5945L31.7779 87.9461H41.7406V70.3264Z" fill="#F2F2F2"/>
<path d="M41.7406 46.6891C41.8706 46.8391 41.9905 46.999 42.1005 47.1656L42.1405 47.139V34.5473C47.9082 34.554 53.6826 34.5573 59.4669 34.5573H59.7868V44.8299L60.1867 45.4063V34.5573C66.0543 34.5573 71.922 34.554 77.7897 34.5473V39.7419C77.9196 39.6519 78.0529 39.5653 78.1895 39.492V34.5473C82.1613 34.5473 86.1297 34.5406 90.0948 34.5306C90.0948 34.474 90.0948 34.4173 90.0948 34.3607C90.0948 34.2841 90.0948 34.2074 90.1048 34.1308C86.143 34.1375 82.1713 34.1441 78.1962 34.1475V25.4842L77.7963 25.2543V34.1441C71.932 34.1508 66.0643 34.1541 60.1933 34.1541V15.0917L60.0034 14.9784L59.7935 15.0983V34.1574C53.9058 34.1574 48.0215 34.1541 42.1471 34.1475V25.2876L41.7473 25.5175V34.1408C36.7693 34.1375 31.8046 34.1275 26.8466 34.1175L26.1602 34.5173C31.3414 34.5273 36.5394 34.5373 41.7506 34.5406L41.7406 46.6891Z" fill="white"/>
<path d="M23.841 56.5352C23.9776 56.5786 24.1109 56.6252 24.2409 56.6818V52.2936H34.3135L34.72 52.027C34.69 51.9837 34.6634 51.9404 34.6367 51.8937H24.2409V35.6235L23.841 35.8534V51.8971H21.3453V52.2969H23.841V56.5352Z" fill="white"/>
<path d="M98.6513 70.3064V69.9066H95.979V52.2969H98.6513V51.8971H95.979V38.5291C95.8491 38.5757 95.7158 38.6157 95.5792 38.6423V51.8904H78.1994V47.2256C78.0628 47.149 77.9295 47.0657 77.7996 46.9757V51.8904H69.023C69.0664 52.0204 69.103 52.1536 69.1363 52.2903H77.7996V69.9299C71.9352 69.9333 66.0676 69.9366 60.1966 69.9366V52.2903H60.5164C60.5497 52.1536 60.5864 52.0204 60.6297 51.8904H60.1899V47.8087L59.79 47.2356V51.8938H42.1837C42.0537 52.107 41.9071 52.3069 41.7439 52.4935V69.9299C35.8995 69.9266 30.0652 69.9199 24.2442 69.9099V64.8319C24.1142 64.8853 23.9809 64.9352 23.8443 64.9786V69.9099H21.3486V70.3098H23.8443V83.3679L24.2442 83.5978V70.3098C30.0652 70.3198 35.8962 70.3264 41.7439 70.3298V87.9494H31.7812L32.4742 88.3493H41.7439V93.7005L42.1437 93.9304V88.3493H59.79V104.123L60 104.236L60.1899 104.123V88.3493H77.7929V93.9671L78.1927 93.7371V88.3493H87.5224L88.2154 87.9494H78.1927V70.3264C83.9971 70.3231 89.7915 70.3164 95.5725 70.3064V83.7011L95.9724 83.4712V70.3098L98.6513 70.3064ZM42.1404 52.2903H59.7867V69.9366C53.899 69.9366 48.018 69.9333 42.1404 69.9299V52.2903ZM42.1404 87.9494V70.3264C47.9281 70.3264 53.7191 70.3298 59.5168 70.3331H59.7867V87.9494H42.1404ZM59.9433 83.3479C59.97 83.3146 59.9966 83.2813 60.02 83.2446H60.0566C60.0166 83.2813 59.98 83.3146 59.9433 83.3479ZM77.7929 87.9494H60.1899V70.3364C66.0576 70.3364 71.9252 70.3331 77.7929 70.3298V87.9494ZM78.1927 69.9299V52.2903H95.5725V69.9099C89.7915 69.9199 84.0004 69.9266 78.1961 69.9299H78.1927Z" fill="white"/>
<path d="M59.9434 83.3479C59.9767 83.3146 60.0133 83.2813 60.05 83.2446H60.02C60 83.2813 59.9733 83.3146 59.9434 83.3479Z" fill="#E6B35A"/>
<path d="M34.72 52.027L34.3135 52.2936L25.8602 57.8581C26.1634 58.2046 26.41 58.5978 26.5899 59.0209L35.6597 53.05C35.2932 52.7601 34.9766 52.4136 34.72 52.027Z" fill="#424242"/>
<path d="M68.8764 51.5173L77.0432 46.3093C76.7366 45.9661 76.4834 45.5796 76.2968 45.1598L68.1367 50.3611C68.4433 50.7043 68.6898 51.0941 68.8764 51.5173Z" fill="#424242"/>
<path d="M84.4003 41.6212L91.2042 37.2763C90.901 36.9331 90.6511 36.5432 90.4645 36.1267L83.6672 40.4617C83.9704 40.8049 84.217 41.198 84.4003 41.6212Z" fill="#424242"/>
<path d="M62.8989 49.3081L60.19 45.4097L59.7901 44.8332L58.2274 42.5775C57.8942 42.8973 57.5144 43.1606 57.1012 43.3605L59.7901 47.2389L60.19 47.812L61.7727 50.0978C62.1025 49.7746 62.4824 49.508 62.8989 49.3081Z" fill="#424242"/>
<path d="M42.6735 48.4318L51.9032 42.3542C51.5933 42.0144 51.3401 41.6279 51.1502 41.2114L42.1437 47.1423L42.1038 47.169C42.357 47.5555 42.5502 47.982 42.6735 48.4318Z" fill="#424242"/>
<path d="M42.6735 48.4318C42.0304 46.0761 39.6014 44.6866 37.2457 45.3297C34.8899 45.9728 33.5005 48.4018 34.1436 50.7576C34.2535 51.1574 34.4168 51.5406 34.6334 51.8971C34.66 51.9404 34.69 51.9871 34.7167 52.0304C36.0628 54.0696 38.8017 54.6294 40.8409 53.2866C42.4369 52.2303 43.1733 50.2711 42.6735 48.4318Z" fill="#51A7F9"/>
<path d="M23.841 64.9786C23.9776 64.9353 24.1109 64.8886 24.2409 64.832C26.4933 63.8823 27.5462 61.2867 26.5966 59.0343C26.5933 59.0309 26.5933 59.0243 26.5899 59.0209C26.41 58.5978 26.1634 58.2046 25.8602 57.8581C25.4171 57.3483 24.8639 56.9451 24.2409 56.6819C24.1109 56.6286 23.9776 56.5786 23.841 56.5353C23.0313 56.282 22.165 56.2687 21.3453 56.4953V65.0152C22.165 65.2418 23.0313 65.2285 23.841 64.9786Z" fill="#A8D6FF"/>
<path d="M59.6002 39.3787C59.6069 36.9297 57.6277 34.9372 55.1753 34.9305C52.7229 34.9238 50.7337 36.903 50.7271 39.3554C50.7204 41.8044 52.6996 43.797 55.152 43.8036C56.2982 43.807 57.4011 43.3671 58.2308 42.5741C59.1037 41.7411 59.5969 40.5883 59.6002 39.3787Z" fill="#0365C0"/>
<path d="M68.1368 50.3611C66.5207 48.5318 63.7285 48.3585 61.8959 49.9712C61.3128 50.4877 60.873 51.1474 60.6264 51.8904C60.5831 52.0204 60.5465 52.1537 60.5131 52.2903C59.96 54.6693 61.4394 57.0451 63.8185 57.5982C66.1975 58.1513 68.5733 56.6719 69.1264 54.2928C69.2797 53.6331 69.2797 52.95 69.1264 52.2903C69.0931 52.1537 69.0564 52.0204 69.0131 51.8904C68.9698 51.7605 68.9231 51.6405 68.8698 51.5173C68.6866 51.0941 68.44 50.7042 68.1368 50.3611Z" fill="#164F86"/>
<path d="M84.7502 43.3572C84.7502 40.9148 82.771 38.9356 80.3287 38.9356C79.5823 38.9356 78.8459 39.1255 78.1895 39.4854C78.0529 39.562 77.9196 39.6453 77.7897 39.7353C75.7905 41.1347 75.3073 43.8903 76.7068 45.8862C77.0033 46.3093 77.3698 46.6759 77.7897 46.9691C77.9196 47.059 78.0529 47.1424 78.1895 47.219C80.3253 48.4019 83.0143 47.6255 84.1971 45.4897C84.5603 44.8433 84.7502 44.1069 84.7502 43.3572Z" fill="#002452"/>
<path d="M90.0947 34.3574C90.0947 34.414 90.0947 34.4707 90.0947 34.5273C90.1914 36.9664 92.2472 38.8656 94.6862 38.769C94.9861 38.7556 95.2827 38.7157 95.5726 38.6424C95.7092 38.609 95.8425 38.5691 95.9724 38.5291C96.8154 38.2325 97.5484 37.6894 98.0782 36.9664L90.4679 32.5748C90.2513 33.0646 90.1247 33.591 90.1014 34.1275C90.1014 34.2041 90.0947 34.2808 90.0947 34.3574Z" fill="#000643"/>
<path d="M98.6513 33.3145L66.8939 14.9784L60 11L53.1061 14.9818L21.3487 33.3145L18 35.2504V83.7478L21.3487 85.6804L53.5026 104.243L60 107.995L66.4974 104.243L98.648 85.6804L101.997 83.7478V35.2504L98.6513 33.3145ZM95.9757 83.4746L95.5759 83.7045L88.2188 87.9528L87.5257 88.3526L78.1961 93.7405L77.7963 93.9704L60.1899 104.13L60 104.243L59.7901 104.13L42.1404 93.9338L41.7406 93.7038L32.4709 88.3493L31.7779 87.9495L24.2409 83.5979L23.841 83.3679L21.3453 81.9252V37.2929L23.841 35.8535L24.2409 35.6236L26.1501 34.5207L26.8365 34.1208L41.7406 25.5176L42.1404 25.2877L59.7867 15.1017L59.9967 14.9818L60.1866 15.095L77.7896 25.261L78.1894 25.4909L90.4712 32.5748L98.0815 36.9664L98.6547 37.2962V81.9252L95.9757 83.4746Z" fill="#424242"/>
<path d="M40.6311 69.5035C40.5944 70.1799 40.5578 70.9396 40.5578 72.0824V77.5303C40.5578 79.6828 40.1546 81.0022 39.3016 81.8152C38.4419 82.6682 37.1991 82.9415 36.0829 82.9415C35.0233 82.9415 33.8504 82.6716 33.1374 82.1651L33.5372 80.8656C34.3136 81.3554 35.2165 81.612 36.1328 81.602C37.7789 81.602 38.9917 80.689 38.9917 78.3266V77.2804H38.9551C38.4619 78.1534 37.509 78.8498 36.1395 78.8498C33.9437 78.8498 32.3677 76.8705 32.3677 74.2782C32.3677 71.0995 34.3236 69.2969 36.3561 69.2969C37.8922 69.2969 38.7351 70.1499 39.1183 70.9262H39.155L39.2283 69.5101L40.6311 69.5035ZM38.9651 73.2053C38.9751 72.9454 38.9451 72.6822 38.8751 72.429C38.5819 71.4394 37.7955 70.6263 36.626 70.6263C35.0899 70.6263 33.997 71.9991 33.997 74.1716C33.997 76.0142 34.8733 77.5436 36.6127 77.5436C37.5989 77.5436 38.4952 76.8839 38.8451 75.7976C38.9317 75.5011 38.9751 75.1912 38.9717 74.8847L38.9651 73.2053Z" fill="#424242"/>
<path d="M50.2705 69.5035C50.2339 70.1799 50.1972 70.9396 50.1972 72.0824V77.5303C50.1972 79.6828 49.7941 81.0022 48.9411 81.8152C48.0814 82.6682 46.8386 82.9415 45.7223 82.9415C44.6628 82.9415 43.4899 82.6716 42.7768 82.1651L43.18 80.8656C43.9564 81.3554 44.8527 81.612 45.769 81.602C47.415 81.602 48.6279 80.689 48.6279 78.3266V77.2804H48.5879C48.0947 78.1534 47.1418 78.8498 45.7723 78.8498C43.5765 78.8498 42.0005 76.8705 42.0005 74.2782C42.0005 71.0995 43.9564 69.2969 45.9889 69.2969C47.525 69.2969 48.368 70.1499 48.7511 70.9262H48.7878L48.8611 69.5101L50.2705 69.5035ZM48.6045 73.2053C48.6145 72.9454 48.5845 72.6822 48.5146 72.429C48.2214 71.4394 47.435 70.6263 46.2655 70.6263C44.7294 70.6263 43.6365 71.9991 43.6365 74.1716C43.6365 76.0142 44.5128 77.5436 46.2521 77.5436C47.2384 77.5436 48.1347 76.8839 48.4846 75.7976C48.5712 75.5011 48.6145 75.1912 48.6112 74.8847L48.6045 73.2053Z" fill="#424242"/>
<path d="M52.1697 72.5656C52.1697 71.3627 52.1331 70.3931 52.0964 69.5035H53.5425L53.6158 71.1128H53.6558C54.3156 69.97 55.3551 69.2902 56.8012 69.2902C58.9404 69.2902 60.5497 71.2095 60.5497 74.0583C60.5497 77.4303 58.6072 79.0997 56.5247 79.0997C55.3518 79.0997 54.3289 78.5565 53.7991 77.6269H53.7624V82.7249H52.1664V72.5656H52.1697ZM53.7591 75.0679C53.7624 75.3012 53.7891 75.5377 53.8324 75.7677C54.1256 76.9505 55.0886 77.7635 56.2481 77.7635C57.9474 77.7635 58.9371 76.2908 58.9371 74.1383C58.9371 72.259 58.0041 70.6497 56.3081 70.6497C55.2119 70.6497 54.1856 71.4827 53.8757 72.7622C53.8091 72.9888 53.7724 73.2253 53.7624 73.4619L53.7591 75.0679Z" fill="#424242"/>
<path d="M61.9926 65.1218H63.6019V78.8864H61.9926V65.1218Z" fill="#424242"/>
<path d="M73.7345 74.1183C73.7345 77.5903 71.4654 79.0997 69.3263 79.0997C66.9272 79.0997 65.0813 77.2371 65.0813 74.2716C65.0813 71.1295 67.0239 69.2902 69.4696 69.2902C72.0152 69.2902 73.7345 71.2494 73.7345 74.1183ZM66.7107 74.2149C66.7107 76.2741 67.8269 77.8202 69.3996 77.8202C70.9356 77.8202 72.0885 76.2874 72.0885 74.1749C72.0885 72.5856 71.3388 70.5697 69.4362 70.5697C67.5337 70.5697 66.7107 72.4323 66.7107 74.2149Z" fill="#424242"/>
<path d="M77.1198 66.8079V69.5035H79.4256V70.8029H77.1198V75.8643C77.1198 77.0271 77.4297 77.6869 78.326 77.6869C78.6392 77.6935 78.9558 77.6536 79.259 77.5736L79.3323 78.8531C79.0224 78.9864 78.5326 79.083 77.9062 79.083C77.1565 79.083 76.5534 78.8331 76.1702 78.3666C75.7137 77.8635 75.5471 77.0305 75.5471 75.9242V70.8063H74.1743V69.5068H75.5471V67.2577L77.1198 66.8079Z" fill="#424242"/>
<path d="M80.1354 78.8864V77.8402L81.3915 76.5407C84.427 73.4786 85.7998 71.8525 85.8165 69.95C85.8165 68.6705 85.23 67.4876 83.4574 67.4876C82.3778 67.4876 81.4815 68.0707 80.9317 68.5538L80.4253 67.3543C81.3516 66.528 82.5511 66.0748 83.7906 66.0748C86.3496 66.0748 87.4291 67.9374 87.4291 69.74C87.4291 72.0658 85.8364 73.9484 83.3308 76.5074L82.3811 77.437V77.477H87.7224V78.8931L80.1354 78.8864Z" fill="#424242"/>
</svg>
