<svg width="118" height="118" viewBox="0 0 118 118" fill="none" xmlns="http://www.w3.org/2000/svg">
<path d="M66.9445 52.3732C65.1906 52.3732 63.8846 53.2345 63.8846 55.3076C63.8846 56.8692 64.7452 57.9535 66.8503 57.9535C68.6344 57.9535 69.8468 56.9019 69.8468 55.2428C69.8468 53.3627 68.7619 52.3732 66.9445 52.3732ZM63.4386 67.0096C63.0233 67.519 62.6094 68.0605 62.6094 68.6994C62.6094 69.974 64.2345 70.3572 66.4677 70.3572C68.3165 70.3572 70.8356 70.2278 70.8356 68.5085C70.8356 67.4864 69.6231 67.4236 68.0922 67.3274L63.4386 67.0096ZM72.8747 52.4694C73.4482 53.2031 74.0551 54.2233 74.0551 55.6901C74.0551 59.2287 71.2809 61.3012 67.2643 61.3012C66.2428 61.3012 65.3181 61.1743 64.7446 61.0147L63.6923 62.7046L66.8163 62.8949C72.3325 63.2467 75.5841 63.4063 75.5841 67.6453C75.5841 71.3127 72.3646 73.3838 66.8163 73.3838C61.0451 73.3838 58.8458 71.917 58.8458 69.3992C58.8458 67.9638 59.4841 67.2006 60.5998 66.1464C59.5469 65.7017 59.197 64.9051 59.197 64.0439C59.197 63.3422 59.5475 62.7046 60.1217 62.0983C60.6959 61.4934 61.3335 60.8865 62.098 60.1855C60.5357 59.4204 59.3566 57.7626 59.3566 55.4024C59.3566 51.7363 61.7795 49.2185 66.6574 49.2185C68.0288 49.2185 68.8586 49.3447 69.5911 49.5376H75.809V52.247L72.8747 52.4694ZM81.4181 46.6764C79.6001 46.6764 78.5478 45.6235 78.5478 43.8055C78.5478 41.99 79.6001 41.0006 81.4181 41.0006C83.2675 41.0006 84.3191 41.9894 84.3191 43.8055C84.3197 45.6235 83.2675 46.6764 81.4181 46.6764ZM77.304 65.8369V63.3191L78.9311 63.0961C79.3771 63.032 79.4405 62.9365 79.4405 62.4572V53.0839C79.4405 52.734 79.3457 52.5097 79.0259 52.4149L77.304 51.8087L77.6545 49.2275H84.2556V62.4578C84.2556 62.9692 84.2864 63.032 84.7657 63.0967L86.3921 63.3197V65.8375L77.304 65.8369ZM99.0003 64.6001C97.6283 65.2685 95.6206 65.8753 93.8019 65.8753C90.0083 65.8753 88.5741 64.3463 88.5741 60.7417V52.3886C88.5741 52.1983 88.5741 52.0701 88.3184 52.0701H86.0871V49.2326C88.8939 48.9128 90.0089 47.5101 90.3595 44.0349H93.3893V48.5636C93.3893 48.7859 93.3892 48.8827 93.6443 48.8827H98.1397V52.0708H93.3893V59.6901C93.3893 61.5709 93.8359 62.304 95.5571 62.304C96.4511 62.304 97.3745 62.0817 98.1397 61.7946L99.0003 64.6001Z" fill="#31251C"/>
<path d="M51.759 56.2336L37.181 41.6562C36.7778 41.2532 36.231 41.0267 35.6609 41.0267C35.0909 41.0267 34.5441 41.2532 34.1409 41.6562L31.1137 44.6835L34.9528 48.5233C35.4043 48.3698 35.8897 48.3458 36.3541 48.4541C36.8184 48.5623 37.2432 48.7985 37.5802 49.1359C37.9192 49.4751 38.1559 49.903 38.2632 50.3704C38.3705 50.8379 38.3441 51.3261 38.1871 51.7793L41.8878 55.48C42.4348 55.2894 43.0302 55.2903 43.5766 55.4825C44.123 55.6747 44.588 56.0468 44.8952 56.5378C45.2024 57.0288 45.3337 57.6096 45.2676 58.1851C45.2014 58.7605 44.9418 59.2964 44.5312 59.7049C44.1132 60.1237 43.5629 60.3847 42.9741 60.4434C42.3853 60.502 41.7944 60.3547 41.302 60.0266C40.8096 59.6985 40.4461 59.2098 40.2736 58.6438C40.101 58.0778 40.13 57.4695 40.3556 56.9225L36.9041 53.471L36.9035 62.554C37.2678 62.734 37.584 62.9981 37.8259 63.3245C38.0679 63.651 38.2286 64.0304 38.2947 64.4313C38.3608 64.8322 38.3305 65.2431 38.2063 65.6299C38.082 66.0168 37.8674 66.3685 37.5802 66.6559C37.3124 66.9236 36.9885 67.1286 36.6319 67.2559C36.2752 67.3833 35.8948 67.4299 35.518 67.3925C35.1411 67.355 34.7773 67.2343 34.4528 67.0392C34.1282 66.8441 33.851 66.5794 33.6412 66.2642C33.4313 65.9489 33.2941 65.5911 33.2393 65.2164C33.1845 64.8417 33.2136 64.4595 33.3244 64.0974C33.4353 63.7353 33.6251 63.4023 33.8802 63.1224C34.1353 62.8426 34.4494 62.6228 34.7997 62.479V53.3121C34.4873 53.1841 34.2033 52.9956 33.9641 52.7573C33.725 52.519 33.5354 52.2357 33.4062 51.9238C33.2771 51.6118 33.2111 51.2774 33.2119 50.9398C33.2127 50.6022 33.2804 50.2681 33.411 49.9568L29.6263 46.1708L19.6302 56.1663C19.4304 56.366 19.2719 56.6031 19.1638 56.8641C19.0557 57.1251 19 57.4048 19 57.6873C19 57.9698 19.0557 58.2495 19.1638 58.5105C19.2719 58.7715 19.4304 59.0086 19.6302 59.2083L34.2082 73.7857C34.6116 74.1888 35.1586 74.4153 35.7289 74.4153C36.2992 74.4153 36.8461 74.1888 37.2495 73.7857L51.759 59.2749C51.9588 59.0753 52.1172 58.8382 52.2254 58.5773C52.3335 58.3164 52.3891 58.0367 52.3891 57.7543C52.3891 57.4718 52.3335 57.1922 52.2254 56.9312C52.1172 56.6703 51.9588 56.4333 51.759 56.2336Z" fill="#F34F29"/>
</svg>
