<svg width="118" height="118" viewBox="0 0 118 118" fill="none" xmlns="http://www.w3.org/2000/svg">
<path fill-rule="evenodd" clip-rule="evenodd" d="M59.4902 23C46.0265 23 35.1079 33.9157 35.1079 47.3823C35.1079 58.1547 42.0939 67.2944 51.7821 70.5181C53.0005 70.7439 53.4481 69.9891 53.4481 69.345C53.4481 68.7639 53.4251 66.8428 53.4148 64.8061C46.6311 66.2806 45.2001 61.9291 45.2001 61.9291C44.0912 59.1107 42.4928 58.3611 42.4928 58.3611C40.2807 56.8481 42.659 56.879 42.659 56.879C45.1078 57.051 46.3973 59.3921 46.3973 59.3921C48.5716 63.1195 52.1013 62.0415 53.4922 61.4185C53.7117 59.8425 54.3432 58.7662 55.0407 58.1576C49.625 57.5415 43.9318 55.4503 43.9318 46.1077C43.9318 43.4457 44.8843 41.2708 46.4443 39.563C46.191 38.9486 45.3566 36.4683 46.6804 33.11C46.6804 33.11 48.7275 32.4555 53.3856 35.6104C55.3313 35.0699 57.4173 34.7989 59.489 34.7897C61.5614 34.7994 63.6486 35.0705 65.5971 35.6104C70.2506 32.4561 72.2954 33.1105 72.2954 33.1105C73.6227 36.4689 72.7883 38.9486 72.535 39.5636C74.0984 41.2702 75.044 43.4457 75.044 46.1083C75.044 55.4727 69.34 57.5347 63.9105 58.1375C64.785 58.894 65.5644 60.3783 65.5644 62.6535C65.5644 65.9156 65.5369 68.5409 65.5369 69.3438C65.5369 69.9914 65.9759 70.7525 67.2115 70.5129C76.8945 67.2853 83.8713 58.149 83.8713 47.38C83.8725 33.9163 72.9562 23 59.4902 23Z" fill="#181616"/>
<path d="M44.3434 58.0069C44.289 58.1284 44.0981 58.1645 43.9251 58.0814C43.7474 58.0012 43.6488 57.8367 43.7061 57.7146C43.7577 57.5908 43.9491 57.5559 44.1262 57.639C44.3039 57.7192 44.4042 57.8854 44.3434 58.0069ZM45.3309 59.1095C45.2145 59.2167 44.987 59.1669 44.8323 58.9961C44.6729 58.8259 44.6431 58.5983 44.7612 58.4895C44.8804 58.3817 45.101 58.4321 45.2598 58.6024C45.4203 58.7743 45.4518 58.9995 45.3303 59.109L45.3309 59.1095ZM46.2919 60.5125C46.1429 60.6168 45.8982 60.5194 45.7475 60.3022C45.5973 60.0861 45.5973 59.8265 45.7504 59.7216C45.9017 59.6173 46.1424 59.7113 46.2948 59.9262C46.445 60.1468 46.445 60.407 46.2919 60.5125ZM47.6089 61.8696C47.4754 62.0168 47.1905 61.9773 46.9825 61.7761C46.7693 61.5796 46.7103 61.3005 46.8438 61.1532C46.9796 61.0059 47.2656 61.0472 47.4754 61.2466C47.6874 61.4426 47.7516 61.7229 47.6089 61.8696ZM49.4268 62.657C49.3672 62.8484 49.0932 62.9349 48.817 62.8541C48.5408 62.7705 48.3608 62.547 48.4158 62.3544C48.4731 62.1618 48.7494 62.0719 49.0273 62.1584C49.3024 62.2409 49.4835 62.4621 49.4268 62.657ZM51.4211 62.8031C51.4286 63.0037 51.1942 63.1711 50.9042 63.1745C50.6131 63.1814 50.3769 63.0186 50.3735 62.8203C50.3735 62.6175 50.6027 62.4524 50.8939 62.4478C51.1839 62.4421 51.4211 62.6037 51.4211 62.8031ZM53.278 62.4874C53.3123 62.6834 53.1118 62.8851 52.8235 62.9384C52.5404 62.9911 52.279 62.8696 52.2424 62.6748C52.208 62.4742 52.4126 62.2736 52.6951 62.2209C52.9834 62.1704 53.2413 62.2879 53.278 62.4874Z" fill="#181616"/>
<path d="M37.0563 84.2007H30.9242C30.8482 84.2007 30.7753 84.2309 30.7216 84.2846C30.6678 84.3384 30.6376 84.4113 30.6376 84.4873V87.4857C30.6376 87.5617 30.6678 87.6346 30.7216 87.6883C30.7753 87.742 30.8482 87.7722 30.9242 87.7722H33.3157V91.4973C33.3157 91.4973 32.7787 91.6807 31.2927 91.6807C29.5413 91.6807 27.0936 91.0412 27.0936 85.6587C27.0936 80.2756 29.6427 79.5667 32.036 79.5667C34.1071 79.5667 34.9989 79.9312 35.5674 80.1071C35.745 80.161 35.9112 79.9833 35.9112 79.8251L36.5949 76.9281C36.596 76.8848 36.5866 76.8418 36.5674 76.8028C36.5483 76.7639 36.52 76.7302 36.4849 76.7046C36.2539 76.5396 34.8476 75.7533 31.2938 75.7533C27.1996 75.7533 23 77.4944 23 85.8684C23 94.2413 27.8083 95.4889 31.86 95.4889C35.2149 95.4889 37.25 94.0551 37.25 94.0551C37.3337 94.0092 37.3428 93.8917 37.3428 93.8373V84.4867C37.3428 84.4107 37.3126 84.3378 37.2589 84.2841C37.2052 84.2303 37.1323 84.2007 37.0563 84.2007ZM68.3764 76.4685H64.923C64.8853 76.4687 64.848 76.4763 64.8133 76.4908C64.7785 76.5054 64.747 76.5267 64.7205 76.5535C64.694 76.5802 64.673 76.612 64.6588 76.6469C64.6446 76.6818 64.6373 76.7191 64.6376 76.7568L64.6387 83.4299H59.2562V76.7568C59.2565 76.7192 59.2493 76.6818 59.2351 76.647C59.2209 76.6121 59.2 76.5804 59.1735 76.5537C59.1471 76.5269 59.1156 76.5056 59.0809 76.491C59.0462 76.4764 59.009 76.4687 58.9714 76.4685H55.5185C55.4808 76.4687 55.4435 76.4763 55.4088 76.4908C55.3741 76.5054 55.3425 76.5267 55.316 76.5535C55.2895 76.5802 55.2685 76.612 55.2543 76.6469C55.2401 76.6818 55.2329 76.7191 55.2331 76.7568V94.8264C55.2331 94.9852 55.3615 95.1147 55.5185 95.1147H58.9714C59.0091 95.1145 59.0463 95.1068 59.0811 95.0922C59.1158 95.0775 59.1473 95.0562 59.1737 95.0294C59.2002 95.0025 59.2211 94.9707 59.2352 94.9358C59.2494 94.9009 59.2565 94.8635 59.2562 94.8259V87.0971H64.6387L64.6296 94.8259C64.6296 94.9852 64.7579 95.1147 64.9161 95.1147H68.3764C68.4141 95.1145 68.4514 95.1068 68.4861 95.0922C68.5208 95.0775 68.5523 95.0562 68.5788 95.0294C68.6052 95.0025 68.6261 94.9707 68.6403 94.9358C68.6544 94.9009 68.6616 94.8635 68.6613 94.8259V76.7562C68.6616 76.7186 68.6546 76.6812 68.6404 76.6463C68.6263 76.6114 68.6054 76.5797 68.5789 76.553C68.5524 76.5262 68.5209 76.505 68.4861 76.4905C68.4514 76.476 68.4141 76.4685 68.3764 76.4685ZM41.3459 76.8794C40.1172 76.8794 39.12 77.8841 39.12 79.1277C39.12 80.3696 40.1172 81.3771 41.3459 81.3771C42.5757 81.3771 43.5724 80.3696 43.5724 79.1277C43.5724 77.8841 42.5752 76.8794 41.3459 76.8794ZM43.04 82.3857H39.598C39.4398 82.3857 39.2988 82.5485 39.2988 82.7066V94.6568C39.2988 95.0081 39.5177 95.1124 39.8008 95.1124H42.9013C43.2423 95.1124 43.3254 94.9451 43.3254 94.6511V82.674C43.3255 82.6364 43.3182 82.5991 43.304 82.5642C43.2897 82.5294 43.2687 82.4977 43.2422 82.471C43.2157 82.4443 43.1842 82.4231 43.1495 82.4085C43.1148 82.394 43.0776 82.3859 43.04 82.3857ZM81.7845 82.4127H78.3574C78.3198 82.413 78.2826 82.4207 78.248 82.4353C78.2133 82.45 78.1819 82.4714 78.1555 82.4982C78.1291 82.525 78.1082 82.5568 78.0941 82.5917C78.08 82.6265 78.0729 82.6639 78.0732 82.7015V91.5615C78.0732 91.5615 77.2021 92.1977 75.9671 92.1977C74.7321 92.1977 74.4042 91.6377 74.4042 90.4279V82.7015C74.4045 82.6638 74.3974 82.6264 74.3833 82.5915C74.3691 82.5566 74.3482 82.5248 74.3217 82.498C74.2953 82.4712 74.2638 82.4498 74.2291 82.4352C74.1944 82.4205 74.1571 82.4129 74.1194 82.4127H70.6419C70.5658 82.4133 70.493 82.444 70.4395 82.4981C70.386 82.5523 70.3562 82.6254 70.3565 82.7015V91.0125C70.3565 94.6058 72.3594 95.4849 75.1143 95.4849C77.3746 95.4849 79.197 94.2356 79.197 94.2356C79.197 94.2356 79.283 94.8946 79.3231 94.972C79.3632 95.0499 79.4647 95.1285 79.5753 95.1285L81.7874 95.1187C81.8252 95.1186 81.8626 95.111 81.8974 95.0964C81.9323 95.0818 81.9639 95.0605 81.9905 95.0336C82.0171 95.0068 82.0382 94.975 82.0525 94.9401C82.0668 94.9051 82.0741 94.8677 82.074 94.8299L82.0722 82.6998C82.0719 82.6238 82.0417 82.5509 81.9881 82.4971C81.9344 82.4432 81.8617 82.4127 81.7857 82.4121L81.7845 82.4127ZM91.1501 82.0069C89.2038 82.0069 87.88 82.8751 87.88 82.8751V76.7562C87.8802 76.7186 87.873 76.6813 87.8588 76.6464C87.8446 76.6116 87.8237 76.5799 87.7973 76.5531C87.7708 76.5263 87.7394 76.505 87.7047 76.4904C87.67 76.4758 87.6328 76.4682 87.5952 76.4679H84.1331C84.0953 76.4679 84.0579 76.4754 84.023 76.4899C83.9882 76.5044 83.9565 76.5257 83.9299 76.5525C83.9032 76.5793 83.8822 76.6111 83.8679 76.646C83.8536 76.681 83.8463 76.7184 83.8465 76.7562V94.8259C83.8463 94.8636 83.8536 94.9011 83.8679 94.9361C83.8822 94.971 83.9032 95.0028 83.9299 95.0296C83.9565 95.0564 83.9882 95.0777 84.023 95.0922C84.0579 95.1067 84.0953 95.1141 84.1331 95.1141H86.5355C86.6444 95.1141 86.7258 95.0585 86.7859 94.9605C86.845 94.8631 86.9315 94.1273 86.9315 94.1273C86.9315 94.1273 88.347 95.4683 91.028 95.4683C94.1743 95.4683 95.9795 93.8728 95.9795 88.3035C95.9795 82.7342 93.0968 82.0063 91.1495 82.0063L91.1501 82.0069ZM89.7976 92.1873C88.6095 92.1512 87.8032 91.612 87.8032 91.612V85.8896C87.8032 85.8896 88.5986 85.4025 89.574 85.3142C90.8079 85.2036 91.9971 85.5767 91.9971 88.5201C91.9971 91.6246 91.4612 92.2372 89.7981 92.1868L89.7976 92.1873ZM53.2978 92.1197C53.147 92.1197 52.7608 92.181 52.3636 92.181C51.0914 92.181 50.6598 91.5896 50.6598 90.824V85.7429H53.2502C53.288 85.7429 53.3255 85.7354 53.3604 85.7209C53.3953 85.7063 53.427 85.685 53.4536 85.6582C53.4803 85.6313 53.5013 85.5995 53.5156 85.5644C53.5299 85.5294 53.537 85.4919 53.5367 85.4541V82.6711C53.5369 82.6334 53.5296 82.596 53.5153 82.5611C53.5009 82.5262 53.4798 82.4945 53.4532 82.4678C53.4266 82.441 53.395 82.4198 53.3601 82.4053C53.3253 82.3909 53.2879 82.3834 53.2502 82.3834H50.6598L50.6558 78.9621C50.6558 78.832 50.5893 78.7672 50.4392 78.7672H46.9089C46.7725 78.7672 46.6986 78.8279 46.6986 78.9592V82.4952C46.6986 82.4952 44.9294 82.9221 44.8102 82.9565C44.7507 82.9739 44.6984 83.0101 44.6612 83.0597C44.624 83.1093 44.6039 83.1696 44.6039 83.2316V85.4535C44.6037 85.4911 44.6109 85.5284 44.6251 85.5633C44.6393 85.5981 44.6602 85.6298 44.6866 85.6566C44.7131 85.6834 44.7446 85.7047 44.7792 85.7193C44.8139 85.7339 44.8511 85.7415 44.8888 85.7418H46.6986V91.0876C46.6986 95.0591 49.4838 95.4488 51.3636 95.4488C52.2215 95.4488 53.2491 95.1737 53.4187 95.1107C53.5218 95.0723 53.5809 94.9663 53.5809 94.8511L53.5832 92.4068C53.582 92.3311 53.5515 92.2588 53.498 92.2051C53.4446 92.1514 53.3724 92.1206 53.2966 92.1191L53.2978 92.1197Z" fill="#100E0F"/>
</svg>
