<svg width="118" height="118" viewBox="0 0 118 118" fill="none" xmlns="http://www.w3.org/2000/svg">
<path d="M32.5067 98.0975L26.5002 30.7288H92.5001L86.4877 98.087L59.4599 105.58L32.5067 98.0975Z" fill="#E44D26"/>
<path d="M59.5 99.8524L81.3391 93.7974L86.4778 36.2378H59.5V99.8524Z" fill="#F16529"/>
<path d="M59.5002 61.2239H48.5664L47.8122 52.7621H59.5002V44.4996H38.782L38.9791 46.7168L41.0104 69.4857H59.5002V61.2239ZM59.5002 82.6815L59.4636 82.6912L50.2624 80.2059L49.6739 73.6169H41.3793L42.5368 86.5902L59.4621 91.289L59.5002 91.2778V82.6815Z" fill="#EBEBEB"/>
<path d="M32.6411 12.4204H36.8396V16.5696H40.6811V12.4204H44.8803V24.9829H40.6811V20.7763H36.8403V24.9829H32.6411V12.4204ZM50.4013 16.5868H46.7047V12.4204H58.2986V16.5868H54.6005V24.9829H50.4013V16.5868ZM60.1387 12.4204H64.5164L67.2101 16.8347L69.9007 12.4204H74.2807V24.9829H70.0979V18.7562L67.2101 23.2227H67.1369L64.2468 18.7562V24.9829H60.1379V12.4204H60.1387ZM76.3709 12.4204H80.5709V20.8308H86.4758V24.9837H76.3709V12.4204Z" fill="black"/>
<path d="M59.4719 61.2239V69.4857H69.6462L68.6873 80.2014L59.4719 82.689V91.2845L76.4106 86.5902L76.5346 85.1937L78.4763 63.4419L78.6779 61.2239H76.451H59.4719ZM59.4719 44.4996V52.7621H79.4299L79.5949 50.9048L79.9721 46.7168L80.17 44.4996H59.4719Z" fill="white"/>
</svg>
