<svg width="118" height="118" viewBox="0 0 118 118" fill="none" xmlns="http://www.w3.org/2000/svg">
<path d="M11.5 11H107.5V107.001H11.5V11Z" fill="#F0DB4F"/>
<path d="M99.6425 84.104C98.9393 79.7245 96.0835 76.0459 87.6243 72.6157C84.6857 71.2653 81.4097 70.2983 80.4335 68.0713C80.0868 66.7753 80.0408 66.0453 80.2602 65.2608C80.8897 62.7148 83.9288 61.9211 86.3375 62.6511C87.8889 63.1711 89.3574 64.3666 90.2431 66.2738C94.3857 63.5913 94.3773 63.6089 97.2699 61.7654C96.2108 60.1236 95.6457 59.3659 94.9524 58.6635C92.4609 55.8805 89.066 54.4473 83.6366 54.5569L80.8085 54.9227C78.0984 55.6075 75.5156 57.0301 74.0011 58.9372C69.4566 64.0936 70.7526 73.118 76.2825 76.8319C81.7302 80.9208 89.7332 81.851 90.7554 85.6746C91.75 90.3555 87.3153 91.8708 82.9074 91.3324C79.6589 90.6568 77.8522 89.0058 75.899 86.0035C72.304 88.084 72.304 88.084 68.6077 90.2098C69.4842 92.1261 70.4052 92.9935 71.8745 94.6537C78.8284 101.707 96.23 101.361 99.3511 90.6844C99.4776 90.3179 100.318 87.8731 99.6425 84.104ZM63.6883 55.1221H54.7092L54.6724 78.3365C54.6724 83.2735 54.9277 87.7995 54.1248 89.1868C52.8112 91.9153 49.4071 91.5771 47.8558 91.0479C46.2768 90.2719 45.4739 89.1684 44.5437 87.6086C44.2883 87.1607 44.0966 86.8141 44.0322 86.7873L36.7317 91.2581C37.9456 93.7496 39.7339 95.9121 42.0246 97.317C45.4463 99.3707 50.0451 100 54.8549 98.896C57.9852 97.9842 60.6861 96.0954 62.1002 93.2205C64.1446 89.4513 63.706 84.8893 63.6876 79.8434C63.7336 71.6111 63.6883 63.3804 63.6883 55.1221Z" fill="#323330"/>
</svg>
