<svg width="118" height="118" viewBox="0 0 118 118" fill="none" xmlns="http://www.w3.org/2000/svg">
<path d="M21.6245 30.527C17.4338 30.527 14 34.0218 14 38.1967V79.803C14 83.9779 17.4338 87.4727 21.6237 87.4727H96.3762C100.566 87.4727 104 83.9779 104 79.803V38.1974C104 34.0225 100.565 30.5277 96.3762 30.5277H23.7413L23.7399 30.5262L21.6245 30.527ZM21.6194 37.3795H96.3762C96.825 37.3795 97.1488 37.6832 97.1488 38.1981V79.803C97.1488 80.3179 96.8236 80.6216 96.3762 80.6216H21.6237C21.1764 80.6216 20.8511 80.3179 20.8511 79.803V38.1967C20.8511 37.6832 21.1749 37.3817 21.6194 37.3795Z" fill="black"/>
<path d="M27.9226 73.433V44.5667H36.3233L44.7226 55.1797L53.1189 44.5667H61.5175V73.433H53.1189V56.8772L44.7218 67.4903L36.3219 56.8772V73.433H27.9226ZM80.4163 73.433L67.8178 59.4242H76.2171V44.5667H84.6171V59.4235H93.017L80.4163 73.433Z" fill="black"/>
</svg>
