<svg width="118" height="118" viewBox="0 0 118 118" fill="none" xmlns="http://www.w3.org/2000/svg">
<path d="M14.4997 77.4043H17.4814V65.6293L22.0976 75.8946C22.642 77.1372 23.3874 77.5763 24.8499 77.5763C26.3125 77.5763 27.0296 77.1372 27.5739 75.8946L32.1902 65.6293V77.4043H35.1718V65.6489C35.1718 64.5021 34.7131 63.9469 33.7666 63.6609C31.5014 62.954 29.9815 63.5658 29.2934 65.0951L24.7636 75.2261L20.3774 65.0944C19.7177 63.5658 18.1695 62.954 15.9042 63.6602C14.9577 63.9469 14.499 64.5014 14.499 65.6482L14.4997 77.4043ZM37.652 67.8191H40.6329V74.3065C40.6053 74.6585 40.7461 75.486 42.3792 75.5121C43.2125 75.5252 48.8114 75.5121 48.8637 75.5121V67.7872H51.8519C51.8657 67.7872 51.849 78.3217 51.849 78.3653C51.865 80.9637 48.6256 81.5277 47.1319 81.5712H37.7166V79.5651C37.7325 79.5651 47.1254 79.5673 47.1486 79.5644C49.0684 79.3618 48.8412 78.4081 48.8405 78.0873V77.3049H42.5033C39.5551 77.278 37.6766 75.9911 37.6527 74.5105C37.6512 74.3747 37.7173 67.8845 37.652 67.8191Z" fill="#00618A"/>
<path d="M54.1505 77.4044H62.7239C63.7277 77.4044 64.7032 77.1946 65.4769 76.8317C66.7667 76.2394 67.3974 75.4367 67.3974 74.3842V72.2053C67.3974 71.3452 66.6811 70.5417 65.2759 70.0075C64.5305 69.7201 63.6123 69.5684 62.7232 69.5684H59.11C57.9059 69.5684 57.3325 69.2055 57.1895 68.4027C57.1612 68.3069 57.1612 68.2307 57.1612 68.1349V66.7776C57.1612 66.7014 57.1612 66.6245 57.1895 66.5294C57.3325 65.9175 57.6482 65.7455 58.7094 65.6497L58.9961 65.6308H67.5121V63.6435H59.1398C57.9357 63.6435 57.3049 63.7198 56.7315 63.8918C54.954 64.4463 54.1788 65.3253 54.1788 66.8546V68.5936C54.1788 69.932 55.6994 71.0788 58.2507 71.3467C58.5381 71.3648 58.8241 71.3851 59.1108 71.3851H62.2078C62.3225 71.3851 62.4372 71.3851 62.5236 71.4033C63.47 71.4795 63.8707 71.6522 64.1581 71.9955C64.2318 72.0636 64.2902 72.1464 64.3296 72.2386C64.369 72.3308 64.3885 72.4302 64.3868 72.5305V74.2703C64.3868 74.48 64.2438 74.7479 63.9571 74.9772C63.6994 75.2066 63.269 75.3597 62.6956 75.3982L62.3799 75.4171H54.1505V77.4044ZM86.0002 73.9451C86.0002 75.9897 87.5201 77.1365 90.5874 77.3666C90.8741 77.3855 91.1608 77.4044 91.4475 77.4044H99.2181V75.4171H91.3909C89.6417 75.4171 88.9826 74.9772 88.9826 73.9255V63.6421H86.0009L86.0002 73.9451ZM69.3006 74.0482V66.9605C69.3006 65.1605 70.5649 64.0681 73.0647 63.7234C73.331 63.6852 73.5998 63.666 73.8689 63.666H79.5295C79.817 63.666 80.0753 63.6849 80.362 63.7234C82.8618 64.0681 84.1269 65.1598 84.1269 66.9605V74.0482C84.1269 75.51 83.5898 76.291 82.3522 76.8005L85.2904 79.4519H81.8275L79.4511 77.3064L77.0588 77.4581H73.8689C73.2763 77.4543 72.6869 77.3705 72.1167 77.2091C70.2202 76.6923 69.3006 75.6958 69.3006 74.0482ZM72.5188 73.8762C72.5188 73.972 72.5471 74.0685 72.5762 74.1832C72.7482 75.007 73.5248 75.4664 74.7021 75.4664H77.4109L74.9228 73.22H78.3856L80.5551 75.1797C80.9558 74.9656 81.2185 74.6404 81.3107 74.2216C81.339 74.1258 81.339 74.03 81.339 73.9342V67.1347C81.339 67.0585 81.339 66.962 81.3107 66.8662C81.138 66.0997 80.3621 65.6599 79.2131 65.6599H74.7014C73.3804 65.6599 72.5181 66.2347 72.5181 67.1347L72.5188 73.8762Z" fill="#E48E00"/>
<path d="M101.841 60.3432C100.009 60.2931 98.6085 60.4637 97.4109 60.9681C97.0705 61.1118 96.5283 61.1155 96.4732 61.5415C96.6597 61.7382 96.6887 62.0307 96.8375 62.2717C97.1235 62.7341 97.6062 63.3539 98.0366 63.6783C98.5062 64.0333 98.991 64.4136 99.4962 64.7213C100.393 65.2686 101.394 65.5807 102.259 66.128C102.767 66.4517 103.273 66.8582 103.77 67.2232C104.016 67.4025 104.18 67.6834 104.5 67.7959V67.7444C104.332 67.531 104.289 67.2378 104.135 67.0142L103.457 66.3363C102.794 65.4566 101.954 64.6851 101.059 64.0434C100.346 63.5317 98.7508 62.84 98.4532 62.0104L98.4009 61.9589C98.9061 61.9015 99.4984 61.7186 99.9644 61.5938C100.748 61.3833 101.449 61.4377 102.258 61.2287L103.352 60.9151V60.7076C102.944 60.288 102.651 59.7321 102.206 59.3525C101.039 58.3588 99.7648 57.3659 98.4532 56.537C97.7259 56.0783 96.8266 55.78 96.0551 55.3909C95.7967 55.2596 95.3409 55.1921 95.1689 54.9736C94.7631 54.4575 94.5432 53.8036 94.2304 53.2019C93.5623 51.902 92.9365 50.5808 92.3541 49.2403C91.9593 48.3367 91.7009 47.4454 91.2081 46.6346C88.8412 42.7435 86.2935 40.3948 82.3473 38.0867C81.5075 37.5953 80.4964 37.4022 79.4287 37.1489L77.7085 37.0444C77.3594 36.8985 76.9951 36.4703 76.6663 36.2627C75.3583 35.4367 72.0051 33.6403 71.0368 36.0028C70.4257 37.4937 71.9513 38.9482 72.4964 39.7038C72.8789 40.2336 73.3696 40.8274 73.6432 41.4233C73.8232 41.8152 73.8537 42.2079 74.0083 42.6223C74.3865 43.6428 74.7167 44.754 75.2066 45.6969C75.4541 46.1745 75.7278 46.6775 76.0406 47.1042C76.2322 47.3655 76.5618 47.4817 76.6133 47.886C76.2917 48.336 76.2729 49.0357 76.0921 49.6054C75.2778 52.1741 75.5848 55.367 76.7701 57.2679C77.1337 57.8522 77.9902 59.1035 79.1674 58.623C80.1974 58.2035 79.968 56.9035 80.2627 55.756C80.3295 55.4969 80.2881 55.3053 80.4188 55.1311V55.1833L81.3572 57.0596C82.0519 58.1781 83.2836 59.3459 84.328 60.1349C84.8695 60.5435 85.2963 61.2512 85.996 61.49V61.437H85.9444C85.808 61.2258 85.5968 61.1387 85.4226 60.9681C85.0146 60.5682 84.561 60.0717 84.2242 59.613C83.2741 58.324 82.4351 56.9123 81.6701 55.4432C81.305 54.742 80.9878 53.9683 80.6801 53.2541C80.561 52.979 80.5625 52.5624 80.3157 52.4209C79.9775 52.9435 79.4817 53.3666 79.2204 53.9843C78.8038 54.9714 78.7501 56.1755 78.5955 57.424L78.491 57.4755C77.7644 57.3006 77.5097 56.553 77.2397 55.9121C76.5574 54.2913 76.4304 51.6805 77.0314 49.8145C77.1867 49.3311 77.8886 47.8105 77.604 47.3641C77.4683 46.9192 77.0205 46.6622 76.7708 46.3211C76.4432 45.8646 76.1637 45.3755 75.9368 44.8615C75.3779 43.5978 75.1174 42.1788 74.5302 40.9007C74.2486 40.2895 73.7739 39.6718 73.3834 39.1289C72.9515 38.5265 72.4674 38.0838 72.1321 37.3565C72.013 37.0981 71.8512 36.6836 72.0276 36.418C72.0834 36.2387 72.164 36.164 72.3411 36.1052C72.6431 35.8722 73.485 36.1828 73.8 36.3135C74.6362 36.6611 75.3337 36.9914 76.0421 37.4603C76.3817 37.686 76.7251 38.1215 77.1366 38.242H77.6055C78.3393 38.4104 79.1616 38.2935 79.8468 38.5018C81.0589 38.8705 82.1448 39.4432 83.1304 40.066C86.1346 41.9633 88.59 44.6633 90.271 47.8845C90.541 48.4035 90.6586 48.8977 90.896 49.4479C91.3765 50.557 91.9818 51.6987 92.4594 52.7838C92.9363 53.866 93.4015 54.9583 94.0758 55.8591C94.43 56.3323 95.7989 56.5864 96.4209 56.8491C96.8571 57.0335 97.5713 57.2258 97.9843 57.474C98.7733 57.9502 99.5383 58.517 100.278 59.0382C100.647 59.3009 101.785 59.8721 101.841 60.3432ZM78.5432 40.4855C78.2272 40.4803 77.9119 40.5154 77.6048 40.59V40.6415H77.657C77.8392 41.0168 78.1607 41.2578 78.3865 41.58L78.9083 42.6746L78.9599 42.623C79.2828 42.3959 79.4302 42.0322 79.4287 41.4762C79.2988 41.3398 79.2799 41.1692 79.1682 41.0074C79.0201 40.7896 78.7312 40.6677 78.5432 40.4855Z" fill="#00618A"/>
</svg>
