<svg width="118" height="118" viewBox="0 0 118 118" fill="none" xmlns="http://www.w3.org/2000/svg">
<path fill-rule="evenodd" clip-rule="evenodd" d="M64.1899 20C63.7674 20 63.375 20.0909 63.0128 20.2121C63.7825 20.7273 64.205 21.4091 64.4163 22.1818C64.4314 22.2878 64.4616 22.3636 64.4767 22.4696C64.4918 22.5606 64.5069 22.6515 64.5069 22.7424C64.5673 24.0757 64.1597 24.2423 63.873 25.0302C63.4353 26.0453 63.5561 27.1362 64.0843 28.015C64.1296 28.121 64.1899 28.2423 64.2654 28.3483C63.6919 24.5151 66.8763 23.9393 67.4649 22.7424C67.5101 21.6969 66.6499 21 65.9708 20.5151C65.3218 20.1212 64.7332 20 64.1899 20ZM68.9891 20.8636C68.9287 21.2121 68.974 21.1212 68.959 21.303C68.9439 21.4242 68.9439 21.5757 68.9288 21.6969C68.8986 21.8181 68.8684 21.9394 68.8232 22.0606C68.793 22.1818 68.7477 22.303 68.7024 22.4242C68.642 22.5454 68.5968 22.6515 68.5364 22.7727C68.4911 22.8333 68.461 22.8939 68.4157 22.9545C68.3855 22.9999 68.3553 23.0454 68.3251 23.0908C68.2497 23.1969 68.1742 23.303 68.0988 23.3939C68.0082 23.4848 67.9328 23.5908 67.8271 23.6666V23.6818C67.7366 23.7575 67.646 23.8484 67.5404 23.9242C67.2234 24.1666 66.8612 24.3484 66.5292 24.5757C66.4236 24.6514 66.3179 24.7121 66.2274 24.803C66.1217 24.8787 66.0312 24.9545 65.9406 25.0454C65.835 25.1363 65.7595 25.2272 65.669 25.3333C65.5935 25.4242 65.503 25.5302 65.4426 25.6363C65.3671 25.7423 65.2917 25.8484 65.2313 25.9544C65.1709 26.0757 65.1257 26.1817 65.0653 26.3029C65.02 26.4241 64.9748 26.5302 64.9446 26.6514C64.8993 26.7878 64.8691 26.909 64.8389 27.0302C64.8238 27.0908 64.8238 27.1665 64.8088 27.2271C64.7936 27.2878 64.7936 27.3484 64.7786 27.409C64.7786 27.5302 64.7635 27.6665 64.7635 27.7877C64.7635 27.8787 64.7635 27.9696 64.7786 28.0605C64.7786 28.1817 64.7937 28.3029 64.8239 28.4392C64.839 28.5605 64.8692 28.6817 64.8993 28.8029C64.9446 28.9241 64.9748 29.0453 65.0201 29.1665C65.0502 29.2423 65.0955 29.318 65.1257 29.3786L61.6546 28.0302C61.066 27.8635 60.4925 27.712 59.904 27.5756C59.587 27.4999 59.2701 27.4241 58.9532 27.3484C58.0477 27.1665 57.1271 27.0302 56.2065 26.9393C56.1763 26.9393 56.1612 26.9241 56.131 26.9241C55.2255 26.8332 54.3351 26.7877 53.4296 26.7877C52.7655 26.7877 52.1015 26.818 51.4526 26.8635C50.532 26.9241 49.6114 27.0453 48.6908 27.1968C48.4644 27.2271 48.238 27.2726 48.0116 27.318C47.5438 27.4089 47.091 27.515 46.6534 27.6211C46.427 27.6817 46.2006 27.7423 45.9742 27.8029C45.7479 27.8938 45.5366 27.9998 45.3253 28.0908C45.1593 28.1665 44.9933 28.2423 44.8273 28.318C44.7971 28.3332 44.7669 28.3332 44.7518 28.3483C44.6009 28.4241 44.4651 28.4847 44.3292 28.5604C44.284 28.5756 44.2538 28.5907 44.2236 28.6059C44.0576 28.6816 43.8916 28.7725 43.7557 28.8483C43.6501 28.8937 43.5445 28.9543 43.4539 28.9998C43.4086 29.0301 43.3483 29.0604 43.3181 29.0756C43.1823 29.1513 43.0464 29.2271 42.9257 29.3028C42.7899 29.3786 42.6691 29.4543 42.5635 29.5301C42.4578 29.6059 42.3522 29.6665 42.2617 29.7422C42.2465 29.7574 42.2315 29.7574 42.2164 29.7725C42.1258 29.8331 42.0202 29.9088 41.9296 29.9846C41.9296 29.9846 41.9145 29.9998 41.8995 30.0149C41.824 30.0755 41.7486 30.1361 41.6731 30.1967C41.6429 30.2119 41.6127 30.2421 41.5825 30.2573C41.5071 30.318 41.4316 30.3937 41.3562 30.4543C41.3411 30.4846 41.3109 30.4997 41.2958 30.5149C41.2052 30.6058 41.1147 30.6816 41.0241 30.7725C41.009 30.7725 41.009 30.7877 40.994 30.8028C40.9034 30.8785 40.8129 30.9694 40.7223 31.0603C40.7072 31.0755 40.7072 31.0906 40.6922 31.0906C40.6167 31.1664 40.5412 31.2421 40.4658 31.333C40.4356 31.3633 40.3903 31.3937 40.3601 31.4239C40.2847 31.5149 40.1941 31.6058 40.1036 31.6967C40.0885 31.7269 40.0583 31.7421 40.0432 31.7724C39.9225 31.8936 39.8168 32.0148 39.6961 32.1361C39.681 32.1512 39.6659 32.1663 39.6508 32.1815C39.4093 32.4391 39.1528 32.6966 38.8811 32.9239C38.6095 33.1663 38.3227 33.3936 38.036 33.5906C37.7341 33.8027 37.4474 33.9845 37.1305 34.1663C36.8286 34.333 36.5117 34.4845 36.1797 34.6209C35.8628 34.7572 35.5307 34.8784 35.1987 34.9845C34.5649 35.1208 33.9159 35.3784 33.3575 35.4239C33.2368 35.4239 33.101 35.4541 32.9802 35.4693C32.8444 35.4996 32.7237 35.5299 32.6029 35.5602C32.4822 35.6057 32.3615 35.6511 32.2407 35.6966C32.12 35.742 31.9993 35.8026 31.8785 35.8633C31.7729 35.939 31.6521 35.9996 31.5465 36.0754C31.4409 36.1511 31.3352 36.242 31.2447 36.3329C31.139 36.4087 31.0334 36.5148 30.9428 36.6057C30.8523 36.7117 30.7617 36.8026 30.6863 36.9087C30.6108 37.0299 30.5203 37.136 30.4599 37.2572C30.3844 37.3632 30.309 37.4844 30.2486 37.6056C30.1882 37.742 30.1279 37.8632 30.0826 37.9996C30.0373 38.1208 29.992 38.2571 29.9468 38.3935C29.9166 38.5147 29.8864 38.6359 29.8713 38.7571C29.8713 38.7723 29.8562 38.7874 29.8562 38.8026C29.826 38.9389 29.826 39.1208 29.8109 39.2117C29.7958 39.3177 29.7808 39.4086 29.7808 39.5147C29.7808 39.5753 29.7808 39.6511 29.7959 39.7117C29.811 39.8177 29.826 39.9086 29.8563 39.9995C29.8864 40.0904 29.9167 40.1813 29.9619 40.2723V40.2874C30.0072 40.3783 30.0676 40.4692 30.1279 40.5602C30.1883 40.6511 30.2487 40.742 30.3241 40.8329C30.3996 40.9086 30.4901 40.9995 30.5807 41.0753C30.6712 41.1662 30.7618 41.242 30.8674 41.3177C31.2296 41.6359 31.3202 41.742 31.788 41.9844C31.8635 42.0298 31.9389 42.0601 32.0295 42.1056C32.0446 42.1056 32.0596 42.1207 32.0748 42.1207C32.0748 42.151 32.0748 42.1662 32.0899 42.1965C32.105 42.3177 32.1352 42.4389 32.1653 42.5601C32.1955 42.6965 32.2408 42.8177 32.2861 42.9238C32.3314 43.0147 32.3615 43.1056 32.4068 43.1965C32.4219 43.2268 32.437 43.2571 32.4521 43.2722C32.5125 43.3935 32.5728 43.4995 32.6332 43.6056C32.7086 43.7116 32.7841 43.8177 32.8596 43.9238C32.935 44.0147 33.0256 44.1207 33.1161 44.2116C33.2067 44.3025 33.2972 44.3783 33.4029 44.4692C33.4029 44.4692 33.418 44.4844 33.433 44.4844C33.5236 44.5601 33.6141 44.6359 33.7047 44.6965C33.8103 44.7723 33.916 44.8329 34.0367 44.8935C34.1423 44.9541 34.2631 45.0147 34.3838 45.0601C34.4744 45.1056 34.58 45.1359 34.6856 45.1662C34.7008 45.1814 34.7158 45.1814 34.746 45.1965C34.8064 45.2117 34.8819 45.2267 34.9422 45.2419C34.897 46.0601 34.8818 46.8328 35.0026 47.1055C35.1384 47.4085 35.8025 46.4843 36.4665 45.4237C36.376 46.4692 36.3156 47.6964 36.4665 48.0601C36.6325 48.4388 37.538 47.257 38.3228 45.954C49.0229 43.4692 58.7873 50.8933 59.8135 61.378C59.6173 59.7416 57.6101 58.8326 56.6895 59.0598C56.2368 60.181 55.4671 61.6204 54.2296 62.5143C54.3352 61.5143 54.29 60.484 54.0787 59.4841C53.7466 60.878 53.0977 62.181 52.2073 63.3022C50.7735 63.4082 49.3398 62.7113 48.5852 61.6658C48.5248 61.6204 48.5098 61.5295 48.4645 61.4689C48.4192 61.3628 48.3739 61.2568 48.3438 61.1507C48.2985 61.0446 48.2683 60.9386 48.2532 60.8325C48.2381 60.7265 48.2381 60.6204 48.2381 60.4992C48.2381 60.4234 48.2381 60.3477 48.2381 60.2719C48.2532 60.1659 48.2834 60.0598 48.3136 59.9537C48.3437 59.8477 48.3739 59.7416 48.4192 59.6356C48.4796 59.5295 48.5248 59.4235 48.6003 59.3174C48.8569 58.5901 48.8569 57.9992 48.389 57.6508C48.2985 57.5901 48.2079 57.5447 48.1023 57.4992C48.0419 57.4841 47.9664 57.4538 47.9061 57.4386C47.8608 57.4235 47.8306 57.4083 47.7853 57.3932C47.6797 57.3629 47.5741 57.3325 47.4684 57.3174C47.3628 57.2871 47.2571 57.272 47.1515 57.272C47.0458 57.2568 46.9251 57.2417 46.8195 57.2417C46.744 57.2417 46.6685 57.2568 46.5931 57.2568C46.4724 57.2568 46.3667 57.272 46.2611 57.3023C46.1554 57.3175 46.0498 57.3326 45.9441 57.3629C45.8385 57.3932 45.7329 57.4236 45.6272 57.469C45.5216 57.5144 45.431 57.5599 45.3254 57.6054C45.2348 57.6508 45.1443 57.7114 45.0386 57.7569C41.5222 60.0598 43.62 65.4537 46.0196 67.0142C45.1141 67.1809 44.1935 67.3779 43.9369 67.5748C43.9218 67.59 43.9068 67.6051 43.9068 67.6051C44.5557 67.9991 45.2349 68.3324 45.9442 68.6203C46.91 68.9384 47.9363 69.2263 48.389 69.3475V69.3627C49.6417 69.6203 50.9094 69.7112 52.1922 69.6354C58.8778 69.1657 64.3562 64.0598 65.3522 57.3326C65.3824 57.469 65.4126 57.5902 65.4428 57.7266C65.488 57.9993 65.5484 58.2872 65.5786 58.575V58.5902C65.6087 58.7266 65.6239 58.8629 65.639 58.9841V59.0448C65.6541 59.1811 65.6691 59.3175 65.6691 59.4387C65.6843 59.6054 65.6993 59.772 65.6993 59.9387V60.1811C65.6993 60.2569 65.7144 60.3478 65.7144 60.4235C65.7144 60.5144 65.6993 60.6053 65.6993 60.6963V60.9084C65.6993 61.0144 65.6842 61.1053 65.6842 61.2114C65.6842 61.272 65.6842 61.3326 65.6691 61.4084C65.6691 61.5144 65.6539 61.6205 65.6539 61.7417C65.6388 61.7871 65.6388 61.8326 65.6388 61.8781C65.6237 61.9993 65.6087 62.1053 65.5935 62.2265C65.5935 62.272 65.5935 62.3174 65.5784 62.3629C65.5633 62.5144 65.5332 62.6508 65.518 62.8023V62.8175V62.8326C65.4879 62.969 65.4576 63.1205 65.4275 63.2569V63.3023C65.3973 63.4387 65.3671 63.5751 65.3369 63.7114C65.3369 63.7266 65.3218 63.7569 65.3218 63.772C65.2917 63.9084 65.2614 64.0448 65.2162 64.1811V64.2266C65.1709 64.3781 65.1256 64.5144 65.0955 64.6508C65.0803 64.666 65.0803 64.6811 65.0803 64.6811C65.0351 64.8326 64.9898 64.9841 64.9445 65.1356C64.8841 65.2871 64.8389 65.4235 64.7785 65.575C64.7181 65.7265 64.6729 65.878 64.6125 66.0144C64.5521 66.1659 64.4918 66.3023 64.4314 66.4538H64.4163C64.3559 66.5901 64.2955 66.7416 64.2201 66.878C64.2049 66.9235 64.1899 66.9538 64.1748 66.9841C64.1597 66.9993 64.1597 67.0143 64.1446 67.0295C63.1637 69.0143 61.7148 70.7567 59.9038 72.1203C59.7831 72.1961 59.6624 72.287 59.5416 72.3779C59.5115 72.4082 59.4662 72.4233 59.436 72.4536C59.3303 72.5294 59.2247 72.6052 59.104 72.6809L59.1492 72.7718H59.1644C59.3756 72.7416 59.5869 72.7112 59.7982 72.6809H59.8133C60.2057 72.6203 60.5981 72.5446 60.9905 72.4688C61.0961 72.4536 61.2169 72.4234 61.3225 72.393C61.398 72.3778 61.4583 72.3628 61.5338 72.3476C61.6394 72.3324 61.7451 72.3021 61.8507 72.287C61.9413 72.2567 62.0318 72.2415 62.1224 72.2112C63.6315 71.8476 65.0955 71.3476 66.499 70.7567C64.0994 74.0445 60.8848 76.696 57.127 78.4384C58.8625 78.3171 60.5981 78.0293 62.2733 77.5444C68.3553 75.7414 73.4714 71.6355 76.535 66.1053C75.9163 69.6052 74.5278 72.9385 72.4753 75.8475C73.9392 74.8778 75.2824 73.7566 76.5048 72.4839C79.8854 68.9385 82.1039 64.4386 82.8585 59.6054C83.3716 61.9993 83.5225 64.4689 83.2962 66.9083C94.1924 51.651 84.2017 35.8331 80.0212 31.6666C80.0061 31.6363 79.9911 31.6211 79.9911 31.5908C79.9759 31.606 79.9759 31.606 79.9759 31.6211C79.9759 31.6059 79.9759 31.6059 79.9608 31.5908C79.9608 31.7726 79.9457 31.9544 79.9307 32.1363C79.8854 32.4847 79.8401 32.8181 79.7798 33.1514C79.7043 33.4847 79.6137 33.818 79.5232 34.1514C79.4176 34.4695 79.2968 34.8029 79.161 35.121C79.0252 35.4241 78.8742 35.7422 78.7082 36.0453C78.5422 36.3331 78.3611 36.6362 78.1649 36.9089C77.9687 37.1968 77.7575 37.4695 77.5462 37.727C77.3198 37.9998 77.0783 38.2422 76.8368 38.4846C76.6859 38.621 76.5501 38.7422 76.3992 38.8634C76.2785 38.9694 76.1728 39.0604 76.0521 39.1664C75.7804 39.3785 75.5088 39.5755 75.2069 39.7573C74.9202 39.9391 74.6184 40.1209 74.3165 40.2725C73.9996 40.424 73.6827 40.5603 73.3657 40.6967C73.0488 40.8179 72.7168 40.924 72.3848 41.0149C72.0528 41.1058 71.7056 41.1815 71.3736 41.2421C71.0265 41.3028 70.6794 41.333 70.3474 41.3633C70.1059 41.3785 69.8645 41.3936 69.623 41.3936C69.2759 41.3936 68.9288 41.3633 68.5967 41.333C68.2496 41.3027 67.9025 41.2572 67.5705 41.1815C67.2234 41.1208 66.8914 41.03 66.5593 40.9239H66.5442C66.8763 40.8936 67.2083 40.8633 67.5403 40.8027C67.8874 40.7421 68.2194 40.6663 68.5514 40.5754C68.8835 40.4845 69.2155 40.3785 69.5324 40.2572C69.8644 40.136 70.1814 39.9845 70.4832 39.833C70.8001 39.6815 71.0869 39.5148 71.3887 39.333C71.6754 39.1361 71.9622 38.9391 72.2338 38.727C72.5055 38.5149 72.762 38.2876 73.0035 38.0452C73.2601 37.8179 73.4865 37.5603 73.7128 37.3028C73.9392 37.03 74.1505 36.7573 74.3467 36.4846C74.3769 36.4391 74.4071 36.3785 74.4372 36.3331C74.5882 36.0907 74.7391 35.8482 74.8749 35.6058C75.0409 35.3028 75.1918 34.9998 75.3277 34.6816C75.4635 34.3634 75.5842 34.0452 75.6899 33.7119C75.7955 33.3937 75.871 33.0604 75.9464 32.7271C76.0068 32.3786 76.0672 32.0453 76.0973 31.712C76.1275 31.3635 76.1577 31.015 76.1577 30.6817C76.1577 30.4393 76.1426 30.1968 76.1276 29.9544C76.0974 29.606 76.0521 29.2726 76.0068 28.9393C75.9464 28.5908 75.871 28.2575 75.7805 27.9242C75.6748 27.606 75.5692 27.2727 75.4484 26.9545C75.3277 26.6363 75.1768 26.3181 75.0259 26.0151C74.8599 25.7121 74.6938 25.4091 74.5127 25.1212C74.3166 24.8333 74.1204 24.5606 73.9091 24.2879C73.6827 24.0303 73.4563 23.7727 73.2148 23.5152C73.0941 23.394 72.9583 23.2576 72.8225 23.1364C72.1433 22.6061 71.434 22.1061 70.7247 21.6516C70.6191 21.5909 70.5285 21.5455 70.4229 21.5001C69.9248 21.1819 69.457 21.0151 68.9891 20.8636Z" fill="#E0234E"/>
<path d="M44.485 87.9575L40.6599 82.5131H39.3211V91.4384H41.0807V85.9812L44.9058 91.4384H46.2445V82.5131H44.485V87.9575ZM54.0204 88.9265C54.0586 88.6843 54.0841 88.4675 54.0841 88.2508C54.0841 87.2945 53.7781 86.504 53.1661 85.8537C52.5668 85.2034 51.789 84.8847 50.8583 84.8847C49.8765 84.8847 49.0605 85.2034 48.4357 85.8537C47.8109 86.4912 47.4922 87.2945 47.4922 88.2508C47.4922 89.2198 47.8109 90.0231 48.4485 90.6606C49.086 91.2981 49.9275 91.6169 50.9858 91.6169C52.2098 91.6169 53.1406 91.1578 53.7653 90.2526L52.4393 89.4876C52.1206 89.9083 51.636 90.1251 51.0113 90.1251C50.0295 90.1251 49.4302 89.7298 49.2135 88.9265H54.0204ZM49.188 87.6515C49.3792 86.8355 49.9785 86.3637 50.8583 86.3637C51.6105 86.3637 52.2481 86.7845 52.4393 87.6515H49.188ZM56.5006 86.8737C56.5006 86.555 56.8193 86.351 57.2401 86.351C57.7119 86.351 58.0561 86.5677 58.2601 87.0012L59.6627 86.2362C59.1654 85.3692 58.2729 84.8847 57.2401 84.8847C56.5516 84.8847 55.9778 85.0632 55.5061 85.433C55.0471 85.79 54.8175 86.2872 54.8175 86.912C54.8175 88.238 56.0033 88.6333 56.9469 88.8755C57.5971 89.0413 58.1071 89.2325 58.1071 89.5768C58.1071 89.9466 57.8139 90.1251 57.2274 90.1251C56.5771 90.1251 56.1691 89.8446 55.9778 89.2963L54.5498 90.0996C55.0216 91.1068 55.9141 91.6169 57.2274 91.6169C57.9541 91.6169 58.5661 91.4384 59.0507 91.0941C59.5479 90.7371 59.7902 90.2271 59.7902 89.5768C59.8029 88.2125 58.5916 87.7663 57.6609 87.575C57.0106 87.4093 56.5006 87.218 56.5006 86.8737ZM64.3078 85.0632H62.867V83.2781L61.2222 83.7754V85.0632H60.1129V86.6442H61.2222V89.2963C61.2222 91.0431 62.051 91.6934 64.3078 91.4384V89.9466C63.3642 89.9976 62.867 89.9848 62.867 89.2963V86.6442H64.3078V85.0632ZM68.1809 91.6169C69.0989 91.6169 69.8512 91.3619 70.4377 90.8391C71.0242 90.3163 71.3175 89.5896 71.3175 88.6588V82.5131H69.5707V88.6588C69.5707 89.4238 69.1117 89.8956 68.1809 89.8956C67.5051 89.8956 67.0334 89.6151 66.7528 89.054L65.2356 89.9211C65.7966 91.0558 66.7783 91.6169 68.1809 91.6169ZM75.9501 91.6169C76.9064 91.6169 77.6842 91.3746 78.2834 90.8901C78.8827 90.4056 79.1887 89.7553 79.1887 88.9265C79.1887 88.4165 79.0484 87.9703 78.8572 87.6643C78.6914 87.3582 78.2834 87.0395 78.0157 86.8737C77.8882 86.7845 77.6969 86.6952 77.4547 86.606C77.2124 86.504 77.0211 86.4275 76.8809 86.3892L76.2689 86.1852C75.6059 85.9812 75.1596 85.79 74.9173 85.6242C74.6878 85.4457 74.5731 85.2162 74.5731 84.9357C74.5731 84.4129 75.0193 84.0432 75.7461 84.0432C76.5239 84.0432 77.0976 84.4257 77.4547 85.1907L78.9337 84.3364C78.3217 83.0741 77.1869 82.3346 75.7461 82.3346C74.9428 82.3346 74.2416 82.5769 73.6678 83.0614C73.094 83.5332 72.8135 84.1834 72.8135 84.9867C72.8135 85.8027 73.1068 86.4147 73.6551 86.8227C74.2161 87.218 74.7006 87.4093 75.5039 87.6515C76.2306 87.8555 76.7279 88.0468 77.0084 88.2253C77.2889 88.391 77.4292 88.6333 77.4292 88.952C77.4292 89.5003 76.9829 89.8956 76.0011 89.8956C74.9811 89.8956 74.2926 89.4366 73.9483 88.5313L72.4438 89.4111C72.941 90.7753 74.1778 91.6169 75.9501 91.6169Z" fill="#E0234E"/>
</svg>
