<svg width="118" height="118" viewBox="0 0 118 118" fill="none" xmlns="http://www.w3.org/2000/svg">
<path d="M35.2063 46.3229H52.5281V47.6836H36.7875V57.9961H51.5938V59.3568H36.7875V70.6719H52.7437V72.0326H35.2063V46.3229ZM54.1094 46.3229H55.9781L64.1719 57.638L72.4375 46.3229L83.7938 32L65.1063 58.8555L74.7375 72.0326H72.7969L64.1 60.0013L55.3312 72.0326H53.4625L63.1656 58.8555L54.1094 46.3229ZM75.4562 47.6836V46.3229H95.2219V47.6836H86.0938V72.0326H84.5125V47.6836H75.4562ZM13.5 46.3229H15.4406L42.8969 87L31.5406 72.0326L15.1531 48.2565L15.0813 72.0326H13.5V46.3229ZM95.0781 70.2422C95.4375 70.2422 95.6531 70.0273 95.6531 69.6693C95.6531 69.3112 95.4375 69.0964 95.0781 69.0964C94.7188 69.0964 94.5031 69.3112 94.5031 69.6693C94.5031 70.0273 94.7906 70.2422 95.0781 70.2422ZM96.6594 68.7383C96.6594 69.6693 97.3781 70.3138 98.3844 70.3138C99.4625 70.3138 100.109 69.6693 100.109 68.5234V64.5846H99.2469V68.5234C99.2469 69.168 98.9594 69.4544 98.3844 69.4544C97.8812 69.4544 97.5219 69.168 97.5219 68.6667H96.6594V68.7383ZM101.188 68.6667C101.259 69.6693 102.05 70.3138 103.344 70.3138C104.637 70.3138 105.5 69.6693 105.5 68.5951C105.5 67.7357 104.997 67.306 103.919 67.0195L103.272 66.8763C102.553 66.7331 102.266 66.4466 102.266 66.0885C102.266 65.5872 102.697 65.2292 103.416 65.2292C104.062 65.2292 104.494 65.5156 104.566 66.0885H105.428C105.356 65.1576 104.566 64.513 103.416 64.513C102.194 64.513 101.403 65.1576 101.403 66.1602C101.403 66.9479 101.834 67.4492 102.841 67.6641L103.559 67.8073C104.278 67.9505 104.638 68.237 104.638 68.6667C104.638 69.168 104.134 69.526 103.416 69.526C102.697 69.526 102.122 69.168 102.05 68.6667H101.188Z" fill="black"/>
</svg>
