<svg width="118" height="118" viewBox="0 0 118 118" fill="none" xmlns="http://www.w3.org/2000/svg">
<path d="M104.007 73.8127C103.75 73.8127 103.495 73.7455 103.271 73.6146L100.927 72.2279C100.577 72.0324 100.748 71.9626 100.863 71.9228C101.33 71.76 101.425 71.722 101.923 71.4408C101.975 71.4116 102.043 71.4222 102.097 71.4541L103.897 72.5233C103.93 72.5412 103.968 72.5505 104.006 72.5505C104.044 72.5505 104.081 72.5412 104.114 72.5233L111.134 68.4719C111.167 68.4524 111.194 68.4246 111.213 68.3912C111.232 68.3579 111.242 68.3201 111.242 68.2818V60.1808C111.242 60.1419 111.232 60.1036 111.213 60.0697C111.194 60.0358 111.166 60.0073 111.133 59.9871L104.116 55.9393C104.083 55.921 104.046 55.9114 104.008 55.9114C103.97 55.9114 103.933 55.921 103.9 55.9393L96.8837 59.988C96.8504 60.0081 96.8228 60.0364 96.8035 60.0701C96.7841 60.1038 96.7737 60.1419 96.7731 60.1808V68.2818C96.7731 68.3596 96.8165 68.433 96.8837 68.4693L98.8063 69.5809C99.8499 70.1018 100.489 69.4881 100.489 68.8708V60.8715C100.489 60.7592 100.58 60.6699 100.693 60.6699H101.583C101.694 60.6699 101.786 60.7592 101.786 60.8715V68.8708C101.786 70.2628 101.028 71.0614 99.7075 71.0614C99.3016 71.0614 98.9823 71.0614 98.0909 70.6227L96.2505 69.5632C96.0266 69.4327 95.8408 69.2458 95.7117 69.0211C95.5826 68.7964 95.5146 68.5418 95.5146 68.2826V60.1817C95.5146 59.6555 95.795 59.1646 96.2505 58.9029L103.27 54.8462C103.496 54.723 103.749 54.6585 104.007 54.6585C104.264 54.6585 104.518 54.723 104.744 54.8462L111.763 58.9029C112.218 59.1655 112.5 59.6564 112.5 60.1817V68.2826C112.5 68.5418 112.431 68.7964 112.302 69.021C112.173 69.2456 111.987 69.4326 111.763 69.5632L104.744 73.6155C104.52 73.7455 104.266 73.8136 104.007 73.8127ZM106.176 68.2314C103.103 68.2314 102.46 66.8208 102.46 65.6383C102.46 65.5845 102.481 65.533 102.52 65.4951C102.558 65.4571 102.609 65.4358 102.663 65.4358H103.571C103.619 65.4356 103.666 65.4528 103.703 65.4843C103.74 65.5158 103.765 65.5594 103.772 65.6074C103.908 66.5316 104.318 66.9976 106.176 66.9976C107.654 66.9976 108.283 66.6633 108.283 65.878C108.283 65.4252 108.105 65.09 105.807 64.8645C103.886 64.6744 102.699 64.2507 102.699 62.7128C102.699 61.2969 103.892 60.4514 105.893 60.4514C108.142 60.4514 109.254 61.2323 109.395 62.9074C109.397 62.9355 109.394 62.9639 109.385 62.9906C109.375 63.0174 109.361 63.042 109.342 63.063C109.323 63.0831 109.3 63.0992 109.274 63.1103C109.249 63.1214 109.221 63.1272 109.193 63.1276H108.282C108.236 63.1276 108.191 63.112 108.155 63.0832C108.119 63.0544 108.094 63.0142 108.084 62.9693C107.865 61.9964 107.334 61.686 105.892 61.686C104.278 61.686 104.091 62.2494 104.091 62.6695C104.091 63.1797 104.312 63.3283 106.492 63.6166C108.649 63.9023 109.674 64.3056 109.674 65.8223C109.675 67.3549 108.399 68.2314 106.176 68.2314Z" fill="#83CD29"/>
<path d="M89.553 62.918C89.8298 62.7561 90.0005 62.4607 90.0005 62.1397V60.0579C90.0005 59.7377 89.8307 59.4423 89.553 59.2805L82.156 54.9859C82.0192 54.9064 81.8639 54.8643 81.7056 54.864C81.5474 54.8637 81.3919 54.9051 81.2548 54.9841L73.8118 59.2814C73.6753 59.3604 73.562 59.4739 73.4831 59.6104C73.4043 59.747 73.3627 59.9019 73.3625 60.0596V68.6523C73.3625 68.9751 73.5359 69.274 73.8171 69.4341L81.2132 73.6482C81.4856 73.8047 81.8199 73.8056 82.095 73.6535L86.5682 71.1666C86.6378 71.128 86.6959 71.0715 86.7366 71.003C86.7772 70.9345 86.7989 70.8565 86.7995 70.7768C86.8 70.6972 86.7794 70.6188 86.7396 70.5498C86.6999 70.4808 86.6426 70.4235 86.5735 70.3839L79.0845 66.0858C79.0158 66.0467 78.9587 65.9901 78.9189 65.9217C78.8792 65.8534 78.8582 65.7758 78.8581 65.6967V63.0029C78.8581 62.8419 78.9439 62.6942 79.0827 62.6146L81.4149 61.2704C81.483 61.2308 81.5603 61.21 81.6391 61.21C81.7178 61.21 81.7952 61.2308 81.8633 61.2704L84.1954 62.6146C84.2638 62.6538 84.3206 62.7103 84.3602 62.7785C84.3998 62.8466 84.4208 62.924 84.4209 63.0029V65.1218C84.4204 65.2011 84.441 65.279 84.4804 65.3477C84.5199 65.4165 84.5768 65.4735 84.6455 65.513C84.7142 65.5526 84.7921 65.5732 84.8713 65.5729C84.9505 65.5725 85.0283 65.5511 85.0966 65.511L89.553 62.918Z" fill="#404137"/>
<path d="M81.5954 62.5146C81.6217 62.4999 81.6514 62.4922 81.6816 62.4922C81.7118 62.4922 81.7415 62.4999 81.7678 62.5146L83.1961 63.3398C83.2492 63.3707 83.2819 63.4282 83.2819 63.4892V65.1386C83.2819 65.2005 83.2492 65.2571 83.1961 65.2881L81.7678 66.1123C81.7416 66.1275 81.7119 66.1356 81.6816 66.1356C81.6513 66.1356 81.6216 66.1275 81.5954 66.1123L80.168 65.2881C80.1416 65.273 80.1197 65.2513 80.1044 65.225C80.0892 65.1988 80.0812 65.169 80.0813 65.1386V63.4892C80.0813 63.4282 80.114 63.3707 80.168 63.3398L81.5954 62.5146Z" fill="#83CD29"/>
<path d="M62.2262 65.9461C62.2262 66.0257 62.1838 66.1 62.1139 66.1407L59.558 67.614C59.524 67.634 59.4852 67.6446 59.4457 67.6446C59.4062 67.6446 59.3675 67.634 59.3334 67.614L56.7775 66.1407C56.7434 66.1209 56.7151 66.0925 56.6954 66.0584C56.6757 66.0242 56.6653 65.9855 56.6652 65.9461V62.994C56.6652 62.9144 56.7085 62.8392 56.7775 62.7986L59.3334 61.3234C59.3675 61.303 59.4064 61.2922 59.4462 61.2922C59.4859 61.2922 59.5249 61.303 59.5589 61.3234L62.1157 62.7986C62.1496 62.8187 62.1776 62.8474 62.1972 62.8816C62.2167 62.9159 62.227 62.9546 62.2271 62.994L62.2262 65.9461ZM62.9169 44.0876C62.8484 44.0502 62.7713 44.0311 62.6932 44.0323C62.6152 44.0336 62.5387 44.055 62.4714 44.0945C62.404 44.1341 62.3481 44.1904 62.309 44.258C62.2699 44.3256 62.249 44.4022 62.2483 44.4803V55.9021C62.2481 55.9572 62.2336 56.0113 62.2061 56.059C62.1787 56.1068 62.1393 56.1466 62.0918 56.1745C62.0439 56.2019 61.9896 56.2163 61.9344 56.2163C61.8792 56.2163 61.8249 56.2019 61.777 56.1745L59.9127 55.1C59.7762 55.0214 59.6214 54.98 59.4638 54.98C59.3063 54.98 59.1515 55.0214 59.015 55.1L51.5703 59.3963C51.4335 59.4753 51.3199 59.5889 51.2409 59.7256C51.1619 59.8624 51.1202 60.0175 51.1201 60.1755V68.7708C51.1201 69.0919 51.2917 69.3881 51.5694 69.55L59.0141 73.849C59.2918 74.0099 59.635 74.0099 59.9136 73.849L67.3601 69.55C67.4966 69.4707 67.6099 69.3571 67.6887 69.2204C67.7676 69.0837 67.8092 68.9286 67.8094 68.7708V47.3448C67.8094 47.0194 67.6325 46.7187 67.3486 46.5595L62.9169 44.0876Z" fill="#404137"/>
<path d="M36.7163 54.9382C36.8529 54.8591 37.0078 54.8175 37.1656 54.8175C37.3233 54.8175 37.4783 54.8591 37.6149 54.9382L45.0596 59.2336C45.3373 59.3946 45.5089 59.6917 45.5089 60.0128V68.6108C45.5089 68.9318 45.3373 69.2289 45.0596 69.3899L37.6157 73.6889C37.4789 73.7676 37.3239 73.809 37.166 73.809C37.0082 73.809 36.8531 73.7676 36.7163 73.6889L29.2742 69.3899C29.1377 69.3107 29.0244 69.197 28.9456 69.0603C28.8667 68.9236 28.8251 68.7686 28.825 68.6108V60.0119C28.825 59.6917 28.9965 59.3946 29.2742 59.2336L36.7163 54.9382Z" fill="#83CD29"/>
<path d="M23.178 59.9411C23.178 59.6175 23.0082 59.3203 22.7287 59.1602L15.2866 54.8771C15.1617 54.8047 15.0207 54.7643 14.8763 54.7595H14.7993C14.655 54.7644 14.514 54.8048 14.389 54.8771L6.946 59.1602C6.80908 59.2395 6.69541 59.3534 6.6164 59.4904C6.53739 59.6275 6.49581 59.7829 6.49585 59.9411L6.51177 71.4735C6.51177 71.6345 6.59579 71.7839 6.7364 71.8618C6.80373 71.9026 6.88097 71.9242 6.95971 71.9242C7.03845 71.9242 7.11569 71.9026 7.18302 71.8618L11.6049 69.3289C11.8844 69.1626 12.0551 68.8699 12.0551 68.5489V63.1612C12.0551 62.8393 12.2249 62.543 12.5035 62.382L14.3872 61.2978C14.5234 61.2178 14.6786 61.1759 14.8365 61.1766C14.9904 61.1766 15.1478 61.2155 15.2849 61.2978L17.1668 62.382C17.4454 62.543 17.617 62.8393 17.617 63.1612V68.5489C17.617 68.8699 17.7894 69.1644 18.0671 69.3289L22.4891 71.8618C22.5573 71.9007 22.6345 71.9211 22.713 71.9209C22.7915 71.9208 22.8687 71.9 22.9367 71.8607C23.0047 71.8214 23.0612 71.765 23.1006 71.6971C23.14 71.6291 23.1609 71.552 23.1612 71.4735L23.178 59.9411Z" fill="#404137"/>
</svg>
