<svg width="118" height="118" viewBox="0 0 118 118" fill="none" xmlns="http://www.w3.org/2000/svg">
<path d="M64.8932 66.3877C64.1517 66.3877 63.5337 65.7697 63.5337 65.0281V51.2473C63.5337 50.5057 64.1517 49.8877 64.8932 49.8259C65.6348 49.8259 66.2528 50.4439 66.2528 51.1855V65.0281C66.3146 65.7697 65.6966 66.3877 64.8932 66.3877Z" fill="#282D33"/>
<path d="M93.9382 66.3877C93.1966 66.3877 92.5786 65.7697 92.5786 65.0281V51.2473C92.5786 50.5057 93.1966 49.8877 93.9382 49.8259C94.6797 49.8259 95.2977 50.4439 95.2977 51.1855V65.0281C95.2977 65.7697 94.6797 66.3877 93.9382 66.3877Z" fill="#282D33"/>
<path d="M55.2528 52.6068C54.264 52.6068 53.2135 52.9158 52.4101 53.472C52.1011 52.7922 51.2977 52.4214 50.618 52.7304C50.0618 52.9158 49.7528 53.472 49.7528 54.0282V67.809C49.691 68.5506 50.309 69.2304 51.0506 69.2922C51.7921 69.354 52.4719 68.736 52.5337 67.9944C52.5337 67.9326 52.5337 67.8708 52.5337 67.809V65.6461C53.3371 66.1405 54.3258 66.4495 55.3146 66.4495C58.3427 66.4495 60.8146 63.7922 60.8146 60.5169V58.5394C60.7528 55.2641 58.2809 52.6068 55.2528 52.6068ZM58.0337 60.6405C58.1573 62.1854 57.0449 63.4832 55.5 63.6068C53.955 63.7304 52.6573 62.618 52.5337 61.0731C52.5337 60.9495 52.5337 60.7641 52.5337 60.6405V58.4158C52.4101 56.8708 53.5225 55.5731 55.0674 55.4495C56.6123 55.3259 57.9101 56.4383 58.0337 57.9832C58.0337 58.1068 58.0337 58.2922 58.0337 58.4158V60.6405Z" fill="#282D33"/>
<path d="M74.5954 52.6068C71.5674 52.6068 69.0955 55.2641 69.0955 58.5394V60.5169C69.0955 63.7922 71.5674 66.4495 74.5954 66.4495C77.6235 66.4495 80.0954 63.7922 80.0954 60.5169V58.5394C80.0954 55.2641 77.6235 52.6068 74.5954 52.6068ZM77.3145 60.6405C77.4381 62.1854 76.3258 63.4832 74.7808 63.6068C73.2359 63.7304 71.9382 62.618 71.8146 61.0731C71.8146 60.9495 71.8146 60.7641 71.8146 60.6405V58.4158C71.691 56.8708 72.8033 55.5731 74.3483 55.4495C75.8932 55.3259 77.1909 56.4383 77.3145 57.9832C77.3145 58.1068 77.3145 58.2922 77.3145 58.4158V60.6405Z" fill="#282D33"/>
<path d="M88.3764 63.6686C86.8314 63.6686 85.5955 62.4326 85.5955 60.8877V55.3877H88.3764C89.1179 55.4495 89.7977 54.8315 89.8595 54.09C89.9213 53.3484 89.3033 52.6686 88.5617 52.6068C88.5 52.6068 88.4382 52.6068 88.3764 52.6068H85.5955V51.2473C85.5337 50.5057 84.8539 49.8877 84.1123 49.9495C83.4326 50.0113 82.8764 50.5675 82.8146 51.2473V60.8877C82.8146 63.9158 85.2865 66.3877 88.3146 66.3877C89.0561 66.4495 89.7359 65.8315 89.7977 65.0899C89.8595 64.3484 89.2415 63.6686 88.5 63.6068C88.5 63.6686 88.4382 63.6686 88.3764 63.6686Z" fill="#282D33"/>
<path d="M107.781 52.7305C107.101 52.4215 106.298 52.7305 105.989 53.472L103.146 60.1462L100.303 53.472C99.9325 52.7923 99.1291 52.5451 98.4494 52.854C97.8314 53.163 97.5224 53.9046 97.7696 54.5226L101.663 63.6068L101.168 64.7192C100.736 65.708 99.8089 66.3877 98.6966 66.3877C97.955 66.4495 97.337 67.1293 97.3988 67.8709C97.4606 68.5506 98.0168 69.1068 98.6966 69.1686C100.859 69.1068 102.775 67.8091 103.64 65.7698L108.461 54.5226C108.77 53.8428 108.461 53.0394 107.781 52.7305Z" fill="#282D33"/>
<path d="M26.8877 57.3034C27.9798 57.3034 28.8652 56.418 28.8652 55.3259C28.8652 54.2337 27.9798 53.3483 26.8877 53.3483C25.7955 53.3483 24.9102 54.2337 24.9102 55.3259C24.9102 56.418 25.7955 57.3034 26.8877 57.3034Z" fill="#8C99CD"/>
<path d="M34.7361 49.4551C35.8282 49.4551 36.7136 48.5697 36.7136 47.4776C36.7136 46.3854 35.8282 45.5001 34.7361 45.5001C33.6439 45.5001 32.7585 46.3854 32.7585 47.4776C32.7585 48.5697 33.6439 49.4551 34.7361 49.4551Z" fill="#8C99CD"/>
<path d="M26.8877 49.4551C27.9798 49.4551 28.8652 48.5697 28.8652 47.4776C28.8652 46.3854 27.9798 45.5001 26.8877 45.5001C25.7955 45.5001 24.9102 46.3854 24.9102 47.4776C24.9102 48.5697 25.7955 49.4551 26.8877 49.4551Z" fill="#8C99CD"/>
<path d="M19.0394 49.4551C20.1316 49.4551 21.0169 48.5697 21.0169 47.4776C21.0169 46.3854 20.1316 45.5001 19.0394 45.5001C17.9473 45.5001 17.0619 46.3854 17.0619 47.4776C17.0619 48.5697 17.9473 49.4551 19.0394 49.4551Z" fill="#8C99CD"/>
<path d="M11.1911 49.4551C12.2833 49.4551 13.1687 48.5697 13.1687 47.4776C13.1687 46.3854 12.2833 45.5001 11.1911 45.5001C10.099 45.5001 9.21362 46.3854 9.21362 47.4776C9.21362 48.5697 10.099 49.4551 11.1911 49.4551Z" fill="#8C99CD"/>
<path d="M11.1911 57.3034C12.2833 57.3034 13.1687 56.418 13.1687 55.3259C13.1687 54.2337 12.2833 53.3483 11.1911 53.3483C10.099 53.3483 9.21362 54.2337 9.21362 55.3259C9.21362 56.418 10.099 57.3034 11.1911 57.3034Z" fill="#8C99CD"/>
<path d="M26.8877 57.3034C27.9798 57.3034 28.8652 56.418 28.8652 55.3259C28.8652 54.2337 27.9798 53.3483 26.8877 53.3483C25.7955 53.3483 24.9102 54.2337 24.9102 55.3259C24.9102 56.418 25.7955 57.3034 26.8877 57.3034Z" fill="url(#paint0_linear_17_382)"/>
<path d="M34.7361 49.4551C35.8282 49.4551 36.7136 48.5697 36.7136 47.4776C36.7136 46.3854 35.8282 45.5001 34.7361 45.5001C33.6439 45.5001 32.7585 46.3854 32.7585 47.4776C32.7585 48.5697 33.6439 49.4551 34.7361 49.4551Z" fill="url(#paint1_linear_17_382)"/>
<path d="M26.8877 49.4551C27.9798 49.4551 28.8652 48.5697 28.8652 47.4776C28.8652 46.3854 27.9798 45.5001 26.8877 45.5001C25.7955 45.5001 24.9102 46.3854 24.9102 47.4776C24.9102 48.5697 25.7955 49.4551 26.8877 49.4551Z" fill="url(#paint2_linear_17_382)"/>
<path d="M19.0394 49.4551C20.1316 49.4551 21.0169 48.5697 21.0169 47.4776C21.0169 46.3854 20.1316 45.5001 19.0394 45.5001C17.9473 45.5001 17.0619 46.3854 17.0619 47.4776C17.0619 48.5697 17.9473 49.4551 19.0394 49.4551Z" fill="url(#paint3_linear_17_382)"/>
<path d="M11.1911 49.4551C12.2833 49.4551 13.1687 48.5697 13.1687 47.4776C13.1687 46.3854 12.2833 45.5001 11.1911 45.5001C10.099 45.5001 9.21362 46.3854 9.21362 47.4776C9.21362 48.5697 10.099 49.4551 11.1911 49.4551Z" fill="url(#paint4_linear_17_382)"/>
<path d="M11.1911 57.3034C12.2833 57.3034 13.1687 56.418 13.1687 55.3259C13.1687 54.2337 12.2833 53.3483 11.1911 53.3483C10.099 53.3483 9.21362 54.2337 9.21362 55.3259C9.21362 56.418 10.099 57.3034 11.1911 57.3034Z" fill="url(#paint5_linear_17_382)"/>
<path d="M11.1911 61.1967C10.0788 61.1967 9.21362 62.0619 9.21362 63.1742V71.0225C9.21362 72.1349 10.0788 73.0001 11.1911 73.0001C12.3035 73.0001 13.1687 72.1349 13.1687 71.0225V63.1742C13.1687 62.1237 12.2417 61.1967 11.1911 61.1967Z" fill="#282D33"/>
<path d="M26.8877 61.1967C25.7753 61.1967 24.9102 62.0619 24.9102 63.1742V71.0225C24.9102 72.1349 25.7753 73.0001 26.8877 73.0001C28 73.0001 28.8652 72.1349 28.8652 71.0225V63.1742C28.8652 62.1237 28 61.1967 26.8877 61.1967Z" fill="#282D33"/>
<path d="M19.0394 53.3483C17.9271 53.3483 17.0619 54.2135 17.0619 55.3259V71.0224C17.0619 72.1348 17.9271 73 19.0394 73C20.1518 73 21.0169 72.1348 21.0169 71.0224V55.3259C21.0169 54.2135 20.1518 53.3483 19.0394 53.3483Z" fill="#282D33"/>
<path d="M34.7361 53.3483C33.6237 53.3483 32.7585 54.2135 32.7585 55.3259V71.0224C32.7585 72.1348 33.6237 73 34.7361 73C35.8484 73 36.7136 72.1348 36.7136 71.0224V55.3259C36.7136 54.2135 35.8484 53.3483 34.7361 53.3483Z" fill="#282D33"/>
<defs>
<linearGradient id="paint0_linear_17_382" x1="9.21356" y1="55.3259" x2="36.7259" y2="55.3259" gradientUnits="userSpaceOnUse">
<stop stop-color="#3479F3"/>
<stop offset="1" stop-color="#7FE4FF"/>
</linearGradient>
<linearGradient id="paint1_linear_17_382" x1="9.21365" y1="47.4652" x2="36.726" y2="47.4652" gradientUnits="userSpaceOnUse">
<stop stop-color="#3479F3"/>
<stop offset="1" stop-color="#7FE4FF"/>
</linearGradient>
<linearGradient id="paint2_linear_17_382" x1="9.21356" y1="47.4652" x2="36.7259" y2="47.4652" gradientUnits="userSpaceOnUse">
<stop stop-color="#3479F3"/>
<stop offset="1" stop-color="#7FE4FF"/>
</linearGradient>
<linearGradient id="paint3_linear_17_382" x1="9.21359" y1="47.4652" x2="36.7259" y2="47.4652" gradientUnits="userSpaceOnUse">
<stop stop-color="#3479F3"/>
<stop offset="1" stop-color="#7FE4FF"/>
</linearGradient>
<linearGradient id="paint4_linear_17_382" x1="9.21362" y1="47.4652" x2="36.7259" y2="47.4652" gradientUnits="userSpaceOnUse">
<stop stop-color="#3479F3"/>
<stop offset="1" stop-color="#7FE4FF"/>
</linearGradient>
<linearGradient id="paint5_linear_17_382" x1="9.21362" y1="55.3259" x2="36.7259" y2="55.3259" gradientUnits="userSpaceOnUse">
<stop stop-color="#3479F3"/>
<stop offset="1" stop-color="#7FE4FF"/>
</linearGradient>
</defs>
</svg>
