<svg width="118" height="118" viewBox="0 0 118 118" fill="none" xmlns="http://www.w3.org/2000/svg">
<path d="M31.0012 81.6551V91.9804H33.0368V88.5878H34.8511C35.8394 88.5878 36.6801 88.2486 37.3586 87.5848C38.0372 86.921 38.3764 86.095 38.3764 85.1215C38.3764 84.148 38.0372 83.3219 37.3586 82.6582C36.6801 81.9944 35.8394 81.6551 34.8511 81.6551H31.0012ZM33.0368 86.685V83.5579H34.8511C35.7214 83.5579 36.3556 84.2217 36.3556 85.1215C36.3556 86.0065 35.7214 86.685 34.8511 86.685H33.0368ZM45.8968 91.0659C46.6491 90.3136 47.0326 89.3843 47.0326 88.2928C47.0326 87.2013 46.6491 86.2868 45.8968 85.5345C45.1445 84.7822 44.2153 84.3987 43.1237 84.3987C42.0322 84.3987 41.1029 84.7822 40.3507 85.5345C39.5984 86.2868 39.2296 87.2013 39.2296 88.2928C39.2296 89.3843 39.5984 90.3136 40.3507 91.0659C41.1029 91.8182 42.0322 92.1869 43.1237 92.1869C44.2153 92.1869 45.1445 91.8182 45.8968 91.0659ZM41.693 89.7531C41.3242 89.3696 41.1324 88.8828 41.1324 88.2928C41.1324 87.7028 41.3242 87.216 41.693 86.8325C42.0765 86.449 42.5485 86.2573 43.1237 86.2573C43.699 86.2573 44.171 86.449 44.5545 86.8325C44.938 87.216 45.1298 87.7028 45.1298 88.2928C45.1298 88.8828 44.938 89.3696 44.5545 89.7531C44.171 90.1366 43.699 90.3284 43.1237 90.3284C42.5485 90.3284 42.0765 90.1366 41.693 89.7531ZM55.1338 89.1483L53.7915 84.6052H51.9919L50.6497 89.1336L49.3959 84.6052H47.3751L49.7204 91.9804H51.5347L52.8917 87.511L54.2487 91.9804H56.063L58.4084 84.6052H56.3876L55.1338 89.1483ZM66.6027 89.0746C66.6469 88.7943 66.6764 88.5436 66.6764 88.2928C66.6764 87.1865 66.3224 86.272 65.6144 85.5197C64.9211 84.7675 64.0213 84.3987 62.9446 84.3987C61.8088 84.3987 60.8648 84.7675 60.142 85.5197C59.4192 86.2573 59.0505 87.1865 59.0505 88.2928C59.0505 89.4138 59.4192 90.3431 60.1567 91.0806C60.8943 91.8182 61.8678 92.1869 63.0921 92.1869C64.5081 92.1869 65.5849 91.6559 66.3076 90.6086L64.7736 89.7236C64.4048 90.2104 63.8443 90.4611 63.1216 90.4611C61.9858 90.4611 61.2925 90.0039 61.0418 89.0746H66.6027ZM61.0123 87.5995C61.2335 86.6555 61.9268 86.1098 62.9446 86.1098C63.8148 86.1098 64.5523 86.5965 64.7736 87.5995H61.0123ZM69.9075 84.6052H68.0047V91.9804H69.9075V88.4551C69.9075 87.747 70.1288 87.2455 70.5861 86.9358C71.0433 86.626 71.5743 86.508 72.1496 86.5818V84.4577C71.1466 84.4577 70.2616 84.9297 69.9075 85.8738V84.6052ZM83.278 86.626C83.927 86.1098 84.2515 85.4165 84.2515 84.561C84.2515 83.7202 83.9417 83.0269 83.337 82.4812C82.7322 81.9354 81.9947 81.6551 81.1096 81.6551H77.0385V91.9804H81.4194C82.3192 91.9804 83.0862 91.7002 83.7057 91.1396C84.3252 90.5791 84.635 89.8564 84.635 88.9861C84.635 87.9388 84.1777 87.1423 83.278 86.626ZM81.1096 83.5579C81.7587 83.5579 82.2159 84.0447 82.2159 84.6937C82.2159 85.3427 81.7439 85.8295 81.1096 85.8295H79.0741V83.5579H81.1096ZM79.0741 90.0776V87.6438H81.4194C82.1127 87.6438 82.6142 88.1601 82.6142 88.8533C82.6142 89.5613 82.1127 90.0776 81.4194 90.0776H79.0741ZM85.9694 91.9804H88.005V81.6551H85.9694V91.9804Z" fill="#F2C811"/>
<path d="M40.5569 20.0012C40.7368 20.0847 40.9356 20.0764 41.1261 20.1082C41.8446 20.227 42.5054 20.5315 43.1981 20.7338C50.9451 22.9974 58.6897 25.2682 66.4355 27.5377C72.1917 29.224 77.9502 30.9055 83.7052 32.5989C84.4178 32.8082 84.9693 33.2939 85.4656 33.8265C86.4992 34.9354 87.0001 36.2619 87.0001 37.7718C87.0001 42.7906 86.9931 47.8083 86.9884 52.8272C86.9884 53.5586 86.979 54.29 86.9778 55.0215C86.9707 58.9491 86.9696 62.8778 86.9543 66.8054C86.9508 67.665 86.6697 68.4646 86.2334 69.1925C85.181 70.9494 83.7099 72.1759 81.6685 72.6039C80.0739 72.9391 78.5323 72.6874 77.033 72.0912C76.2334 71.7725 75.509 71.3174 74.8011 70.84C73.9721 70.2803 73.7816 69.1396 74.3589 68.4117C74.8258 67.8238 75.8265 67.6474 76.4733 68.019C77.5904 68.6622 78.7769 69.055 80.0869 68.9444C81.3051 68.8421 83.1031 67.9249 83.5029 66.1869C83.5406 66.0222 83.5653 65.8588 83.5653 65.6883C83.5653 62.9601 83.5688 60.2308 83.5711 57.5027C83.5735 55.366 83.5747 53.2305 83.5782 51.0939C83.5817 48.9431 83.5676 46.7923 83.5947 44.6415C83.6182 42.6742 83.6146 40.7069 83.6064 38.7396C83.6005 37.3849 82.902 36.2431 81.4745 35.8468C80.9888 35.7116 80.5102 35.554 80.0293 35.4046C72.1423 32.9728 64.2566 30.5398 56.3696 28.108C51.8094 26.7016 47.248 25.2976 42.6901 23.8841C42.1962 23.7312 41.7223 23.5231 41.1943 23.4925C39.3493 23.3843 37.9464 24.8237 38.1204 26.6569C38.1275 26.7369 38.1263 26.818 38.1263 26.898C38.1263 32.9846 38.1263 39.0712 38.1298 45.1578C38.1298 45.36 38.0745 45.5235 37.9581 45.6834C36.9903 47.0228 35.1982 47.0581 34.2034 45.7575C34.1281 45.6587 34.0964 45.5599 34.0964 45.4353C34.0987 38.7995 34.0799 32.165 34.1129 25.5292C34.1199 24.1099 34.7185 22.861 35.6886 21.8168C36.6576 20.7761 37.8735 20.2081 39.2822 20.0435C39.3175 20.04 39.3563 20.0435 39.3716 20H40.5569V20.0012Z" fill="#F2C919"/>
<path d="M63.7246 57.9286C63.7246 52.1265 63.7246 46.3257 63.7246 40.5237C63.7246 39.2243 64.6818 38.2682 65.9836 38.2682C66.9267 38.2682 67.8709 38.2682 68.814 38.2682C70.0676 38.2682 71.0436 39.2396 71.0436 40.4896C71.0436 52.1289 71.0436 63.7682 71.0436 75.4087C71.0436 76.6258 70.0723 77.5983 68.8587 77.6006C67.8709 77.603 66.8831 77.603 65.8965 77.6006C64.6936 77.5971 63.7258 76.627 63.7258 75.4216C63.7258 69.5914 63.7258 63.76 63.7258 57.9297L63.7246 57.9286Z" fill="#F2C919"/>
<path d="M53.2915 59.0347C53.2915 54.7544 53.2915 50.4752 53.2915 46.1948C53.2915 44.9095 54.2545 43.9429 55.534 43.9417C56.3312 43.9417 57.1285 43.9417 57.9258 43.9417C59.1911 43.9417 60.1671 44.9107 60.1683 46.1748C60.1718 48.3773 60.1683 50.5786 60.1683 52.7812C60.1683 59.1394 60.1683 65.4965 60.1683 71.8547C60.1683 73.0036 59.4369 73.8902 58.315 74.1007C58.2151 74.1195 58.1116 74.123 58.0105 74.1242C57.1767 74.1266 56.343 74.1242 55.5081 74.1242C54.2581 74.1242 53.2903 73.1517 53.2903 71.8958C53.2903 67.6084 53.2903 63.321 53.2903 59.0336L53.2915 59.0347Z" fill="#F2C919"/>
<path d="M43.2335 58.8389C43.2335 55.6216 43.2335 52.4031 43.2335 49.1857C43.2335 47.8029 44.1742 46.8668 45.563 46.8668C46.2791 46.8668 46.9964 46.8668 47.7126 46.8668C49.0649 46.8668 50.0174 47.8158 50.0174 49.1705C50.0197 52.0809 50.0174 54.9925 50.0174 57.9029C50.0174 61.4424 50.0174 64.982 50.0174 68.5215C50.0174 69.4129 49.6576 70.1043 48.8838 70.5594C48.571 70.744 48.2265 70.8357 47.8596 70.8346C47.0552 70.8322 46.2509 70.8346 45.4466 70.8346C44.2083 70.8346 43.2346 69.8668 43.2335 68.625C43.2311 65.5676 43.2335 62.5114 43.2335 59.4539V58.8401V58.8389Z" fill="#F2C919"/>
<path d="M33 58.8385C33 56.7465 33 54.6545 33 52.5625C33 51.3102 33.9701 50.34 35.2237 50.3389C35.9986 50.3389 36.7747 50.3389 37.5497 50.3389C38.7903 50.3389 39.7663 51.3114 39.7663 52.5461C39.7663 56.7524 39.7663 60.9575 39.7663 65.1638C39.7663 66.3762 38.7997 67.3557 37.5873 67.3639C36.783 67.3698 35.9786 67.3698 35.1743 67.3639C33.9725 67.3557 33.0024 66.3797 33.0012 65.1802C32.9988 63.0659 33.0012 60.9528 33.0012 58.8385H33Z" fill="#F2C818"/>
</svg>
