<svg width="118" height="118" viewBox="0 0 118 118" fill="none" xmlns="http://www.w3.org/2000/svg">
<path d="M58.7248 26.0287C41.7355 26.0287 42.8099 33.3748 42.8099 33.3748V41.008H58.9665V43.4009H36.3755C36.3755 43.4009 25.5 42.0609 25.5 59.3014C25.5 76.5419 35.1025 75.8408 35.1025 75.8408H40.6468V67.7984C40.6468 67.7984 40.3357 58.1959 49.9789 58.1959H66.1594C66.1594 58.1959 75.1853 58.3395 75.1853 49.4572V34.8823C75.1853 34.8823 76.554 26 58.8134 26L58.7248 26.0287ZM49.7947 31.1423C50.3691 31.1278 50.9348 31.2839 51.4205 31.591C51.9061 31.8981 52.2897 32.3423 52.5229 32.8674C52.7561 33.3925 52.8283 33.975 52.7304 34.5411C52.6325 35.1073 52.3689 35.6317 51.973 36.0481C51.5771 36.4644 51.0665 36.754 50.506 36.8802C49.9455 37.0064 49.3601 36.9636 48.8239 36.7571C48.2878 36.5506 47.8249 36.1897 47.4938 35.7202C47.1627 35.2506 46.9783 34.6933 46.9639 34.119V34.0711C46.9639 33.6896 47.0391 33.3119 47.1851 32.9594C47.331 32.607 47.545 32.2868 47.8148 32.017C48.0845 31.7473 48.4047 31.5333 48.7572 31.3873C49.1096 31.2413 49.4874 31.1662 49.8689 31.1662L49.7947 31.1423Z" fill="url(#paint0_linear_17_386)"/>
<path d="M59.2034 92.5741C76.1927 92.5741 75.1183 85.2041 75.1183 85.2041V77.5948H58.9641V75.2019H81.6245C81.6245 75.2019 92.5 76.4175 92.5 59.2775C92.5 42.1374 82.8975 42.738 82.8975 42.738H77.2814V50.6752C77.2814 50.6752 77.5925 60.2777 67.9493 60.2777H51.7616C51.7616 60.2777 42.7286 60.1413 42.7286 69.0236V83.6966C42.7286 83.6966 41.3598 92.5789 59.1005 92.5789H59.1962L59.2034 92.5741ZM68.1335 87.4366C67.5591 87.4511 66.9934 87.2949 66.5077 86.9879C66.0221 86.6808 65.6385 86.2366 65.4053 85.7115C65.1721 85.1864 65.0999 84.6039 65.1978 84.0377C65.2957 83.4716 65.5593 82.9471 65.9552 82.5308C66.3511 82.1144 66.8617 81.8248 67.4222 81.6986C67.9827 81.5724 68.5681 81.6153 69.1043 81.8218C69.6404 82.0283 70.1033 82.3891 70.4344 82.8587C70.7655 83.3283 70.9499 83.8855 70.9643 84.4599V84.5317C70.9643 85.3021 70.6582 86.041 70.1134 86.5858C69.5687 87.1306 68.8298 87.4366 68.0593 87.4366H68.1335Z" fill="url(#paint1_linear_17_386)"/>
<defs>
<linearGradient id="paint0_linear_17_386" x1="32.1214" y1="32.5442" x2="63.9145" y2="64.2653" gradientUnits="userSpaceOnUse">
<stop stop-color="#387EB8"/>
<stop offset="1" stop-color="#366994"/>
</linearGradient>
<linearGradient id="paint1_linear_17_386" x1="50.9301" y1="53.2082" x2="87.2541" y2="84.9197" gradientUnits="userSpaceOnUse">
<stop stop-color="#FFE052"/>
<stop offset="1" stop-color="#FFC331"/>
</linearGradient>
</defs>
</svg>
