<svg width="119" height="118" viewBox="0 0 119 118" fill="none" xmlns="http://www.w3.org/2000/svg">
<path fill-rule="evenodd" clip-rule="evenodd" d="M59 83.4292C34.9757 83.4292 15.5 70.3494 15.5 54.2146C15.5 38.0798 34.9757 25 59 25C83.0244 25 102.5 38.0798 102.5 54.2146C102.5 70.3494 83.0244 83.4292 59 83.4292ZM65.6584 36.4219C47.3978 36.4219 32.5947 45.3638 32.5947 56.3942C32.5947 67.4246 47.3978 76.3665 65.6584 76.3665C83.9189 76.3665 97.3949 70.2532 97.3949 56.3942C97.3949 42.5396 83.9189 36.4219 65.6584 36.4219Z" fill="url(#paint0_linear_17_402)"/>
<path fill-rule="evenodd" clip-rule="evenodd" d="M81.7483 70.2492C81.7483 70.2492 84.3811 71.0459 85.9107 71.822C86.4414 72.0913 87.3597 72.6288 88.0221 73.3344C88.6709 74.0254 88.9873 74.7257 88.9873 74.7257L99.3632 92.2688L82.5928 92.2763L74.7506 77.5084C74.7506 77.5084 73.1447 74.7416 72.1566 73.9393C71.3323 73.2701 70.9809 73.0319 70.1659 73.0319C69.5986 73.0319 66.1813 73.0319 66.1813 73.0319L66.1844 92.2657L51.3445 92.272V43.1406H81.145C81.145 43.1406 94.7182 43.386 94.7182 56.3357C94.7182 69.2853 81.7483 70.2492 81.7483 70.2492ZM75.2935 53.7978L66.3095 53.792L66.3051 62.1462L75.2935 62.1433C75.2935 62.1433 79.4559 62.1303 79.4559 57.8936C79.4559 53.5717 75.2935 53.7978 75.2935 53.7978Z" fill="url(#paint1_linear_17_402)"/>
<defs>
<linearGradient id="paint0_linear_17_402" x1="15.5" y1="25" x2="69.5865" y2="105.534" gradientUnits="userSpaceOnUse">
<stop stop-color="#CBCED0"/>
<stop offset="1" stop-color="#84838B"/>
</linearGradient>
<linearGradient id="paint1_linear_17_402" x1="51.3445" y1="43.1406" x2="100.467" y2="91.1466" gradientUnits="userSpaceOnUse">
<stop stop-color="#276DC3"/>
<stop offset="1" stop-color="#165CAA"/>
</linearGradient>
</defs>
</svg>
