<svg width="118" height="118" viewBox="0 0 118 118" fill="none" xmlns="http://www.w3.org/2000/svg">
<path d="M59.4214 53.603C63.0461 53.603 65.9846 50.6645 65.9846 47.0398C65.9846 43.415 63.0461 40.4766 59.4214 40.4766C55.7966 40.4766 52.8582 43.415 52.8582 47.0398C52.8582 50.6645 55.7966 53.603 59.4214 53.603Z" fill="#61DAFB"/>
<path d="M59.4213 71.1755C64.573 76.1861 69.6542 79.1502 73.7474 79.1502C75.0883 79.1502 76.3586 78.8679 77.4172 78.2327C81.0869 76.1155 82.4278 70.8226 81.1575 63.2714C80.9458 61.9305 80.6635 60.5897 80.3106 59.1782C81.7221 58.7548 82.9924 58.3314 84.2627 57.9079C91.3905 55.1556 95.3425 51.3447 95.3425 47.1809C95.3425 42.9466 91.3905 39.1357 84.2627 36.454C82.9924 35.96 81.7221 35.5365 80.3106 35.1837C80.6635 33.7722 80.9458 32.4313 81.1575 31.0905C82.3572 23.3981 81.0164 18.0346 77.3466 15.9174C76.288 15.2823 75.0177 15 73.6769 15C69.6542 15 64.5025 17.964 59.3507 22.9747C54.2695 17.964 49.1883 15 45.0951 15C43.7542 15 42.4839 15.2823 41.4253 15.9174C37.7556 18.0346 36.4147 23.3275 37.685 30.8788C37.8967 32.2196 38.179 33.5605 38.5319 34.9719C37.1204 35.3954 35.8501 35.8188 34.5798 36.2422C27.452 38.9946 23.5 42.8055 23.5 46.9692C23.5 51.2036 27.452 55.0145 34.5798 57.6962C35.8501 58.1902 37.1204 58.6136 38.5319 58.9665C38.179 60.3779 37.8967 61.7188 37.685 63.0597C36.4853 70.6109 37.8262 75.9744 41.4253 78.021C42.4839 78.6562 43.7542 78.9384 45.0951 78.9384C49.1883 79.0796 54.2695 76.1155 59.4213 71.1755ZM55.4692 61.6482C56.7395 61.7188 58.0804 61.7188 59.4213 61.7188C60.7621 61.7188 62.103 61.7188 63.3733 61.6482C62.103 63.342 60.7621 64.8946 59.4213 66.3766C58.0804 64.8946 56.7395 63.342 55.4692 61.6482ZM46.7183 54.3793C47.424 55.579 48.0591 56.7082 48.8354 57.8373C46.6477 57.5551 44.6011 57.2022 42.6251 56.7788C43.2602 54.8733 43.9659 52.8973 44.8128 50.9213C45.3774 52.0504 46.0125 53.2502 46.7183 54.3793ZM42.6251 37.3714C44.6011 36.948 46.6477 36.5951 48.8354 36.3128C48.1297 37.442 47.424 38.5711 46.7183 39.7709C46.0125 40.9706 45.3774 42.0997 44.8128 43.2995C43.8954 41.2529 43.1897 39.2768 42.6251 37.3714ZM46.5065 47.0398C47.424 45.1343 48.412 43.2289 49.5412 41.3234C50.5997 39.4886 51.7995 37.6537 52.9992 35.8188C55.1164 35.6777 57.2335 35.6071 59.4213 35.6071C61.6796 35.6071 63.7967 35.6777 65.8433 35.8188C67.1136 37.6537 68.2428 39.4886 69.3014 41.3234C70.4305 43.2289 71.4185 45.1343 72.336 47.0398C71.4185 48.9452 70.4305 50.8507 69.3014 52.7561C68.2428 54.591 67.0431 56.4259 65.8433 58.2608C63.7262 58.4019 61.609 58.4725 59.4213 58.4725C57.163 58.4725 55.0458 58.4019 52.9992 58.2608C51.7289 56.4259 50.5997 54.591 49.5412 52.7561C48.412 50.8507 47.424 48.9452 46.5065 47.0398ZM74.1003 43.2289L72.1948 39.7003C71.4891 38.5006 70.854 37.3714 70.0777 36.2422C72.2654 36.5245 74.312 36.8774 76.288 37.3008C75.6529 39.2768 74.9472 41.2529 74.1003 43.2289ZM74.1003 50.8507C74.9472 52.8267 75.6529 54.8027 76.288 56.7082C74.312 57.1316 72.2654 57.4845 70.0777 57.7668C70.7834 56.6376 71.4891 55.5085 72.1948 54.3087C72.83 53.2501 73.4651 52.0504 74.1003 50.8507ZM75.7234 75.3393C75.1589 75.6921 74.4531 75.8333 73.6769 75.8333C70.2188 75.8333 65.9139 73.0104 61.6796 68.776C63.7262 66.5883 65.7022 64.1183 67.6782 61.366C70.9951 61.0837 74.1709 60.5897 77.1349 59.8839C77.4878 61.1542 77.6995 62.4245 77.9112 63.6948C78.8992 69.6935 78.1229 73.9984 75.7234 75.3393ZM79.3932 38.1477C87.2973 40.406 92.0256 43.864 92.0256 47.0398C92.0256 49.7921 88.7793 52.5444 83.063 54.7322C81.9338 55.1556 80.6635 55.579 79.3932 55.9319C78.4758 53.0384 77.3466 50.0744 75.9352 47.0398C77.3466 44.0052 78.5463 41.0412 79.3932 38.1477ZM73.7474 18.2463C74.5237 18.2463 75.1589 18.3875 75.794 18.7403C78.1229 20.0812 78.9698 24.3155 77.9818 30.3847C77.77 31.5845 77.4878 32.8548 77.2055 34.1956C74.2414 33.5605 71.0657 33.0665 67.7488 32.7136C65.8433 29.9613 63.7967 27.4913 61.7501 25.3035C65.9845 21.1398 70.2894 18.2463 73.7474 18.2463ZM63.3733 32.4313C62.103 32.3608 60.7621 32.3608 59.4213 32.3608C58.0804 32.3608 56.7395 32.3608 55.4692 32.4313C56.7395 30.7376 58.0804 29.185 59.4213 27.703C60.7621 29.185 62.103 30.8082 63.3733 32.4313ZM43.1191 18.7403C43.6837 18.3875 44.3894 18.2463 45.1657 18.2463C48.6237 18.2463 52.9286 21.0692 57.1629 25.3035C55.1164 27.4913 53.1403 29.9613 51.1643 32.7136C47.8474 32.9959 44.6717 33.4899 41.7076 34.1956C41.3548 32.9253 41.1431 31.655 40.9313 30.3847C39.9433 24.3861 40.7196 20.1518 43.1191 18.7403ZM39.4493 55.9319C31.5452 53.6736 26.8169 50.2155 26.8169 47.0398C26.8169 44.2875 30.0632 41.5352 35.7796 39.3474C36.9087 38.924 38.179 38.5006 39.4493 38.1477C40.3668 41.0412 41.4959 44.0052 42.9074 47.0398C41.4959 50.0744 40.2962 53.109 39.4493 55.9319ZM40.9313 63.6948C41.1431 62.4951 41.4253 61.2248 41.7076 59.8839C44.6717 60.5191 47.8474 61.0131 51.1643 61.366C53.0698 64.1183 55.1164 66.5883 57.1629 68.776C52.9286 72.9398 48.6237 75.8333 45.1657 75.8333C44.3894 75.8333 43.7542 75.6921 43.1191 75.3393C40.7196 73.9984 39.9433 69.6935 40.9313 63.6948Z" fill="#61DAFB"/>
<path d="M26.1669 96.1501L23.9969 92.4541C25.1309 91.9361 25.8869 90.8161 25.8869 89.5981C25.8869 88.7021 25.5649 87.9321 24.9349 87.3021C24.3049 86.6721 23.5349 86.3501 22.6249 86.3501H18.7049V96.1501H20.6369V92.7481H22.1069L24.0809 96.1501H26.1669ZM22.6249 88.1561C23.3529 88.1561 23.9549 88.8001 23.9549 89.5981C23.9549 90.3961 23.3529 91.0541 22.6249 91.0541H20.6369V88.1561H22.6249ZM34.0245 93.3921C34.0665 93.1261 34.0945 92.8881 34.0945 92.6501C34.0945 91.6001 33.7585 90.7321 33.0865 90.0181C32.4285 89.3041 31.5745 88.9541 30.5525 88.9541C29.4745 88.9541 28.5785 89.3041 27.8925 90.0181C27.2065 90.7181 26.8565 91.6001 26.8565 92.6501C26.8565 93.7141 27.2065 94.5961 27.9065 95.2961C28.6065 95.9961 29.5305 96.3461 30.6925 96.3461C32.0365 96.3461 33.0585 95.8421 33.7445 94.8481L32.2885 94.0081C31.9385 94.4701 31.4065 94.7081 30.7205 94.7081C29.6425 94.7081 28.9845 94.2741 28.7465 93.3921H34.0245ZM28.7185 91.9921C28.9285 91.0961 29.5865 90.5781 30.5525 90.5781C31.3785 90.5781 32.0785 91.0401 32.2885 91.9921H28.7185ZM40.6206 89.9761C40.0746 89.2901 39.3186 88.9541 38.3386 88.9541C37.4006 88.9541 36.6026 89.3181 35.9306 90.0321C35.2726 90.7461 34.9366 91.6141 34.9366 92.6501C34.9366 93.6861 35.2726 94.5681 35.9306 95.2821C36.6026 95.9961 37.4006 96.3461 38.3386 96.3461C39.3186 96.3461 40.0746 96.0101 40.6206 95.3241V96.1501H42.4266V89.1501H40.6206V89.9761ZM37.2886 94.0781C36.9246 93.7001 36.7426 93.2241 36.7426 92.6501C36.7426 92.0761 36.9246 91.6001 37.2886 91.2361C37.6526 90.8581 38.1146 90.6761 38.6746 90.6761C39.2346 90.6761 39.6966 90.8581 40.0606 91.2361C40.4386 91.6001 40.6206 92.0761 40.6206 92.6501C40.6206 93.2241 40.4386 93.7001 40.0606 94.0781C39.6966 94.4421 39.2346 94.6241 38.6746 94.6241C38.1146 94.6241 37.6526 94.4421 37.2886 94.0781ZM47.3963 96.3461C48.7543 96.3461 49.9443 95.6321 50.5603 94.5261L48.9923 93.6301C48.7123 94.2041 48.1103 94.5541 47.3823 94.5541C46.8363 94.5541 46.3883 94.3721 46.0383 94.0221C45.6883 93.6581 45.5063 93.1961 45.5063 92.6501C45.5063 91.5301 46.3043 90.7321 47.3823 90.7321C48.0963 90.7321 48.6983 91.0961 48.9783 91.6701L50.5323 90.7601C49.9583 89.6541 48.7543 88.9541 47.3963 88.9541C46.3463 88.9541 45.4643 89.3041 44.7503 90.0181C44.0503 90.7321 43.7003 91.6001 43.7003 92.6501C43.7003 93.7001 44.0503 94.5681 44.7503 95.2821C45.4643 95.9961 46.3463 96.3461 47.3963 96.3461ZM55.5195 89.1501H53.9375V87.1901L52.1315 87.7361V89.1501H50.9135V90.8861H52.1315V93.7981C52.1315 95.7161 53.0415 96.4301 55.5195 96.1501V94.5121C54.4835 94.5681 53.9375 94.5541 53.9375 93.7981V90.8861H55.5195V89.1501ZM66.1562 92.3281L61.9562 86.3501H60.4862V96.1501H62.4182V90.1581L66.6182 96.1501H68.0882V86.3501H66.1562V92.3281ZM75.1421 89.9761C74.5961 89.2901 73.8401 88.9541 72.8601 88.9541C71.9221 88.9541 71.1241 89.3181 70.4521 90.0321C69.7941 90.7461 69.4581 91.6141 69.4581 92.6501C69.4581 93.6861 69.7941 94.5681 70.4521 95.2821C71.1241 95.9961 71.9221 96.3461 72.8601 96.3461C73.8401 96.3461 74.5961 96.0101 75.1421 95.3241V96.1501H76.9481V89.1501H75.1421V89.9761ZM71.8101 94.0781C71.4461 93.7001 71.2641 93.2241 71.2641 92.6501C71.2641 92.0761 71.4461 91.6001 71.8101 91.2361C72.1741 90.8581 72.6361 90.6761 73.1961 90.6761C73.7561 90.6761 74.2181 90.8581 74.5821 91.2361C74.9601 91.6001 75.1421 92.0761 75.1421 92.6501C75.1421 93.2241 74.9601 93.7001 74.5821 94.0781C74.2181 94.4421 73.7561 94.6241 73.1961 94.6241C72.6361 94.6241 72.1741 94.4421 71.8101 94.0781ZM82.5898 89.1501H81.0078V87.1901L79.2018 87.7361V89.1501H77.9838V90.8861H79.2018V93.7981C79.2018 95.7161 80.1118 96.4301 82.5898 96.1501V94.5121C81.5538 94.5681 81.0078 94.5541 81.0078 93.7981V90.8861H82.5898V89.1501ZM84.8685 88.5341C85.4845 88.5341 85.9885 88.0441 85.9885 87.4561C85.9885 86.8681 85.4845 86.3641 84.8685 86.3641C84.2665 86.3641 83.7625 86.8681 83.7625 87.4561C83.7625 88.0441 84.2665 88.5341 84.8685 88.5341ZM85.7785 96.1501V89.1501H83.9725V96.1501H85.7785ZM90.3295 94.0501L88.6355 89.1501H86.6475L89.3075 96.1501H91.3655L94.0255 89.1501H92.0375L90.3295 94.0501ZM101.7 93.3921C101.742 93.1261 101.77 92.8881 101.77 92.6501C101.77 91.6001 101.434 90.7321 100.762 90.0181C100.104 89.3041 99.2503 88.9541 98.2283 88.9541C97.1503 88.9541 96.2543 89.3041 95.5683 90.0181C94.8823 90.7181 94.5323 91.6001 94.5323 92.6501C94.5323 93.7141 94.8823 94.5961 95.5823 95.2961C96.2823 95.9961 97.2063 96.3461 98.3683 96.3461C99.7123 96.3461 100.734 95.8421 101.42 94.8481L99.9643 94.0081C99.6143 94.4701 99.0823 94.7081 98.3963 94.7081C97.3183 94.7081 96.6603 94.2741 96.4223 93.3921H101.7ZM96.3943 91.9921C96.6043 91.0961 97.2623 90.5781 98.2283 90.5781C99.0543 90.5781 99.7543 91.0401 99.9643 91.9921H96.3943Z" fill="#61DAFB"/>
</svg>
