<svg width="118" height="118" viewBox="0 0 118 118" fill="none" xmlns="http://www.w3.org/2000/svg">
<path d="M59.4214 53.603C63.0461 53.603 65.9846 50.6645 65.9846 47.0398C65.9846 43.415 63.0461 40.4766 59.4214 40.4766C55.7966 40.4766 52.8582 43.415 52.8582 47.0398C52.8582 50.6645 55.7966 53.603 59.4214 53.603Z" fill="#61DAFB"/>
<path d="M59.4213 71.1755C64.573 76.1861 69.6542 79.1502 73.7474 79.1502C75.0883 79.1502 76.3586 78.8679 77.4172 78.2327C81.0869 76.1155 82.4278 70.8226 81.1575 63.2714C80.9458 61.9305 80.6635 60.5897 80.3106 59.1782C81.7221 58.7548 82.9924 58.3314 84.2627 57.9079C91.3905 55.1556 95.3425 51.3447 95.3425 47.1809C95.3425 42.9466 91.3905 39.1357 84.2627 36.454C82.9924 35.96 81.7221 35.5365 80.3106 35.1837C80.6635 33.7722 80.9458 32.4313 81.1575 31.0905C82.3572 23.3981 81.0164 18.0346 77.3466 15.9174C76.288 15.2823 75.0177 15 73.6769 15C69.6542 15 64.5025 17.964 59.3507 22.9747C54.2695 17.964 49.1883 15 45.0951 15C43.7542 15 42.4839 15.2823 41.4253 15.9174C37.7556 18.0346 36.4147 23.3275 37.685 30.8788C37.8967 32.2196 38.179 33.5605 38.5319 34.9719C37.1204 35.3954 35.8501 35.8188 34.5798 36.2422C27.452 38.9946 23.5 42.8055 23.5 46.9692C23.5 51.2036 27.452 55.0145 34.5798 57.6962C35.8501 58.1902 37.1204 58.6136 38.5319 58.9665C38.179 60.3779 37.8967 61.7188 37.685 63.0597C36.4853 70.6109 37.8262 75.9744 41.4253 78.021C42.4839 78.6562 43.7542 78.9384 45.0951 78.9384C49.1883 79.0796 54.2695 76.1155 59.4213 71.1755ZM55.4692 61.6482C56.7395 61.7188 58.0804 61.7188 59.4213 61.7188C60.7621 61.7188 62.103 61.7188 63.3733 61.6482C62.103 63.342 60.7621 64.8946 59.4213 66.3766C58.0804 64.8946 56.7395 63.342 55.4692 61.6482ZM46.7183 54.3793C47.424 55.579 48.0591 56.7082 48.8354 57.8373C46.6477 57.5551 44.6011 57.2022 42.6251 56.7788C43.2602 54.8733 43.9659 52.8973 44.8128 50.9213C45.3774 52.0504 46.0125 53.2502 46.7183 54.3793ZM42.6251 37.3714C44.6011 36.948 46.6477 36.5951 48.8354 36.3128C48.1297 37.442 47.424 38.5711 46.7183 39.7709C46.0125 40.9706 45.3774 42.0997 44.8128 43.2995C43.8954 41.2529 43.1897 39.2768 42.6251 37.3714ZM46.5065 47.0398C47.424 45.1343 48.412 43.2289 49.5412 41.3234C50.5997 39.4886 51.7995 37.6537 52.9992 35.8188C55.1164 35.6777 57.2335 35.6071 59.4213 35.6071C61.6796 35.6071 63.7967 35.6777 65.8433 35.8188C67.1136 37.6537 68.2428 39.4886 69.3014 41.3234C70.4305 43.2289 71.4185 45.1343 72.336 47.0398C71.4185 48.9452 70.4305 50.8507 69.3014 52.7561C68.2428 54.591 67.0431 56.4259 65.8433 58.2608C63.7262 58.4019 61.609 58.4725 59.4213 58.4725C57.163 58.4725 55.0458 58.4019 52.9992 58.2608C51.7289 56.4259 50.5997 54.591 49.5412 52.7561C48.412 50.8507 47.424 48.9452 46.5065 47.0398ZM74.1003 43.2289L72.1948 39.7003C71.4891 38.5006 70.854 37.3714 70.0777 36.2422C72.2654 36.5245 74.312 36.8774 76.288 37.3008C75.6529 39.2768 74.9472 41.2529 74.1003 43.2289ZM74.1003 50.8507C74.9472 52.8267 75.6529 54.8027 76.288 56.7082C74.312 57.1316 72.2654 57.4845 70.0777 57.7668C70.7834 56.6376 71.4891 55.5085 72.1948 54.3087C72.83 53.2501 73.4651 52.0504 74.1003 50.8507ZM75.7234 75.3393C75.1589 75.6921 74.4531 75.8333 73.6769 75.8333C70.2188 75.8333 65.9139 73.0104 61.6796 68.776C63.7262 66.5883 65.7022 64.1183 67.6782 61.366C70.9951 61.0837 74.1709 60.5897 77.1349 59.8839C77.4878 61.1542 77.6995 62.4245 77.9112 63.6948C78.8992 69.6935 78.1229 73.9984 75.7234 75.3393ZM79.3932 38.1477C87.2973 40.406 92.0256 43.864 92.0256 47.0398C92.0256 49.7921 88.7793 52.5444 83.063 54.7322C81.9338 55.1556 80.6635 55.579 79.3932 55.9319C78.4758 53.0384 77.3466 50.0744 75.9352 47.0398C77.3466 44.0052 78.5463 41.0412 79.3932 38.1477ZM73.7474 18.2463C74.5237 18.2463 75.1589 18.3875 75.794 18.7403C78.1229 20.0812 78.9698 24.3155 77.9818 30.3847C77.77 31.5845 77.4878 32.8548 77.2055 34.1956C74.2414 33.5605 71.0657 33.0665 67.7488 32.7136C65.8433 29.9613 63.7967 27.4913 61.7501 25.3035C65.9845 21.1398 70.2894 18.2463 73.7474 18.2463ZM63.3733 32.4313C62.103 32.3608 60.7621 32.3608 59.4213 32.3608C58.0804 32.3608 56.7395 32.3608 55.4692 32.4313C56.7395 30.7376 58.0804 29.185 59.4213 27.703C60.7621 29.185 62.103 30.8082 63.3733 32.4313ZM43.1191 18.7403C43.6837 18.3875 44.3894 18.2463 45.1657 18.2463C48.6237 18.2463 52.9286 21.0692 57.1629 25.3035C55.1164 27.4913 53.1403 29.9613 51.1643 32.7136C47.8474 32.9959 44.6717 33.4899 41.7076 34.1956C41.3548 32.9253 41.1431 31.655 40.9313 30.3847C39.9433 24.3861 40.7196 20.1518 43.1191 18.7403ZM39.4493 55.9319C31.5452 53.6736 26.8169 50.2155 26.8169 47.0398C26.8169 44.2875 30.0632 41.5352 35.7796 39.3474C36.9087 38.924 38.179 38.5006 39.4493 38.1477C40.3668 41.0412 41.4959 44.0052 42.9074 47.0398C41.4959 50.0744 40.2962 53.109 39.4493 55.9319ZM40.9313 63.6948C41.1431 62.4951 41.4253 61.2248 41.7076 59.8839C44.6717 60.5191 47.8474 61.0131 51.1643 61.366C53.0698 64.1183 55.1164 66.5883 57.1629 68.776C52.9286 72.9398 48.6237 75.8333 45.1657 75.8333C44.3894 75.8333 43.7542 75.6921 43.1191 75.3393C40.7196 73.9984 39.9433 69.6935 40.9313 63.6948Z" fill="#61DAFB"/>
<path d="M49.2314 96.1501L47.0614 92.4541C48.1954 91.9361 48.9514 90.8161 48.9514 89.5981C48.9514 88.7021 48.6294 87.9321 47.9994 87.3021C47.3694 86.6721 46.5994 86.3501 45.6894 86.3501H41.7694V96.1501H43.7014V92.7481H45.1714L47.1454 96.1501H49.2314ZM45.6894 88.1561C46.4174 88.1561 47.0194 88.8001 47.0194 89.5981C47.0194 90.3961 46.4174 91.0541 45.6894 91.0541H43.7014V88.1561H45.6894ZM57.089 93.3921C57.131 93.1261 57.159 92.8881 57.159 92.6501C57.159 91.6001 56.823 90.7321 56.151 90.0181C55.493 89.3041 54.639 88.9541 53.617 88.9541C52.539 88.9541 51.643 89.3041 50.957 90.0181C50.271 90.7181 49.921 91.6001 49.921 92.6501C49.921 93.7141 50.271 94.5961 50.971 95.2961C51.671 95.9961 52.595 96.3461 53.757 96.3461C55.101 96.3461 56.123 95.8421 56.809 94.8481L55.353 94.0081C55.003 94.4701 54.471 94.7081 53.785 94.7081C52.707 94.7081 52.049 94.2741 51.811 93.3921H57.089ZM51.783 91.9921C51.993 91.0961 52.651 90.5781 53.617 90.5781C54.443 90.5781 55.143 91.0401 55.353 91.9921H51.783ZM63.6851 89.9761C63.1391 89.2901 62.3831 88.9541 61.4031 88.9541C60.4651 88.9541 59.6671 89.3181 58.9951 90.0321C58.3371 90.7461 58.0011 91.6141 58.0011 92.6501C58.0011 93.6861 58.3371 94.5681 58.9951 95.2821C59.6671 95.9961 60.4651 96.3461 61.4031 96.3461C62.3831 96.3461 63.1391 96.0101 63.6851 95.3241V96.1501H65.4911V89.1501H63.6851V89.9761ZM60.3531 94.0781C59.9891 93.7001 59.8071 93.2241 59.8071 92.6501C59.8071 92.0761 59.9891 91.6001 60.3531 91.2361C60.7171 90.8581 61.1791 90.6761 61.7391 90.6761C62.2991 90.6761 62.7611 90.8581 63.1251 91.2361C63.5031 91.6001 63.6851 92.0761 63.6851 92.6501C63.6851 93.2241 63.5031 93.7001 63.1251 94.0781C62.7611 94.4421 62.2991 94.6241 61.7391 94.6241C61.1791 94.6241 60.7171 94.4421 60.3531 94.0781ZM70.4607 96.3461C71.8187 96.3461 73.0087 95.6321 73.6247 94.5261L72.0567 93.6301C71.7767 94.2041 71.1747 94.5541 70.4467 94.5541C69.9007 94.5541 69.4527 94.3721 69.1027 94.0221C68.7527 93.6581 68.5707 93.1961 68.5707 92.6501C68.5707 91.5301 69.3687 90.7321 70.4467 90.7321C71.1607 90.7321 71.7627 91.0961 72.0427 91.6701L73.5967 90.7601C73.0227 89.6541 71.8187 88.9541 70.4607 88.9541C69.4107 88.9541 68.5287 89.3041 67.8147 90.0181C67.1147 90.7321 66.7647 91.6001 66.7647 92.6501C66.7647 93.7001 67.1147 94.5681 67.8147 95.2821C68.5287 95.9961 69.4107 96.3461 70.4607 96.3461ZM78.5839 89.1501H77.0019V87.1901L75.1959 87.7361V89.1501H73.9779V90.8861H75.1959V93.7981C75.1959 95.7161 76.1059 96.4301 78.5839 96.1501V94.5121C77.5479 94.5681 77.0019 94.5541 77.0019 93.7981V90.8861H78.5839V89.1501Z" fill="#61DAFB"/>
</svg>
