<svg width="118" height="118" viewBox="0 0 118 118" fill="none" xmlns="http://www.w3.org/2000/svg">
<path d="M58.8844 32C52.2149 32 48.0579 35.3541 46.4037 42C48.9067 38.6553 51.8387 37.4235 55.147 38.2705C57.0374 38.7421 58.4118 40.1136 59.9165 41.668C62.376 44.1656 65.2116 47.0481 71.4085 47.0481C78.0685 47.0481 82.2255 43.694 83.8796 37.0481C81.3767 40.3928 78.4446 41.6246 75.1364 40.7776C73.246 40.306 71.8811 38.9345 70.3668 37.3801C67.9074 34.8825 65.0717 32 58.8844 32ZM46.3603 46.9519C39.6908 46.9519 35.5338 50.2966 33.8796 56.95C36.3826 53.5978 39.3146 52.3754 42.6229 53.2224C44.5133 53.694 45.8877 55.0655 47.3924 56.6199C49.8519 59.1175 52.6875 62 58.8844 62C65.5444 62 69.7014 58.6459 71.3555 52C68.8526 55.3447 65.9205 56.5765 62.6123 55.7201C60.7219 55.2485 59.357 53.8864 57.8427 52.332C55.4268 49.8249 52.5911 46.9519 46.3603 46.9519Z" fill="url(#paint0_linear_17_507)"/>
<path d="M22.7874 78.4374H20.7691V82.3643C20.7691 83.416 21.4471 83.3914 22.7865 83.3265V84.9062C20.0674 85.2351 18.9946 84.4878 18.9946 82.3643V78.4374H17.5V76.748H18.9946V74.5552L20.7489 74.0315V76.748H22.7628V78.4374H22.7874ZM30.5061 76.748H32.2604V84.9062H30.5061V83.7203C29.8895 84.5773 28.9273 85.1053 27.6555 85.1053C25.4389 85.1053 23.5996 83.2168 23.5996 80.8047C23.5996 78.3724 25.4389 76.5085 27.6563 76.5085C28.9273 76.5085 29.8895 77.0322 30.507 77.8891L30.5061 76.748ZM27.916 83.4361C29.386 83.4361 30.507 82.3397 30.507 80.8293C30.507 79.3145 29.386 78.2181 27.916 78.2181C26.4503 78.2181 25.3293 79.3145 25.3293 80.8293C25.3539 82.3397 26.4494 83.4361 27.916 83.4361ZM35.197 75.5218C34.5839 75.5218 34.0804 74.9937 34.0804 74.4008C34.0804 73.7877 34.5839 73.2842 35.197 73.2842C35.811 73.2842 36.318 73.7877 36.318 74.4008C36.3382 74.9937 35.8102 75.5218 35.197 75.5218ZM34.3199 84.9062V76.7489H36.0742V84.9062H34.3199ZM38.1126 84.9062V73H39.8669V84.9062H38.1126ZM51.3389 76.7489H53.2028L50.6363 84.9062H48.9022L47.2129 79.404L45.5034 84.9062H43.7736L41.2072 76.7489H43.0702L44.649 82.3844L46.3594 76.748H48.0488L49.7338 82.3844L51.3389 76.7489ZM55.3711 75.5209C54.758 75.5209 54.2545 74.9946 54.2545 74.4008C54.2545 73.7877 54.758 73.2842 55.3711 73.2842C55.9851 73.2842 56.4921 73.7877 56.4921 74.4008C56.5123 74.9937 56.0088 75.5209 55.3711 75.5209ZM54.494 84.9062V76.7489H56.2482V84.9062H54.494ZM62.5873 76.5296C64.4065 76.5296 65.7222 77.7795 65.7222 79.8829V84.9062H63.9679V80.082C63.9679 78.8312 63.2451 78.1979 62.1487 78.1979C60.9874 78.1979 60.0655 78.8759 60.0655 80.5407V84.9264H58.3113V76.7726H60.0655V77.8242C60.6137 76.9471 61.4909 76.5296 62.5873 76.5296ZM74.0997 73.4833H75.8539V84.9062H74.0997V83.7203C73.4857 84.5773 72.5199 85.1053 71.249 85.1053C69.0316 85.1053 67.1922 83.2168 67.1922 80.8047C67.1922 78.3724 69.0316 76.5085 71.249 76.5085C72.5199 76.5085 73.4857 77.0322 74.0997 77.8891V73.4833ZM71.5121 83.4361C72.9787 83.4361 74.0997 82.3397 74.0997 80.8293C74.0997 79.3145 72.9787 78.2181 71.5121 78.2181C70.0429 78.2181 68.9219 79.3145 68.9219 80.8293C68.9219 82.3397 70.042 83.4361 71.5121 83.4361ZM81.75 85.1255C79.2975 85.1255 77.4336 83.2414 77.4336 80.8293C77.4336 78.3926 79.273 76.5287 81.75 76.5287C83.3543 76.5287 84.7349 77.362 85.3927 78.6365L83.8779 79.5136C83.5288 78.7461 82.7166 78.2628 81.7298 78.2628C80.2843 78.2628 79.2081 79.3592 79.2081 80.8293C79.2081 82.295 80.3045 83.3914 81.7298 83.3914C82.7166 83.3914 83.5043 82.8879 83.9025 82.145L85.4129 82.9976C84.7551 84.2931 83.3543 85.1255 81.75 85.1255ZM88.3531 78.9856C88.3531 80.4767 92.7387 79.5785 92.7387 82.6037C92.7387 84.2282 91.3134 85.1255 89.5591 85.1255C87.9347 85.1255 86.7523 84.3782 86.2251 83.2168L87.7399 82.3397C87.9996 83.087 88.6574 83.5256 89.5591 83.5256C90.3468 83.5256 90.9397 83.2616 90.9397 82.6037C90.9397 81.1582 86.5541 81.9661 86.5541 79.0513C86.5541 77.5164 87.8698 76.5533 89.5346 76.5533C90.8748 76.5533 91.9914 77.1664 92.5642 78.2382L91.0695 79.075C90.7854 78.4374 90.217 78.1532 89.5346 78.1532C88.9013 78.1286 88.3531 78.4163 88.3531 78.9856ZM95.8736 78.9856C95.8736 80.4767 100.259 79.5785 100.259 82.6037C100.259 84.2282 98.8339 85.1255 97.0797 85.1255C95.4552 85.1255 94.2728 84.3782 93.7466 83.2168L95.2605 82.3397C95.5236 83.087 96.1815 83.5256 97.0797 83.5256C97.8673 83.5256 98.4603 83.2616 98.4603 82.6037C98.4603 81.1582 94.0746 81.9661 94.0746 79.0513C94.0746 77.5164 95.3903 76.5533 97.0595 76.5533C98.3954 76.5533 99.512 77.1664 100.085 78.2382L98.5936 79.075C98.3059 78.4374 97.7375 78.1532 97.0586 78.1532C96.4218 78.1286 95.8736 78.4163 95.8736 78.9856Z" fill="#2D3748"/>
<defs>
<linearGradient id="paint0_linear_17_507" x1="32.5418" y1="41.5106" x2="75.6969" y2="66.4455" gradientUnits="userSpaceOnUse">
<stop stop-color="#2298BD"/>
<stop offset="1" stop-color="#0ED7B5"/>
</linearGradient>
</defs>
</svg>
