<svg width="118" height="118" viewBox="0 0 118 118" fill="none" xmlns="http://www.w3.org/2000/svg">
<path d="M98.7376 36.5732L59 13.629L19.2625 36.5732V82.445L59 105.389L98.7376 82.445V36.5732Z" fill="#141227"/>
<g opacity="0.94">
<path d="M27.849 52.8034V55.6256H30.2614V56.9851H27.849V62.2896C27.849 63.5125 28.1789 64.1989 29.1185 64.1989C29.4484 64.1989 29.7816 64.1656 30.1014 64.0723L30.1814 65.4084C29.8615 65.545 29.3351 65.6483 28.6853 65.6483C27.8956 65.6483 27.2692 65.3851 26.866 64.8953C26.3862 64.3688 26.213 63.4892 26.213 62.3363V56.9751H24.7635V55.6156H26.203V53.2599L27.849 52.8034Z" fill="white"/>
<path d="M33.6567 52.86C33.69 53.4331 33.2668 53.9229 32.6971 53.9563C32.6637 53.9563 32.6171 53.9563 32.5838 53.9563C31.9907 53.9563 31.5675 53.4631 31.5675 52.86C31.5675 52.2303 32.014 51.7405 32.6204 51.7405C33.2568 51.7538 33.6567 52.2336 33.6567 52.86ZM31.7808 65.4717V55.6423H33.4734V65.4717H31.7808Z" fill="white"/>
<path d="M43.8993 51.0341V62.9227C43.8993 63.7924 43.9226 64.7987 43.9793 65.4617H42.4699L42.3899 63.7591H42.3566C41.8434 64.8553 40.7106 65.6916 39.1912 65.6916C36.9521 65.6916 35.2227 63.6791 35.2227 60.697C35.1994 57.4282 37.122 55.4157 39.3844 55.4157C40.8005 55.4157 41.7635 56.1254 42.1866 56.9251H42.22V51.0508H43.8993V51.0341ZM42.2066 59.6274C42.2066 59.3775 42.1833 59.1242 42.1267 58.8743C41.8768 57.7315 40.9605 56.8052 39.691 56.8052C37.9417 56.8052 36.9121 58.4279 36.9121 60.6003C36.9121 62.5895 37.8384 64.2355 39.6543 64.2355C40.7872 64.2355 41.8135 63.4459 42.1233 62.0964C42.18 61.8465 42.2033 61.5833 42.2033 61.32V59.6274H42.2066Z" fill="white"/>
<path d="M46.9281 55.629L48.9639 61.4367C49.1805 62.0897 49.4104 62.8528 49.557 63.4492H49.5903C49.7603 62.8561 49.9569 62.1131 50.1834 61.39L52.0227 55.629H53.8053L51.2797 62.6362C50.0668 66.0082 49.2438 67.7342 48.1009 68.7971C47.2779 69.5734 46.4549 69.87 46.0318 69.9533L45.6086 68.4572C46.1584 68.264 46.6615 67.9641 47.0847 67.5876C47.7011 67.0378 48.1942 66.3647 48.5008 65.5983C48.5707 65.4617 48.6141 65.3251 48.6374 65.1752C48.6274 65.0152 48.5807 64.8553 48.5241 64.7054L45.0955 55.639L46.9281 55.629Z" fill="white"/>
<path d="M55.8445 55.629L57.6638 61.1601C57.9737 62.0531 58.2236 62.8628 58.4068 63.6758H58.4635C58.6801 62.8628 58.9433 62.0531 59.2532 61.1601L61.0591 55.629H62.8184L59.1732 65.4584H57.5605L54.0286 55.629H55.8445Z" fill="white"/>
<path d="M64.7744 60.8735C64.8077 63.2959 66.2705 64.2922 67.9531 64.2922C69.166 64.2922 69.8857 64.0623 70.5255 63.7791L70.812 65.0585C70.2189 65.3451 69.1993 65.665 67.7266 65.665C64.8677 65.665 63.165 63.6758 63.165 60.7036C63.165 57.7315 64.8111 55.399 67.52 55.399C70.5488 55.399 71.3485 58.2213 71.3485 60.0405C71.3485 60.3138 71.3251 60.6003 71.2918 60.8735H64.7744ZM69.7224 59.5941C69.7458 58.4512 69.2759 56.6919 67.38 56.6919C65.6774 56.6919 64.921 58.3612 64.7977 59.5941H69.7224Z" fill="white"/>
<path d="M73.051 58.6911C73.051 57.5349 73.0277 56.542 72.9711 55.629H74.4471L74.5038 57.5615H74.5838C75.0069 56.2354 76.0232 55.4024 77.1561 55.4024C77.316 55.4024 77.4759 55.4257 77.6359 55.4724V57.165C77.4526 57.1184 77.2594 57.0951 77.0628 57.1084C75.8732 57.1084 75.0269 58.068 74.8003 59.4075C74.7537 59.6807 74.7304 59.9573 74.7204 60.2405V65.4884H73.051V58.6911Z" fill="white"/>
<path d="M78.7088 63.6424C79.3719 64.0756 80.1383 64.3288 80.938 64.3522C82.1608 64.3522 82.7439 63.6991 82.7439 62.8894C82.7439 62.0331 82.2641 61.5733 81.0179 61.0835C79.3486 60.4537 78.5589 59.4841 78.5589 58.2946C78.5589 56.7052 79.7718 55.4124 81.761 55.4124C82.5607 55.4024 83.3503 55.619 84.0367 56.0188L83.6136 57.3216C83.0538 56.9551 82.3907 56.7485 81.7143 56.7485C80.7214 56.7485 80.1583 57.3549 80.1583 58.0847C80.1583 58.8977 80.7181 59.2608 81.9176 59.754C83.5303 60.4071 84.3533 61.2634 84.3533 62.7261C84.3533 64.4521 83.0838 65.675 80.888 65.675C79.8717 65.675 78.9321 65.4117 78.2823 65.0019L78.7088 63.6424Z" fill="white"/>
<path d="M87.0889 60.8735C87.1222 63.2959 88.5849 64.2922 90.2676 64.2922C91.4804 64.2922 92.2002 64.0623 92.8399 63.7791L93.1265 65.0585C92.5334 65.3451 91.5138 65.665 90.041 65.665C87.1822 65.665 85.4795 63.6758 85.4795 60.7036C85.4795 57.7315 87.1255 55.399 89.8344 55.399C92.8632 55.399 93.6629 58.2213 93.6629 60.0272C93.6629 60.3004 93.6396 60.587 93.6063 60.8602H87.0889V60.8735ZM92.0369 59.5941C92.0602 58.4512 91.5904 56.6919 89.6945 56.6919C87.9918 56.6919 87.2355 58.3612 87.0989 59.5941H92.0369Z" fill="white"/>
</g>
<path d="M59.3198 82.4217C59.3531 82.3883 59.3898 82.3517 59.4231 82.3184H59.3898C59.3765 82.355 59.3431 82.3883 59.3198 82.4217Z" fill="#E6B35A"/>
<path opacity="0.8" d="M55.5314 18.457L55.9579 18.2104L56.3944 18.457V18.9502L55.9579 19.1967L55.5314 18.9502V18.457Z" fill="#F2F2F2"/>
<path opacity="0.8" d="M49.3071 23.7683L49.8303 23.4717L50.3467 23.7683V24.3647L49.8303 24.6613L49.3071 24.3647V23.7683Z" fill="#F2F2F2"/>
<path opacity="0.8" d="M54.975 30.4556L55.6947 30.0458L56.4277 30.4556V31.2919L55.6947 31.7018L54.975 31.2919V30.4556Z" fill="#F2F2F2"/>
<path d="M62.292 34.0009L63.0117 33.5877L63.7447 34.0009V34.8339L63.0117 35.247L62.292 34.8339V34.0009Z" fill="#F7A238"/>
<path opacity="0.8" d="M67.9298 21.106L68.6495 20.6928L69.3792 21.106V21.939L68.6495 22.3522L67.9298 21.939V21.106Z" fill="#F2F2F2"/>
<path opacity="0.8" d="M65.4707 29.7592L66.2004 29.3594L66.9235 29.7692V30.6055L66.2004 31.0054L65.4707 30.5922V29.7592Z" fill="#F2F2F2"/>
<path d="M55.5348 37.8194V36.983L54.8284 36.5732L54.0953 36.983V37.8194L54.8284 38.2292L55.5348 37.8194Z" fill="#0088C5"/>
<path opacity="0.8" d="M31.5409 35.0271L32.2606 34.6173L32.9803 35.0271V35.8635L32.2606 36.2733L31.5409 35.8635V35.0271Z" fill="#F2F2F2"/>
<path opacity="0.8" d="M44.2526 38.7423L44.9856 38.3325L45.7053 38.7423V39.5786L44.9856 39.9885L44.2526 39.5786V38.7423Z" fill="#F2F2F2"/>
<path d="M71.1285 43.8437L71.8616 43.4305L72.5813 43.8437V44.6767L71.8616 45.0898L71.1285 44.6767V43.8437Z" fill="#7FB036"/>
<path opacity="0.8" d="M28.6021 69.7567L29.3218 69.3469L30.0548 69.7567V70.593L29.3218 71.0029L28.6021 70.593V69.7567Z" fill="#F2F2F2"/>
<path d="M33.1636 72.6389L34.3431 71.9758L35.5093 72.6389V73.985L34.3431 74.6481L33.1636 73.985V72.6389Z" fill="#F9ECC6"/>
<path d="M42.0934 76.5473L42.4599 76.3408L42.8364 76.5473V76.9705L42.4599 77.1771L42.0934 76.9705V76.5473Z" fill="#FFF34D"/>
<path opacity="0.8" d="M41.3837 70.4664L42.1034 70.0665L42.8364 70.4764V71.3127L42.1034 71.7125L41.3837 71.2994V70.4664Z" fill="#F2F2F2"/>
<path opacity="0.8" d="M21.8813 77.0505L22.2479 76.8439L22.6011 77.0505V77.4603L22.2479 77.6669L21.8813 77.4603V77.0505Z" fill="#F2F2F2"/>
<path d="M30.9911 83.4179L32.1573 82.7648L33.3235 83.4279V84.7674L32.1573 85.4171L30.9911 84.7674V83.4179Z" fill="#B57AB4"/>
<path opacity="0.8" d="M29.0619 74.8913L29.565 74.6047L30.0648 74.8913V75.4711L29.565 75.7576L29.0619 75.4711V74.8913Z" fill="#F2F2F2"/>
<path opacity="0.8" d="M20.8651 57.6515L21.2983 57.4116L21.7448 57.6515V58.1546L21.2983 58.4045L20.8651 58.1546V57.6515Z" fill="#F2F2F2"/>
<path opacity="0.8" d="M22.0081 47.8321L22.7378 47.4189L23.4575 47.8321V48.6651L22.7378 49.0782L22.0081 48.6651V47.8321Z" fill="#F2F2F2"/>
<path d="M47.6945 35.5203L48.8607 34.8672L50.0269 35.5303V36.8697L48.8607 37.5328L47.6945 36.8697V35.5203Z" fill="#FFF34D"/>
<path opacity="0.8" d="M84.8597 42.161L85.4995 41.7944L86.1392 42.161V42.904L85.4995 43.2705L84.8597 42.904V42.161Z" fill="#F2F2F2"/>
<path d="M52.5526 43.1206L53.7421 42.4475L54.9317 43.1206V44.4934L53.7421 45.1564L52.5526 44.4834V43.1206Z" fill="#DB1F26"/>
<path opacity="0.8" d="M70.3855 40.5616L71.1052 40.1484L71.8383 40.5616V41.3946L71.1052 41.8078L70.3855 41.3946V40.5616Z" fill="#F2F2F2"/>
<path opacity="0.8" d="M50.61 70.7296L51.3297 70.3298L52.0594 70.7396V71.5759L51.3297 71.9758L50.61 71.5626V70.7296Z" fill="#F2F2F2"/>
<path d="M56.3145 76.0675L56.7943 75.7943L57.2741 76.0675V76.6273L56.7943 76.8905L56.3145 76.6173V76.0675Z" fill="#DB1F26"/>
<path opacity="0.8" d="M63.6282 79.6094L64.1113 79.3362L64.6011 79.6094V80.1725L64.1113 80.4457L63.6282 80.1592V79.6094Z" fill="#F2F2F2"/>
<path opacity="0.8" d="M62.3153 68.967L63.1283 68.5105L63.9613 68.9803V69.9299L63.1283 70.3864L62.3153 69.9166V68.967Z" fill="#F2F2F2"/>
<path opacity="0.8" d="M67.3334 71.416L68.4763 70.7629L69.6091 71.416V72.7188L68.4763 73.3586L67.3334 72.7188V71.416Z" fill="#F2F2F2"/>
<path opacity="0.8" d="M79.132 46.5526L79.8517 46.1394L80.5814 46.5526V47.3856L79.8517 47.7987L79.132 47.3856V46.5526Z" fill="#F2F2F2"/>
<path opacity="0.8" d="M91.8903 51.0541L93.0764 50.381L94.266 51.0541V52.4269L93.0764 53.1L91.8903 52.4269V51.0541Z" fill="#F2F2F2"/>
<path opacity="0.8" d="M73.8607 29.2228L74.4205 28.9029L74.9803 29.2228V29.8625L74.4205 30.1824L73.8607 29.8625V29.2228Z" fill="#F2F2F2"/>
<path d="M68.0664 36.3666L68.7961 35.9534L69.5158 36.3666V37.1996L68.7961 37.6128L68.0664 37.1996V36.3666Z" fill="#7FB036"/>
<path opacity="0.8" d="M81.7144 29.9291L82.4474 29.5193L83.1671 29.9291V30.7655L82.4474 31.1753L81.7144 30.7655V29.9291Z" fill="#F2F2F2"/>
<path opacity="0.8" d="M76.2632 35.9301L76.753 35.6569L77.2561 35.9301V36.5032L76.753 36.7897L76.2632 36.5032V35.9301Z" fill="#F2F2F2"/>
<path opacity="0.8" d="M74.5938 71.1961L75.3235 70.7963L76.0432 71.2094V72.0424L75.3235 72.4423L74.5938 72.0324V71.1961Z" fill="#F2F2F2"/>
<path opacity="0.8" d="M71.1852 75.1745L72.0782 74.6714L72.9578 75.1745V76.1941L72.0782 76.6839L71.1852 76.1941V75.1745Z" fill="#F2F2F2"/>
<path d="M89.7511 71.0129L90.4841 70.603L91.2039 71.0129V71.8492L90.4841 72.259L89.7511 71.8492V71.0129Z" fill="#FFF34D"/>
<path opacity="0.8" d="M46.7582 86.7899L47.4779 86.3768L48.2076 86.7899V87.6229L47.4779 88.0361L46.7582 87.6229V86.7899Z" fill="#F2F2F2"/>
<path d="M59.743 90.9749L60.1995 90.7117L60.656 90.9749V91.498L60.1995 91.7513L59.743 91.488V90.9749Z" fill="#FFF34D"/>
<path d="M38.4448 87.9828L39.1645 87.5729L39.8976 87.9828V88.8191L39.1645 89.2289L38.4448 88.8191V87.9828Z" fill="#DB1F26"/>
<path d="M44.619 92.9741L45.7952 92.311L46.9747 92.9841V94.3336L45.7952 94.9966L44.619 94.3236V92.9741Z" fill="#F9ECC6"/>
<path d="M52.2194 94.9967L53.3989 94.3336L54.5751 95.01V96.3561L53.3989 97.0192L52.2194 96.3461V94.9967Z" fill="#DB1F26"/>
<path opacity="0.8" d="M75.5535 78.6498L76.2732 78.24L77.0062 78.6498V79.4862L76.2732 79.896L75.5535 79.4862V78.6498Z" fill="#F2F2F2"/>
<path opacity="0.8" d="M69.2327 87.3097L69.6892 87.0598L70.1356 87.3097V87.8228L69.6892 88.0861L69.2327 87.8228V87.3097Z" fill="#F2F2F2"/>
<path opacity="0.8" d="M89.7977 82.5616L90.3009 82.275L90.804 82.5616V83.1447L90.3009 83.4279L89.7977 83.1447V82.5616Z" fill="#F2F2F2"/>
<path d="M75.3235 32.1483L76.0432 31.7351L76.7762 32.1483V32.9813L76.0432 33.3944L75.3235 32.9813V32.1483Z" fill="#F7A238"/>
<path opacity="0.8" d="M73.4509 47.9687L74.1806 47.5588L74.9004 47.9687V48.805L74.1806 49.2148L73.4509 48.805V47.9687Z" fill="#F2F2F2"/>
<path opacity="0.8" d="M61.2191 45.0531L61.5723 44.8466L61.9388 45.0531V45.4663L61.5723 45.6696L61.2191 45.4663V45.0531Z" fill="#F2F2F2"/>
<path opacity="0.8" d="M88.3917 74.9246L89.1214 74.5248L89.8411 74.9346V75.771L89.1214 76.1708L88.3917 75.7576V74.9246Z" fill="#F2F2F2"/>
<path d="M70.9819 80.3658L72.2714 79.6328L73.5742 80.3758V81.8752L72.2714 82.5949L70.9819 81.8619V80.3658Z" fill="#F9ECC6"/>
<path opacity="0.8" d="M93.0198 38.5824L93.7395 38.1725L94.4725 38.5824V39.4187L93.7395 39.8286L93.0198 39.4187V38.5824Z" fill="#F2F2F2"/>
<path opacity="0.8" d="M94.176 43.1339L95.4089 42.4375L96.645 43.1439V44.5633L95.4089 45.2597L94.176 44.5633V43.1339Z" fill="#F2F2F2"/>
<path d="M51.0898 28.8329V27.4501L49.9103 26.787L48.7241 27.4501V28.8329L49.9103 29.506L51.0898 28.8329Z" fill="#F7A238"/>
<path d="M57.5239 29.1628V29.576L57.8805 29.7825L58.2336 29.576V29.1628L57.8805 28.9595L57.5239 29.1628Z" fill="#F7A238"/>
<path d="M66.9235 33.3944V32.9713L66.557 32.7547L66.1904 32.9713V33.3944L66.557 33.611L66.9235 33.3944Z" fill="#F26524"/>
<path d="M64.4078 21.266V22.099L65.1276 22.5121L65.8373 22.099V21.266L65.1276 20.8528L64.4078 21.266Z" fill="#F7A238"/>
<path d="M56.6809 21.6058V20.7728L55.9745 20.3596L55.2415 20.7728V21.6058L55.9745 22.019L56.6809 21.6058Z" fill="#00A5DC"/>
<path d="M56.9541 25.2444L58.2003 25.9507L59.4231 25.2444V23.8149L58.2003 23.1185L56.9541 23.8149V25.2444Z" fill="#164F86"/>
<path d="M44.5157 36.0234V35.1871L43.806 34.7872L43.0863 35.1871V36.0234L43.806 36.4332L44.5157 36.0234Z" fill="#164F86"/>
<path d="M62.5319 30.399V29.8492L62.0621 29.576L61.5723 29.8492V30.399L62.0621 30.6722L62.5319 30.399Z" fill="#164F86"/>
<path d="M53.1357 29.0495V28.4331L52.6092 28.1232L52.0728 28.4331V29.0495L52.6092 29.3594L53.1357 29.0495Z" fill="#164F86"/>
<path d="M54.8149 27.5534L55.5347 27.9633L56.2444 27.5534V26.7171L55.5347 26.3073L54.8149 26.7171V27.5534Z" fill="#00A5DC"/>
<path d="M59.5932 33.771V33.2345L59.1267 32.9579L58.6569 33.2345V33.771L59.1267 34.0442L59.5932 33.771Z" fill="#00A5DC"/>
<path d="M60.3728 18.1005V17.2642L59.6731 16.8544L58.9434 17.2642V18.1005L59.6731 18.5104L60.3728 18.1005Z" fill="#FFF34D"/>
<path d="M65.4241 20.4429V19.6066L64.7143 19.1968L63.9946 19.6066V20.4429L64.7143 20.8528L65.4241 20.4429Z" fill="#36A85D"/>
<path d="M50.6433 33.3811L51.363 33.7943L52.0727 33.3811V32.5481L51.363 32.1349L50.6433 32.5481V33.3811Z" fill="#DB1F26"/>
<path d="M66.1904 49.3414V48.5051L65.4807 48.0953L64.761 48.5051V49.3414L65.4807 49.7513L66.1904 49.3414Z" fill="#36A85D"/>
<path d="M54.5084 26.7304V25.8941L53.7987 25.4843L53.079 25.8941V26.7304L53.7987 27.1403L54.5084 26.7304Z" fill="#FFF34D"/>
<path d="M25.4833 42.5508V43.807L26.5695 44.4267L27.6657 43.807V42.5508L26.5695 41.9344L25.4833 42.5508Z" fill="#DB1F26"/>
<path d="M30.2848 47.8987V47.0657L29.5651 46.6558L28.832 47.0557V47.8887L29.5651 48.3118L30.2848 47.8987Z" fill="#00A5DC"/>
<path d="M37.1753 42.4142V41.328L36.2291 40.7915L35.2894 41.3146V42.4009L36.2291 42.9407L37.1753 42.4142Z" fill="#FFF34D"/>
<path d="M37.875 33.9542V32.5948L36.7188 31.9317L35.5426 32.5948V33.9542L36.7188 34.6173L37.875 33.9542Z" fill="#FFF34D"/>
<path d="M26.3163 45.4097V45.8528L26.7061 46.0727L27.0826 45.8528V45.4097L26.7061 45.1898L26.3163 45.4097Z" fill="#FFF34D"/>
<path d="M34.1232 46.3327V46.8491L34.5697 47.1124L35.0062 46.8491V46.3327L34.5697 46.0828L34.1232 46.3327Z" fill="#F26524"/>
<path d="M42.1734 39.7386V38.9023L41.4636 38.4924L40.7306 38.9023V39.7386L41.4636 40.1484L42.1734 39.7386Z" fill="#F7A238"/>
<path d="M32.9803 39.4854V39.0655L32.6271 38.869L32.2606 39.0655V39.4854L32.6271 39.692L32.9803 39.4854Z" fill="#164F86"/>
<path d="M46.425 43.1806V42.3442L45.7153 41.9344L44.9856 42.3442V43.1806L45.7153 43.5904L46.425 43.1806Z" fill="#0088C5"/>
<path d="M22.3845 41.7145V42.2543L22.8543 42.5175L23.3108 42.2543V41.7145L22.8543 41.4546L22.3845 41.7145Z" fill="#FFF34D"/>
<path d="M42.1367 43.054L40.7539 42.2543L39.3378 43.054V44.6866L40.7539 45.4897L42.1367 44.6866V43.054Z" fill="#FFFEF9"/>
<path d="M32.9804 45.3064V44.2435L32.0674 43.717L31.1411 44.2435V45.3064L32.0674 45.8429L32.9804 45.3064Z" fill="#164F86"/>
<path d="M39.0646 49.0449V48.2086L38.3548 47.8087L37.6351 48.2086V49.0449L38.3548 49.4547L39.0646 49.0449Z" fill="#164F86"/>
<path d="M36.7089 35.9668V35.6003L36.399 35.417L36.0791 35.6003V35.9668L36.399 36.15L36.7089 35.9668Z" fill="#DB1F26"/>
<path d="M37.6918 37.6594V38.2192L38.1816 38.4924L38.6514 38.2192V37.6594L38.1816 37.3829L37.6918 37.6594Z" fill="#36A85D"/>
<path d="M25.9165 38.2425V39.4287L26.9461 40.0118L27.9524 39.4287V38.2425L26.9461 37.6594L25.9165 38.2425Z" fill="#36A85D"/>
<path d="M30.1348 41.8744V41.4546L29.7816 41.248L29.4017 41.4546V41.8744L29.7816 42.0943L30.1348 41.8744Z" fill="#DB1F26"/>
<path d="M26.3296 75.8943V75.4145L25.9298 75.1746L25.5166 75.4145V75.8943L25.9298 76.1242L26.3296 75.8943Z" fill="#F7A238"/>
<path d="M21.9281 61.3434V62.0398L22.5345 62.3963L23.1276 62.0398V61.3434L22.5345 61.0002L21.9281 61.3434Z" fill="#F7A238"/>
<path d="M35.5793 85.6337V86.0802L35.9692 86.2968L36.3457 86.0802V85.6337L35.9692 85.4171" fill="#F7A238"/>
<path d="M42.0934 88.5859V88.9957L42.4599 89.2123L42.8131 88.9957V88.5859L42.4599 88.3793L42.0934 88.5859Z" fill="#164F86"/>
<path d="M21.105 72.2724V73.3919L22.0879 73.9417L23.0342 73.3919V72.2724L22.0879 71.7126L21.105 72.2724Z" fill="#FFF34D"/>
<path d="M24.3904 79.7927V81.0955L25.5233 81.7486L26.6428 81.0955V79.7927L25.5233 79.1429L24.3904 79.7927Z" fill="#DB1F26"/>
<path d="M22.5345 54.4961V53.8897L22.018 53.5831L21.4816 53.8897V54.4961L22.018 54.806L22.5345 54.4961Z" fill="#164F86"/>
<path d="M21.9047 66.3947V65.9748L21.5481 65.7682L21.1716 65.9748V66.3947L21.5481 66.6146L21.9047 66.3947Z" fill="#F7A238"/>
<path d="M43.2462 29.0629V28.4331L42.7198 28.1232L42.1733 28.4331V29.0629L42.7198 29.3694L43.2462 29.0629Z" fill="#F7A238"/>
<path d="M26.6028 70.3531V69.047L25.4932 68.4072L24.3604 69.047V70.3531L25.4932 71.0029L26.6028 70.3531Z" fill="#F9ECC6"/>
<path d="M37.292 71.8158V72.3623L37.7718 72.6388L38.2416 72.3623V71.8158L37.7718 71.5526L37.292 71.8158Z" fill="#F7A238"/>
<path d="M44.2058 76.2974V77.1304L44.9289 77.5402L45.6486 77.1304V76.2974L44.9289 75.8942L44.2058 76.2974Z" fill="#F7A238"/>
<path d="M29.4484 79.6095V80.1726L29.9515 80.4558L30.4313 80.1726V79.6095L29.9515 79.3262L29.4484 79.6095Z" fill="#FFF34D"/>
<path d="M39.2012 73.1187V74.4082L40.3207 75.0513L41.417 74.4082V73.1187L40.3207 72.489L39.2012 73.1187Z" fill="#164F86"/>
<path d="M32.7971 76.2741V77.1071L33.5202 77.5202L34.2266 77.1071V76.2741L33.5202 75.8609L32.7971 76.2741Z" fill="#164F86"/>
<path d="M37.7818 70.513V69.9632L37.3253 69.7L36.8555 69.9632V70.513L37.3253 70.7729L37.7818 70.513Z" fill="#164F86"/>
<path d="M51.9228 78.0334V77.2104L51.2165 76.7972L50.4934 77.2104V78.0334L51.2165 78.4433L51.9228 78.0334Z" fill="#164F86"/>
<path d="M32.9804 70.4197V69.9399L32.5805 69.7L32.1573 69.9399V70.4197L32.5805 70.6496L32.9804 70.4197Z" fill="#FFF34D"/>
<path d="M39.6477 83.178V83.7845L40.1708 84.091L40.6973 83.7845V83.178L40.1708 82.8682L39.6477 83.178Z" fill="#FFF34D"/>
<path d="M62.292 37.4162L61.0592 36.7098L59.7897 37.4162V38.8822L61.0592 39.602L62.292 38.8822V37.4162Z" fill="#F7A238"/>
<path d="M62.5553 41.8411L63.2883 42.2543L63.9947 41.8411V41.0081L63.2883 40.5949L62.5553 41.0081V41.8411Z" fill="#F7A238"/>
<path d="M50.5067 42.0477L50.8732 42.2543L51.2264 42.0477V41.6345L50.8732 41.4313L50.5067 41.6345V42.0477Z" fill="#F26524"/>
<path d="M61.9255 48.4018L60.556 47.6155L59.1499 48.4018V50.0279L60.556 50.8142L61.9255 50.0279V48.4018Z" fill="#164F86"/>
<path d="M56.3144 50.4277V49.5914L55.6047 49.1815L54.885 49.5914V50.4277L55.6047 50.8375L56.3144 50.4277Z" fill="#F7A238"/>
<path d="M58.2336 43.1806L57.5239 42.7674L56.8042 43.1806V44.0136L57.5239 44.4267L58.2336 44.0136V43.1806Z" fill="#00A5DC"/>
<path d="M68.6129 44.0469L67.9065 43.647L67.1735 44.0469V44.8932L67.9065 45.3064L68.6129 44.8932V44.0469Z" fill="#36A85D"/>
<path d="M49.3271 48.1186V48.4485L49.6137 48.6084L49.8903 48.4485V48.1186L49.6137 47.9587L49.3271 48.1186Z" fill="#DB1F26"/>
<path d="M45.2355 46.9158V45.7862L44.2659 45.2264L43.283 45.7862V46.9158L44.2659 47.4789L45.2355 46.9158Z" fill="#F9ECC6"/>
<path d="M47.8544 75.4711V75.8942L48.2076 76.1008L48.5641 75.8942V75.4711L48.2076 75.2678L47.8544 75.4711Z" fill="#DB1F26"/>
<path d="M58.6101 75.0513V75.5544L59.0566 75.8043L59.4798 75.5544V75.0513L59.0566 74.798L58.6101 75.0513Z" fill="#F7A238"/>
<path d="M68.053 80.7523V79.6794L67.15 79.153L66.2137 79.6794V80.7523L67.15 81.2788L68.053 80.7523Z" fill="#F7A238"/>
<path d="M59.7897 69.6101V69.0603L59.3299 68.7971L58.8634 69.0603V69.6101L59.3299 69.87L59.7897 69.6101Z" fill="#164F86"/>
<path d="M43.4529 82.3317V84.0477L44.939 84.904L46.4017 84.0477V82.3317L44.939 81.4954L43.4529 82.3317Z" fill="#EF4782"/>
<path d="M64.6244 75.7143V74.2849L63.4016 73.5752L62.1554 74.2849V75.7143L63.4016 76.4207L64.6244 75.7143Z" fill="#DB1F26"/>
<path d="M53.742 74.2382V73.4052L53.0323 72.9921L52.3026 73.4052V74.2382L53.0323 74.6481L53.742 74.2382Z" fill="#FFF34D"/>
<path d="M57.344 72.7522V71.9192L56.6343 71.506L55.9146 71.9192V72.7522L56.6343 73.162L57.344 72.7522Z" fill="#0088C5"/>
<path d="M59.7531 78.5699V79.4062L60.4761 79.816L61.1825 79.4062V78.5699L60.4761 78.16L59.7531 78.5699Z" fill="#164F86"/>
<path d="M88.335 50.4144V51.2507L89.0547 51.6605L89.7611 51.2507V50.4144L89.0547 50.0145L88.335 50.4144Z" fill="#F7A238"/>
<path d="M68.8094 47.8321V48.6651L69.5292 49.0782L70.2389 48.6651V47.8321L69.5292 47.4189L68.8094 47.8321Z" fill="#F7A238"/>
<path d="M79.8517 49.9679V50.8042L80.5814 51.2141L81.2911 50.8042V49.9679L80.5814 49.558L79.8517 49.9679Z" fill="#164F86"/>
<path d="M83.5902 46.1627V47.7621L84.983 48.5618L86.3458 47.7621V46.1627L84.983 45.363L83.5902 46.1627Z" fill="#FFF34D"/>
<path d="M89.4313 48.2652V48.665L89.7845 48.8716L90.1277 48.665V48.2652L89.7845 48.062L89.4313 48.2652Z" fill="#36A85D"/>
<path d="M71.6217 29.9292V29.0962L70.902 28.683L70.179 29.0962V29.9292L70.902 30.3423L71.6217 29.9292Z" fill="#F7A238"/>
<path d="M65.8939 40.3784L66.9335 40.9714L67.9631 40.3784V39.1788L66.9335 38.5824L65.8939 39.1788V40.3784Z" fill="#164F86"/>
<path d="M69.7691 25.9174V24.1814L68.293 23.3351L66.7836 24.1814V25.9174L68.293 26.787L69.7691 25.9174Z" fill="#7FB036"/>
<path d="M78.3523 42.7441V41.0314L76.9028 40.1951L75.4034 41.0314V42.7441L76.9028 43.5904L78.3523 42.7441Z" fill="#DB1F26"/>
<path d="M91.2372 36.6965V37.1097L91.5904 37.3029L91.9469 37.1097V36.6965L91.5904 36.5032L91.2372 36.6965Z" fill="#F7A238"/>
<path d="M81.9775 33.6111V31.975L80.5947 31.1754L79.1753 31.975V33.6111L80.5947 34.4107L81.9775 33.6111Z" fill="#164F86"/>
<path d="M84.9031 36.893V36.0567L84.1967 35.6569L83.4736 36.0567V36.893L84.1967 37.3029L84.9031 36.893Z" fill="#F7A238"/>
<path d="M83.6569 40.6749V40.0818L83.1437 39.7852L82.6306 40.0818V40.6749L83.1437 40.9714L83.6569 40.6749Z" fill="#164F86"/>
<path d="M86.8124 33.3811V32.9813L86.4692 32.778L86.116 32.9813V33.3811L86.4692 33.5877L86.8124 33.3811Z" fill="#164F86"/>
<path d="M73.6542 36.2867V35.4503L72.9478 35.0505L72.2147 35.4503V36.2867L72.9478 36.7098L73.6542 36.2867Z" fill="#00A5DC"/>
<path d="M79.5885 38.4358V39.2688L80.3215 39.6819L81.0279 39.2688V38.4358L80.3215 38.0226L79.5885 38.4358Z" fill="#36A85D"/>
<path d="M73.4043 45.2364V45.5329L73.6542 45.6696L73.9074 45.5329V45.2364L73.6542 45.0898L73.4043 45.2364Z" fill="#36A85D"/>
<path d="M85.3496 70.8662V71.6992L86.0693 72.1124L86.779 71.6992V70.8662L86.0693 70.4531L85.3496 70.8662Z" fill="#F7A238"/>
<path d="M79.1987 71.5526V70.7163L78.4923 70.3065L77.7593 70.7163V71.5526L78.4923 71.9625L79.1987 71.5526Z" fill="#FFF34D"/>
<path d="M78.3523 73.6785V75.0146L79.5185 75.6777L80.6614 75.0146V73.6785L79.5185 73.0154L78.3523 73.6785Z" fill="#164F86"/>
<path d="M83.3503 71.436V70.603L82.6406 70.1898L81.9209 70.603V71.436L82.6406 71.8492L83.3503 71.436Z" fill="#164F86"/>
<path d="M68.7727 76.0542V75.4511L68.2596 75.1512L67.7332 75.4511V76.0542L68.2596 76.3541L68.7727 76.0542Z" fill="#36A85D"/>
<path d="M70.5854 94.8667V94.2603L70.0722 93.9637L69.5458 94.2603V94.8667L70.0722 95.1633L70.5854 94.8667Z" fill="#36A85D"/>
<path d="M54.5417 70.4431L54.8849 70.6497L55.2381 70.4431V70.0432L54.8849 69.85L54.5417 70.0432V70.4431Z" fill="#36A85D"/>
<path d="M57.504 82.515V80.6524L55.9246 79.7494L54.3119 80.6524V82.515L55.9246 83.4279L57.504 82.515Z" fill="#36A85D"/>
<path d="M51.2164 85.1306V85.9669L51.9361 86.3768L52.6425 85.9669V85.1306L51.9361 84.7208L51.2164 85.1306Z" fill="#F7A238"/>
<path d="M35.5759 76.9239V77.4736L36.0557 77.7469L36.5256 77.4736V76.9239L36.0557 76.6506L35.5759 76.9239Z" fill="#F7A238"/>
<path d="M59.3198 94.9733V95.8097L60.0395 96.2195L60.7493 95.8097V94.9733L60.0395 94.5635L59.3198 94.9733Z" fill="#F7A238"/>
<path opacity="0.8" d="M61.0126 99.7781V100.701L61.8089 101.154L62.5886 100.701V99.7781L61.8089 99.325L61.0126 99.7781Z" fill="#F2F2F2"/>
<path d="M62.7686 87.6129V88.4459L63.4883 88.8591L64.198 88.4459V87.6129L63.4883 87.2131L62.7686 87.6129Z" fill="#164F86"/>
<path d="M50.4934 93.1574V93.6938L50.9632 93.9671L51.433 93.6938V93.1574L50.9632 92.8842L50.4934 93.1574Z" fill="#164F86"/>
<path d="M55.2782 99.3283V100.015L55.8746 100.348L56.4444 100.015V99.3283L55.8746 98.9984L55.2782 99.3283Z" fill="#164F86"/>
<path d="M51.1132 88.4026V87.9661L50.7466 87.7629L50.3801 87.9661V88.4026L50.7466 88.6059L51.1132 88.4026Z" fill="#FFF34D"/>
<path d="M39.8976 79.1863V80.0226L40.6173 80.4458L41.327 80.0226V79.1863L40.6173 78.7864L39.8976 79.1863Z" fill="#164F86"/>
<path d="M56.9874 87.1565V87.9895L57.7071 88.4026L58.4169 87.9895V87.1565L57.7071 86.7433L56.9874 87.1565Z" fill="#F7A238"/>
<path d="M84.0135 76.0675V75.5744L83.5903 75.3245L83.1538 75.5744V76.0675L83.5903 76.3174L84.0135 76.0675Z" fill="#F7A238"/>
<path d="M64.4146 91.9812V93.5573L65.784 94.3336L67.1335 93.5573V91.9812L65.784 91.2015L64.4146 91.9812Z" fill="#F7A238"/>
<path d="M83.8401 83.3046V84.7207L85.0763 85.4171L86.2758 84.7207V83.3046L85.0763 82.5949L83.8401 83.3046Z" fill="#F7A238"/>
<path d="M90.4775 79.1996V79.7261L90.934 79.9893L91.3805 79.7261V79.1996L90.934 78.9364L90.4775 79.1996Z" fill="#164F86"/>
<path d="M79.062 84.4342V84.9506L79.5085 85.2005L79.9417 84.9506V84.4342L79.5085 84.1843L79.062 84.4342Z" fill="#DB1F26"/>
<path d="M72.3813 90.3719V91.0483L72.9644 91.3781L73.5342 91.0483V90.3719L72.9644 90.042L72.3813 90.3719Z" fill="#DB1F26"/>
<path d="M78.0525 89.7287V90.2219L78.4757 90.4618L78.8955 90.2219V89.7287L78.4757 89.4888L78.0525 89.7287Z" fill="#164F86"/>
<path d="M79.5085 80.629V81.4621L80.2283 81.8752L80.938 81.4621V80.629L80.2283 80.2159L79.5085 80.629Z" fill="#164F86"/>
<path d="M85.063 79.2229V78.3866L84.3566 77.9767L83.6235 78.3866V79.2229L84.3566 79.6328L85.063 79.2229Z" fill="#36A85D"/>
<path d="M67.1268 85.2105V84.8007L66.7736 84.5941L66.4071 84.8007V85.2105L66.7736 85.4171L67.1268 85.2105Z" fill="#FFF34D"/>
<path d="M73.1978 85.0973V86.1368L74.1007 86.6533L74.9804 86.1368V85.0973L74.1007 84.5941L73.1978 85.0973Z" fill="#36A85D"/>
<path d="M93.2964 69.0036V69.87L94.0594 70.3065L94.8025 69.87V69.0036L94.0594 68.5671L93.2964 69.0036Z" fill="#EF4782"/>
<path d="M96.8849 64.4654V63.869L96.3818 63.5724L95.8553 63.869V64.4654L96.3818 64.762L96.8849 64.4654Z" fill="#36A85D"/>
<path d="M89.1581 39.9685V40.425L89.5579 40.6516L89.9444 40.425V39.9685L89.5579 39.7486L89.1581 39.9685Z" fill="#F7A238"/>
<path d="M89.0414 36.7331V35.8968L88.335 35.4869L87.6119 35.8968V36.7331L88.335 37.1429L89.0414 36.7331Z" fill="#36A85D"/>
<path d="M95.8887 49.2381V48.825L95.5355 48.6317L95.1923 48.825V49.2381L95.5355 49.4314L95.8887 49.2381Z" fill="#F7A238"/>
<path d="M90.8707 43.9103V44.7466L91.6038 45.1564L92.3135 44.7466V43.9103L91.6038 43.5104L90.8707 43.9103Z" fill="#36A85D"/>
<path opacity="0.8" d="M95.902 76.1142L96.4151 75.8143L96.9316 76.1142V76.7073L96.4151 77.0038L95.902 76.7073V76.1142Z" fill="#F2F2F2"/>
<path d="M95.8553 55.9722L96.3718 55.6856L96.8849 55.9822V56.5753L96.3718 56.8618L95.8553 56.5653V55.9722Z" fill="#B57AB4"/>
<path d="M101 83.7478V35.247L97.6513 33.3145L65.8939 14.9784L59 11L52.1061 14.9784L20.3487 33.3145L17 35.247V83.7511L20.3487 85.6837L52.5059 104.25L59.01 107.998L65.5141 104.25L97.6713 85.6837L101 83.7478ZM20.3487 81.9319V37.3029L59 14.9784L97.6513 37.2929V81.9219L59 104.246L20.3487 81.9319Z" fill="#404040"/>
</svg>
