<svg width="119" height="118" viewBox="0 0 119 118" fill="none" xmlns="http://www.w3.org/2000/svg">
<mask id="mask0_17_394" style="mask-type:luminance" maskUnits="userSpaceOnUse" x="18" y="11" width="84" height="97">
<path d="M101.61 83.2487V35.0851L59.8052 11L18 35.0851V83.2487L59.8052 107.334L101.61 83.2487Z" fill="white"/>
</mask>
<g mask="url(#mask0_17_394)">
<path d="M111.544 8.95477H12.2889V107.992H111.544V8.95477Z" fill="black"/>
<path d="M113.089 39.0521L9.005 99.015L11.9219 104.056L116.005 44.0931L113.089 39.0521Z" fill="#4D4D4D"/>
<path d="M113.959 35.8044L9.87573 95.7673L10.6137 97.0426L114.697 37.0797L113.959 35.8044Z" fill="#4D4D4D"/>
<path d="M120.319 49.5061L16.2357 109.469L16.6055 110.108L120.689 50.1451L120.319 49.5061Z" fill="#4D4D4D"/>
<path d="M117.461 43.6461L13.3771 103.609L13.8331 104.397L117.917 44.4342L117.461 43.6461Z" fill="#4D4D4D"/>
<path d="M120.907 50.5166L16.8234 110.48L20.5545 116.928L124.638 56.9648L120.907 50.5166Z" fill="#4D4D4D"/>
<path d="M114.897 46.7495L10.8134 106.712L11.5513 107.988L115.635 48.0248L114.897 46.7495Z" fill="#4D4D4D"/>
<path d="M112.555 24.0196L8.47192 83.9825L8.92795 84.7707L113.012 24.8077L112.555 24.0196Z" fill="#4D4D4D"/>
<path d="M113.48 62.866L32.7184 109.393L33.1744 110.181L113.936 63.6541L113.48 62.866Z" fill="#4D4D4D"/>
<path d="M122.525 62.8669L41.7628 109.394L42.8805 111.326L123.642 64.7985L122.525 62.8669Z" fill="#4D4D4D"/>
<path d="M114.39 17.1134L1.87122 81.9361L3.71688 85.1258L116.236 20.3031L114.39 17.1134Z" fill="#4D4D4D"/>
<path d="M113.255 12.0624L5.73877 74.0027L6.35233 75.0631L113.868 13.1228L113.255 12.0624Z" fill="#4D4D4D"/>
<path d="M107.57 4.59979L0.0541992 66.54L1.33273 68.7496L108.849 6.80936L107.57 4.59979Z" fill="#4D4D4D"/>
<path d="M104.759 1.33398L-2.7572 63.2742L-2.14364 64.3346L105.372 2.39434L104.759 1.33398Z" fill="#4D4D4D"/>
<path d="M110.788 -3.56129L3.27271 58.379L3.57949 58.9092L111.095 -3.0311L110.788 -3.56129Z" fill="#4D4D4D"/>
<path opacity="0.6" d="M90.2732 59.4283L10.6 105.328L11.2135 106.389L90.8868 60.4887L90.2732 59.4283Z" fill="#C1272D"/>
<path opacity="0.6" d="M108.395 65.7942L28.7219 111.694L29.1481 112.431L108.821 66.5307L108.395 65.7942Z" fill="#93278F"/>
<path opacity="0.75" d="M112.256 65.7379L32.5828 111.638L33.0089 112.374L112.682 66.4744L112.256 65.7379Z" fill="#F7931E"/>
<path opacity="0.5" d="M88.5386 21.0153L8.86536 66.9154L9.47892 67.9758L89.1522 22.0757L88.5386 21.0153Z" fill="#00FFFF"/>
<path opacity="0.8" d="M29.5414 48.1832L28.2678 45.8369L29.6641 43.5634L32.3339 43.6362L33.6108 45.9792L32.2145 48.2527L29.5414 48.1832Z" fill="#93278F"/>
<path d="M24.567 53.379L23.9236 52.1942L24.63 51.0459L25.9799 51.0823L26.6233 52.267L25.9168 53.4154L24.567 53.379Z" fill="#9000F4"/>
<path opacity="0.6" d="M28.1752 50.0365L27.3328 48.4844L28.2548 46.982L30.0258 47.0283L30.8682 48.5804L29.9429 50.0828L28.1752 50.0365Z" fill="#00FFFF"/>
<path opacity="0.7" d="M36.493 53.2797L35.906 52.1976L36.5494 51.1485L37.7832 51.1816L38.3735 52.2637L37.7268 53.3128L36.493 53.2797Z" fill="#00A99D"/>
<path opacity="0.6" d="M81.31 43.4939L80.0331 41.1509L81.4327 38.8774L84.1025 38.9469L85.3761 41.2899L83.9798 43.5634L81.31 43.4939Z" fill="#F15A24"/>
<path opacity="0.7" d="M83.1341 35.6377L82.494 34.4563L83.1971 33.308L84.5437 33.3444L85.1837 34.5258L84.4806 35.6708L83.1341 35.6377Z" fill="#FBB03B"/>
<path opacity="0.6" d="M27.0376 69.2471L25.9133 67.1821L27.1438 65.1766L29.4985 65.2395L30.6228 67.3045L29.3924 69.31L27.0376 69.2471Z" fill="#ED1E79"/>
<path opacity="0.8" d="M26.0094 72.8376L25.366 71.6562L26.0724 70.5079L27.4222 70.5443L28.0656 71.7257L27.3592 72.874L26.0094 72.8376Z" fill="#F7931E"/>
<path opacity="0.7" d="M27.7044 75.2236L26.4275 72.8806L27.8238 70.6071L30.4969 70.6766L31.7705 73.0196L30.3742 75.2931L27.7044 75.2236Z" fill="#93278F"/>
<path opacity="0.7" d="M79.8573 62.1287L78.8225 60.2291L79.9568 58.3859L82.1192 58.4454L83.1539 60.345L82.023 62.1849L79.8573 62.1287Z" fill="#22B573"/>
<path opacity="0.6" d="M54.1403 89.811L52.6213 87.0146L54.2862 84.301L57.4768 84.3837L58.9991 87.1834L57.3309 89.8937L54.1403 89.811Z" fill="#00FFFF"/>
<path opacity="0.7" d="M63.4235 95.192L62.6475 93.769L63.4965 92.3857L65.1216 92.4287L65.8977 93.855L65.0487 95.235L63.4235 95.192Z" fill="#22B573"/>
<path opacity="0.7" d="M67.7583 98.2466L67.1182 97.0651L67.8213 95.9168L69.1678 95.9532L69.8112 97.1346L69.1048 98.2796L67.7583 98.2466Z" fill="#FBB03B"/>
<path opacity="0.6" d="M55.4405 99.9343L53.686 96.711L55.6096 93.5837L59.2844 93.6797L61.0355 96.903L59.1152 100.03L55.4405 99.9343Z" fill="#29ABE2"/>
<path opacity="0.6" d="M52.7939 97.0519L51.9515 95.4998L52.8735 93.9941L54.6446 94.0404L55.487 95.5925L54.5617 97.0982L52.7939 97.0519Z" fill="#00FFFF"/>
<path opacity="0.7" d="M75.4425 60.9175L74.8522 59.8354L75.4989 58.783L76.7327 58.8161L77.3197 59.8983L76.6763 60.9473L75.4425 60.9175Z" fill="#00A99D"/>
<path opacity="0.7" d="M34.4306 89.5894L33.5815 88.0274L34.5135 86.515L36.2912 86.5613L37.1402 88.12L36.2083 89.6357L34.4306 89.5894Z" fill="#FF00FF"/>
<path opacity="0.6" d="M91.3524 61.3179L89.7472 58.3594L91.5083 55.4935L94.8779 55.5829L96.4831 58.5381L94.722 61.4039L91.3524 61.3179Z" fill="#ED1E79"/>
<path opacity="0.8" d="M94.1581 54.8018L93.256 53.1372L94.2476 51.5256L96.1414 51.5752L97.0468 53.2398L96.0552 54.8514L94.1581 54.8018Z" fill="#F7931E"/>
<path d="M117.739 28.1321C116.936 28.5855 116.127 29.0323 115.331 29.4956C113.451 30.5876 111.577 31.6863 109.703 32.7883C108.041 33.7613 106.376 34.7342 104.715 35.7071C103.04 36.6867 101.368 37.6662 99.6936 38.6491C98.032 39.622 96.3671 40.595 94.7055 41.5679C93.0306 42.5475 91.3591 43.5303 89.6875 44.5132C88.069 45.4597 86.4539 46.4094 84.8354 47.3559C83.0842 48.3818 81.3298 49.4077 79.5786 50.4368L74.627 53.3391C72.9555 54.3187 71.2806 55.3015 69.609 56.2811C67.9574 57.2474 66.3057 58.217 64.6541 59.1833C62.9593 60.1761 61.2613 61.1722 59.5665 62.1683C57.9049 63.1446 56.2433 64.1175 54.5817 65.0905C52.9301 66.0601 51.2817 67.0297 49.6334 67.9993C47.9618 68.9822 46.2903 69.9684 44.6221 70.9579C44.4894 71.0373 44.3667 71.1332 44.2373 71.2226L42.7814 68.681C44.6652 67.5956 46.549 66.5135 48.4262 65.4214C50.0811 64.4584 51.7261 63.4854 53.3745 62.5158C55.0593 61.5263 56.7408 60.5402 58.4256 59.5507C60.0872 58.5744 61.7455 57.5982 63.4071 56.6219C65.0786 55.6391 66.7502 54.6562 68.4217 53.6734C70.0501 52.717 71.6753 51.7606 73.3037 50.8042C75.0217 49.7948 76.7363 48.7888 78.4543 47.7795C80.1026 46.8099 81.7543 45.8435 83.4026 44.8739C85.051 43.9043 86.7026 42.938 88.3509 41.9683C90.059 40.9689 91.7637 39.9662 93.4717 38.9668C95.1333 37.9939 96.7949 37.0176 98.4565 36.0447C100.108 35.0784 101.76 34.1121 103.411 33.1457C105.096 32.1596 106.781 31.1734 108.469 30.1872C110.154 29.201 111.842 28.2149 113.527 27.2287C114.887 26.4312 116.243 25.6336 117.603 24.8361C117.649 24.8129 117.696 24.7897 117.742 24.7732V28.1321H117.739Z" fill="#FF029E"/>
<path d="M117.739 9.87155C116.499 10.5897 115.258 11.3045 114.018 12.0226C112.217 13.0683 110.416 14.1174 108.619 15.1697C106.977 16.1261 105.335 17.0858 103.693 18.0455C102.009 19.0317 100.32 20.0146 98.6357 21.0007C97.0271 21.9406 95.4219 22.8804 93.8134 23.8203C92.0589 24.8428 90.3045 25.8654 88.55 26.888C86.8851 27.8576 85.2202 28.8305 83.5586 29.8035C81.8506 30.7996 80.1425 31.799 78.4312 32.7984C76.8028 33.7515 75.171 34.7013 73.5426 35.6543C71.9705 36.5743 70.3952 37.4943 68.8231 38.4143C68.7004 38.4871 68.5677 38.5434 68.4417 38.6062C68.3455 38.507 68.2361 38.4176 68.1598 38.3051C68.057 38.1562 67.9774 37.994 67.8912 37.8352C67.6092 37.3123 67.324 36.7927 67.0421 36.2699C68.1399 35.6179 69.231 34.9594 70.3321 34.3174C72.7168 32.9242 75.1014 31.5376 77.4893 30.1543C79.121 29.2045 80.7495 28.2514 82.3812 27.2983C84.1025 26.2956 85.8205 25.2896 87.5418 24.2869C89.2299 23.3007 90.9147 22.3178 92.6028 21.3317C94.2678 20.3587 95.9294 19.3891 97.5943 18.4162C99.236 17.4565 100.878 16.5001 102.519 15.5404L107.713 12.4991C109.411 11.5097 111.109 10.5169 112.807 9.52738C114.369 8.61401 115.932 7.70064 117.494 6.78727C117.57 6.74094 117.656 6.70785 117.736 6.67145V9.87155H117.739Z" fill="#03FFBF"/>
<path d="M82.2286 72.1858C83.0147 71.7291 83.8007 71.2691 84.59 70.8124C85.9996 70.0017 87.4124 69.1942 88.822 68.3768C90.5101 67.3972 92.1982 66.4177 93.883 65.4315C95.5579 64.4553 97.2361 63.479 98.9109 62.5028L104.038 59.5178L109.033 56.6089C110.721 55.626 112.406 54.6432 114.094 53.6603C115.308 52.9521 116.522 52.2472 117.736 51.5424V55.444C115.703 56.6354 113.67 57.8267 111.637 59.0148C109.829 60.0737 108.018 61.1294 106.211 62.1884C104.582 63.1415 102.954 64.0946 101.325 65.0476C99.6174 66.047 97.9127 67.0465 96.2046 68.0459C94.5662 69.0056 92.9245 69.9653 91.2862 70.925C89.5781 71.9244 87.8734 72.9238 86.1654 73.9265L83.9798 75.2072C83.9433 75.1741 83.8936 75.1476 83.867 75.1046C83.3198 74.1383 82.7726 73.162 82.2286 72.1858Z" fill="#53D602"/>
<path d="M66.1133 42.1437C66.1598 42.6765 66.0304 43.1762 65.8314 43.6627C65.4069 44.6919 64.8066 45.6152 64.1466 46.5087C63.2147 47.7662 62.2097 48.9609 61.112 50.0728C60.0241 51.1715 58.9297 52.2702 57.7954 53.3225C56.7374 54.3054 55.6529 55.2585 54.5352 56.1785C53.2816 57.2143 52.008 58.2302 50.7013 59.1966C49.3116 60.2258 47.8689 61.1854 46.4494 62.1749C46.204 62.347 45.9553 62.5092 45.7132 62.6846C45.5573 62.7971 45.4744 62.7607 45.3848 62.5985C44.8044 61.566 44.2174 60.5401 43.6337 59.5142C43.113 58.6009 42.5923 57.6842 42.0716 56.7708C41.5509 55.8575 41.0302 54.9408 40.5062 54.0274C40.4763 53.9712 40.4597 53.9083 40.4365 53.8487C40.7052 53.6932 40.9738 53.5343 41.2424 53.3788C42.9372 52.3893 44.632 51.3998 46.3267 50.4104C47.9651 49.454 49.6035 48.4943 51.2419 47.5379C52.9366 46.5484 54.6314 45.5589 56.3295 44.5694C58.001 43.5932 59.6759 42.6169 61.3474 41.6407C62.4386 41.0053 63.5331 40.3832 64.6275 39.7544C65.0122 40.4196 65.3936 41.0914 65.785 41.7532C65.8745 41.8889 66.0039 42.0113 66.1133 42.1437Z" fill="#01EB01"/>
<path d="M76.5836 89.6951C75.31 90.8269 74.0332 91.9586 72.7596 93.0904C72.5075 93.3155 72.2555 93.5438 72.0067 93.7688C71.7679 93.9839 71.7613 93.9872 71.5524 93.7556C71.0018 93.1467 70.4546 92.5378 69.9107 91.9222C69.0616 90.9725 68.2159 90.0194 67.3669 89.0663C66.4581 88.047 65.5494 87.0278 64.6407 86.0085C63.785 85.0455 62.9293 84.0858 62.0703 83.1228C60.296 81.1306 58.5249 79.1417 56.7506 77.1495C56.2232 76.5571 55.6926 75.9681 55.1652 75.3757C55.0989 75.3029 55.0425 75.2202 54.9563 75.1143C55.0956 75.0646 55.2017 75.0183 55.3079 74.9852C56.1304 74.7403 56.9562 74.5054 57.7787 74.2539C60.5547 73.4034 63.3273 72.5496 66.0999 71.6925C66.1729 71.6693 66.2459 71.6395 66.3188 71.613C66.876 72.5827 67.4332 73.5523 67.9871 74.5219C69.055 76.3983 70.1196 78.2747 71.1842 80.151C72.3284 82.1631 73.4693 84.1752 74.6136 86.1905C75.2736 87.3587 75.9269 88.5269 76.5836 89.6951Z" fill="#EDFF01"/>
<path d="M76.584 89.6951C75.9273 88.5269 75.2739 87.3587 74.6139 86.1939C73.473 84.1785 72.3288 82.1664 71.1846 80.1544C70.12 78.278 69.0521 76.4016 67.9874 74.5252C67.4336 73.5556 66.8764 72.5827 66.3192 71.6164C66.2628 71.5138 66.2064 71.4145 66.1567 71.3086C66.0008 70.9942 66.0307 70.9082 66.369 70.8023C66.8897 70.6401 67.417 70.4879 67.941 70.3324C69.3506 69.9121 70.7601 69.4984 72.1663 69.0616C72.4482 68.9755 72.6505 69.0186 72.8761 69.2039C74.3453 70.4085 75.8278 71.5965 77.3003 72.8011C77.496 72.9599 77.6718 73.0129 77.9338 72.9566C79.2306 72.6687 80.534 72.4106 81.8341 72.1392C81.9767 72.1095 82.1127 72.0565 82.2321 72.1889C82.7793 73.1651 83.3265 74.1381 83.8738 75.1143C83.897 75.1573 83.9467 75.1838 83.9865 75.2169C84.0031 75.2798 84.0064 75.3493 84.0396 75.4022C84.1325 75.5544 84.0794 75.6504 83.9666 75.7729C82.9584 76.8749 81.9634 77.9901 80.9552 79.0921C80.7993 79.2642 80.7529 79.4098 80.806 79.6447C81.194 81.3921 81.5588 83.146 81.9469 84.8933C81.9999 85.1283 81.9535 85.2805 81.781 85.4393C80.6799 86.4685 79.5855 87.5043 78.4943 88.5435C78.0698 88.9472 77.6552 89.3542 77.2307 89.758C76.8725 90.0823 76.8659 90.079 76.584 89.6951Z" fill="#01B644"/>
<path d="M38.9642 51.2575C38.7884 50.9564 38.606 50.6585 38.4335 50.3574C37.3955 48.5538 36.3607 46.7502 35.3259 44.9467C34.9511 44.2914 34.9445 44.2782 35.6111 43.9506C36.9179 43.3053 38.2345 42.6765 39.5446 42.0411C42.0552 40.8233 44.672 39.8669 47.2921 38.9138C50.1974 37.8581 53.1657 37.0308 56.2037 36.4517C57.663 36.1737 59.1355 35.9718 60.628 36.0182C60.9795 36.0314 61.3311 36.0645 61.6793 36.1141C62.1337 36.1737 62.5682 36.3359 62.9496 36.5841L63.1552 37.1235C62.1503 37.7225 61.1454 38.3248 60.1371 38.9171C58.4191 39.9231 56.7012 40.9259 54.9799 41.9253C53.3183 42.8949 51.6567 43.8678 49.9918 44.8375C48.3069 45.8203 46.6221 46.8065 44.9373 47.7861C43.4979 48.6233 42.0519 49.4506 40.6092 50.2846C40.0587 50.6122 39.5147 50.9365 38.9642 51.2575Z" fill="#9FFF01"/>
<path d="M42.7778 68.6778L44.2338 71.2193C44.3167 71.3815 44.393 71.547 44.4826 71.7025C45.4377 73.3671 46.3929 75.035 47.3514 76.6995C48.4923 78.6917 49.6332 80.6839 50.7741 82.6794C51.1024 83.2553 51.0991 83.2553 50.5817 83.6623C50.0179 84.1024 49.4574 84.5459 48.8936 84.9827C48.7841 85.0688 48.6548 85.1349 48.5354 85.2078C48.4956 85.1581 48.4458 85.1118 48.416 85.0588C47.4807 83.4307 46.5455 81.8025 45.6102 80.1743C44.8242 78.8043 44.0448 77.4309 43.2621 76.0542C43.199 75.9285 43.1393 75.7961 43.0697 75.6737C42.2903 74.3135 41.501 72.9534 40.7249 71.59C39.9986 70.3159 39.2888 69.0352 38.5658 67.7611C37.6405 66.1362 36.7118 64.518 35.7799 62.8997C35.5743 62.5423 35.362 62.1882 35.1497 61.8308C34.9673 61.5198 34.7816 61.2087 34.5992 60.9009C34.5196 60.7388 34.45 60.5733 34.3637 60.4144C33.8928 59.5673 33.4185 58.7201 32.9409 57.8729C33.0238 57.8166 33.0968 57.7405 33.1863 57.7008C33.9591 57.36 34.7352 57.0257 35.5113 56.6948C35.8197 56.5624 35.8296 56.5624 35.9988 56.8569C37.07 58.7267 38.1413 60.5965 39.2092 62.4695C40.234 64.2599 41.2622 66.0502 42.2936 67.8405C42.4528 68.1218 42.6153 68.3998 42.7778 68.6778Z" fill="#FE5201"/>
<path d="M35.1465 61.8342C35.3554 62.1916 35.571 62.5457 35.7766 62.9031C36.7086 64.5213 37.6372 66.1429 38.5625 67.7644C39.2889 69.0385 39.9986 70.3192 40.7216 71.5933C41.4977 72.9567 42.2837 74.3169 43.0664 75.677C43.1361 75.7994 43.1958 75.9318 43.2621 76.0576C43.1925 76.0873 43.1162 76.1072 43.0532 76.1502C42.4893 76.5374 41.9288 76.9312 41.3617 77.3151C40.7515 77.7288 40.1379 78.1358 39.5243 78.5462C39.2723 78.1226 39.0136 77.7023 38.7715 77.2754C38.2574 76.3719 37.7533 75.4619 37.2425 74.5551C36.1016 72.5265 34.9607 70.5012 33.8165 68.4726C32.9244 66.8875 32.0355 65.299 31.1467 63.7105C31.097 63.6212 31.0572 63.5252 31.014 63.4293C32.271 62.9792 33.528 62.5291 34.7883 62.0791C34.9243 62.0294 35.1133 62.036 35.1465 61.8342Z" fill="#F8AE01"/>
<path d="M39.5244 78.5429C40.138 78.1326 40.7515 77.7255 41.3618 77.3119C41.9289 76.928 42.4861 76.5342 43.0532 76.147C43.1129 76.104 43.1925 76.0841 43.2622 76.0543C44.0449 77.4277 44.8276 78.801 45.6103 80.1744C46.5423 81.8059 47.4775 83.4341 48.4161 85.0589C48.4493 85.1152 48.4957 85.1582 48.5355 85.2079C47.7163 86.2503 46.8938 87.2894 46.0746 88.3318C45.8823 88.5767 45.6932 88.8216 45.4843 89.0963C45.4146 89.0102 45.3516 88.954 45.3118 88.8812C44.2439 86.9916 43.1793 85.0986 42.118 83.2057C41.2789 81.7099 40.4398 80.2141 39.604 78.715C39.5675 78.6654 39.5509 78.6025 39.5244 78.5429Z" fill="#F4D102"/>
<path d="M38.9639 51.2577C39.5111 50.9367 40.0583 50.6124 40.6089 50.2914C42.0516 49.4575 43.4943 48.6268 44.937 47.7929C46.6251 46.8133 48.3099 45.8305 49.9914 44.8443C51.653 43.8747 53.3179 42.9017 54.9795 41.9321C56.6975 40.9294 58.4188 39.9267 60.1368 38.924C61.145 38.3316 62.1499 37.7293 63.1549 37.1303C63.4368 37.6201 63.7187 38.1099 64.0006 38.5996C63.7784 38.732 63.5595 38.871 63.334 39.0001C61.6491 39.9829 59.9643 40.9691 58.2795 41.952C56.5814 42.9414 54.8867 43.9342 53.1886 44.9237C51.5502 45.8834 49.9085 46.8398 48.2701 47.7995C46.3498 48.9214 44.4262 50.0399 42.5026 51.1551L39.8063 52.7238L38.9639 51.2577Z" fill="#02EB00"/>
<path d="M39.8029 52.7204L42.4992 51.1518C44.4228 50.0333 46.3431 48.9147 48.2667 47.7962C49.9084 46.8398 51.5468 45.8801 53.1852 44.9204C54.8799 43.9309 56.578 42.9381 58.2761 41.9486C59.9609 40.9658 61.6457 39.9829 63.3305 38.9967C63.5561 38.8644 63.775 38.7287 63.9972 38.5963L64.624 39.7413C63.5295 40.3701 62.4351 40.9956 61.3439 41.6276C59.6691 42.6006 57.9975 43.5768 56.326 44.5564C54.6312 45.5459 52.9364 46.5353 51.2384 47.5248C49.6 48.4812 47.9616 49.4409 46.3232 50.3973C44.6285 51.3868 42.9337 52.3763 41.2389 53.3657C40.9703 53.5213 40.7016 53.6801 40.433 53.8357L39.8029 52.7204Z" fill="#9CFF00"/>
<path d="M64.6276 39.7447L64.0008 38.5997C63.7189 38.1099 63.437 37.6201 63.1551 37.1303L62.9495 36.5909C63.2015 36.3526 63.5299 36.3162 63.8449 36.2567C64.6343 36.1078 65.4435 36.0614 66.2461 36.1177C66.5148 36.1375 66.7801 36.2137 67.0454 36.2666C67.3273 36.7895 67.6092 37.309 67.8945 37.8319C67.9807 37.9907 68.0603 38.1562 68.1631 38.3018C68.2394 38.4143 68.3488 38.5037 68.445 38.603C68.4649 38.9372 68.3256 39.2284 68.1863 39.5163C67.7618 40.3801 67.2013 41.1511 66.5711 41.8726C66.4617 41.9983 66.2693 42.0579 66.1168 42.1472C66.0073 42.0116 65.878 41.8891 65.7884 41.7435C65.3938 41.0783 65.0124 40.4098 64.6276 39.7447Z" fill="#02D3F7"/>
<path d="M32.9343 57.8728C33.4086 58.72 33.8829 59.5672 34.3571 60.4143C34.4434 60.5732 34.5163 60.7387 34.5926 60.9008C34.5462 60.924 34.4998 60.9538 34.4533 60.967C33.6043 61.1854 32.7519 61.3939 31.9029 61.6189C31.359 61.7645 30.8184 61.93 30.2778 62.0855C29.8665 61.384 29.4486 60.6824 29.044 59.9742C28.7953 59.5374 28.5598 59.0939 28.2878 58.5909L32.9343 57.8728Z" fill="#F8AF03"/>
<path d="M30.2777 62.0857C30.8183 61.9301 31.3589 61.7614 31.9028 61.6191C32.7519 61.394 33.6042 61.1855 34.4533 60.9671C34.503 60.9539 34.5461 60.9241 34.5926 60.9009C34.775 61.212 34.9607 61.5231 35.1431 61.8309C35.1099 62.036 34.9242 62.0261 34.7849 62.0757C33.5279 62.5291 32.271 62.9792 31.0107 63.4259C30.7686 62.9825 30.5231 62.5357 30.2777 62.0857Z" fill="#F4D102"/>
<path d="M37.7733 32.7983L37.4648 31.2164L38.158 30.8193L37.7434 28.708L39.0269 27.9766L39.4415 30.088L40.1048 29.7074L40.4133 31.2892L39.75 31.6698L40.2906 34.4298L40.9539 34.0492L41.2623 35.631L40.599 36.0116C40.2773 36.1936 39.9655 36.2267 39.6604 36.1043C39.3155 35.952 39.0966 35.6377 39.0037 35.1644L38.4631 32.4045L37.7733 32.7983Z" fill="#999999"/>
<path d="M40.9338 28.4102L40.6652 27.0368L41.9785 26.2856L42.2472 27.6589L40.9338 28.4102ZM42.2372 35.0751L41.0764 29.1481L42.3898 28.3969L43.5506 34.3239L42.2372 35.0751Z" fill="#999999"/>
<path d="M48.2274 20.1702L50.2505 30.4952L45.9124 32.9772C45.5808 33.1658 45.2591 33.2022 44.944 33.0864C44.5891 32.9408 44.3669 32.6297 44.274 32.1532L43.7334 29.3932C43.6107 28.771 43.6472 28.2747 43.8362 27.9073C43.9822 27.5996 44.2674 27.3282 44.6919 27.0866L47.8062 25.3062L46.9439 20.9081L48.2274 20.1702ZM48.1146 26.8847L45.0634 28.6321L45.604 31.392L48.6585 29.6447L48.1146 26.8847Z" fill="#999999"/>
<path d="M57.2451 28.6055C57.3446 29.1217 57.3413 29.5486 57.2285 29.8862C57.0991 30.3131 56.7841 30.6705 56.28 30.9584L53.5935 32.4939L53.3216 30.8492L55.9616 29.3368L55.5901 27.4373L52.5057 29.2011C52.0414 29.4659 51.6931 29.5519 51.4577 29.4593C51.2222 29.3666 51.0464 29.0357 50.9337 28.4599L50.0614 24.0055L51.3449 23.2709C51.3648 23.3768 51.65 24.8229 52.194 27.616L55.2784 25.8521L54.426 21.507L55.7095 20.7723L57.2451 28.6055Z" fill="#999999"/>
<path d="M61.5266 19.6241L61.4503 19.2369L58.4123 20.9743C58.9397 23.6714 59.2249 25.1241 59.2647 25.3359L57.9513 26.0871L56.7872 20.1403L61.1419 17.6683C61.6128 17.3969 61.9611 17.3043 62.1866 17.3837C62.4552 17.4763 62.6476 17.8106 62.7604 18.3864L62.8532 18.8629L61.5266 19.6241Z" fill="#999999"/>
</g>
<path d="M59.9351 11L18 35.2782V82.9258L59.9351 107.334L102 82.9258V35.2782L59.9351 11Z" stroke="#4D4D4D" stroke-width="2.3"/>
</svg>
