<svg width="17" height="49" viewBox="0 0 17 49" fill="none" xmlns="http://www.w3.org/2000/svg">
<path d="M9.5625 12.75V21.1756H17C17 16.8406 13.7594 13.2706 9.5625 12.75ZM0 27.5506C0 32.2469 3.80375 36.0506 8.5 36.0506C13.1963 36.0506 17 32.2469 17 27.5506V23.3006H0V27.5506ZM7.4375 12.75C3.24062 13.2706 0 16.8406 0 21.1756H7.4375V12.75Z" fill="#333333"/>
<path d="M8.94193 8.45167L8.94194 1.9778L11.7608 4.80614C11.9861 5.03217 12.3558 5.03217 12.581 4.80614C12.8063 4.5801 12.8063 4.21497 12.581 3.98894L8.77442 0.169526C8.54914 -0.0565089 8.18523 -0.0565089 7.95995 0.169526L4.15333 3.98893C3.92806 4.21497 3.92806 4.5801 4.15333 4.80614C4.37861 5.03217 4.74252 5.03217 4.9678 4.80614L7.78666 1.9778L7.78666 8.45167C7.78666 8.77044 8.0466 9.03125 8.3643 9.03125C8.682 9.03125 8.94193 8.77044 8.94193 8.45167Z" fill="#333333"/>
<path d="M7.79244 40.1577L7.79244 46.6316L4.97358 43.8032C4.7483 43.5772 4.37861 43.5772 4.15333 43.8032C3.92806 44.0293 3.92806 44.3944 4.15333 44.6204L7.95995 48.4398C8.18523 48.6659 8.54914 48.6659 8.77442 48.4398L12.581 44.6204C12.8063 44.3944 12.8063 44.0293 12.581 43.8032C12.3558 43.5772 11.9919 43.5772 11.7666 43.8032L8.94771 46.6316L8.94771 40.1577C8.94771 39.8389 8.68778 39.5781 8.37008 39.5781C8.05238 39.5781 7.79244 39.8389 7.79244 40.1577Z" fill="#333333"/>
</svg>
