<svg width="24" height="48" viewBox="0 0 24 48" fill="none" xmlns="http://www.w3.org/2000/svg">
<path d="M5.53646 0.363636H18.4635C19.7354 0.363636 20.812 1.30238 20.9853 2.56235L23.1853 18.5623C23.3955 20.0916 22.2072 21.4545 20.6635 21.4545H3.33646C1.79281 21.4545 0.604461 20.0916 0.814734 18.5624L3.01473 2.56236C3.18798 1.30238 4.26464 0.363636 5.53646 0.363636Z" fill="white"/>
<path d="M5.53646 0.363636H18.4635C19.7354 0.363636 20.812 1.30238 20.9853 2.56235L23.1853 18.5623C23.3955 20.0916 22.2072 21.4545 20.6635 21.4545H3.33646C1.79281 21.4545 0.604461 20.0916 0.814734 18.5624L3.01473 2.56236C3.18798 1.30238 4.26464 0.363636 5.53646 0.363636Z" stroke="black" stroke-width="0.727273"/>
<path d="M5.53646 0.363636H18.4635C19.7354 0.363636 20.812 1.30238 20.9853 2.56235L23.1853 18.5623C23.3955 20.0916 22.2072 21.4545 20.6635 21.4545H3.33646C1.79281 21.4545 0.604461 20.0916 0.814734 18.5624L3.01473 2.56236C3.18798 1.30238 4.26464 0.363636 5.53646 0.363636Z" stroke="black" stroke-opacity="0.2" stroke-width="0.727273"/>
<path d="M5.53646 0.363636H18.4635C19.7354 0.363636 20.812 1.30238 20.9853 2.56235L23.1853 18.5623C23.3955 20.0916 22.2072 21.4545 20.6635 21.4545H3.33646C1.79281 21.4545 0.604461 20.0916 0.814734 18.5624L3.01473 2.56236C3.18798 1.30238 4.26464 0.363636 5.53646 0.363636Z" stroke="black" stroke-opacity="0.2" stroke-width="0.727273"/>
<path d="M12.5245 14.7593L12.5245 9.02467L15.0972 11.53C15.3028 11.7303 15.6402 11.7303 15.8458 11.53C16.0514 11.3298 16.0514 11.0064 15.8458 10.8062L12.3717 7.42287C12.1661 7.22265 11.8339 7.22265 11.6283 7.42287L8.1542 10.8062C7.9486 11.0064 7.9486 11.3298 8.1542 11.53C8.3598 11.7303 8.69193 11.7303 8.89753 11.53L11.4702 9.02467L11.4702 14.7593C11.4702 15.0417 11.7074 15.2727 11.9974 15.2727C12.2873 15.2727 12.5245 15.0417 12.5245 14.7593Z" fill="#333333"/>
<path d="M18.4635 47.6364L5.53646 47.6364C4.26464 47.6364 3.18798 46.6976 3.01473 45.4376L0.814737 29.4376C0.604463 27.9084 1.79281 26.5455 3.33646 26.5455L20.6635 26.5455C22.2072 26.5455 23.3955 27.9084 23.1853 29.4376L20.9853 45.4376C20.812 46.6976 19.7354 47.6364 18.4635 47.6364Z" fill="white"/>
<path d="M18.4635 47.6364L5.53646 47.6364C4.26464 47.6364 3.18798 46.6976 3.01473 45.4376L0.814737 29.4376C0.604463 27.9084 1.79281 26.5455 3.33646 26.5455L20.6635 26.5455C22.2072 26.5455 23.3955 27.9084 23.1853 29.4376L20.9853 45.4376C20.812 46.6976 19.7354 47.6364 18.4635 47.6364Z" stroke="black" stroke-width="0.727273"/>
<path d="M18.4635 47.6364L5.53646 47.6364C4.26464 47.6364 3.18798 46.6976 3.01473 45.4376L0.814737 29.4376C0.604463 27.9084 1.79281 26.5455 3.33646 26.5455L20.6635 26.5455C22.2072 26.5455 23.3955 27.9084 23.1853 29.4376L20.9853 45.4376C20.812 46.6976 19.7354 47.6364 18.4635 47.6364Z" stroke="black" stroke-opacity="0.2" stroke-width="0.727273"/>
<path d="M18.4635 47.6364L5.53646 47.6364C4.26464 47.6364 3.18798 46.6976 3.01473 45.4376L0.814737 29.4376C0.604463 27.9084 1.79281 26.5455 3.33646 26.5455L20.6635 26.5455C22.2072 26.5455 23.3955 27.9084 23.1853 29.4376L20.9853 45.4376C20.812 46.6976 19.7354 47.6364 18.4635 47.6364Z" stroke="black" stroke-opacity="0.2" stroke-width="0.727273"/>
<path d="M11.4755 33.2407L11.4755 38.9753L8.9028 36.47C8.6972 36.2697 8.3598 36.2697 8.1542 36.47C7.9486 36.6702 7.9486 36.9936 8.1542 37.1938L11.6283 40.5771C11.8339 40.7774 12.1661 40.7774 12.3717 40.5771L15.8458 37.1938C16.0514 36.9936 16.0514 36.6702 15.8458 36.47C15.6402 36.2697 15.3081 36.2697 15.1025 36.47L12.5298 38.9753L12.5298 33.2407C12.5298 32.9583 12.2926 32.7273 12.0026 32.7273C11.7127 32.7273 11.4755 32.9583 11.4755 33.2407Z" fill="#333333"/>
</svg>
